<?xml version="1.0" encoding="utf-8"?>
<!-- Generator: Adobe Illustrator 27.3.1, SVG Export Plug-In . SVG Version: 6.00 Build 0)  -->
<svg version="1.1" id="Gruppe_294" xmlns="http://www.w3.org/2000/svg" xmlns:xlink="http://www.w3.org/1999/xlink" x="0px" y="0px"
	 viewBox="0 0 13.1 9.1" style="enable-background:new 0 0 13.1 9.1;" xml:space="preserve">
<style type="text/css">
	.st0{clip-path:url(#SVGID_00000174579555006883055920000003238087188531038633_);}
	.st1{fill:#A7A6B1;}
</style>
<g>
	<g>
		<defs>
			<rect id="SVGID_1_" x="0.8" y="1.8" transform="matrix(0.7986 -0.6019 0.6019 0.7986 -1.688 5.4753)" width="13.1" height="7"/>
		</defs>
		<clipPath id="SVGID_00000017501458170783633220000007223192954692153262_">
			<use xlink:href="#SVGID_1_"  style="overflow:visible;"/>
		</clipPath>
		<g id="Gruppe_174" style="clip-path:url(#SVGID_00000017501458170783633220000007223192954692153262_);">
			<path id="Pfad_161" class="st1" d="M0.8,7.3c1.7,0.8,3.9,0.5,5.6-0.2C8.1,6.5,9.6,5.4,10.8,4l-0.1,1.5c0.1,0.5,0.5,0.8,0.9,0.8
				c0.4,0,0.8-0.5,0.7-0.9l-0.1-4.3c0-0.4-0.5-0.8-0.9-0.7c-0.1,0-0.3,0-0.3,0.1c-0.5,0.4-1,0.6-1.7,0.7C9.1,1.4,9,1.4,8.8,1.4
				c-0.1,0-0.2,0.1-0.4,0c-0.2,0-0.3-0.1-0.5-0.1c-0.1,0-0.2,0-0.2,0l-0.1,0l-0.1,0c-0.4-0.2-0.9,0-1.1,0.4s0,0.9,0.4,1.1
				C7.7,3.1,8.6,3.1,9.4,3C8.5,4.1,7.3,5,5.9,5.6C4.5,6.3,2.8,6.4,1.4,5.8C0.6,5.4-0.1,6.9,0.8,7.3"/>
		</g>
	</g>
</g>
</svg>
