<?xml version="1.0" encoding="utf-8"?>
<!-- Generator: Adobe Illustrator 26.4.1, SVG Export Plug-In . SVG Version: 6.00 Build 0)  -->
<svg version="1.1" id="Gruppe_294" xmlns="http://www.w3.org/2000/svg" xmlns:xlink="http://www.w3.org/1999/xlink" x="0px" y="0px"
	 viewBox="0 0 13.1 9.1" style="enable-background:new 0 0 13.1 9.1;" xml:space="preserve">
<style type="text/css">
	.st0{clip-path:url(#SVGID_00000041988053146573543230000000439530915758936739_);}
	.st1{fill:#A7A6B1;}
</style>
<g>
	<defs>
		<rect id="SVGID_1_" x="-1" y="0" transform="matrix(0.6812 -0.7321 0.7321 0.6812 -0.7986 5.166)" width="13.1" height="7"/>
	</defs>
	<clipPath id="SVGID_00000085218835683594373850000004668052508755815357_">
		<use xlink:href="#SVGID_1_"  style="overflow:visible;"/>
	</clipPath>
	<g id="Gruppe_174" style="clip-path:url(#SVGID_00000085218835683594373850000004668052508755815357_);">
		<path id="Pfad_161" class="st1" d="M11.6,0.3C9.8-0.2,7.7,0.5,6.1,1.5C4.6,2.4,3.3,3.7,2.4,5.3L2.2,3.8C2,3.3,1.6,3.1,1.2,3.2
			c-0.4,0.1-0.7,0.6-0.5,1l0.8,4.2c0.1,0.4,0.6,0.7,1,0.5c0.1,0,0.3-0.1,0.3-0.2c0.4-0.5,0.9-0.8,1.5-1c0.2-0.1,0.3-0.1,0.5-0.2
			c0.1,0,0.2-0.1,0.4-0.1c0.2,0,0.3,0,0.5,0c0.1,0,0.2,0,0.2,0l0.1,0c0,0,0.1,0,0.1,0c0.4,0.1,0.9-0.2,1-0.6c0.1-0.4-0.2-0.9-0.6-1
			c-0.9-0.1-1.8,0-2.6,0.3c0.7-1.3,1.7-2.4,3-3.2c1.3-0.9,2.9-1.3,4.4-1C12.2,2.2,12.6,0.6,11.6,0.3"/>
	</g>
</g>
</svg>
