<svg xmlns="http://www.w3.org/2000/svg" width="11.865" height="11.855" viewBox="0 0 11.865 11.855">
  <path id="Icon_metro-warning" data-name="Icon metro-warning" d="M8.4,2.984l4.884,9.734H3.514L8.4,2.984Zm0-1.056a.842.842,0,0,0-.693.508L2.731,12.351c-.381.678-.057,1.232.72,1.232h9.894c.777,0,1.1-.554.72-1.232h0L9.091,2.436A.842.842,0,0,0,8.4,1.928ZM9.126,11.4a.728.728,0,1,1-.728-.728A.728.728,0,0,1,9.126,11.4ZM8.4,9.941a.728.728,0,0,1-.728-.728V7.027a.728.728,0,1,1,1.457,0V9.212A.728.728,0,0,1,8.4,9.941Z" transform="translate(-2.466 -1.828)" fill="#fcfcfb" stroke="#fcfcfb" stroke-width="0.2"/>
</svg>
