<svg id="Gruppe_1047" data-name="Gruppe 1047" xmlns="http://www.w3.org/2000/svg" xmlns:xlink="http://www.w3.org/1999/xlink" width="18.633" height="21.888" viewBox="0 0 18.633 21.888">
  <defs>
    <clipPath id="clip-path">
      <rect id="Rechteck_463" data-name="Rechteck 463" width="18.633" height="21.888" fill="#fcfcfb"/>
    </clipPath>
  </defs>
  <g id="Gruppe_997" data-name="Gruppe 997" clip-path="url(#clip-path)">
    <path id="Pfad_1364" data-name="Pfad 1364" d="M13.262,19.767l.8-2.532a1.4,1.4,0,0,0-.8,2.532" transform="translate(-6.775 -9.208)" fill="#fcfcfb"/>
    <path id="Pfad_1365" data-name="Pfad 1365" d="M17.091,18.633a1.4,1.4,0,0,0-1.382-1.4l.8,2.534a1.4,1.4,0,0,0,.586-1.136" transform="translate(-8.392 -9.208)" fill="#fcfcfb"/>
    <path id="Pfad_1366" data-name="Pfad 1366" d="M14.034,25.068l-.954,3.02a3.735,3.735,0,0,0,1.2.2h0a3.744,3.744,0,0,0,1.2-.2l-.947-3.024a2.159,2.159,0,0,1-.5,0" transform="translate(-6.988 -13.393)" fill="#fcfcfb"/>
    <path id="Pfad_1367" data-name="Pfad 1367" d="M14.054,8.922H.466A.466.466,0,0,0,0,9.388v16.8a.466.466,0,0,0,.466.466H14.054a.466.466,0,0,0,.466-.466V9.388a.466.466,0,0,0-.466-.466M10.487,24.241l-.039.014a.429.429,0,0,1-.543-.285L8.759,20.3a4.652,4.652,0,0,1-2.924-.007L4.676,23.963a.443.443,0,0,1-.554.285.434.434,0,0,1-.253-.216.439.439,0,0,1-.026-.332l1.189-3.762a4.64,4.64,0,0,1-.428-.27l-.022-.016a.435.435,0,0,1,.208-.775.433.433,0,0,1,.322.086c.058.041.121.083.19.125l.918-2.91a2.226,2.226,0,0,1-.521-.391,2.264,2.264,0,0,1,1.174-3.818v-.233a.434.434,0,1,1,.869,0v.231a2.261,2.261,0,0,1,.643,4.213l.905,2.91c.069-.043.133-.084.192-.127A.445.445,0,0,1,9.8,18.89a.435.435,0,0,1,.282.177.435.435,0,0,1-.1.606,4.659,4.659,0,0,1-.428.269l1.176,3.768-.092.029h0l.093-.029a.432.432,0,0,1-.249.53" transform="translate(0 -4.767)" fill="#fcfcfb"/>
    <path id="Pfad_1368" data-name="Pfad 1368" d="M19.077,22.117a.466.466,0,0,1-.466-.466V5.317H5.992a.466.466,0,0,1,0-.932H19.077a.466.466,0,0,1,.466.466v16.8a.466.466,0,0,1-.466.466" transform="translate(-2.952 -2.343)" fill="#fcfcfb"/>
    <path id="Pfad_1369" data-name="Pfad 1369" d="M23.463,17.732A.466.466,0,0,1,23,17.266V.932H10.378a.466.466,0,1,1,0-.932H23.463a.466.466,0,0,1,.466.466v16.8a.466.466,0,0,1-.466.466" transform="translate(-5.295 0)" fill="#fcfcfb"/>
  </g>
</svg>
