<svg xmlns="http://www.w3.org/2000/svg" width="15" height="15" viewBox="0 0 15 15">
  <g id="Gruppe_933" data-name="Gruppe 933" transform="translate(-150 -83)">
    <path id="Icon_awesome-layer-group" data-name="Icon awesome-layer-group" d="M.363,4.336l6.824,3.1a.75.75,0,0,0,.624,0l6.824-3.1a.655.655,0,0,0,0-1.173L7.812.067a.75.75,0,0,0-.624,0L.363,3.163a.655.655,0,0,0,0,1.173ZM14.636,6.922l-1.7-.771L8.2,8.3a1.689,1.689,0,0,1-1.4,0L2.066,6.151l-1.7.771a.654.654,0,0,0,0,1.172l6.824,3.093a.752.752,0,0,0,.624,0l6.825-3.093a.654.654,0,0,0,0-1.172Zm0,3.744-1.7-.768L8.2,12.048a1.689,1.689,0,0,1-1.4,0L2.059,9.9l-1.7.768a.654.654,0,0,0,0,1.172l6.824,3.093a.752.752,0,0,0,.624,0l6.825-3.093a.654.654,0,0,0,0-1.172Z" transform="translate(150 83)" fill="#f46b72"/>
  </g>
</svg>
