<svg xmlns="http://www.w3.org/2000/svg" width="19.663" height="10.366" viewBox="0 0 19.663 10.366">
  <g id="Gruppe_549" data-name="Gruppe 549" transform="translate(0.5 0.5)">
    <path id="Pfad_825" data-name="Pfad 825" d="M39.222,8.08c0,.044,0,.087,0,.131a2.062,2.062,0,0,1-4.114.035c-.006-.055-.007-.111-.007-.166a2.062,2.062,0,0,1,4.125,0Z" transform="translate(-27.828 -4.949)" fill="none" stroke="#3017ad" stroke-miterlimit="10" stroke-width="1"/>
    <path id="Pfad_826" data-name="Pfad 826" d="M29.942,27.632a3.411,3.411,0,0,1-1.544-.539,2.789,2.789,0,0,0-1.941,2.558v.637a.651.651,0,0,0,.689.609h6.431a.653.653,0,0,0,.691-.609v-.637a2.789,2.789,0,0,0-1.941-2.558,3.424,3.424,0,0,1-1.527.537Z" transform="translate(-21.03 -21.53)" fill="none" stroke="#3017ad" stroke-linecap="round" stroke-miterlimit="10" stroke-width="1"/>
    <path id="Pfad_827" data-name="Pfad 827" d="M64.674,3.061c0,.044,0,.087,0,.131a2.062,2.062,0,0,1-4.114.035c-.006-.055-.007-.111-.007-.166a2.062,2.062,0,0,1,4.125,0Z" transform="translate(-47.854 -1)" fill="none" stroke="#3017ad" stroke-miterlimit="10" stroke-width="1"/>
    <path id="Pfad_828" data-name="Pfad 828" d="M56.371,25.877h4.723a.653.653,0,0,0,.691-.609v-.637a2.788,2.788,0,0,0-1.941-2.558,3.424,3.424,0,0,1-1.527.537l-.858,0a3.41,3.41,0,0,1-1.544-.539,3.1,3.1,0,0,0-1.381.98" transform="translate(-43.122 -17.581)" fill="none" stroke="#3017ad" stroke-linecap="round" stroke-miterlimit="10" stroke-width="1"/>
    <path id="Pfad_829" data-name="Pfad 829" d="M13.765,3.061c0,.044,0,.087,0,.131a2.062,2.062,0,0,1-4.114.035c-.006-.055-.007-.111-.007-.166a2.062,2.062,0,0,1,4.125,0Z" transform="translate(-7.798 -1)" fill="none" stroke="#3017ad" stroke-miterlimit="10" stroke-width="1"/>
    <path id="Pfad_830" data-name="Pfad 830" d="M8.326,23.155a3.076,3.076,0,0,0-1.457-1.081,3.426,3.426,0,0,1-1.527.537l-.858,0a3.411,3.411,0,0,1-1.544-.539A2.788,2.788,0,0,0,1,24.632v.637a.651.651,0,0,0,.689.609H6.326" transform="translate(-1 -17.581)" fill="none" stroke="#3017ad" stroke-linecap="round" stroke-miterlimit="10" stroke-width="1"/>
  </g>
</svg>
