<svg xmlns="http://www.w3.org/2000/svg" width="16.796" height="17.038" viewBox="0 0 16.796 17.038">
  <g id="Gruppe_592" data-name="Gruppe 592" transform="translate(-359.06 -245.099)">
    <path id="Pfad_1070" data-name="Pfad 1070" d="M376.669,251.276l-.572,11.958a1.644,1.644,0,0,1-1.641,1.566H368.27a1.645,1.645,0,0,1-1.641-1.542l-.75-11.982Z" transform="translate(-3.817 -3.413)" fill="none" stroke="#fcfcfb" stroke-linecap="round" stroke-linejoin="round" stroke-width="1.5"/>
    <line id="Linie_371" data-name="Linie 371" x2="2.254" transform="translate(372.852 247.864)" fill="none" stroke="#fcfcfb" stroke-linecap="round" stroke-linejoin="round" stroke-width="1.5"/>
    <line id="Linie_372" data-name="Linie 372" x2="2.254" transform="translate(359.81 247.864)" fill="none" stroke="#fcfcfb" stroke-linecap="round" stroke-linejoin="round" stroke-width="1.5"/>
    <line id="Linie_373" data-name="Linie 373" x2="0.597" y2="9.131" transform="translate(364.666 249.643)" fill="none" stroke="#fcfcfb" stroke-linecap="round" stroke-linejoin="round" stroke-width="1.5"/>
    <line id="Linie_374" data-name="Linie 374" x1="0.452" y2="9.139" transform="translate(370.148 249.639)" fill="none" stroke="#fcfcfb" stroke-linecap="round" stroke-linejoin="round" stroke-width="1.5"/>
    <line id="Linie_375" data-name="Linie 375" x1="0.019" y2="9.15" transform="translate(367.696 249.633)" fill="none" stroke="#fcfcfb" stroke-linecap="round" stroke-linejoin="round" stroke-width="1.5"/>
    <path id="Pfad_1071" data-name="Pfad 1071" d="M372.653,247.863l.325-.96a1.562,1.562,0,0,1,1.475-1.054h2.5a1.557,1.557,0,0,1,1.448.981l.409,1.033" transform="translate(-8.077 0)" fill="none" stroke="#fcfcfb" stroke-linecap="round" stroke-linejoin="round" stroke-width="1.5"/>
  </g>
</svg>
