<svg xmlns="http://www.w3.org/2000/svg" xmlns:xlink="http://www.w3.org/1999/xlink" width="13.065" height="7" viewBox="0 0 13.065 7">
  <defs>
    <clipPath id="clip-path">
      <rect id="Rechteck_147" data-name="Rechteck 147" width="13.065" height="7" fill="#a7a6b1"/>
    </clipPath>
  </defs>
  <g id="Gruppe_174" data-name="Gruppe 174" clip-path="url(#clip-path)">
    <path id="Pfad_161" data-name="Pfad 161" d="M.092,5.782C.947,4.064,2.927,3.046,4.7,2.543a10.282,10.282,0,0,1,5.25-.082l-.93-1.254a.808.808,0,0,1,.288-1.1A.821.821,0,0,1,10.4.4l2.535,3.416a.807.807,0,0,1-.693,1.207,3.8,3.8,0,0,0-1.773.395,4.723,4.723,0,0,0-.462.269,1.939,1.939,0,0,0-.3.22,4.507,4.507,0,0,0-.356.34c-.056.06-.109.123-.163.184l-.047.057c-.026.035-.052.071-.077.107a.824.824,0,0,1-1.1.288.809.809,0,0,1-.288-1.1A5.628,5.628,0,0,1,9.655,4.044a8.658,8.658,0,0,0-4.4.012A5.75,5.75,0,0,0,1.478,6.592c-.46.925-1.845.113-1.386-.81" transform="translate(-0.001 0)" fill="#a7a6b1"/>
  </g>
</svg>
