<svg xmlns="http://www.w3.org/2000/svg" width="18.122" height="19.178" viewBox="0 0 18.122 19.178">
  <g id="Gruppe_741" data-name="Gruppe 741" transform="translate(-105.81 -4080.822)">
    <g id="tag" transform="translate(105.81 4086)">
      <g id="Rechteck_394" data-name="Rechteck 394" fill="rgba(48,23,173,0.1)" stroke="#3017ad" stroke-width="1">
        <rect width="14" height="14" rx="3" stroke="none"/>
        <rect x="0.5" y="0.5" width="13" height="13" rx="2.5" fill="none"/>
      </g>
      <path id="Icon_material-tune" data-name="Icon material-tune" d="M4.5,10.823v.9H7.21v-.9Zm0-5.42v.9H9.017V5.4ZM9.017,12.63v-.9H12.63v-.9H9.017v-.9h-.9v2.71ZM6.307,7.21v.9H4.5v.9H6.307v.9h.9V7.21ZM12.63,9.017v-.9H8.113v.9ZM9.92,7.21h.9v-.9H12.63V5.4H10.823V4.5h-.9Z" transform="translate(-1.565 -1.565)" fill="#3017ad"/>
    </g>
    <rect id="Rechteck_396" data-name="Rechteck 396" width="15.453" height="9" rx="4.5" transform="translate(108.411 4094.205) rotate(-60)" fill="#fff"/>
    <path id="Icon_awesome-link" data-name="Icon awesome-link" d="M6.664,3.783a3.1,3.1,0,0,1,.007,4.379l-.007.008L5.293,9.54A3.1,3.1,0,0,1,.907,5.154L1.664,4.4a.326.326,0,0,1,.557.216,3.76,3.76,0,0,0,.2,1.076.328.328,0,0,1-.077.339L2.075,6.3A1.469,1.469,0,1,0,4.139,8.386L5.51,7.015a1.469,1.469,0,0,0,0-2.078A1.529,1.529,0,0,0,5.3,4.762a.327.327,0,0,1-.142-.257A.813.813,0,0,1,5.4,3.9l.43-.43a.328.328,0,0,1,.42-.035,3.111,3.111,0,0,1,.419.351ZM9.54.907a3.1,3.1,0,0,0-4.386,0L3.783,2.278l-.007.008A3.1,3.1,0,0,0,4.2,7.015a.328.328,0,0,0,.42-.035l.43-.43a.813.813,0,0,0,.239-.608.327.327,0,0,0-.142-.257,1.529,1.529,0,0,1-.211-.175,1.469,1.469,0,0,1,0-2.078L6.308,2.061A1.469,1.469,0,1,1,8.373,4.152l-.267.267a.328.328,0,0,0-.077.339,3.76,3.76,0,0,1,.2,1.076.326.326,0,0,0,.557.216l.757-.757a3.1,3.1,0,0,0,0-4.386Z" transform="matrix(0.966, -0.259, 0.259, 0.966, 109.637, 4086.306)" fill="#3017ad" stroke="#fcfcfb" stroke-width="0.3"/>
  </g>
</svg>
