<svg xmlns="http://www.w3.org/2000/svg" width="13.163" height="13.163" viewBox="0 0 13.163 13.163">
  <defs>
    <style>
      .cls-1 {
        fill: #fcfcfb;
        stroke: #fcfcfb;
        stroke-width: 0.3px;
      }
    </style>
  </defs>
  <path id="Icon_awesome-link" data-name="Icon awesome-link" class="cls-1" d="M6.664,3.783a3.1,3.1,0,0,1,.007,4.379l-.007.008L5.293,9.54A3.1,3.1,0,0,1,.907,5.154L1.664,4.4a.326.326,0,0,1,.557.216,3.76,3.76,0,0,0,.2,1.076.328.328,0,0,1-.077.339L2.075,6.3A1.469,1.469,0,1,0,4.139,8.386L5.51,7.015a1.469,1.469,0,0,0,0-2.078A1.529,1.529,0,0,0,5.3,4.762a.327.327,0,0,1-.142-.257A.813.813,0,0,1,5.4,3.9l.43-.43a.328.328,0,0,1,.42-.035,3.111,3.111,0,0,1,.419.351ZM9.54.907a3.1,3.1,0,0,0-4.386,0L3.783,2.278l-.007.008A3.1,3.1,0,0,0,4.2,7.015a.328.328,0,0,0,.42-.035l.43-.43a.813.813,0,0,0,.239-.608.327.327,0,0,0-.142-.257,1.529,1.529,0,0,1-.211-.175,1.469,1.469,0,0,1,0-2.078L6.308,2.061A1.469,1.469,0,1,1,8.373,4.152l-.267.267a.328.328,0,0,0-.077.339,3.76,3.76,0,0,1,.2,1.076.326.326,0,0,0,.557.216l.757-.757a3.1,3.1,0,0,0,0-4.386Z" transform="matrix(0.966, -0.259, 0.259, 0.966, 0.184, 2.888)"/>
</svg>
