<svg xmlns="http://www.w3.org/2000/svg" xmlns:xlink="http://www.w3.org/1999/xlink" width="20.703" height="24.32" viewBox="0 0 20.703 24.32">
  <defs>
    <clipPath id="clip-path">
      <rect id="Rechteck_463" data-name="Rechteck 463" width="20.703" height="24.32" fill="#27233c"/>
    </clipPath>
  </defs>
  <g id="Gruppe_997" data-name="Gruppe 997" clip-path="url(#clip-path)">
    <path id="Pfad_1364" data-name="Pfad 1364" d="M13.326,20.048l.884-2.813a1.553,1.553,0,0,0-.884,2.813" transform="translate(-6.119 -8.316)" fill="#27233c"/>
    <path id="Pfad_1365" data-name="Pfad 1365" d="M17.245,18.789a1.555,1.555,0,0,0-1.536-1.554l.884,2.815a1.559,1.559,0,0,0,.652-1.262" transform="translate(-7.58 -8.316)" fill="#27233c"/>
    <path id="Pfad_1366" data-name="Pfad 1366" d="M14.14,25.068l-1.06,3.356a4.15,4.15,0,0,0,1.335.221h0a4.16,4.16,0,0,0,1.332-.217L14.7,25.068a2.4,2.4,0,0,1-.558,0" transform="translate(-6.311 -12.095)" fill="#27233c"/>
    <path id="Pfad_1367" data-name="Pfad 1367" d="M15.615,8.922H.518A.518.518,0,0,0,0,9.44V28.107a.518.518,0,0,0,.518.518h15.1a.517.517,0,0,0,.518-.518V9.44a.517.517,0,0,0-.518-.518M11.652,25.943l-.043.015a.476.476,0,0,1-.6-.316L9.733,21.562a5.169,5.169,0,0,1-3.249-.008L5.2,25.634a.492.492,0,0,1-.616.316.482.482,0,0,1-.281-.24.487.487,0,0,1-.028-.368l1.321-4.18a5.155,5.155,0,0,1-.476-.3l-.025-.018a.484.484,0,0,1,.231-.861.482.482,0,0,1,.358.1c.065.046.134.092.211.139l1.019-3.233a2.473,2.473,0,0,1-.579-.434,2.516,2.516,0,0,1,1.3-4.242v-.259a.483.483,0,1,1,.965,0v.257a2.512,2.512,0,0,1,.715,4.681l1.006,3.233c.077-.048.147-.093.213-.141a.5.5,0,0,1,.36-.082.483.483,0,0,1,.314.2.484.484,0,0,1-.114.674,5.177,5.177,0,0,1-.476.3l1.307,4.187-.1.032h0l.1-.032a.48.48,0,0,1-.277.588" transform="translate(0 -4.305)" fill="#27233c"/>
    <path id="Pfad_1368" data-name="Pfad 1368" d="M20.582,24.087a.517.517,0,0,1-.518-.518V5.42H6.044a.518.518,0,0,1,0-1.035H20.582A.517.517,0,0,1,21.1,4.9V23.57a.517.517,0,0,1-.518.518" transform="translate(-2.666 -2.116)" fill="#27233c"/>
    <path id="Pfad_1369" data-name="Pfad 1369" d="M24.968,19.7a.517.517,0,0,1-.518-.518V1.035H10.43A.518.518,0,1,1,10.43,0H24.968a.517.517,0,0,1,.518.518V19.185a.517.517,0,0,1-.518.518" transform="translate(-4.782 0)" fill="#27233c"/>
  </g>
</svg>
