<svg id="icon_warning" data-name="icon–warning" xmlns="http://www.w3.org/2000/svg" width="45" height="45" viewBox="0 0 45 45">
  <defs>
    <style>
      .cls-1 {
        fill: #b9acf7;
      }

      .cls-2 {
        fill: #3017ad;
      }

      .cls-3 {
        fill: #fcfcfb;
      }

      .cls-4 {
        fill: #f46b71;
      }

      .cls-5, .cls-6 {
        stroke: none;
      }

      .cls-6 {
        fill: #b9abf7;
      }
    </style>
  </defs>
  <g id="Gruppe_642" data-name="Gruppe 642">
    <circle id="Bildschirmfoto_2022-08-28_um_10.42.36" data-name="Bildschirmfoto 2022-08-28 um 10.42.36" class="cls-1" cx="22.5" cy="22.5" r="22.5"/>
  </g>
  <g id="clock" transform="translate(9.5 6.835)">
    <path id="Pfad_1078" data-name="Pfad 1078" class="cls-2" d="M13.124,13.124h0A13.139,13.139,0,0,0,26.231,0H13.106A13.139,13.139,0,0,0,0,13.124Z" transform="translate(13.124 28.419) rotate(-90)"/>
    <path id="Pfad_1079" data-name="Pfad 1079" class="cls-3" d="M13.124,0h0A13.139,13.139,0,0,1,26.231,13.124H13.106A13.139,13.139,0,0,1,0,0Z" transform="translate(0 28.428) rotate(-90)"/>
    <g id="Pfad_1500" data-name="Pfad 1500" class="cls-4" transform="translate(17.07)">
      <path class="cls-5" d="M 5.471749305725098 10.19349956512451 C 2.86816930770874 10.19349956512451 0.7499992847442627 8.075329780578613 0.7499992847442627 5.471749305725098 C 0.7499992847442627 2.86816930770874 2.86816930770874 0.7499992847442627 5.471749305725098 0.7499992847442627 C 8.075329780578613 0.7499992847442627 10.19349956512451 2.86816930770874 10.19349956512451 5.471749305725098 C 10.19349956512451 8.075329780578613 8.075329780578613 10.19349956512451 5.471749305725098 10.19349956512451 Z"/>
      <path class="cls-6" d="M 5.471749305725098 1.499999046325684 C 3.281719207763672 1.499999046325684 1.499999046325684 3.281719207763672 1.499999046325684 5.471749305725098 C 1.499999046325684 7.661779403686523 3.281719207763672 9.443499565124512 5.471749305725098 9.443499565124512 C 7.661779403686523 9.443499565124512 9.443499565124512 7.661779403686523 9.443499565124512 5.471749305725098 C 9.443499565124512 3.281719207763672 7.661779403686523 1.499999046325684 5.471749305725098 1.499999046325684 M 5.471749305725098 -9.5367431640625e-07 C 8.493709564208984 -9.5367431640625e-07 10.94349956512451 2.449789047241211 10.94349956512451 5.471749305725098 C 10.94349956512451 8.493709564208984 8.493709564208984 10.94349956512451 5.471749305725098 10.94349956512451 C 2.449789047241211 10.94349956512451 -9.5367431640625e-07 8.493709564208984 -9.5367431640625e-07 5.471749305725098 C -9.5367431640625e-07 2.449789047241211 2.449789047241211 -9.5367431640625e-07 5.471749305725098 -9.5367431640625e-07 Z"/>
    </g>
  </g>
</svg>
