<svg xmlns="http://www.w3.org/2000/svg" width="16.802" height="11.871" viewBox="0 0 16.802 11.871">
  <g id="Gruppe_382" data-name="Gruppe 382" transform="translate(-107.078 -243.867)">
    <g id="Gruppe_483" data-name="Gruppe 483" transform="translate(107.098 243.886)">
      <g id="Gruppe_550" data-name="Gruppe 550" transform="translate(0.481 0.481)">
        <path id="Pfad_818" data-name="Pfad 818" d="M4.006,18.9a3.006,3.006,0,0,0,0,6.012Z" transform="translate(-1 -14.038)" fill="none" stroke="#a7a6b1" stroke-linecap="round" stroke-miterlimit="10" stroke-width="1"/>
        <path id="Pfad_819" data-name="Pfad 819" d="M12.073,5.893a4.892,4.892,0,0,1,9.784,0" transform="translate(-9.067 -1.001)" fill="none" stroke="#a7a6b1" stroke-linecap="round" stroke-miterlimit="10" stroke-width="1"/>
        <line id="Linie_187" data-name="Linie 187" y2="6.061" transform="translate(3.952 4.809)" fill="none" stroke="#a7a6b1" stroke-linecap="round" stroke-miterlimit="10" stroke-width="1"/>
        <path id="Pfad_820" data-name="Pfad 820" d="M48.136,24.729a3.006,3.006,0,0,0,0-6.012Z" transform="translate(-35.34 -13.907)" fill="none" stroke="#a7a6b1" stroke-linecap="round" stroke-miterlimit="10" stroke-width="1"/>
        <line id="Linie_188" data-name="Linie 188" y1="6.061" transform="translate(11.851 4.809)" fill="none" stroke="#a7a6b1" stroke-linecap="round" stroke-miterlimit="10" stroke-width="1"/>
        <path id="Pfad_821" data-name="Pfad 821" d="M38.836,29.109a1.065,1.065,0,0,1-.3-.794,1.112,1.112,0,0,1,.255-.747" transform="translate(-28.343 -20.355)" fill="none" stroke="#a7a6b1" stroke-linecap="round" stroke-miterlimit="10" stroke-width="1"/>
        <path id="Pfad_822" data-name="Pfad 822" d="M35.661,27.81a2.13,2.13,0,0,1-.608-1.589,2.223,2.223,0,0,1,.511-1.494" transform="translate(-25.808 -18.286)" fill="none" stroke="#a7a6b1" stroke-linecap="round" stroke-miterlimit="10" stroke-width="1"/>
        <path id="Pfad_823" data-name="Pfad 823" d="M20.533,29.109a1.065,1.065,0,0,0,.3-.794,1.112,1.112,0,0,0-.255-.747" transform="translate(-15.23 -20.355)" fill="none" stroke="#a7a6b1" stroke-linecap="round" stroke-miterlimit="10" stroke-width="1"/>
        <path id="Pfad_824" data-name="Pfad 824" d="M22.894,27.81a2.13,2.13,0,0,0,.608-1.589,2.223,2.223,0,0,0-.511-1.494" transform="translate(-16.95 -18.286)" fill="none" stroke="#a7a6b1" stroke-linecap="round" stroke-miterlimit="10" stroke-width="1"/>
      </g>
    </g>
  </g>
</svg>
