<svg xmlns="http://www.w3.org/2000/svg" width="19.182" height="10.124" viewBox="0 0 19.182 10.124">
  <g id="Gruppe_555" data-name="Gruppe 555" transform="translate(0.128 0.128)">
    <g id="Gruppe_549" data-name="Gruppe 549" transform="translate(0.372 0.372)">
      <path id="Pfad_825" data-name="Pfad 825" d="M39.116,8.027c0,.043,0,.085,0,.128a2.009,2.009,0,0,1-4.008.034c-.005-.054-.007-.108-.007-.162a2.009,2.009,0,0,1,4.019,0Z" transform="translate(-28.015 -4.977)" fill="none" stroke="#a7a6b1" stroke-miterlimit="10" stroke-width="1"/>
      <path id="Pfad_826" data-name="Pfad 826" d="M29.852,27.618a3.323,3.323,0,0,1-1.5-.525,2.717,2.717,0,0,0-1.891,2.492v.62a.634.634,0,0,0,.671.593h6.265a.636.636,0,0,0,.673-.593v-.62a2.717,2.717,0,0,0-1.891-2.492,3.336,3.336,0,0,1-1.488.523Z" transform="translate(-21.17 -21.674)" fill="none" stroke="#a7a6b1" stroke-linecap="round" stroke-miterlimit="10" stroke-width="1"/>
      <path id="Pfad_827" data-name="Pfad 827" d="M64.568,3.008c0,.043,0,.085,0,.128a2.009,2.009,0,0,1-4.008.034c-.005-.054-.007-.108-.007-.162a2.009,2.009,0,0,1,4.019,0Z" transform="translate(-48.181 -1)" fill="none" stroke="#a7a6b1" stroke-miterlimit="10" stroke-width="1"/>
      <path id="Pfad_828" data-name="Pfad 828" d="M56.324,25.779h4.6a.636.636,0,0,0,.673-.593v-.62a2.716,2.716,0,0,0-1.891-2.492,3.336,3.336,0,0,1-1.488.523l-.836,0a3.322,3.322,0,0,1-1.5-.525,3.021,3.021,0,0,0-1.345.955" transform="translate(-43.416 -17.697)" fill="none" stroke="#a7a6b1" stroke-linecap="round" stroke-miterlimit="10" stroke-width="1"/>
      <path id="Pfad_829" data-name="Pfad 829" d="M13.659,3.008c0,.043,0,.085,0,.128a2.009,2.009,0,0,1-4.008.034c-.005-.054-.007-.108-.007-.162a2.009,2.009,0,0,1,4.019,0Z" transform="translate(-7.846 -1)" fill="none" stroke="#a7a6b1" stroke-miterlimit="10" stroke-width="1"/>
      <path id="Pfad_830" data-name="Pfad 830" d="M8.137,23.127a3,3,0,0,0-1.419-1.053,3.337,3.337,0,0,1-1.487.523l-.836,0a3.323,3.323,0,0,1-1.5-.525A2.716,2.716,0,0,0,1,24.566v.62a.634.634,0,0,0,.671.593H6.189" transform="translate(-1 -17.697)" fill="none" stroke="#a7a6b1" stroke-linecap="round" stroke-miterlimit="10" stroke-width="1"/>
    </g>
  </g>
</svg>
