<svg xmlns="http://www.w3.org/2000/svg" width="14.995" height="16.309" viewBox="0 0 14.995 16.309">
  <g id="Gruppe_1049" data-name="Gruppe 1049" transform="translate(-1218 -672.034)">
    <path id="Icon_awesome-lock" data-name="Icon awesome-lock" d="M10.692,5.987H10.05V4.063a4.063,4.063,0,1,0-8.126,0V5.987H1.283A1.283,1.283,0,0,0,0,7.27V12.4a1.283,1.283,0,0,0,1.283,1.283h9.409A1.283,1.283,0,0,0,11.975,12.4V7.27A1.283,1.283,0,0,0,10.692,5.987Zm-2.78,0H4.063V4.063a1.925,1.925,0,0,1,3.849,0Z" transform="translate(1218 674.657)" fill="#fcfcfb"/>
    <path id="Icon_metro-warning" data-name="Icon metro-warning" d="M11.85,14.748a.921.921,0,1,1-.921-.921A.921.921,0,0,1,11.85,14.748Zm-.921-1.842a.921.921,0,0,1-.921-.921V9.224a.921.921,0,0,1,1.842,0v2.762A.921.921,0,0,1,10.929,12.907Z" transform="translate(1221.046 663.831)" fill="#fcfcfb" stroke="#fcfcfb" stroke-width="0.2"/>
  </g>
</svg>
