<svg xmlns="http://www.w3.org/2000/svg" width="104.976" height="101.847" viewBox="0 0 104.976 101.847">
  <g id="Gruppe_1066" data-name="Gruppe 1066" transform="translate(-630.499 97.921)">
    <g id="noun-scribble-circle-3292660" transform="translate(631.043 -97.408)">
      <path id="Pfad_108" data-name="Pfad 108" d="M103.619,49.988a.716.716,0,1,1-1.255-.689c3.713-6.726,10.14-12.289,17.539-15.928a47.165,47.165,0,0,1,6.05-2.471,44.345,44.345,0,0,0-10.448,2.681c-12.772,4.942-20.327,13.729-23.38,23.526a36.208,36.208,0,0,0-.732,18.438A38.713,38.713,0,0,0,99.739,92.4c7.346,8.629,18.861,14.446,33.673,13.964,10.152-.33,20.224-3.721,27.8-10.044a34.965,34.965,0,0,0,9.694-12.783,41.526,41.526,0,0,0,.27-14.009,51.386,51.386,0,0,0-3.238-12.012,49.562,49.562,0,0,0-5.95-10.746A39.141,39.141,0,0,0,141.176,32,37.213,37.213,0,0,0,133,30.639a44.576,44.576,0,0,0-12.464,4.016c-7.146,3.514-13.344,8.871-16.912,15.334ZM132.941,29.2A36.961,36.961,0,0,1,143.6,29.01a35.1,35.1,0,0,1,23.849,14.78A42.673,42.673,0,0,1,175.18,72.9a38,38,0,0,1-2.906,11.083q-.249,1.209-.577,2.4a35.868,35.868,0,0,1-7.792,14.261,53.29,53.29,0,0,1-16.891,12.512c8.851-1.239,15.91-4.516,21.308-9.131a38.731,38.731,0,0,0,11.715-18.231A51.625,51.625,0,0,0,181.642,63.5c-2.133-15.239-10.553-29.785-24-36.774a50.294,50.294,0,0,0-24.479-5.407,55.148,55.148,0,0,0-25.021,6.713A56.318,56.318,0,0,0,89.612,44.14,47.076,47.076,0,0,0,86.2,49.624,52.6,52.6,0,0,0,84.812,70.6c1.595,11.249,5.2,20.412,11.379,27.351s14.951,11.667,26.894,14.064a76.488,76.488,0,0,0,19.28,1.581l.048-.018a53.027,53.027,0,0,0,20.414-13.89,34.976,34.976,0,0,0,6.12-9.72,37.156,37.156,0,0,1-6.818,7.446c-7.825,6.532-18.214,10.034-28.674,10.375-15.289.5-27.194-5.529-34.806-14.469a40.149,40.149,0,0,1-8.659-17.477,37.636,37.636,0,0,1,.766-19.167c3.176-10.188,11.008-19.316,24.233-24.433A43.526,43.526,0,0,1,132.94,29.2Zm10.472,1.23a32.5,32.5,0,0,0-3.667-.281q.916.212,1.816.468a40.576,40.576,0,0,1,21.581,15.306,51.021,51.021,0,0,1,6.123,11.06,52.859,52.859,0,0,1,3.327,12.348,46.747,46.747,0,0,1,.466,7.624,38.615,38.615,0,0,0,.7-4.207,41.222,41.222,0,0,0-7.464-28.122,33.682,33.682,0,0,0-22.878-14.2Zm-.743,84.587a49.838,49.838,0,0,1-24.124,3.2c-12.308-1.654-22.336-8.557-29.122-17.951A51.638,51.638,0,0,1,79.984,64.89,44.22,44.22,0,0,1,84.859,49.1,50.485,50.485,0,0,1,90.578,35.87c5.612-9.035,14.259-15.978,25.833-18.09a.715.715,0,0,1,.252,1.407c-11.13,2.031-19.455,8.725-24.87,17.44A47.2,47.2,0,0,0,88.24,43.6l.212-.3a57.751,57.751,0,0,1,19-16.529,56.592,56.592,0,0,1,25.677-6.886A51.725,51.725,0,0,1,158.3,25.455c13.881,7.214,22.565,22.184,24.758,37.85a53.046,53.046,0,0,1-1.658,22.9,40.148,40.148,0,0,1-12.153,18.9c-6.5,5.552-15.288,9.236-26.582,9.908ZM118.738,116.8a46.7,46.7,0,0,0,19.146-1.679,82.926,82.926,0,0,1-15.077-1.7c-12.268-2.462-21.3-7.347-27.684-14.513S85.031,82.331,83.4,70.8A53.166,53.166,0,0,1,83.432,56a42.252,42.252,0,0,0-2.023,9.044,50.191,50.191,0,0,0,9.177,34.383c6.566,9.091,16.262,15.77,28.151,17.368Z" transform="translate(-79.694 -17.769)" fill="#fcfcfb" stroke="#fcfcfb" stroke-width="1"/>
    </g>
    <g id="logo" transform="translate(661.338 -69.946)">
      <path id="Polygon_1" data-name="Polygon 1" d="M15.846,0,31.692,30.372H0Z" transform="translate(2.641 2.641)" fill="#cecdd8" style="mix-blend-mode: multiply;isolation: isolate"/>
      <path id="Polygon_2" data-name="Polygon 2" d="M13.535,0,27.071,24.43H0Z" transform="translate(19.147 8.583)" fill="#cecdd8" style="mix-blend-mode: multiply;isolation: isolate"/>
      <ellipse id="Ellipse_39" data-name="Ellipse 39" cx="3.301" cy="3.631" rx="3.301" ry="3.631" fill="#cecdd8"/>
    </g>
  </g>
</svg>
