<svg xmlns="http://www.w3.org/2000/svg" xmlns:xlink="http://www.w3.org/1999/xlink" width="127" height="17" viewBox="0 0 127 17">
  <defs>
    <clipPath id="clip-path">
      <rect id="Rechteck_458" data-name="Rechteck 458" width="5.138" height="3.634" fill="#fcfcfb"/>
    </clipPath>
  </defs>
  <g id="Gruppe_963" data-name="Gruppe 963" transform="translate(-353 -673.05)">
    <path id="Icon_awesome-lock" data-name="Icon awesome-lock" d="M10.692,5.987H10.05V4.063a4.063,4.063,0,1,0-8.126,0V5.987H1.283A1.283,1.283,0,0,0,0,7.27V12.4a1.283,1.283,0,0,0,1.283,1.283h9.409A1.283,1.283,0,0,0,11.975,12.4V7.27A1.283,1.283,0,0,0,10.692,5.987Zm-2.78,0H4.063V4.063a1.925,1.925,0,0,1,3.849,0Z" transform="translate(461 674.657)" fill="#fcfcfb"/>
    <g id="Gruppe_962" data-name="Gruppe 962" transform="translate(49 363.05)">
      <g id="Ellipse_147" data-name="Ellipse 147" transform="translate(418 311)" fill="#27233c" stroke="#fcfcfb" stroke-width="1">
        <circle cx="6.5" cy="6.5" r="6.5" stroke="none"/>
        <circle cx="6.5" cy="6.5" r="6" fill="none"/>
      </g>
      <g id="Gruppe_962-2" data-name="Gruppe 962" transform="translate(423 314.945)" clip-path="url(#clip-path)">
        <path id="Pfad_1344" data-name="Pfad 1344" d="M5.1,1.418a.534.534,0,0,0-.7-.286L1.775,2.23,1.029.337a.533.533,0,1,0-.992.39L1.183,3.633,4.811,2.115a.533.533,0,0,0,.286-.7" transform="translate(0 0)" fill="#fcfcfb"/>
      </g>
    </g>
    <text id="wird_verifiziert" data-name="wird verifiziert" transform="translate(354 674.05)" fill="#a7a6b1" stroke="rgba(0,0,0,0)" stroke-width="1" font-size="12" font-family="Inter" font-weight="500" letter-spacing="-0.015em"><tspan x="-79.983" y="12">wird verifiziert</tspan></text>
  </g>
</svg>
