<svg xmlns="http://www.w3.org/2000/svg" width="119.734" height="22.551" viewBox="0 0 119.734 22.551">
  <g id="Gruppe_380" data-name="Gruppe 380" transform="translate(-3.487)">
    <g id="Gruppe_544" data-name="Gruppe 544">
      <g id="Gruppe_381" data-name="Gruppe 381" transform="translate(23.302 0)">
        <path id="Pfad_608" data-name="Pfad 608" d="M55.881,11.88a4.918,4.918,0,0,0-2.375.6,6.483,6.483,0,0,0-2.337,2.174l-.1-2.445H46.5V28.177H51.34v-8a3.5,3.5,0,0,1,.226-1.293,3.144,3.144,0,0,1,.616-.992,2.594,2.594,0,0,1,.962-.646,3.328,3.328,0,0,1,1.233-.225,4.913,4.913,0,0,1,1.158.135,2.976,2.976,0,0,1,.886.346l1.323-5.321a8.067,8.067,0,0,0-.857-.21,5.264,5.264,0,0,0-1.007-.091" transform="translate(-46.499 -5.927)" fill="#27233c"/>
        <path id="Pfad_609" data-name="Pfad 609" d="M80.191,4.5H75.381V8.529H72.554v4.209h2.826V24.495h4.811V12.738h3.1V8.529h-3.1Z" transform="translate(-59.497 -2.245)" fill="#27233c"/>
        <path id="Pfad_610" data-name="Pfad 610" d="M113.389,21.882l-3.081-7.147h-2.826l-2.955,7.2-2.668-9.393H96.777l5.262,15.966h3.548l3.289-8.094,3.266,8.094h3.548l5.442-15.966H116.05Z" transform="translate(-71.581 -6.256)" fill="#27233c"/>
        <path id="Pfad_611" data-name="Pfad 611" d="M159.275,12.962a9.627,9.627,0,0,0-8.87,0,8.171,8.171,0,0,0-3.067,2.947,8.085,8.085,0,0,0-1.128,4.269,8.086,8.086,0,0,0,1.128,4.27,8.171,8.171,0,0,0,3.067,2.947,9.627,9.627,0,0,0,8.87,0,8.061,8.061,0,0,0,3.052-2.947,8.175,8.175,0,0,0,1.113-4.27,8.174,8.174,0,0,0-1.113-4.269,8.061,8.061,0,0,0-3.052-2.947m-1.188,9.351a3.77,3.77,0,0,1-1.323,1.474,3.483,3.483,0,0,1-1.924.541,3.562,3.562,0,0,1-1.94-.541,3.73,3.73,0,0,1-1.338-1.474,4.341,4.341,0,0,1-.451-2.135,4.428,4.428,0,0,1,.451-2.149A3.712,3.712,0,0,1,152.9,16.54,3.562,3.562,0,0,1,154.84,16a3.483,3.483,0,0,1,1.924.541,3.752,3.752,0,0,1,1.323,1.489,4.433,4.433,0,0,1,.451,2.149,4.346,4.346,0,0,1-.451,2.135" transform="translate(-96.243 -5.927)" fill="#27233c"/>
        <path id="Pfad_612" data-name="Pfad 612" d="M195.373,11.88a4.918,4.918,0,0,0-2.375.6,6.484,6.484,0,0,0-2.337,2.174l-.1-2.445h-4.57V28.177h4.841v-8a3.5,3.5,0,0,1,.226-1.293,3.143,3.143,0,0,1,.616-.992,2.594,2.594,0,0,1,.962-.646,3.328,3.328,0,0,1,1.233-.225,4.913,4.913,0,0,1,1.158.135,2.977,2.977,0,0,1,.887.346l1.323-5.321a8.067,8.067,0,0,0-.857-.21,5.264,5.264,0,0,0-1.007-.091" transform="translate(-116.088 -5.927)" fill="#27233c"/>
        <path id="Pfad_613" data-name="Pfad 613" d="M229.306,6.284h-6.344l-5.5,5.658V0h-4.811V22.25h4.811V17.39l1.309-1.227,4.7,6.087h5.683l-7.219-9.057Z" transform="translate(-129.386 0)" fill="#27233c"/>
      </g>
      <path id="Pfad_614" data-name="Pfad 614" d="M6.958,28.176a16.316,16.316,0,0,1,16.3-16.3v8.152a8.154,8.154,0,0,0-8.145,8.145Z" transform="translate(-3.471 -5.926)" fill="#eb7a3d"/>
    </g>
  </g>
</svg>
