<svg xmlns="http://www.w3.org/2000/svg" width="59.965" height="11.294" viewBox="0 0 59.965 11.294">
  <defs>
    <style>
      .cls-1 {
        fill: #fbfaf9;
      }

      .cls-2 {
        fill: #eb7a3d;
      }
    </style>
  </defs>
  <g id="Gruppe_501" data-name="Gruppe 501" transform="translate(-1.746 0)">
    <g id="Gruppe_541" data-name="Gruppe 541">
      <path id="Pfad_623" data-name="Pfad 623" class="cls-1" d="M16.368,2.982a2.464,2.464,0,0,0-1.19.3,3.207,3.207,0,0,0-.971.813,3.107,3.107,0,0,0-.2.276l-.05-1.224H11.67v8h2.424V7.138a1.761,1.761,0,0,1,.113-.648,1.552,1.552,0,0,1,.309-.5A1.286,1.286,0,0,1,15,5.67a1.676,1.676,0,0,1,.618-.113,2.456,2.456,0,0,1,.58.068,1.505,1.505,0,0,1,.444.173L17.3,3.133a4.163,4.163,0,0,0-.43-.106,2.654,2.654,0,0,0-.5-.045"/>
      <path id="Pfad_624" data-name="Pfad 624" class="cls-1" d="M22.034,1.129H19.625V3.147H18.209V5.255h1.416v5.888h2.409V5.255h1.551V3.147H22.034Z"/>
      <path id="Pfad_625" data-name="Pfad 625" class="cls-1" d="M32.608,7.826,31.065,4.247H29.649L28.17,7.852l-1.337-4.7H24.288l2.636,8H28.7L30.348,7.09l1.635,4.054H33.76l2.726-8H33.941Z"/>
      <path id="Pfad_626" data-name="Pfad 626" class="cls-1" d="M43.238,3.524a4.822,4.822,0,0,0-4.442,0A4.086,4.086,0,0,0,37.26,5a4.043,4.043,0,0,0-.565,2.138,4.019,4.019,0,0,0,2.1,3.614,4.822,4.822,0,0,0,4.442,0,4.028,4.028,0,0,0,1.528-1.476,4.085,4.085,0,0,0,.557-2.138A4.085,4.085,0,0,0,44.766,5a4.036,4.036,0,0,0-1.528-1.476m-.595,4.683a1.888,1.888,0,0,1-.663.738,1.739,1.739,0,0,1-.963.271,1.781,1.781,0,0,1-.972-.271,1.867,1.867,0,0,1-.67-.738,2.181,2.181,0,0,1-.226-1.069,2.228,2.228,0,0,1,.226-1.077,1.861,1.861,0,0,1,.67-.745,1.781,1.781,0,0,1,.972-.271,1.739,1.739,0,0,1,.963.271,1.881,1.881,0,0,1,.663.745,2.228,2.228,0,0,1,.226,1.077,2.181,2.181,0,0,1-.226,1.069"/>
      <path id="Pfad_627" data-name="Pfad 627" class="cls-1" d="M51.377,2.982a2.464,2.464,0,0,0-1.19.3,3.207,3.207,0,0,0-.971.813,3.107,3.107,0,0,0-.2.276l-.049-1.224H46.679v8H49.1V7.138a1.761,1.761,0,0,1,.113-.648,1.552,1.552,0,0,1,.309-.5,1.286,1.286,0,0,1,.481-.324,1.676,1.676,0,0,1,.618-.113,2.456,2.456,0,0,1,.58.068,1.505,1.505,0,0,1,.444.173l.663-2.665a4.163,4.163,0,0,0-.43-.106,2.654,2.654,0,0,0-.5-.045"/>
      <path id="Pfad_628" data-name="Pfad 628" class="cls-1" d="M61.712,3.147H58.535L55.779,5.98V0H53.37V11.143h2.409V8.709l.656-.615,2.356,3.049h2.846L58.022,6.607Z"/>
      <path id="Pfad_629" data-name="Pfad 629" class="cls-2" d="M1.746,11.143A8.171,8.171,0,0,1,9.908,2.981V7.064a4.084,4.084,0,0,0-4.079,4.079Z"/>
    </g>
  </g>
</svg>
