<svg id="Gruppe_571" data-name="Gruppe 571" xmlns="http://www.w3.org/2000/svg" xmlns:xlink="http://www.w3.org/1999/xlink" width="271.55" height="117.224" viewBox="0 0 271.55 117.224">
  <defs>
    <clipPath id="clip-path">
      <rect id="Rechteck_391" data-name="Rechteck 391" width="271.55" height="117.224" fill="none"/>
    </clipPath>
  </defs>
  <g id="Gruppe_570" data-name="Gruppe 570" clip-path="url(#clip-path)">
    <path id="Pfad_1267" data-name="Pfad 1267" d="M42.912,0a71.734,71.734,0,0,0,80,96.839L104.749,0Z" fill="#dcedec"/>
    <path id="Pfad_1268" data-name="Pfad 1268" d="M138.948,0h-34.2L122.9,96.825A142.982,142.982,0,0,1,138.948,0" fill="#96c7c6"/>
    <path id="Pfad_1269" data-name="Pfad 1269" d="M249.94,0H138.721a142.978,142.978,0,0,0-16.067,96.887l70.618-13.241A71.86,71.86,0,0,1,249.94,0" fill="#c0dddc"/>
    <path id="Pfad_1270" data-name="Pfad 1270" d="M38.986,39.535A71.409,71.409,0,0,0,17.062,0H0V117.224A71.9,71.9,0,0,0,38.986,39.535" fill="#96c7c6"/>
    <path id="Pfad_1271" data-name="Pfad 1271" d="M193.141,80.932c-1.3-1-4.663-1.278-8.479-.59-4.69.845-8.258,2.829-7.967,4.443l-.715-9.924-2.426-33.6,7.589-1.368L190.6,72.227Z" fill="none" stroke="#23234e" stroke-linecap="round" stroke-linejoin="round" stroke-width="2"/>
    <path id="Pfad_1272" data-name="Pfad 1272" d="M212.464,59.194a77.084,77.084,0,0,0-5.8,10.137L190.6,72.226l-9.455-32.337,5.921-1.067S192.593,62.534,212.464,59.194Z" fill="none" stroke="#23234e" stroke-linecap="round" stroke-linejoin="round" stroke-width="2"/>
    <path id="Pfad_1273" data-name="Pfad 1273" d="M173.553,41.257l2.426,33.6-15.795,2.846a76.174,76.174,0,0,0-8.957-7.479C171.014,66.423,167.9,42.275,167.9,42.275Z" fill="none" stroke="#23234e" stroke-linecap="round" stroke-linejoin="round" stroke-width="2"/>
    <path id="Pfad_1274" data-name="Pfad 1274" d="M215.8,77.738l1.121,6.222A52.868,52.868,0,0,1,188.15,99.706a51.352,51.352,0,0,1-32.461-4.712l-1.121-6.223c4.63-3.841,11.774-2.121,11.774-2.121-.716-2.878-3.318-6.109-6.158-8.943l15.795-2.846.715,9.924c.288,1.6,4.324,2.214,9.015,1.369s8.258-2.829,7.969-4.429a1.313,1.313,0,0,0-.538-.793L190.6,72.227l16.068-2.895c-1.686,3.65-3,7.585-2.649,10.53C204.017,79.862,210.125,75.754,215.8,77.738Z" fill="none" stroke="#23234e" stroke-linecap="round" stroke-linejoin="round" stroke-width="2"/>
    <path id="Pfad_1275" data-name="Pfad 1275" d="M166.342,86.65s-7.144-1.72-11.774,2.121l-3.341-18.543a76.081,76.081,0,0,1,8.957,7.479C163.025,80.541,165.626,83.772,166.342,86.65Z" fill="none" stroke="#23234e" stroke-linecap="round" stroke-linejoin="round" stroke-width="2"/>
    <path id="Pfad_1276" data-name="Pfad 1276" d="M167.9,42.274s3.109,24.148-16.679,27.954l-4.353-24.164Z" fill="none" stroke="#23234e" stroke-linecap="round" stroke-linejoin="round" stroke-width="2"/>
    <path id="Pfad_1277" data-name="Pfad 1277" d="M212.464,59.194,215.8,77.738c-5.68-1.984-11.788,2.123-11.788,2.123-.347-2.944.963-6.88,2.649-10.53A77.084,77.084,0,0,1,212.464,59.194Z" fill="none" stroke="#23234e" stroke-linecap="round" stroke-linejoin="round" stroke-width="2"/>
    <path id="Pfad_1278" data-name="Pfad 1278" d="M208.11,35.03l4.354,24.164c-19.871,3.34-25.4-20.372-25.4-20.372Z" fill="none" stroke="#23234e" stroke-linecap="round" stroke-linejoin="round" stroke-width="2"/>
    <path id="Pfad_1279" data-name="Pfad 1279" d="M193.679,81.724c.288,1.6-3.279,3.585-7.97,4.429s-8.726.231-9.014-1.368,3.276-3.6,7.967-4.444c3.815-.687,7.184-.4,8.479.59A1.318,1.318,0,0,1,193.679,81.724Z" fill="none" stroke="#23234e" stroke-linecap="round" stroke-linejoin="round" stroke-width="2"/>
    <path id="Pfad_1280" data-name="Pfad 1280" d="M110.219,92.983c-.841-1.167-3.613-2.255-7.007-2.638-4.172-.47-7.683.3-7.845,1.739l1.9-8.556L103.7,54.556l6.751.761L110.27,85Z" fill="none" stroke="#23234e" stroke-linecap="round" stroke-linejoin="round" stroke-width="2"/>
    <path id="Pfad_1281" data-name="Pfad 1281" d="M132.013,79.514a67.912,67.912,0,0,0-7.451,7.092L110.27,85l.181-29.678,5.267.594S114.4,77.319,132.013,79.514Z" fill="none" stroke="#23234e" stroke-linecap="round" stroke-linejoin="round" stroke-width="2"/>
    <path id="Pfad_1282" data-name="Pfad 1282" d="M103.7,54.556,97.268,83.529,83.22,81.944a67.119,67.119,0,0,0-5.672-8.572c17.659,1.782,21.13-19.382,21.13-19.382Z" fill="none" stroke="#23234e" stroke-linecap="round" stroke-linejoin="round" stroke-width="2"/>
    <path id="Pfad_1283" data-name="Pfad 1283" d="M130.153,96.007l-.624,5.534a46.565,46.565,0,0,1-28.259,6.027A45.235,45.235,0,0,1,75.063,95.4l.624-5.534c4.878-2.073,10.472,1.181,10.472,1.181.122-2.61-1.258-5.993-2.94-9.1l14.049,1.585-1.9,8.555c-.161,1.423,3.09,2.96,7.262,3.431s7.684-.3,7.844-1.727a1.158,1.158,0,0,0-.254-.805L110.27,85l14.291,1.611c-2.344,2.655-4.442,5.646-4.892,8.219C119.669,94.825,125.86,92.9,130.153,96.007Z" fill="none" stroke="#23234e" stroke-linecap="round" stroke-linejoin="round" stroke-width="2"/>
    <path id="Pfad_1284" data-name="Pfad 1284" d="M86.16,91.046s-5.6-3.255-10.472-1.181l1.86-16.493a67.119,67.119,0,0,1,5.672,8.572C84.9,85.053,86.282,88.436,86.16,91.046Z" fill="none" stroke="#23234e" stroke-linecap="round" stroke-linejoin="round" stroke-width="2"/>
    <path id="Pfad_1285" data-name="Pfad 1285" d="M98.677,53.99s-3.47,21.165-21.13,19.383L79.97,51.881Z" fill="none" stroke="#23234e" stroke-linecap="round" stroke-linejoin="round" stroke-width="2"/>
    <path id="Pfad_1286" data-name="Pfad 1286" d="M132.013,79.514l-1.86,16.493c-4.293-3.108-10.484-1.182-10.484-1.182.45-2.573,2.549-5.564,4.893-8.219A67.912,67.912,0,0,1,132.013,79.514Z" fill="none" stroke="#23234e" stroke-linecap="round" stroke-linejoin="round" stroke-width="2"/>
    <path id="Pfad_1287" data-name="Pfad 1287" d="M134.437,58.022l-2.424,21.492c-17.613-2.195-16.295-23.6-16.295-23.6Z" fill="none" stroke="#23234e" stroke-linecap="round" stroke-linejoin="round" stroke-width="2"/>
    <path id="Pfad_1288" data-name="Pfad 1288" d="M110.474,93.788c-.16,1.423-3.672,2.2-7.844,1.727s-7.423-2.007-7.262-3.43,3.673-2.21,7.845-1.739c3.393.382,6.165,1.471,7.007,2.637A1.158,1.158,0,0,1,110.474,93.788Z" fill="none" stroke="#23234e" stroke-linecap="round" stroke-linejoin="round" stroke-width="2"/>
    <path id="Pfad_1289" data-name="Pfad 1289" d="M224.4,51.7a35.906,35.906,0,0,0,3.317-3.175.737.737,0,1,0-1.035-1.05,35.768,35.768,0,0,1-3.316,3.175.74.74,0,0,0-.008,1.042.755.755,0,0,0,1.042.008" fill="#b3b6c7"/>
    <path id="Pfad_1290" data-name="Pfad 1290" d="M225.688,56.472l4.184-.9a.743.743,0,0,0,.521-.9.754.754,0,0,0-.9-.522l-4.184.9a.743.743,0,0,0-.522.9.754.754,0,0,0,.9.522" fill="#b3b6c7"/>
    <path id="Pfad_1291" data-name="Pfad 1291" d="M225.37,60.933a15.191,15.191,0,0,1,1.875,1.218l.1.077c.088.068-.087-.07,0,0l.22.179q.219.181.43.37.423.378.817.787a.737.737,0,1,0,1.05-1.034,15.808,15.808,0,0,0-3.738-2.864.737.737,0,1,0-.754,1.267" fill="#b3b6c7"/>
    <path id="Pfad_1292" data-name="Pfad 1292" d="M256.259,107.3c-1.321-.49-2.792-1.042-3.51-2.347a2.35,2.35,0,0,1-.221-1.771c.169-.64.488-1.226.719-1.844a2.769,2.769,0,0,0,.044-2.14.412.412,0,0,0-.643-.083A6.229,6.229,0,0,1,249.506,101a6.093,6.093,0,0,1-3.678-.27,6.011,6.011,0,0,1-1.789-1.1.42.42,0,0,0-.578,0,.412.412,0,0,0,0,.578c.075.068.152.133.23.2a6.316,6.316,0,0,1,2.234,2.859,3.4,3.4,0,0,1-1.377,3.529,5.921,5.921,0,0,1-2.136.984.4.4,0,0,0-.183.663.448.448,0,0,0-.049.325.419.419,0,0,0,.5.285,9.625,9.625,0,0,1,4.341.037,3.336,3.336,0,0,1,2.28,2.165c.206.8.066,1.647.26,2.453a.411.411,0,0,0,.8-.109,10.454,10.454,0,0,1,.559-3.807,1.41,1.41,0,0,1,1.085-1.039,13.036,13.036,0,0,1,1.9-.463,13.446,13.446,0,0,1,2.24-.179.411.411,0,0,0,.109-.8m-4.4.635a2.368,2.368,0,0,0-1.54,1.191,6.328,6.328,0,0,0-.444,1.318,3.68,3.68,0,0,0-.7-.99A5.472,5.472,0,0,0,245.31,108a11.342,11.342,0,0,0-1.3.06,5.062,5.062,0,0,0,2.394-2.233,3.948,3.948,0,0,0,.4-2.394,4.248,4.248,0,0,0-.767-1.773,7.3,7.3,0,0,0,1.292.279,6.924,6.924,0,0,0,5.359-1.708,3.551,3.551,0,0,1-.29,1.056,10.761,10.761,0,0,0-.707,1.909,3.765,3.765,0,0,0,1.89,3.762,6.894,6.894,0,0,0,.777.437,13.743,13.743,0,0,0-2.493.539" fill="#b3b6c7"/>
    <path id="Pfad_1293" data-name="Pfad 1293" d="M219.991,99.185a4.766,4.766,0,0,1,3.175.976,1.845,1.845,0,0,1,.567,1.284,15.508,15.508,0,0,1-.125,1.551,2.176,2.176,0,0,0,.451,1.623.323.323,0,0,0,.5-.083,4.9,4.9,0,0,1,1.942-2.13,4.8,4.8,0,0,1,2.832-.628,4.741,4.741,0,0,1,1.6.427.328.328,0,0,0,.435-.13.325.325,0,0,0-.13-.436c-.073-.033-.145-.065-.219-.1a4.97,4.97,0,0,1-2.328-1.649,2.674,2.674,0,0,1,.239-2.971,4.671,4.671,0,0,1,1.387-1.223.316.316,0,0,0-.011-.542.353.353,0,0,0-.037-.255.33.33,0,0,0-.444-.1,7.552,7.552,0,0,1-3.279.954,2.621,2.621,0,0,1-2.206-1.116c-.337-.557-.423-1.226-.751-1.789a.323.323,0,0,0-.581.263,8.22,8.22,0,0,1,.439,3,1.111,1.111,0,0,1-.582,1.028,10.291,10.291,0,0,1-1.326.778,10.557,10.557,0,0,1-1.647.641.323.323,0,0,0,.1.629m3.171-1.472a1.863,1.863,0,0,0,.891-1.246,4.971,4.971,0,0,0,.037-1.092,2.882,2.882,0,0,0,.754.586,4.3,4.3,0,0,0,3.238.222,8.744,8.744,0,0,0,.968-.34,3.982,3.982,0,0,0-1.3,2.224,3.1,3.1,0,0,0,.24,1.893,3.351,3.351,0,0,0,.979,1.163,5.648,5.648,0,0,0-1.036.082,5.393,5.393,0,0,0-2.874,1.512,5.457,5.457,0,0,0-.778.986,2.8,2.8,0,0,1-.02-.862,8.471,8.471,0,0,0,.1-1.6,2.961,2.961,0,0,0-2.274-2.408,5.581,5.581,0,0,0-.684-.154,10.834,10.834,0,0,0,1.756-.969" fill="#b3b6c7"/>
    <path id="Pfad_1294" data-name="Pfad 1294" d="M271.377,82.286a6.1,6.1,0,0,0-1.582-.711,5.608,5.608,0,0,0-.82-.171,3.186,3.186,0,0,1-.812-.147.921.921,0,0,1-.5-.892,3.1,3.1,0,0,1,.576-1.5c.215-.367-.271-.694-.569-.433-.7.61-.843,1.821-1.83,2.068a3.874,3.874,0,0,1-2.444-.549.44.44,0,0,0-.084-.029.751.751,0,0,0-.632-.207.436.436,0,0,0-.274.744.343.343,0,0,0,.455.027,3.148,3.148,0,0,1,.271.271,2.833,2.833,0,0,1,.387.586,3.049,3.049,0,0,1,.32,1.391,3.58,3.58,0,0,1-1.455,2.748h0c-.025.019-.05.036-.074.056-.314.257.113.811.44.564l.073-.057a2.345,2.345,0,0,1,2.536-.138,3.435,3.435,0,0,1,1.6,2.354c.087.412.7.29.708-.106q.021-1.134.043-2.268c.007-.378.013-.756.021-1.134a1.961,1.961,0,0,1,.171-.958,1.727,1.727,0,0,1,1.285-.708c.7-.1,1.41-.023,2.11-.145.327-.057.318-.509.08-.66m-3.467.507a1.859,1.859,0,0,0-.857,1.322,15.763,15.763,0,0,0-.067,1.9c0,.148-.005.3-.008.444a3.791,3.791,0,0,0-.678-.763,3.289,3.289,0,0,0-2.42-.79,4.164,4.164,0,0,0,.66-1.826,3.746,3.746,0,0,0-.364-2.023,3.443,3.443,0,0,0,1.818.154,2,2,0,0,0,.971-.545,1.621,1.621,0,0,0,.548,1.034,3.818,3.818,0,0,0,1.745.487,5.123,5.123,0,0,1,.568.159,3.568,3.568,0,0,0-1.916.451" fill="#b3b6c7"/>
  </g>
</svg>
