<svg id="Gruppe_527" data-name="Gruppe 527" xmlns="http://www.w3.org/2000/svg" xmlns:xlink="http://www.w3.org/1999/xlink" width="324.357" height="117.224" viewBox="0 0 324.357 117.224">
  <defs>
    <clipPath id="clip-path">
      <rect id="Rechteck_373" data-name="Rechteck 373" width="324.357" height="117.224" fill="none"/>
    </clipPath>
  </defs>
  <g id="Gruppe_526" data-name="Gruppe 526" clip-path="url(#clip-path)">
    <path id="Pfad_1037" data-name="Pfad 1037" d="M42.912,0a71.734,71.734,0,0,0,80,96.839L104.749,0Z" fill="#dcedec"/>
    <path id="Pfad_1038" data-name="Pfad 1038" d="M138.948,0h-34.2L122.9,96.825A142.982,142.982,0,0,1,138.948,0" fill="#23234e"/>
    <path id="Pfad_1039" data-name="Pfad 1039" d="M249.94,0H138.721a142.978,142.978,0,0,0-16.067,96.887l70.618-13.241A71.86,71.86,0,0,1,249.94,0" fill="#c0dddc"/>
    <path id="Pfad_1040" data-name="Pfad 1040" d="M38.986,39.535A71.409,71.409,0,0,0,17.062,0H0V117.224A71.9,71.9,0,0,0,38.986,39.535" fill="#96c7c6"/>
    <path id="Pfad_1043" data-name="Pfad 1043" d="M324.171,61.307a1.127,1.127,0,0,0,0-1.093,20.482,20.482,0,0,0-16.331-9.776,1.177,1.177,0,0,0-1.24.912,1.183,1.183,0,0,0-.634.488c-3.464,5.142-7.26,10.057-10.9,15.076-.845,1.168-1.685,2.339-2.509,3.521a12.593,12.593,0,0,0-2.406,4.344,11.014,11.014,0,0,0,.019,3.2l.27,3.1q.276,3.167.552,6.332c.1,1.121.109,2.341,1.415,2.7a7.783,7.783,0,0,0,1.741.124l1.73.065,7.171.268a6.633,6.633,0,0,1,2.573-1c4.846-6.988,10.044-13.728,14.723-20.832,1.326-2.013,2.608-4.056,3.824-6.139a1.222,1.222,0,0,0,0-1.29m-3.7,2.608a1.369,1.369,0,0,0-.142-.2,26.053,26.053,0,0,0-5.06-4.9,10.538,10.538,0,0,0-6.758-1.9,1.258,1.258,0,0,0-.973,1.477,1.282,1.282,0,0,0,1.476.973c4.019-.319,7.093,3.247,9.434,5.99a1.134,1.134,0,0,0,.835.427c-3.618,5.642-7.61,11.042-11.53,16.476-1.406,1.949-2.8,3.9-4.174,5.881a1.288,1.288,0,0,0-.354-.066l-5.935-.221-2.967-.111c-.1,0-.489-.061-.806-.081-.026-.292-.05-.583-.076-.875l-.519-5.959q-.12-1.365-.239-2.731a9.367,9.367,0,0,1-.074-2.878,6.449,6.449,0,0,1,1.08-2q.56-.828,1.132-1.644,1.148-1.639,2.326-3.257c1.808-2.5,3.643-4.974,5.466-7.46,1.843-2.514,3.688-5.031,5.431-7.617a1.379,1.379,0,0,0,.14-.268,17.9,17.9,0,0,1,13.757,8.358c.014.023.032.043.047.065q-.744,1.269-1.517,2.52" fill="#b3b6c7"/>
    <g id="Gruppe_532" data-name="Gruppe 532">
      <path id="Pfad_1041" data-name="Pfad 1041" d="M204.227,91.046l-12.061-8.609c.535-.4,1.054-.812,1.56-1.245l0,0a4.35,4.35,0,0,0-.031-6.677L180.193,63.1a4.863,4.863,0,0,0-1.645-.863V53.468l21.363-16.043a5.526,5.526,0,0,0,2.245-4.416,4.993,4.993,0,0,0-4.35-4.987,5.582,5.582,0,0,0-4.124,1.073L174.825,43.248H136.919a5,5,0,0,0-4.99,4.99v.431a5.006,5.006,0,0,0,4.99,5.01h21.052v8.816a4.61,4.61,0,0,0-2.16,2.139l-8.834,18.637a4.3,4.3,0,0,0,.076,3.842,4.527,4.527,0,0,0,3.272,2.363,75.73,75.73,0,0,0,7.646,1v19.271c0,3.867,2.789,7.014,6.218,7.014s6.2-3.147,6.2-7.014V90.364A50.55,50.55,0,0,0,179.49,88.6l17.45,12.5a6.031,6.031,0,0,0,8.44-1.373l.2-.3a6.026,6.026,0,0,0-1.353-8.386M136.919,50.679a2,2,0,0,1-1.99-2.01v-.431a1.992,1.992,0,0,1,1.99-1.99h38.406a1.5,1.5,0,0,0,.9-.3l19.259-14.454a2.554,2.554,0,0,1,1.89-.5,2.1,2.1,0,0,1,1.4.809,2.044,2.044,0,0,1,.382,1.209,2.483,2.483,0,0,1-1.038,2.01l-21.97,16.5a1.5,1.5,0,0,0-.6,1.2V62.01H160.971V52.179a1.5,1.5,0,0,0-1.5-1.5Zm12.795,35.048a1.3,1.3,0,0,1-.023-1.176l8.828-18.626a1.688,1.688,0,0,1,1.534-.915h17.081a1.863,1.863,0,0,1,1.143.4l13.485,11.4a1.351,1.351,0,0,1,.014,2.108,28.313,28.313,0,0,1-3.049,2.265q-1.029.69-2.13,1.308c-.3.166-.612.312-.917.47-.447.233-.887.475-1.35.69-.372.174-.764.323-1.147.485-.416.175-.823.363-1.25.525s-.844.288-1.266.431-.822.294-1.247.422c-.036.008-.071.016-.106.027a47.982,47.982,0,0,1-10.545,1.982h-.036a67.472,67.472,0,0,1-9.172.061,73,73,0,0,1-8.708-1.058,1.559,1.559,0,0,1-1.139-.8m17.67,24.02c0,2.213-1.433,4.014-3.2,4.014s-3.218-1.8-3.218-4.014V90.678a59.778,59.778,0,0,0,6.413-.046ZM203.131,97.7l-.033.047-.182.276a3.023,3.023,0,0,1-4.223.65L183.031,87.449c.774-.294,1.525-.618,2.265-.955.186-.084.37-.17.554-.257.74-.351,1.468-.717,2.172-1.111.054-.031.1-.064.159-.094.454-.258.9-.52,1.342-.795l12.953,9.244a3.022,3.022,0,0,1,.655,4.218" fill="#23234e"/>
      <path id="Pfad_1042" data-name="Pfad 1042" d="M167.621,42.478a9.653,9.653,0,1,0-9.653-9.653,9.663,9.663,0,0,0,9.653,9.653m0-16.305a6.653,6.653,0,1,1-6.653,6.652,6.659,6.659,0,0,1,6.653-6.652" fill="#23234e"/>
      <path id="Pfad_1044" data-name="Pfad 1044" d="M277.891,90.734a159.851,159.851,0,0,0-50.128-2.4q-7.078.783-14.07,2.186a.865.865,0,0,0,.46,1.668,157.3,157.3,0,0,1,24.6-2.955,159.391,159.391,0,0,1,24.914.932q4.385.508,8.736,1.273a108.066,108.066,0,0,1-11.992.306,156.811,156.811,0,0,0-17.141.193,49.068,49.068,0,0,0-9.533,1.768.877.877,0,0,0-.6,1.064A3.448,3.448,0,0,0,236,96.913c1.616.335,3.278.516,4.91.766l10.268,1.577,1.874.288A44.4,44.4,0,0,1,245,100.552c-1.111.036-1.116,1.765,0,1.73a46.414,46.414,0,0,0,12.5-2.127c.74-.234.9-1.529,0-1.668l-19.517-3a13.934,13.934,0,0,1-2.184-.417c-.073-.024-.145-.051-.215-.079a62,62,0,0,1,15.387-1.654c5.737-.022,11.475.31,17.212.1a63.606,63.606,0,0,0,9.714-1.039.871.871,0,0,0,0-1.668" fill="#23234e"/>
      <path id="Pfad_1045" data-name="Pfad 1045" d="M91.438,39.05c-14.886-7.406-15.792-7.406-16.18-7.406a1.5,1.5,0,0,0-.194,2.987c1.139.331,8.488,3.847,15.038,7.106a1.5,1.5,0,0,0,1.336-2.687" fill="#23234e"/>
      <path id="Pfad_1046" data-name="Pfad 1046" d="M96.436,18.085H78.628a1.5,1.5,0,0,0,0,3H96.436a1.5,1.5,0,0,0,0-3" fill="#23234e"/>
      <path id="Pfad_1047" data-name="Pfad 1047" d="M70.823,43.788a1.5,1.5,0,0,0-2.2,2.041L80.159,58.246a1.5,1.5,0,0,0,2.2-2.041Z" fill="#23234e"/>
      <path id="Pfad_1048" data-name="Pfad 1048" d="M28.978,7.326H29.3a5.1,5.1,0,0,0,5.1-5.079V0h-3V2.247a2.093,2.093,0,0,1-2.1,2.079h-.318A2.107,2.107,0,0,1,26.9,2.247V0h-3V2.247a5.084,5.084,0,0,0,5.078,5.079" fill="#23234e"/>
      <path id="Pfad_1049" data-name="Pfad 1049" d="M75.472,6.011,52.457,2.695,45.983,0H38.178l11.755,4.9L38.293,32.859,20.78,25.568A15.15,15.15,0,0,1,16.843,0H12.638a18.142,18.142,0,0,0,6.99,28.338l18.6,7.746L57.007,50.366a1.492,1.492,0,0,0,.908.307,1.437,1.437,0,0,0,.39-.052,1.5,1.5,0,0,0,.995-.872L76.643,8.072a1.5,1.5,0,0,0-1.171-2.061M57.277,46.8,40.937,34.371,52.836,5.78,73.131,8.7Z" fill="#23234e"/>
    </g>
  </g>
</svg>
