<svg id="Gruppe_569" data-name="Gruppe 569" xmlns="http://www.w3.org/2000/svg" xmlns:xlink="http://www.w3.org/1999/xlink" width="300.9" height="117.224" viewBox="0 0 300.9 117.224">
  <defs>
    <clipPath id="clip-path">
      <rect id="Rechteck_390" data-name="Rechteck 390" width="300.9" height="117.224" fill="none"/>
    </clipPath>
  </defs>
  <g id="Gruppe_568" data-name="Gruppe 568" clip-path="url(#clip-path)">
    <path id="Pfad_1238" data-name="Pfad 1238" d="M42.912,0a71.734,71.734,0,0,0,80,96.839L104.749,0Z" fill="#dcedec"/>
    <path id="Pfad_1239" data-name="Pfad 1239" d="M138.948,0h-34.2L122.9,96.825A142.982,142.982,0,0,1,138.948,0" fill="#96c7c6"/>
    <path id="Pfad_1240" data-name="Pfad 1240" d="M249.94,0H138.721a142.978,142.978,0,0,0-16.067,96.887l70.618-13.241A71.86,71.86,0,0,1,249.94,0" fill="#c0dddc"/>
    <path id="Pfad_1241" data-name="Pfad 1241" d="M38.986,39.535A71.409,71.409,0,0,0,17.062,0H0V117.224A71.9,71.9,0,0,0,38.986,39.535" fill="#96c7c6"/>
    <path id="Pfad_1242" data-name="Pfad 1242" d="M193.141,80.932c-1.3-1-4.663-1.278-8.479-.59-4.69.845-8.258,2.829-7.967,4.443l-.715-9.924-2.426-33.6,7.589-1.368L190.6,72.227Z" fill="none" stroke="#23234e" stroke-linecap="round" stroke-linejoin="round" stroke-width="2"/>
    <path id="Pfad_1243" data-name="Pfad 1243" d="M212.464,59.194a77.084,77.084,0,0,0-5.8,10.137L190.6,72.226l-9.455-32.337,5.921-1.067S192.593,62.534,212.464,59.194Z" fill="none" stroke="#23234e" stroke-linecap="round" stroke-linejoin="round" stroke-width="2"/>
    <path id="Pfad_1244" data-name="Pfad 1244" d="M173.553,41.257l2.426,33.6-15.795,2.846a76.174,76.174,0,0,0-8.957-7.479C171.014,66.423,167.9,42.275,167.9,42.275Z" fill="none" stroke="#23234e" stroke-linecap="round" stroke-linejoin="round" stroke-width="2"/>
    <path id="Pfad_1245" data-name="Pfad 1245" d="M215.8,77.738l1.121,6.222A52.868,52.868,0,0,1,188.15,99.706a51.352,51.352,0,0,1-32.461-4.712l-1.121-6.223c4.63-3.841,11.774-2.121,11.774-2.121-.716-2.878-3.318-6.109-6.158-8.943l15.795-2.846.715,9.924c.288,1.6,4.324,2.214,9.015,1.369s8.258-2.829,7.969-4.429a1.313,1.313,0,0,0-.538-.793L190.6,72.227l16.068-2.895c-1.686,3.65-3,7.585-2.649,10.53C204.017,79.862,210.125,75.754,215.8,77.738Z" fill="none" stroke="#23234e" stroke-linecap="round" stroke-linejoin="round" stroke-width="2"/>
    <path id="Pfad_1246" data-name="Pfad 1246" d="M166.342,86.65s-7.144-1.72-11.774,2.121l-3.341-18.543a76.081,76.081,0,0,1,8.957,7.479C163.025,80.541,165.626,83.772,166.342,86.65Z" fill="none" stroke="#23234e" stroke-linecap="round" stroke-linejoin="round" stroke-width="2"/>
    <path id="Pfad_1247" data-name="Pfad 1247" d="M167.9,42.274s3.109,24.148-16.679,27.954l-4.353-24.164Z" fill="none" stroke="#23234e" stroke-linecap="round" stroke-linejoin="round" stroke-width="2"/>
    <path id="Pfad_1248" data-name="Pfad 1248" d="M212.464,59.194,215.8,77.738c-5.68-1.984-11.788,2.123-11.788,2.123-.347-2.944.963-6.88,2.649-10.53A77.084,77.084,0,0,1,212.464,59.194Z" fill="none" stroke="#23234e" stroke-linecap="round" stroke-linejoin="round" stroke-width="2"/>
    <path id="Pfad_1249" data-name="Pfad 1249" d="M208.11,35.03l4.354,24.164c-19.871,3.34-25.4-20.372-25.4-20.372Z" fill="none" stroke="#23234e" stroke-linecap="round" stroke-linejoin="round" stroke-width="2"/>
    <path id="Pfad_1250" data-name="Pfad 1250" d="M193.679,81.724c.288,1.6-3.279,3.585-7.97,4.429s-8.726.231-9.014-1.368,3.276-3.6,7.967-4.444c3.815-.687,7.184-.4,8.479.59A1.318,1.318,0,0,1,193.679,81.724Z" fill="none" stroke="#23234e" stroke-linecap="round" stroke-linejoin="round" stroke-width="2"/>
    <path id="Pfad_1251" data-name="Pfad 1251" d="M110.219,92.983c-.841-1.167-3.613-2.255-7.007-2.638-4.172-.47-7.683.3-7.845,1.739l1.9-8.556L103.7,54.556l6.751.761L110.27,85Z" fill="none" stroke="#23234e" stroke-linecap="round" stroke-linejoin="round" stroke-width="2"/>
    <path id="Pfad_1252" data-name="Pfad 1252" d="M132.013,79.514a67.912,67.912,0,0,0-7.451,7.092L110.27,85l.181-29.678,5.267.594S114.4,77.319,132.013,79.514Z" fill="none" stroke="#23234e" stroke-linecap="round" stroke-linejoin="round" stroke-width="2"/>
    <path id="Pfad_1253" data-name="Pfad 1253" d="M103.7,54.556,97.268,83.529,83.22,81.944a67.119,67.119,0,0,0-5.672-8.572c17.659,1.782,21.13-19.382,21.13-19.382Z" fill="none" stroke="#23234e" stroke-linecap="round" stroke-linejoin="round" stroke-width="2"/>
    <path id="Pfad_1254" data-name="Pfad 1254" d="M130.153,96.007l-.624,5.534a46.565,46.565,0,0,1-28.259,6.027A45.235,45.235,0,0,1,75.063,95.4l.624-5.534c4.878-2.073,10.472,1.181,10.472,1.181.122-2.61-1.258-5.993-2.94-9.1l14.049,1.585-1.9,8.555c-.161,1.423,3.09,2.96,7.262,3.431s7.684-.3,7.844-1.727a1.158,1.158,0,0,0-.254-.805L110.27,85l14.291,1.611c-2.344,2.655-4.442,5.646-4.892,8.219C119.669,94.825,125.86,92.9,130.153,96.007Z" fill="none" stroke="#23234e" stroke-linecap="round" stroke-linejoin="round" stroke-width="2"/>
    <path id="Pfad_1255" data-name="Pfad 1255" d="M86.16,91.046s-5.6-3.255-10.472-1.181l1.86-16.493a67.119,67.119,0,0,1,5.672,8.572C84.9,85.053,86.282,88.436,86.16,91.046Z" fill="none" stroke="#23234e" stroke-linecap="round" stroke-linejoin="round" stroke-width="2"/>
    <path id="Pfad_1256" data-name="Pfad 1256" d="M98.677,53.99s-3.47,21.165-21.13,19.383L79.97,51.881Z" fill="none" stroke="#23234e" stroke-linecap="round" stroke-linejoin="round" stroke-width="2"/>
    <path id="Pfad_1257" data-name="Pfad 1257" d="M132.013,79.514l-1.86,16.493c-4.293-3.108-10.484-1.182-10.484-1.182.45-2.573,2.549-5.564,4.893-8.219A67.912,67.912,0,0,1,132.013,79.514Z" fill="none" stroke="#23234e" stroke-linecap="round" stroke-linejoin="round" stroke-width="2"/>
    <path id="Pfad_1258" data-name="Pfad 1258" d="M134.437,58.022l-2.424,21.492c-17.613-2.195-16.295-23.6-16.295-23.6Z" fill="none" stroke="#23234e" stroke-linecap="round" stroke-linejoin="round" stroke-width="2"/>
    <path id="Pfad_1259" data-name="Pfad 1259" d="M110.474,93.788c-.16,1.423-3.672,2.2-7.844,1.727s-7.423-2.007-7.262-3.43,3.673-2.21,7.845-1.739c3.393.382,6.165,1.471,7.007,2.637A1.158,1.158,0,0,1,110.474,93.788Z" fill="none" stroke="#23234e" stroke-linecap="round" stroke-linejoin="round" stroke-width="2"/>
    <path id="Pfad_1260" data-name="Pfad 1260" d="M300.714,65.264a1.127,1.127,0,0,0,0-1.093A20.482,20.482,0,0,0,284.386,54.4a1.177,1.177,0,0,0-1.24.912,1.183,1.183,0,0,0-.634.488c-3.464,5.142-7.26,10.057-10.9,15.076-.845,1.168-1.685,2.339-2.509,3.521a12.593,12.593,0,0,0-2.406,4.344,11.014,11.014,0,0,0,.019,3.2l.27,3.1q.276,3.167.552,6.332c.1,1.121.109,2.341,1.415,2.7a7.783,7.783,0,0,0,1.741.124l1.73.065,7.171.268a6.633,6.633,0,0,1,2.573-1c4.846-6.988,10.044-13.728,14.723-20.832,1.326-2.013,2.608-4.056,3.824-6.139a1.222,1.222,0,0,0,0-1.29m-3.7,2.608a1.369,1.369,0,0,0-.142-.2,26.053,26.053,0,0,0-5.06-4.9,10.538,10.538,0,0,0-6.758-1.9,1.258,1.258,0,0,0-.973,1.477,1.282,1.282,0,0,0,1.476.973c4.019-.319,7.093,3.247,9.434,5.99a1.134,1.134,0,0,0,.835.427c-3.618,5.642-7.61,11.042-11.53,16.476-1.406,1.949-2.8,3.9-4.174,5.881a1.288,1.288,0,0,0-.354-.066l-5.935-.221-2.967-.111c-.1,0-.489-.061-.806-.081-.026-.292-.05-.583-.076-.875l-.519-5.959q-.12-1.365-.239-2.731a9.367,9.367,0,0,1-.074-2.878,6.449,6.449,0,0,1,1.08-2q.56-.828,1.132-1.644,1.148-1.639,2.326-3.257c1.808-2.5,3.643-4.974,5.466-7.46,1.843-2.514,3.688-5.031,5.431-7.617a1.378,1.378,0,0,0,.14-.268,17.9,17.9,0,0,1,13.757,8.358c.014.023.032.043.047.065q-.744,1.269-1.517,2.52" fill="#b3b6c7"/>
    <path id="Pfad_1261" data-name="Pfad 1261" d="M258.265,95.347a114.873,114.873,0,0,0-36.044,1.377q-5.022,1-9.941,2.434a.629.629,0,0,0-.367.8.635.635,0,0,0,.8.367,113.054,113.054,0,0,1,17.437-3.635,114.632,114.632,0,0,1,17.9-.871q3.171.094,6.334.373a77.426,77.426,0,0,1-8.568.959,112.856,112.856,0,0,0-12.262,1.2,35.336,35.336,0,0,0-6.718,1.855.63.63,0,0,0-.367.8,2.478,2.478,0,0,0,2.183,1.357c1.178.141,2.379.167,3.563.246l7.45.5,1.36.09a31.92,31.92,0,0,1-5.706,1.219c-.793.094-.69,1.333.107,1.239a33.374,33.374,0,0,0,8.817-2.294c.516-.214.551-1.151-.1-1.195l-14.161-.941a10.075,10.075,0,0,1-1.589-.165c-.054-.012-.107-.027-.16-.043a44.573,44.573,0,0,1,10.917-2.134c4.107-.37,8.237-.486,12.332-.99a45.614,45.614,0,0,0,6.892-1.344.626.626,0,0,0-.1-1.194" fill="#b3b6c7"/>
    <path id="Pfad_1262" data-name="Pfad 1262" d="M205.887,102.032q-2.3.585-4.586,1.221a.5.5,0,0,0,.265.964q2.288-.636,4.587-1.221a.5.5,0,0,0-.266-.964" fill="#b3b6c7"/>
    <path id="Pfad_1263" data-name="Pfad 1263" d="M194.389,105.376q-2.814.266-5.607.707a.5.5,0,0,0-.349.615.512.512,0,0,0,.615.349q2.659-.418,5.341-.671a.514.514,0,0,0,.5-.5.5.5,0,0,0-.5-.5" fill="#b3b6c7"/>
    <path id="Pfad_1264" data-name="Pfad 1264" d="M181.883,106.934a12.461,12.461,0,0,1-4.211-.4.5.5,0,0,0-.265.964,13.28,13.28,0,0,0,4.476.44.513.513,0,0,0,.5-.5.5.5,0,0,0-.5-.5" fill="#b3b6c7"/>
    <path id="Pfad_1265" data-name="Pfad 1265" d="M170.5,106.162l-2.425-.415c-.4-.068-.808-.138-1.212-.207l-.56-.1a.864.864,0,0,0-.244-.043c-.109.023-.023-.061.011.089-.143-.627-1.107-.362-.965.267.1.45.533.583.933.651l1.4.24,2.8.479a.515.515,0,0,0,.615-.349.5.5,0,0,0-.349-.616" fill="#b3b6c7"/>
    <path id="Pfad_1266" data-name="Pfad 1266" d="M159.526,103.687l-2.6-1.032-1.276-.507-.662-.263c-.07-.028-.13-.057-.2-.087-.181-.078.036-.08-.035.1a.5.5,0,0,0-.349-.615.513.513,0,0,0-.615.35c-.2.509.257.939.683,1.118.536.225,1.08.43,1.62.645l3.167,1.257a.5.5,0,0,0,.615-.349.512.512,0,0,0-.349-.615" fill="#b3b6c7"/>
  </g>
</svg>
