<svg xmlns="http://www.w3.org/2000/svg" xmlns:xlink="http://www.w3.org/1999/xlink" width="306.049" height="116.729" viewBox="0 0 306.049 116.729">
  <defs>
    <clipPath id="clip-path">
      <rect id="Rechteck_358" data-name="Rechteck 358" width="306.049" height="116.729" transform="translate(0 0)" fill="none"/>
    </clipPath>
  </defs>
  <g id="Gruppe_512" data-name="Gruppe 512" transform="translate(0 0)">
    <g id="Gruppe_511" data-name="Gruppe 511" clip-path="url(#clip-path)">
      <g id="Gruppe_514" data-name="Gruppe 514">
        <path id="Pfad_951" data-name="Pfad 951" d="M1.529,112.327q21.646-6.123,43.436-11.718Q65.409,95.34,85.93,90.385c13.439-3.271,26.89-6.491,40.332-9.75q20.418-4.952,40.785-10.11,21.6-5.514,43.075-11.489,2.766-.774,5.528-1.555a.5.5,0,0,0-.266-.964q-21.645,6.122-43.436,11.718-20.442,5.27-40.964,10.224c-13.44,3.271-26.891,6.491-40.333,9.75q-20.418,4.952-40.785,10.11-21.6,5.514-43.075,11.489-2.764.772-5.528,1.555a.5.5,0,0,0,.266.964" fill="#fd6d73"/>
        <path id="Pfad_952" data-name="Pfad 952" d="M1.533,115.76l-.035.083c-.154.366.284.706.615.615q21.449-5.85,42.979-11.392,20.2-5.212,40.452-10.242,19.895-4.963,39.8-9.891,20.148-5.018,40.267-10.154,21.341-5.475,42.609-11.218,2.739-.742,5.476-1.489a.5.5,0,0,0-.265-.964q-21.448,5.85-42.979,11.393Q150.245,77.713,130,82.742,110.1,87.706,90.2,92.633,70.05,97.65,49.932,102.788q-21.339,5.475-42.608,11.218-2.739.741-5.477,1.488l.615.615c.012-.028.024-.055.035-.083.249-.593-.718-.851-.964-.266" fill="#fd6d73"/>
      </g>
      <g id="Gruppe_513" data-name="Gruppe 513">
        <path id="Pfad_953" data-name="Pfad 953" d="M242.647,70.546l8.864,6.077,4.535,3.11,2.062,1.413a24.431,24.431,0,0,0,2.164,1.456,2.192,2.192,0,0,0,3.217-1.006,17.409,17.409,0,0,0,.979-4.4q.891-5.178,1.385-10.416.566-5.987.592-12.008a.766.766,0,0,0-.75-.75,13.466,13.466,0,0,0-6.291,1.559c-2.145.972-4.264,2.007-6.372,3.059q-3.123,1.56-6.2,3.214-1.537.828-3.063,1.678a12.092,12.092,0,0,0-2.514,1.7,4.013,4.013,0,0,0-1.367,2.431,2.439,2.439,0,0,0,1.351,2.4c.866.416,1.628-.877.757-1.295-1.715-.824.476-2.711,1.3-3.236,1.642-1.048,3.425-1.923,5.143-2.838q5.367-2.858,10.88-5.43c2.014-.939,4.1-1.877,6.376-1.743l-.75-.75a134.011,134.011,0,0,1-1.529,19.6q-.372,2.425-.833,4.837a7.212,7.212,0,0,1-.43,1.718c-.3.64-.728.625-1.3.278-1.392-.843-2.708-1.846-4.05-2.767l-4.122-2.826-9.277-6.36c-.8-.547-1.549.752-.757,1.295" fill="#fd6d73"/>
        <path id="Pfad_954" data-name="Pfad 954" d="M253.036,63.757a18.058,18.058,0,0,0,2.9,5.409.754.754,0,0,0,1.061,0,.768.768,0,0,0,0-1.06,16.252,16.252,0,0,1-2.513-4.748.768.768,0,0,0-.923-.524.759.759,0,0,0-.523.923" fill="#fd6d73"/>
        <path id="Pfad_955" data-name="Pfad 955" d="M258.335,71.218a3.543,3.543,0,0,0-.714,3.122.822.822,0,0,0,.638.608,2.34,2.34,0,0,0,.47.063,2.039,2.039,0,0,0,.739-.111,2.465,2.465,0,0,0,.79-.455,1.471,1.471,0,0,0,.2-.21,1,1,0,0,0,.233-.387.949.949,0,0,0-.1-.645,1.99,1.99,0,0,0-1.409-1.109.812.812,0,0,0-.578.075.768.768,0,0,0-.345.449.759.759,0,0,0,.524.922,1.374,1.374,0,0,1,.273.079l-.179-.076a1.333,1.333,0,0,1,.2.109c.138.09-.122-.113-.024-.022.027.024.054.047.079.072s.049.052.073.078c.09.1-.1-.146-.031-.038a1.757,1.757,0,0,1,.117.218l-.075-.179c.009.022.017.044.025.067l.075-.578c-.077.111.125-.143.035-.043-.016.017-.03.035-.046.051s-.048.049-.073.072-.11.09,0,.008-.047.028-.079.048a1.552,1.552,0,0,1-.168.085l.179-.075a1.653,1.653,0,0,1-.4.11l.2-.027a1.577,1.577,0,0,1-.376,0l.2.027a1.573,1.573,0,0,1-.233-.054l.524.524a3.031,3.031,0,0,1-.07-.341l.027.2a2.892,2.892,0,0,1,0-.732l-.027.2a2.97,2.97,0,0,1,.2-.745c-.025.06-.05.12-.076.179a3.2,3.2,0,0,1,.156-.31c.026-.045.054-.089.082-.132s.174-.231.02-.035a.82.82,0,0,0,.219-.531.749.749,0,0,0-.75-.75.729.729,0,0,0-.53.22" fill="#fd6d73"/>
        <path id="Pfad_956" data-name="Pfad 956" d="M278.665,44.495q.189,5.558.379,11.116.094,2.81.191,5.62l.085,2.5a12.469,12.469,0,0,0,.176,2.6c.377,1.486,1.81,1.882,3.148,1.445a32.137,32.137,0,0,0,4.371-2.072q4.51-2.291,8.841-4.916,4.917-2.98,9.565-6.374a.763.763,0,0,0,.269-1.026,12.878,12.878,0,0,0-4.665-4c-2.14-1.219-4.333-2.354-6.525-3.475q-3.324-1.7-6.7-3.289-1.689-.8-3.39-1.563a9.245,9.245,0,0,0-2.428-.78,3.921,3.921,0,0,0-2.6.343,2.5,2.5,0,0,0-1.133,2.652c.169.949,1.615.546,1.447-.4-.289-1.629,2.26-1.131,3.05-.878A23,23,0,0,1,285.3,43.1q1.476.681,2.942,1.382,5.784,2.764,11.411,5.85a12.484,12.484,0,0,1,4.746,3.813q.135-.513.269-1.026A135.144,135.144,0,0,1,288.6,63.191q-2.08,1.108-4.2,2.143c-.659.323-3.021,1.889-3.439.687a7.341,7.341,0,0,1-.138-2.042l-.093-2.748-.174-5.121q-.2-5.807-.4-11.615c-.033-.963-1.533-.967-1.5,0" fill="#fd6d73"/>
        <path id="Pfad_957" data-name="Pfad 957" d="M290.238,49a17.639,17.639,0,0,0-2.558,5.371.75.75,0,1,0,1.446.4,16.315,16.315,0,0,1,2.407-5.012.756.756,0,0,0-.269-1.026.765.765,0,0,0-1.026.269" fill="#fd6d73"/>
        <path id="Pfad_958" data-name="Pfad 958" d="M287.322,57.594a3.535,3.535,0,0,0-2.734,1.182,2.283,2.283,0,0,0-.185.234.742.742,0,0,0-.053.64,2.251,2.251,0,0,0,.192.41,2.358,2.358,0,0,0,.632.658,2.073,2.073,0,0,0,.672.317,2.5,2.5,0,0,0,.438.07,1.1,1.1,0,0,0,.162,0,.814.814,0,0,0,.668-.4,2.056,2.056,0,0,0,.065-2.014.754.754,0,0,0-1.026-.269.768.768,0,0,0-.269,1.026c.01.021.021.042.03.064l-.075-.179a1.343,1.343,0,0,1,.093.342l-.027-.2a1.428,1.428,0,0,1,0,.32l.027-.2a1.459,1.459,0,0,1-.09.343l.075-.18a1.278,1.278,0,0,1-.119.218l.647-.371a1.549,1.549,0,0,1-.226-.011l.2.026a1.465,1.465,0,0,1-.343-.093l.179.076a1.594,1.594,0,0,1-.337-.194l.152.118a1.626,1.626,0,0,1-.276-.274l.117.152a1.47,1.47,0,0,1-.178-.307l.075.179c-.012-.03-.023-.061-.034-.091q-.1.365-.193.729a2.829,2.829,0,0,1,.453-.449l-.152.117a2.968,2.968,0,0,1,.641-.376l-.179.075a2.935,2.935,0,0,1,.717-.2l-.2.027a2.83,2.83,0,0,1,.46-.022.756.756,0,0,0,.75-.75.765.765,0,0,0-.75-.75" fill="#fd6d73"/>
      </g>
      <path id="Pfad_959" data-name="Pfad 959" d="M86.421,0l20.365,78.861L214.671,51,201.5,0Z" fill="#23234e"/>
      <path id="Pfad_960" data-name="Pfad 960" d="M192.075,0h-76.6a110.979,110.979,0,0,0-8.866,78.833L160.582,64.9A55.777,55.777,0,0,1,192.075,0" fill="#f5cac3"/>
      <path id="Pfad_961" data-name="Pfad 961" d="M192.076,0a55.775,55.775,0,0,0-31.369,64.84l53.941-13.929L201.5,0Z" fill="#fd6d73"/>
      <path id="Pfad_962" data-name="Pfad 962" d="M78.742,0H0V34.587a55.414,55.414,0,0,0,38.818,4.206h0l.075-.019L92.744,24.869A55.322,55.322,0,0,0,78.742,0" fill="#fd6d73"/>
      <path id="Pfad_963" data-name="Pfad 963" d="M92.782,24.86h0L38.931,38.766l-.075.019h0A55.679,55.679,0,0,0,0,75.235v31.1L52.856,92.691h0A55.757,55.757,0,0,0,92.782,24.86" fill="#23234e"/>
    </g>
  </g>
</svg>
