<svg id="Komponente_73_1" data-name="Komponente 73 – 1" xmlns="http://www.w3.org/2000/svg" xmlns:xlink="http://www.w3.org/1999/xlink" width="287.232" height="114.226" viewBox="0 0 287.232 114.226">
  <defs>
    <clipPath id="clip-path">
      <rect id="Rechteck_359" data-name="Rechteck 359" width="287.232" height="114.226" fill="none"/>
    </clipPath>
  </defs>
  <g id="Gruppe_515" data-name="Gruppe 515" clip-path="url(#clip-path)">
    <path id="Pfad_964" data-name="Pfad 964" d="M1.675,114.208l8.6-1.769c.63-.13.364-1.094-.266-.965l-8.6,1.77c-.63.129-.363,1.093.266.964" fill="#b3b6c7"/>
    <path id="Pfad_965" data-name="Pfad 965" d="M22.624,109.049a48.863,48.863,0,0,0,7.616-1.691c.613-.189.351-1.154-.266-.964a48.863,48.863,0,0,1-7.616,1.691.5.5,0,0,0-.349.615.512.512,0,0,0,.615.349" fill="#b3b6c7"/>
    <path id="Pfad_966" data-name="Pfad 966" d="M39.834,105.128l3.818-.8a.5.5,0,0,0-.266-.964l-3.818.8a.5.5,0,0,0,.266.964" fill="#b3b6c7"/>
    <path id="Pfad_967" data-name="Pfad 967" d="M50.5,101.795a44.178,44.178,0,0,0,7.265-1.291.5.5,0,0,0-.266-.964,42.609,42.609,0,0,1-7,1.255c-.635.059-.642,1.06,0,1" fill="#b3b6c7"/>
    <path id="Pfad_968" data-name="Pfad 968" d="M64.5,98.133a41.283,41.283,0,0,0,9.082-2.606c.586-.244.329-1.212-.266-.964a41.283,41.283,0,0,1-9.082,2.606c-.633.105-.365,1.069.266.964" fill="#b3b6c7"/>
    <path id="Pfad_969" data-name="Pfad 969" d="M81.589,94.2a74.932,74.932,0,0,0,11.3-2.388.5.5,0,0,0-.266-.965A73.24,73.24,0,0,1,81.589,93.2c-.629.084-.637,1.085,0,1" fill="#b3b6c7"/>
    <path id="Pfad_970" data-name="Pfad 970" d="M100.753,89a70.624,70.624,0,0,0,11.106-1.6c.628-.142.362-1.106-.266-.964A68.924,68.924,0,0,1,100.753,88c-.639.041-.644,1.041,0,1" fill="#b3b6c7"/>
    <path id="Pfad_971" data-name="Pfad 971" d="M117.305,85.362q5.9-1.742,11.9-3.118c.627-.144.362-1.109-.265-.965q-6,1.377-11.9,3.119a.5.5,0,0,0,.266.964" fill="#b3b6c7"/>
    <path id="Pfad_972" data-name="Pfad 972" d="M136.985,80.01q3.787-.94,7.64-1.58c.633-.106.364-1.069-.266-.965q-3.85.641-7.64,1.581a.5.5,0,0,0,.266.964" fill="#b3b6c7"/>
    <path id="Pfad_973" data-name="Pfad 973" d="M150.513,76.635a26.533,26.533,0,0,0,7.738-1.629c.6-.223.339-1.191-.266-.964a25.683,25.683,0,0,1-7.472,1.593c-.64.039-.644,1.039,0,1" fill="#b3b6c7"/>
    <path id="Pfad_974" data-name="Pfad 974" d="M167.538,72.171a34.11,34.11,0,0,1,6.01-.834c.64-.031.644-1.031,0-1a35.7,35.7,0,0,0-6.276.87c-.627.144-.361,1.109.266.964" fill="#b3b6c7"/>
    <path id="Pfad_975" data-name="Pfad 975" d="M181.186,68.882a43.191,43.191,0,0,1,6.746-1.269.516.516,0,0,0,.5-.5.5.5,0,0,0-.5-.5,44.752,44.752,0,0,0-7.012,1.305.5.5,0,0,0,.266.964" fill="#b3b6c7"/>
    <path id="Pfad_976" data-name="Pfad 976" d="M194.842,65.622a24.941,24.941,0,0,1,5.732-1.064c.639-.042.643-1.042,0-1a26.085,26.085,0,0,0-6,1.1c-.613.189-.351,1.155.266.964" fill="#b3b6c7"/>
    <path id="Pfad_977" data-name="Pfad 977" d="M207.961,62.009l7.544-2.29c.614-.187.353-1.152-.266-.965L207.7,61.045c-.614.186-.352,1.152.266.964" fill="#b3b6c7"/>
    <path id="Pfad_978" data-name="Pfad 978" d="M225.6,43.575a43.873,43.873,0,0,0,4.044-3.871.9.9,0,0,0-1.261-1.281,43.61,43.61,0,0,1-4.044,3.871.9.9,0,0,0-.01,1.271.921.921,0,0,0,1.271.01" fill="#b3b6c7"/>
    <path id="Pfad_979" data-name="Pfad 979" d="M227.174,49.392l5.1-1.093a.906.906,0,0,0,.636-1.1.921.921,0,0,0-1.1-.636l-5.1,1.093a.906.906,0,0,0-.636,1.1.919.919,0,0,0,1.1.636" fill="#b3b6c7"/>
    <path id="Pfad_980" data-name="Pfad 980" d="M226.786,54.832a18.553,18.553,0,0,1,2.286,1.485l.122.094c.108.083-.1-.086,0,0s.18.144.269.218c.178.146.352.3.524.45q.516.462,1,.961a.9.9,0,0,0,1.281-1.262,19.272,19.272,0,0,0-4.559-3.492.9.9,0,0,0-.919,1.545" fill="#b3b6c7"/>
    <path id="Pfad_981" data-name="Pfad 981" d="M249.251,104.267c-1.266-.47-2.7-1-3.377-2.233a2.078,2.078,0,0,1-.2-1.586,8.025,8.025,0,0,1,.426-1.132c.1-.228.2-.456.285-.689a2.992,2.992,0,0,0,.039-2.327.6.6,0,0,0-.464-.342.669.669,0,0,0-.594.192,5.962,5.962,0,0,1-3.016,1.808,5.849,5.849,0,0,1-5.245-1.321.657.657,0,0,0-1.108.509.61.61,0,0,0,.2.446c.079.071.159.138.235.2a6.129,6.129,0,0,1,2.155,2.736,3.179,3.179,0,0,1-1.287,3.262,5.662,5.662,0,0,1-2.047.941.618.618,0,0,0-.446.408.706.706,0,0,0,.045.523.652.652,0,0,0,.794.829,9.3,9.3,0,0,1,4.2.03,3.131,3.131,0,0,1,2.116,1.99,5.571,5.571,0,0,1,.127,1.193,6.368,6.368,0,0,0,.132,1.256.633.633,0,0,0,.627.483.79.79,0,0,0,.1-.007.631.631,0,0,0,.573-.65,10.135,10.135,0,0,1,.544-3.716,1.546,1.546,0,0,1,.314-.563,1.507,1.507,0,0,1,.614-.324,13.008,13.008,0,0,1,1.862-.453,13.156,13.156,0,0,1,2.179-.175.634.634,0,0,0,.653-.517.691.691,0,0,0-.438-.771m-9.722-1.125a4.208,4.208,0,0,0,.422-2.545,4.124,4.124,0,0,0-.467-1.33c.236.052.475.093.714.122a7.2,7.2,0,0,0,4.99-1.314c-.038.111-.081.219-.122.322-.067.168-.14.335-.213.5a6.93,6.93,0,0,0-.508,1.452,4.046,4.046,0,0,0,2,4.018c.046.03.094.06.143.09a13.587,13.587,0,0,0-1.8.438,2.586,2.586,0,0,0-1.689,1.32,5.457,5.457,0,0,0-.3.786,4.242,4.242,0,0,0-.44-.524,5.752,5.752,0,0,0-4.035-1.527h-.287a4.964,4.964,0,0,0,1.6-1.81" fill="#b3b6c7"/>
    <path id="Pfad_982" data-name="Pfad 982" d="M275.826,76.07c-.073-.034-.149-.066-.223-.1a4.758,4.758,0,0,1-2.216-1.554,2.453,2.453,0,0,1,.229-2.691,4.44,4.44,0,0,1,1.314-1.156.535.535,0,0,0,.271-.452.61.61,0,0,0-.153-.4.566.566,0,0,0-.854-.477,7.576,7.576,0,0,1-3.156.926,2.409,2.409,0,0,1-2-1,4.339,4.339,0,0,1-.362-.86,4.922,4.922,0,0,0-.388-.926.573.573,0,0,0-1.034.467,7.924,7.924,0,0,1,.428,2.9,1.173,1.173,0,0,1-.1.472,1.121,1.121,0,0,1-.373.364,10.01,10.01,0,0,1-1.293.758,10.317,10.317,0,0,1-1.608.626.541.541,0,0,0-.4.59.6.6,0,0,0,.554.529h0a4.567,4.567,0,0,1,3.015.9,1.586,1.586,0,0,1,.492,1.112,6.341,6.341,0,0,1-.065.941c-.023.195-.046.39-.058.587a2.4,2.4,0,0,0,.508,1.8.512.512,0,0,0,.4.176.523.523,0,0,0,.077,0,.566.566,0,0,0,.445-.308,4.631,4.631,0,0,1,1.844-2.022,4.545,4.545,0,0,1,4.2-.186.574.574,0,0,0,.754-.242.584.584,0,0,0,.037-.457.544.544,0,0,0-.283-.325m-8.038-3.492a2.126,2.126,0,0,0,.995-1.412,4.066,4.066,0,0,0,.052-.564,3.326,3.326,0,0,0,.373.238,4.563,4.563,0,0,0,3.426.242l.06-.017a3.9,3.9,0,0,0-.7,1.617,3.367,3.367,0,0,0,.261,2.045,3.267,3.267,0,0,0,.582.83c-.152.014-.3.034-.457.06a5.666,5.666,0,0,0-3.008,1.582,5.452,5.452,0,0,0-.381.422c0-.033.006-.066.008-.1.013-.141.03-.283.047-.424a5.435,5.435,0,0,0,.054-1.221,3.228,3.228,0,0,0-2.449-2.62,10.866,10.866,0,0,0,1.141-.679" fill="#b3b6c7"/>
    <path id="Pfad_983" data-name="Pfad 983" d="M286.944,86.2h0a6.338,6.338,0,0,0-1.647-.741,5.991,5.991,0,0,0-.856-.178l-.2-.022a2.019,2.019,0,0,1-.552-.107c-.319-.134-.346-.541-.347-.663a2.693,2.693,0,0,1,.493-1.286l.049-.084a.576.576,0,0,0-.128-.756.636.636,0,0,0-.822.008,3.547,3.547,0,0,0-.7.964c-.284.5-.528.926-1.024,1.051a3.688,3.688,0,0,1-2.277-.532.529.529,0,0,0-.071-.029,1.014,1.014,0,0,0-.8-.228.759.759,0,0,0-.591.516.637.637,0,0,0,.191.657.588.588,0,0,0,.579.142c.045.045.089.09.13.137a2.57,2.57,0,0,1,.352.535,2.788,2.788,0,0,1,.293,1.277,3.334,3.334,0,0,1-1.355,2.55l-.081.063a.577.577,0,0,0-.056.82.568.568,0,0,0,.806.136l.08-.063a2.109,2.109,0,0,1,2.257-.112,3.181,3.181,0,0,1,1.475,2.186.56.56,0,0,0,.559.456c.02,0,.041,0,.061,0a.63.63,0,0,0,.582-.605l.065-3.45a1.656,1.656,0,0,1,.137-.79,1.534,1.534,0,0,1,1.105-.586,7.994,7.994,0,0,1,.967-.06,7.787,7.787,0,0,0,1.149-.085.545.545,0,0,0,.448-.44.664.664,0,0,0-.276-.678m-6.724,1.027a3.974,3.974,0,0,0-.188-1.674,3.34,3.34,0,0,0,1.449.023,2.138,2.138,0,0,0,.77-.342,1.753,1.753,0,0,0,.537.782,2.083,2.083,0,0,0,1.006.408,2.667,2.667,0,0,0-.588.284,2.118,2.118,0,0,0-.968,1.5,10.182,10.182,0,0,0-.067,1.425v.259a3.412,3.412,0,0,0-.278-.261,3.6,3.6,0,0,0-2.14-.858,4.328,4.328,0,0,0,.467-1.542m-1.964,2.947Z" fill="#b3b6c7"/>
    <path id="Pfad_984" data-name="Pfad 984" d="M86.421,0l20.365,78.861L214.671,51,201.5,0Z" fill="#96c7c6"/>
    <path id="Pfad_985" data-name="Pfad 985" d="M192.075,0h-76.6a110.979,110.979,0,0,0-8.866,78.833L160.582,64.9A55.777,55.777,0,0,1,192.075,0" fill="#c7dede"/>
    <path id="Pfad_986" data-name="Pfad 986" d="M192.076,0a55.775,55.775,0,0,0-31.369,64.84l53.941-13.929L201.5,0Z" fill="#23234e"/>
    <path id="Pfad_987" data-name="Pfad 987" d="M78.742,0H0V34.587a55.414,55.414,0,0,0,38.818,4.206h0l.075-.019L92.744,24.869A55.322,55.322,0,0,0,78.742,0" fill="#23234e"/>
    <path id="Pfad_988" data-name="Pfad 988" d="M92.782,24.859h0L38.931,38.766l-.075.019h0A55.681,55.681,0,0,0,0,75.234V106.34L52.856,92.69h0a55.757,55.757,0,0,0,39.926-67.83" fill="#c7dede"/>
  </g>
</svg>
