<svg id="Gruppe_512" data-name="Gruppe 512" xmlns="http://www.w3.org/2000/svg" xmlns:xlink="http://www.w3.org/1999/xlink" width="262.477" height="123.419" viewBox="0 0 262.477 123.419">
  <defs>
    <clipPath id="clip-path">
      <rect id="Rechteck_360" data-name="Rechteck 360" width="262.477" height="123.418" fill="none"/>
    </clipPath>
  </defs>
  <rect id="Rechteck_359" data-name="Rechteck 359" width="83.421" height="83.457" transform="translate(4.172 40.78) rotate(-8.03)" fill="#96c7c6"/>
  <g id="Gruppe_511" data-name="Gruppe 511">
    <g id="Gruppe_510" data-name="Gruppe 510" clip-path="url(#clip-path)">
      <path id="Pfad_934" data-name="Pfad 934" d="M139.045,0A83.052,83.052,0,0,1,86.771,29.091L98.429,111.73A167.024,167.024,0,0,0,233.136,0Z" fill="#c0dddc"/>
      <path id="Pfad_935" data-name="Pfad 935" d="M139,0H0V11.4C1.468,22.476,3.216,33.274,4.268,40.729h0L86.723,29.1l.114-.016h0A83.057,83.057,0,0,0,139,0" fill="#dcedec"/>
      <path id="Pfad_936" data-name="Pfad 936" d="M262.291,37.8a1.127,1.127,0,0,0,0-1.093,20.482,20.482,0,0,0-16.331-9.776,1.177,1.177,0,0,0-1.24.912,1.183,1.183,0,0,0-.634.488c-3.464,5.142-7.26,10.057-10.9,15.076-.845,1.168-1.685,2.339-2.509,3.521a12.593,12.593,0,0,0-2.406,4.344,11.015,11.015,0,0,0,.019,3.2l.27,3.1.552,6.332c.1,1.121.109,2.341,1.415,2.7a7.783,7.783,0,0,0,1.741.124l1.73.065,7.171.268a6.633,6.633,0,0,1,2.573-1c4.846-6.988,10.044-13.728,14.723-20.832,1.326-2.013,2.608-4.056,3.824-6.139a1.222,1.222,0,0,0,0-1.29m-3.7,2.608a1.366,1.366,0,0,0-.142-.2,26.081,26.081,0,0,0-5.06-4.9,10.538,10.538,0,0,0-6.758-1.9,1.258,1.258,0,0,0-.973,1.477,1.282,1.282,0,0,0,1.476.973c4.019-.319,7.093,3.247,9.434,5.99a1.134,1.134,0,0,0,.835.427c-3.618,5.642-7.61,11.042-11.53,16.476-1.406,1.949-2.8,3.905-4.174,5.881a1.287,1.287,0,0,0-.354-.066l-5.935-.221-2.967-.111c-.1,0-.489-.061-.806-.081-.026-.292-.05-.583-.076-.875q-.26-2.979-.52-5.959-.119-1.365-.238-2.731a9.366,9.366,0,0,1-.074-2.878,6.449,6.449,0,0,1,1.08-2q.56-.828,1.132-1.644,1.147-1.64,2.326-3.257c1.808-2.5,3.643-4.974,5.466-7.46,1.843-2.515,3.688-5.031,5.431-7.617a1.379,1.379,0,0,0,.14-.268,17.9,17.9,0,0,1,13.757,8.358c.014.023.032.043.047.065q-.744,1.269-1.517,2.52" fill="#b3b6c7"/>
      <path id="Pfad_939" data-name="Pfad 939" d="M94.058,20.2s0,0-.025-.018l.021.016,0,0" fill="#1b1a2e"/>
      <path id="Pfad_941" data-name="Pfad 941" d="M107.9,21.43a.735.735,0,0,0-.18-.038c.059.011.117.024.174.038Z" fill="#1b1a2e"/>
      <g id="Gruppe_514" data-name="Gruppe 514">
        <path id="Pfad_937" data-name="Pfad 937" d="M64.706,77.029A17.692,17.692,0,1,0,49.659,97.02,17.692,17.692,0,0,0,64.706,77.029m-9.15-2.739L46.609,87.934,38.42,81.478a2,2,0,1,1,2.476-3.14l4.762,3.752L52.211,72.1a2,2,0,1,1,3.345,2.193" fill="#23234e"/>
        <path id="Pfad_938" data-name="Pfad 938" d="M56.877,21.525A17.693,17.693,0,1,0,41.829,41.516,17.693,17.693,0,0,0,56.877,21.525m-9.151-2.739L38.779,32.43,30.59,25.974a2,2,0,1,1,2.476-3.14l4.762,3.752,6.553-9.993a2,2,0,1,1,3.345,2.193" fill="#23234e"/>
        <path id="Pfad_940" data-name="Pfad 940" d="M175.679,8.051a2.034,2.034,0,0,0-2.46-1.4,46.75,46.75,0,0,1-9.037,1.713,73.166,73.166,0,0,1-9.212-.041,15.823,15.823,0,0,0-4.888.436,14.669,14.669,0,0,0-4,1.925c-1.131.739-2.215,1.551-3.389,2.223q-.393.224-.8.424c-.144.071-.289.138-.434.2-.039.017-.06.027-.073.034l-.065.025a17.363,17.363,0,0,1-1.8.6c-.614.165-1.236.3-1.863.4l-.378.06-.094.015-.042.005c-.351.044-.7.081-1.057.112-1.3.113-2.612.148-3.92.157-2.562.018-5.128-.071-7.686.113a22.33,22.33,0,0,0-8,1.9c-2.36,1.106-4.175,3.095-6.543,4.172-.059.023-.18.073-.225.089-.169.058-.34.109-.514.151-.1.024-.2.042-.3.063l-.026.006h-.061c-.307.007-.6.006-.911-.008l.044.01-.05-.01h-.021a.328.328,0,0,1-.152-.037c-.076-.015-.152-.03-.227-.05a2.01,2.01,0,0,0-.362-.111l-.011,0c-.041-.02-.083-.039-.123-.06-.085-.045-.166-.1-.252-.146-.021-.011-.03-.013-.045-.02l-.009-.01c-.1-.1-.2-.2-.3-.3.213.214.134.145-.015-.058a.245.245,0,0,1-.019-.032c-.032-.106-.062-.213-.1-.319-.008-.023-.012-.03-.018-.047s0-.026,0-.052c0-.164-.013-.327-.01-.492,0-.281.025-.561.051-.84.058-.634.157-1.265.174-1.9a4.435,4.435,0,0,0-1.944-4.044,1.994,1.994,0,0,0-2.018,0,22.728,22.728,0,0,0-4.631,3.453,20.184,20.184,0,0,0-1.805,1.995c-.189.239-.374.481-.559.724-.048.062-.1.125-.142.187l-.059.075c-.119.145-.238.29-.365.428-.062.068-.126.134-.192.2l-.13.121c-.05.015-.281.153-.218.15-.169.045-.262.035.039.034l-.2.01h-.011a.253.253,0,0,1-.03,0l-.134-.08,0,0c-.049-.029-.1-.06-.146-.087.063.035.1.056.124.072a1.015,1.015,0,0,1-.149-.126c-.047-.047-.092-.112-.143-.154-.083-.139-.181-.271-.26-.413-.06-.107-.111-.218-.165-.328.079.153-.064-.165-.107-.3-.049-.155-.093-.313-.13-.472-.023-.094-.053-.277-.066-.337a12.515,12.515,0,0,1,.1-2.272,11,11,0,0,0-.386-5.462A5.82,5.82,0,0,0,88.47,6.818a8.058,8.058,0,0,0-5.384.852,13.771,13.771,0,0,0-4.108,3.778c-2.988,3.836-5.832,7.792-8.739,11.691a2.006,2.006,0,0,0,.718,2.736,2.058,2.058,0,0,0,2.736-.717q3.817-5.121,7.635-10.241c.12-.162.24-.323.362-.483l.2-.269c.283-.361.572-.717.876-1.06.266-.3.542-.592.832-.869.144-.138.294-.269.443-.4l.094-.08c.06-.043.261-.195.288-.213.324-.221.667-.393,1.007-.586-.291.165.012-.005.158-.055a6.124,6.124,0,0,1,.666-.182c.163-.035.5-.045.151-.034.172-.005.343-.025.515-.026s.317.016.474.018c.085.017.17.032.254.052.143.036.282.083.421.131.036.019.167.077.247.124.146.086.36.3.13.068.059.058.125.109.182.169.014.014.088.092.133.137.027.036.054.071.059.079.065.107.126.213.187.322.025.045.041.071.053.089a.79.79,0,0,0,.025.115c.049.179.1.356.136.537,0,.008.008.048.014.09.006.071.017.2.019.22.107,1.673-.357,3.324-.271,4.991.166,3.225,2.655,7.537,6.5,6.286a5.681,5.681,0,0,0,2.642-1.92c.205-.255.4-.516.6-.776l.169-.222c.018-.024.038-.049.055-.069.324-.4.661-.8,1.015-1.176a17.8,17.8,0,0,1,2.432-2.206c0,.04,0,.08-.009.121a9.818,9.818,0,0,0,.048,3.657c.733,2.663,3.522,4.035,6.132,3.954,2.878-.089,5.072-1.839,7.3-3.45a18.892,18.892,0,0,1,1.608-1.059q.414-.24.845-.448c.114-.055.23-.107.344-.161l.107-.047c.066-.027.133-.054.2-.079a18.054,18.054,0,0,1,3.65-.951c.122-.019.243-.037.365-.054l.146-.017c.319-.032.638-.068.958-.1.679-.057,1.36-.092,2.041-.114,1.316-.043,2.633-.036,3.95-.03a53.234,53.234,0,0,0,8.257-.431,18.743,18.743,0,0,0,7.516-2.859c1.156-.758,2.265-1.592,3.475-2.265a6.4,6.4,0,0,1,1.39-.641,7.723,7.723,0,0,1,2.155-.417,49.261,49.261,0,0,1,5.125.165,48.37,48.37,0,0,0,5.465-.075,51.721,51.721,0,0,0,10.811-1.91,2.027,2.027,0,0,0,1.4-2.46M94.166,20.274c-.136-.012-.114-.045,0,0m1.226-1.052h0m3.505,1.95c-.09.118-.053.068,0,0m3.511-4.912-.021-.024c-.093-.161-.019-.107.021.024m3.939,4.322c-.043-.085-.062-.182,0,0" fill="#23234e"/>
        <path id="Pfad_942" data-name="Pfad 942" d="M119.116,72.628a2.04,2.04,0,0,0-2.46-1.4,19.589,19.589,0,0,0-2.994,1.071c-.866.366-1.282.578-2.278.908a10.757,10.757,0,0,1-1.359.352l-.03.006c-.078.008-.155.015-.233.019a6.348,6.348,0,0,1-.839,0c-.094-.007-.188-.015-.281-.026l-.181-.039c-.219-.048-.438-.1-.655-.151-.555-.142-1.1-.317-1.649-.485-2.17-.666-4.337-1.345-6.512-2a8.373,8.373,0,0,0-3.762-.4,9.26,9.26,0,0,0-2.991,1.2c-.849.474-1.667,1-2.467,1.556a11.085,11.085,0,0,0-1.007-2.93,2.051,2.051,0,0,0-2.736-.717,12.164,12.164,0,0,0-6.721,7.937,2,2,0,0,0,3.857,1.064c.1-.358.207-.706.336-1.052.016-.044.023-.066.033-.093s.029-.055.054-.106c.082-.165.162-.331.25-.493.16-.3.336-.585.525-.865.025-.037.171-.239.225-.316s.22-.266.25-.3q.334-.381.7-.728c.129-.12.261-.234.393-.349.005.025.01.05.014.075s0,.014,0,.046a8.578,8.578,0,0,1,.022,1.36c0,.028-.039.319-.043.383q-.067.371-.163.735a2.017,2.017,0,0,0,3.343,1.946,26.139,26.139,0,0,1,4.658-3.42c.415-.243.835-.479,1.266-.694a3.289,3.289,0,0,1,1-.336,3.018,3.018,0,0,1,1.006.11c.534.126,1.058.3,1.583.46q3.141.963,6.281,1.928a11.036,11.036,0,0,0,6.312.358,24.552,24.552,0,0,0,3.148-1.2l.284-.122.11-.046c.248-.1.5-.2.748-.3a13.533,13.533,0,0,1,1.56-.485,2.019,2.019,0,0,0,1.4-2.46" fill="#23234e"/>
        <path id="Pfad_943" data-name="Pfad 943" d="M216.011,67.226a159.846,159.846,0,0,0-50.127-2.4q-7.08.783-14.071,2.186a.865.865,0,1,0,.46,1.668,157.3,157.3,0,0,1,24.6-2.955,159.393,159.393,0,0,1,24.914.932q4.385.509,8.736,1.273a108.066,108.066,0,0,1-11.992.306,156.811,156.811,0,0,0-17.141.193,49.07,49.07,0,0,0-9.533,1.768.877.877,0,0,0-.6,1.064,3.448,3.448,0,0,0,2.864,2.142c1.616.335,3.278.516,4.91.766L189.3,75.748l1.874.288a44.4,44.4,0,0,1-8.055,1.008c-1.111.036-1.116,1.765,0,1.73a46.414,46.414,0,0,0,12.5-2.127c.74-.234.9-1.529,0-1.668l-19.517-3a13.936,13.936,0,0,1-2.184-.417c-.073-.024-.145-.051-.215-.079a62,62,0,0,1,15.387-1.654c5.737-.022,11.475.31,17.212.1a63.59,63.59,0,0,0,9.714-1.039.871.871,0,0,0,0-1.668" fill="#23234e"/>
        <path id="Pfad_944" data-name="Pfad 944" d="M123.827,72.6l2.857-1.551a2.047,2.047,0,0,0,.919-1.195,2.244,2.244,0,0,0-.2-1.541,2.016,2.016,0,0,0-1.195-.919,2.141,2.141,0,0,0-1.542.2l-2.857,1.55a2.047,2.047,0,0,0-.919,1.195,1.526,1.526,0,0,0-.036.8,1.484,1.484,0,0,0,.238.744,2.02,2.02,0,0,0,1.195.919,2.144,2.144,0,0,0,1.541-.2" fill="#23234e"/>
        <path id="Pfad_945" data-name="Pfad 945" d="M131.469,70.006c.119-.019.238-.037.358-.053l-.532.071a14.24,14.24,0,0,1,3.39-.045,2,2,0,0,0,1.414-.585,2,2,0,0,0,0-2.829l-.4-.313a1.987,1.987,0,0,0-1.009-.273,16.107,16.107,0,0,0-4.279.17,2,2,0,0,0-1.2.919,2.044,2.044,0,0,0-.2,1.541,2.017,2.017,0,0,0,.919,1.195l.478.2a2.018,2.018,0,0,0,1.063,0" fill="#23234e"/>
        <path id="Pfad_946" data-name="Pfad 946" d="M141.082,69.669c1.613.16,5.906.022,6.268-.34a2.034,2.034,0,0,0,.586-1.414c-.049-1.086-2.512-1.338-4.933-1.436-.482-.019-2.171-.936-3.335-.224a1.654,1.654,0,0,0-.586,1.414,2.018,2.018,0,0,0,.586,1.414,2.27,2.27,0,0,0,1.414.586" fill="#23234e"/>
      </g>
    </g>
  </g>
</svg>
