<svg xmlns="http://www.w3.org/2000/svg" xmlns:xlink="http://www.w3.org/1999/xlink" width="246.2" height="127.5" viewBox="0 0 246.2 127.5">
  <defs>
    <clipPath id="clip-path">
      <rect id="Rechteck_270" data-name="Rechteck 270" width="246.2" height="127.5" fill="none"/>
    </clipPath>
    <clipPath id="clip-path-3">
      <rect id="Rechteck_266" data-name="Rechteck 266" width="214.8" height="106" fill="#c0dddc"/>
    </clipPath>
    <clipPath id="clip-path-4">
      <rect id="Rechteck_265" data-name="Rechteck 265" width="214.8" height="105.9" fill="#c0dddc"/>
    </clipPath>
    <clipPath id="clip-path-5">
      <rect id="Rechteck_268" data-name="Rechteck 268" width="67.801" height="31.2" transform="translate(178.4 15.9)" fill="#23234e"/>
    </clipPath>
  </defs>
  <g id="Gruppe_352" data-name="Gruppe 352" clip-path="url(#clip-path)">
    <g id="Gruppe_347" data-name="Gruppe 347">
      <g id="Gruppe_346" data-name="Gruppe 346" clip-path="url(#clip-path)">
        <path id="Pfad_538" data-name="Pfad 538" d="M3.4,126.3a11.808,11.808,0,0,1,.5-5.6,6.224,6.224,0,0,1,3.7-3.9,3.4,3.4,0,0,1,1.4-.2c3.1,0,5.1,3.5,5.9,6.6a21.111,21.111,0,0,1,7.1-1.7c-.8-2.3-.9-5.9.5-8.2a4.515,4.515,0,0,1,3.5-2.2h.5c3.3,0,5.5,3.6,6.4,6.6l.3-.1a34.933,34.933,0,0,1,7.7-2,7.208,7.208,0,0,1,1.4-5.5,5.73,5.73,0,0,1,3.8-2.2h.4a5.534,5.534,0,0,1,4,1.8,4.429,4.429,0,0,1,1.2,3.6,15.4,15.4,0,0,1,6-1.3,6.15,6.15,0,0,1,1.4.1,15.113,15.113,0,0,1,.3-6,5.776,5.776,0,0,1,3.7-4.3,5.852,5.852,0,0,1,1.3-.2,4.688,4.688,0,0,1,3.6,2.1,9.128,9.128,0,0,1,1.4,4.3c0,.1,0,.1-.1.2a.367.367,0,0,1-.3.1c-.2,0-.3-.1-.4-.3-.4-2.1-2-5.3-4.3-5.3a3.333,3.333,0,0,0-2.1.9c-2.5,2.1-2.2,5.8-2.1,8.7v.2a.367.367,0,0,1-.1.3c-.1.1-.2.2-.4.1h-.1a.664.664,0,0,1-.5.4h-.1c-.5,0-1-.1-1.4-.1a16.169,16.169,0,0,0-6.1,1.2h-.2c-.2,0-.4-.1-.4-.3-.1,0-.2-.2-.2-.3a4.311,4.311,0,0,0-1-3.4,4.2,4.2,0,0,0-3.1-1.5H46a4.239,4.239,0,0,0-3.4,2.5,7.852,7.852,0,0,0-.7,4.3.749.749,0,0,1-.1.5.764.764,0,0,1-.5.2h-.2a35.041,35.041,0,0,1-7.9,1.9l-.4.1a.367.367,0,0,1-.3-.1h-.2c-.1,0-.3-.1-.3-.2-.2-.3-.3-.6-.5-.9v-.1c-1-2-2.2-4.3-4.4-4.9a2.2,2.2,0,0,0-.8-.1c-1.8,0-3.2,1.6-3.7,3.1a10.154,10.154,0,0,0,0,4.9c0,.3.1.6.1.8s0,.4-.2.5a.637.637,0,0,1,0,.6.52.52,0,0,1-.4.2c-1.8.3-3.6.6-5.3.9-.8.1-1.4.3-2.1.4-.1.2-.2.3-.4.3-.1,0-.3-.1-.3-.2a.215.215,0,0,1-.2-.2v-.2c-.9-2.6-2.5-5.8-5-5.8a3.371,3.371,0,0,0-1.7.5c-2.7,1.4-3.2,5.2-2.8,8a.483.483,0,0,1,0,.7c0,.2-.2.5-.4.5a.749.749,0,0,1-.5-.1m68.4-18a7.106,7.106,0,0,1-2.1-.3c-.1,0-.1-.1-.2-.2,0-.1,0-.2.1-.2a9.006,9.006,0,0,1,2.8-.8c.3,0,.6-.1.9-.1,1.5-.3,3-.6,4.3-.9h.2a14.7,14.7,0,0,1,1-6.2,5.688,5.688,0,0,1,4.6-3.7c.2,0,.5-.1.7-.1a5.268,5.268,0,0,1,4.4,2.7,10.849,10.849,0,0,1,1.5,5.3v.1a22.9,22.9,0,0,1,5.1-3.2v-.1a17.045,17.045,0,0,1,.8-5.5A5.7,5.7,0,0,1,99.5,92a4.529,4.529,0,0,1,1.6-.3c3.9,0,6.4,4.7,7.5,7.5a.52.52,0,0,1,.4-.2,22.176,22.176,0,0,0,3.7-.3,16.552,16.552,0,0,0,2.1-.6l.4-.1a13.677,13.677,0,0,1,.8-5.3,5.916,5.916,0,0,1,3.7-3.7,5.067,5.067,0,0,1,1.3-.2,3.994,3.994,0,0,1,3.3,1.8,10.376,10.376,0,0,1,1.7,3.7.367.367,0,0,1-.1.3c-.1.1-.2.2-.3.2s-.2-.1-.3-.2c-.7-1.7-2-4.6-4.2-4.6a3.022,3.022,0,0,0-1.6.5c-2.5,1.3-2.7,4.2-2.9,6.7v.6a.6.6,0,0,1,.3.6.55.55,0,0,1-.3.5,9.889,9.889,0,0,1-2.4.9,11.7,11.7,0,0,1-3.2.4,12.1,12.1,0,0,1-1.9-.1.472.472,0,0,1-.5-.5.367.367,0,0,1-.3.1.758.758,0,0,1-.4-.2,22.638,22.638,0,0,0-2.6-4.2c-1.3-1.5-2.6-2.3-4-2.3a4.1,4.1,0,0,0-2.2.7c-2.2,1.3-2.4,4.6-2.6,6.9v.5a.483.483,0,0,1,0,.7,21.888,21.888,0,0,1-6,3.3h-.1c-.1,0-.2-.1-.3-.1a.6.6,0,0,1-.1-.4.367.367,0,0,1-.3.1c-.1,0-.3-.1-.3-.2a12.868,12.868,0,0,0-1.6-4.4,4.208,4.208,0,0,0-3.7-2.4H84a4.29,4.29,0,0,0-4.1,3.1,21.141,21.141,0,0,0-.9,5.6,2.769,2.769,0,0,1-.1.9.56.56,0,0,1-.6.5.758.758,0,0,1-.4-.2l-.2.1h-.1l-.2.1a18.107,18.107,0,0,1-5.6,1.2m56.4-12.5a5.189,5.189,0,0,1-2.7-.7.52.52,0,0,1-.2-.4c0-.2.2-.3.3-.4h.2a6.279,6.279,0,0,0,1.9.3,5.958,5.958,0,0,0,5.1-2.9,15.69,15.69,0,0,1,.6-6.1,5.267,5.267,0,0,1,4.3-3.8c.2,0,.5-.1.7-.1,3,0,6.1,3,7.1,5.8a.367.367,0,0,1-.1.3,8.149,8.149,0,0,0,3.1.6h.4a7.172,7.172,0,0,0,2.5-.7l.1-.1h.1l.1-.1c-.1-.1-.1-.2-.2-.3a7.959,7.959,0,0,1-.4-3.4,7.6,7.6,0,0,1,1.1-3.3,5.788,5.788,0,0,1,4.2-2.9c.3,0,.5-.1.8-.1a5.922,5.922,0,0,1,4.7,2.4,5.216,5.216,0,0,1,1,4.5,28.319,28.319,0,0,1,7.5-2.3v-.9c.1-3.1.2-6.9,3.3-8.1a11.627,11.627,0,0,1,1.8-.4,6.2,6.2,0,0,1,4.2,2,12.912,12.912,0,0,1,2.6,4.2v.2a.367.367,0,0,1,.3-.1,14.39,14.39,0,0,0,5.4-1.4v-.1a7.571,7.571,0,0,1,.7-5.1,6.886,6.886,0,0,1,3.9-3.4,6.279,6.279,0,0,1,1.9-.3,6.667,6.667,0,0,1,3.9,1.2,6.556,6.556,0,0,1,2.5,3.2,38.189,38.189,0,0,1,5.7-1.1,10.757,10.757,0,0,1,1.4-5.3,6.621,6.621,0,0,1,4.4-3.2c.5-.1.9-.1,1.4-.2a6.625,6.625,0,0,1,3.6,1.1,5.814,5.814,0,0,1,1.8,1.7,2.694,2.694,0,0,1,.5,1.5v.3l.1.3c.1,0,.2-.1.3-.1h1.6c2.4,0,4.3.1,6,.2a5.018,5.018,0,0,1-.9-5.7,6.435,6.435,0,0,1,2.2-2.7,5.682,5.682,0,0,1,3.3-1.1,4.477,4.477,0,0,1,2,.4c-.4-2.5-.8-5.1-1-7.7a11.136,11.136,0,0,1-1.7.2,8.632,8.632,0,0,1-4.7-1.4,7.121,7.121,0,0,1-2.9-3.9,7.647,7.647,0,0,1,5.4-9.2h.1c.1,0,.2,0,.2.1l-.1-.5-.1-.3c-.3-1.4-.7-2.9-.9-4.4a6.448,6.448,0,0,1-2,.3,6.966,6.966,0,0,1-4.6-1.8,9.4,9.4,0,0,1-2.5-4.3,8.211,8.211,0,0,1,.2-4.9,7.056,7.056,0,0,1,3.5-3.9c-.3-2.6-.7-5.7-.8-8.7a5.867,5.867,0,0,1-2.3.4A7.387,7.387,0,0,1,216,8.6a5.753,5.753,0,0,1-2.4-3.5A6.219,6.219,0,0,1,214.7,0h1.4a5.308,5.308,0,0,0-1.3,4.8,4.716,4.716,0,0,0,2.1,2.9,6.65,6.65,0,0,0,3.4.9,9.852,9.852,0,0,0,1.7-.2h.1a.367.367,0,0,1,.3.1.52.52,0,0,1,.4-.2c.2,0,.4.1.4.3.6,3.4,1.1,6.9,1.4,10.3v.3a.6.6,0,0,1-.1.4.764.764,0,0,1-.5.2.675.675,0,0,1-.6-.4,8.893,8.893,0,0,0-2.8,4.1,6.448,6.448,0,0,0,.5,4.9,7.148,7.148,0,0,0,6.6,3.4,6.6,6.6,0,0,0,1.4-.1h.1a.52.52,0,0,1,.4.2.854.854,0,0,1,0,.7c.5,1.5.9,3.1,1.3,4.6v.2l.1.3v.2a.44.44,0,0,1-.1.5.6.6,0,0,1-.6.3.316.316,0,1,0-.6.2c-2.7,1.2-5.1,3.9-4.5,7.4a5.57,5.57,0,0,0,2.3,3.6,6.764,6.764,0,0,0,5.7,1.1h.2a.764.764,0,0,1,.5.2.735.735,0,0,1,.2.6,52.438,52.438,0,0,1,1.5,7.9l.1.4a.9.9,0,0,1-.1.5.55.55,0,0,1-.5.3c0,.2-.2.3-.4.4h-.1a5.663,5.663,0,0,0-1.8-.3,4.58,4.58,0,0,0-4,1.9c-1.2,1.6-1.2,3.6.1,6a.616.616,0,0,1-.1.7.52.52,0,0,1,.2.4.319.319,0,0,1-.3.3,17.683,17.683,0,0,1-5.1.5c-1.2,0-2.3-.1-3.4-.2a.634.634,0,0,1-.6-.5.618.618,0,0,1,.2-.7,8.119,8.119,0,0,0-1-.9c-1.5-1.4-2.8-2.8-4.9-2.8a7.719,7.719,0,0,0-1.5.2,5.181,5.181,0,0,0-3.5,3.1,15.812,15.812,0,0,0-1,4.8.645.645,0,0,1-.6.6.367.367,0,0,1-.3-.1,59.688,59.688,0,0,1-6.1.9h-.1a.367.367,0,0,1-.3-.1.9.9,0,0,1-.1-.5h-.1c-1.5-2.2-3.5-3.5-5.5-3.5a4.671,4.671,0,0,0-1.7.3,4.9,4.9,0,0,0-3.1,2.7,7.252,7.252,0,0,0-.6,4.1.664.664,0,0,1,.4.5.864.864,0,0,1-.3.6,12.847,12.847,0,0,1-6.6,1.8h-.2a.52.52,0,0,1-.4-.2.446.446,0,0,1,0-.5.367.367,0,0,1-.3.1c-.1,0-.3-.1-.3-.2v-.1a9.981,9.981,0,0,0-3.3-4.3,5.659,5.659,0,0,0-2.5-.8,3.386,3.386,0,0,0-3.2,2.1,8.983,8.983,0,0,0-.5,3.6,10.55,10.55,0,0,1-.4,3.1.675.675,0,0,1-.6.4.52.52,0,0,1-.4-.2,37.182,37.182,0,0,1-6.5,1.9l-.2.1c-.4.1-.8.2-1.1.3h-.1a.43.43,0,0,1-.4-.4c0-.2,0-.3.2-.4h.1c-.2,0-.3-.2-.3-.4a4.641,4.641,0,0,0-1.2-3.7,4.9,4.9,0,0,0-3.5-1.7,4.942,4.942,0,0,0-4.2,2.7,6.982,6.982,0,0,0-.3,5.3,5.7,5.7,0,0,0-.1,1.3,5.349,5.349,0,0,1-3.8,1.3,7.655,7.655,0,0,1-3.9-1.1c-.1-.1-.2-.2-.2-.3s.1-.3.2-.3a13.65,13.65,0,0,1-1.7-1.7c-1.3-1.5-2.7-3-4.8-3h-.3a3.676,3.676,0,0,0-2.7,1.3c-1.6,1.8-1.6,5.3-1.4,8.1,0,.2,0,.3-.1.4a.758.758,0,0,1-.4.2,6.507,6.507,0,0,1-3.7,2.6,8.891,8.891,0,0,0-2.2-.1" fill="#b4b6c7"/>
        <g id="Gruppe_345" data-name="Gruppe 345" opacity="0.8">
          <g id="Gruppe_344" data-name="Gruppe 344">
            <g id="Gruppe_343" data-name="Gruppe 343" clip-path="url(#clip-path-3)">
              <g id="Gruppe_342" data-name="Gruppe 342">
                <g id="Gruppe_341" data-name="Gruppe 341" clip-path="url(#clip-path-4)">
                  <path id="Pfad_539" data-name="Pfad 539" d="M0,106,214.7,51.4,200.5,0,0,.1Z" fill="#c0dddc"/>
                </g>
              </g>
            </g>
          </g>
        </g>
        <path id="Pfad_540" data-name="Pfad 540" d="M162.5,53h0L151.2,0h28.6a32.578,32.578,0,0,1-3.2,45.9c-.8.7-1.6,1.3-2.4,1.9A32.353,32.353,0,0,1,162.5,53" fill="#23234e"/>
      </g>
    </g>
    <g id="Gruppe_349" data-name="Gruppe 349">
      <g id="Gruppe_348" data-name="Gruppe 348" clip-path="url(#clip-path-5)">
        <path id="Pfad_541" data-name="Pfad 541" d="M179.8,47.1A10.093,10.093,0,0,0,186,45a7.216,7.216,0,0,1,9,0,10.055,10.055,0,0,0,12.3,0,7.216,7.216,0,0,1,9,0,10.055,10.055,0,0,0,12.3,0,7.216,7.216,0,0,1,9,0,9.888,9.888,0,0,0,6.2,2.1,1.5,1.5,0,0,0,0-3,6.9,6.9,0,0,1-4.5-1.6,10.055,10.055,0,0,0-12.3,0,7.216,7.216,0,0,1-9,0,10.055,10.055,0,0,0-12.3,0,7.216,7.216,0,0,1-9,0,10.055,10.055,0,0,0-12.3,0,7.487,7.487,0,0,1-4.5,1.6,1.538,1.538,0,0,0-1.5,1.5,1.454,1.454,0,0,0,1.4,1.5" fill="#23234e"/>
        <path id="Pfad_542" data-name="Pfad 542" d="M180.2,34.8a10.093,10.093,0,0,0,6.2-2.1,7.216,7.216,0,0,1,9,0,10.055,10.055,0,0,0,12.3,0,7.216,7.216,0,0,1,9,0,10.055,10.055,0,0,0,12.3,0,7.216,7.216,0,0,1,9,0,10.093,10.093,0,0,0,6.2,2.1,1.451,1.451,0,0,0,.1-2.9h-.1a6.488,6.488,0,0,1-4.6-1.6,10.055,10.055,0,0,0-12.3,0,7.216,7.216,0,0,1-9,0,10.055,10.055,0,0,0-12.3,0,7.216,7.216,0,0,1-9,0,10.055,10.055,0,0,0-12.3,0,6.975,6.975,0,0,1-4.6,1.6,1.453,1.453,0,0,0-1.5,1.4,1.708,1.708,0,0,0,1.6,1.5" fill="#23234e"/>
        <path id="Pfad_543" data-name="Pfad 543" d="M244.7,19.5a6.9,6.9,0,0,1-4.5-1.6,10.055,10.055,0,0,0-12.3,0,7.216,7.216,0,0,1-9,0,10.055,10.055,0,0,0-12.3,0,7.216,7.216,0,0,1-9,0,10.055,10.055,0,0,0-12.3,0,7.487,7.487,0,0,1-4.5,1.6,1.451,1.451,0,0,0-.1,2.9h.1a9.611,9.611,0,0,0,6.1-2.1,7.216,7.216,0,0,1,9,0,10.055,10.055,0,0,0,12.3,0,7.216,7.216,0,0,1,9,0,10.055,10.055,0,0,0,12.3,0,7.216,7.216,0,0,1,9,0,9.689,9.689,0,0,0,6.2,2.1,1.453,1.453,0,0,0,1.4-1.5,1.43,1.43,0,0,0-1.4-1.4" fill="#23234e"/>
      </g>
    </g>
    <g id="Gruppe_351" data-name="Gruppe 351">
      <g id="Gruppe_350" data-name="Gruppe 350" clip-path="url(#clip-path)">
        <path id="Pfad_544" data-name="Pfad 544" d="M92.7,0H46.33A46.382,46.382,0,0,1,0,46.33V92.7A92.8,92.8,0,0,0,92.7,0" fill="#f46b72"/>
        <path id="Pfad_545" data-name="Pfad 545" d="M0,0V46.33A46.382,46.382,0,0,0,46.33,0Z" fill="#dcedec"/>
      </g>
    </g>
  </g>
</svg>
