<svg id="Gruppe_562" data-name="Gruppe 562" xmlns="http://www.w3.org/2000/svg" xmlns:xlink="http://www.w3.org/1999/xlink" width="347.135" height="126.864" viewBox="0 0 347.135 126.864">
  <defs>
    <clipPath id="clip-path">
      <rect id="Rechteck_388" data-name="Rechteck 388" width="347.135" height="126.864" fill="none"/>
    </clipPath>
    <clipPath id="clip-path-3">
      <rect id="Rechteck_386" data-name="Rechteck 386" width="122.425" height="112.417" transform="translate(205.417 5.013)" fill="none"/>
    </clipPath>
  </defs>
  <g id="Gruppe_561" data-name="Gruppe 561" clip-path="url(#clip-path)">
    <path id="Pfad_1165" data-name="Pfad 1165" d="M5.645,0,21.772,114.623l188.7-26.692L198.1,0Z" fill="#dcedec"/>
    <g id="Gruppe_560" data-name="Gruppe 560">
      <g id="Gruppe_559" data-name="Gruppe 559" clip-path="url(#clip-path)">
        <path id="Pfad_1166" data-name="Pfad 1166" d="M197.974.065h-70.24A78.027,78.027,0,0,1,78.622,27.4l10.953,77.639A156.5,156.5,0,0,0,202.211,30.1Z" fill="#c0dddc"/>
        <path id="Pfad_1167" data-name="Pfad 1167" d="M127.692.138H5.645l5.2,36.892,67.728-9.555.107-.015h0A78.03,78.03,0,0,0,127.692.138" fill="#dcedec"/>
        <rect id="Rechteck_384" data-name="Rechteck 384" width="68.53" height="78.407" transform="translate(10.768 37.001) rotate(-8.03)" fill="#96c7c6"/>
        <path id="Pfad_1168" data-name="Pfad 1168" d="M65.225,77.028A17.693,17.693,0,1,0,50.177,97.019,17.695,17.695,0,0,0,65.225,77.028m-9.151-2.739L47.127,87.933l-8.189-6.455a2,2,0,1,1,2.476-3.141l4.762,3.753L52.729,72.1a2,2,0,1,1,3.345,2.192" fill="#23234e"/>
        <path id="Pfad_1169" data-name="Pfad 1169" d="M57.4,21.525A17.693,17.693,0,1,0,42.347,41.516,17.693,17.693,0,0,0,57.4,21.525m-9.151-2.739L39.3,32.43l-8.189-6.456a2,2,0,1,1,2.476-3.14l4.762,3.752L44.9,16.593a2,2,0,1,1,3.345,2.193" fill="#23234e"/>
        <path id="Pfad_1170" data-name="Pfad 1170" d="M94.576,20.2s0,0-.025-.018l.021.016,0,0" fill="#1b1a2e"/>
        <path id="Pfad_1171" data-name="Pfad 1171" d="M176.2,8.051a2.033,2.033,0,0,0-2.459-1.4A46.778,46.778,0,0,1,164.7,8.367a73.182,73.182,0,0,1-9.213-.041,15.823,15.823,0,0,0-4.888.436,14.683,14.683,0,0,0-4,1.925c-1.131.739-2.215,1.551-3.388,2.223-.263.149-.528.291-.8.424-.144.071-.288.138-.434.2-.039.017-.059.027-.072.034l-.066.025a17.362,17.362,0,0,1-1.8.6c-.614.165-1.236.3-1.863.4-.126.021-.252.04-.378.06l-.094.015-.042.005c-.351.044-.7.081-1.057.112-1.3.113-2.612.148-3.919.157-2.563.018-5.128-.071-7.687.113a22.335,22.335,0,0,0-8,1.9c-2.36,1.106-4.174,3.095-6.543,4.172-.059.023-.18.073-.225.089-.168.058-.34.109-.514.151-.1.024-.2.042-.3.063l-.026.006h-.061c-.306.007-.6.006-.911-.008.019,0,.023,0,.044.01l-.049-.01h-.022a.333.333,0,0,1-.152-.037c-.076-.015-.152-.03-.227-.05a2.01,2.01,0,0,0-.362-.111l-.011,0c-.041-.02-.083-.039-.123-.06-.085-.045-.166-.1-.252-.146-.02-.011-.03-.013-.045-.02l-.009-.01c-.1-.1-.2-.2-.3-.3.212.214.133.145-.015-.058a.249.249,0,0,1-.02-.032c-.032-.106-.061-.213-.1-.319-.008-.023-.012-.03-.018-.047s0-.026,0-.052c0-.164-.013-.327-.01-.492,0-.281.025-.561.051-.84.058-.634.157-1.265.175-1.9a4.44,4.44,0,0,0-1.944-4.044,2,2,0,0,0-2.019,0,22.783,22.783,0,0,0-4.631,3.453,20.308,20.308,0,0,0-1.805,1.995c-.189.239-.374.481-.559.724-.048.062-.1.125-.141.187l-.06.075c-.119.145-.238.29-.365.428-.061.068-.126.134-.192.2l-.13.121c-.05.015-.28.153-.218.15-.169.045-.262.035.039.034l-.2.01h-.011a.253.253,0,0,1-.03,0l-.133-.08,0,0c-.049-.029-.1-.06-.146-.087.063.035.1.056.124.072a1.071,1.071,0,0,1-.149-.126,2.087,2.087,0,0,0-.143-.154c-.083-.139-.181-.271-.26-.413-.06-.107-.111-.218-.165-.328.079.153-.063-.165-.106-.3-.05-.155-.094-.313-.131-.472-.022-.094-.053-.277-.066-.337a12.516,12.516,0,0,1,.1-2.272,10.988,10.988,0,0,0-.386-5.462,5.82,5.82,0,0,0-4.251-3.495A8.058,8.058,0,0,0,83.6,7.67,13.771,13.771,0,0,0,79.5,11.448c-2.988,3.836-5.832,7.792-8.739,11.691a2.007,2.007,0,0,0,.719,2.736,2.058,2.058,0,0,0,2.736-.717q3.818-5.121,7.634-10.241.18-.243.362-.483l.2-.269c.283-.361.572-.717.876-1.06.266-.3.542-.592.832-.869.144-.138.294-.269.443-.4l.095-.08c.059-.043.26-.195.287-.213.325-.221.667-.393,1.007-.586-.291.165.013-.005.158-.055a6.125,6.125,0,0,1,.666-.182c.163-.035.5-.045.151-.034.172-.005.344-.025.515-.026s.317.016.474.018c.085.017.171.032.255.052.142.036.281.083.42.131.036.019.167.077.248.124.145.086.36.3.129.068.059.058.125.109.182.169.014.014.088.092.134.137.027.036.054.071.058.079.066.107.126.213.187.322.025.045.041.071.053.089a.971.971,0,0,0,.025.115c.05.179.1.356.136.537,0,.008.008.048.014.09.006.071.017.2.019.22.107,1.673-.356,3.324-.27,4.991.166,3.225,2.654,7.537,6.5,6.286a5.678,5.678,0,0,0,2.641-1.92c.206-.255.4-.516.6-.776l.169-.222c.019-.024.038-.049.055-.069.325-.4.661-.8,1.015-1.176a17.8,17.8,0,0,1,2.432-2.206c0,.04,0,.08-.009.121a9.818,9.818,0,0,0,.048,3.657c.733,2.663,3.522,4.035,6.132,3.954,2.878-.089,5.072-1.839,7.3-3.45A18.72,18.72,0,0,1,118,20.94q.414-.24.845-.448c.114-.055.231-.107.344-.161l.108-.047c.065-.027.132-.054.2-.079a18.071,18.071,0,0,1,3.65-.951c.123-.019.243-.037.365-.054l.147-.017c.319-.032.638-.068.958-.1.679-.057,1.36-.092,2.041-.114,1.315-.043,2.632-.036,3.949-.03a53.234,53.234,0,0,0,8.257-.431,18.748,18.748,0,0,0,7.517-2.859c1.155-.758,2.265-1.592,3.474-2.265a6.4,6.4,0,0,1,1.39-.641,7.723,7.723,0,0,1,2.155-.417,49.27,49.27,0,0,1,5.125.165,48.391,48.391,0,0,0,5.466-.075,51.724,51.724,0,0,0,10.81-1.91,2.026,2.026,0,0,0,1.4-2.46M94.685,20.274c-.136-.012-.115-.045,0,0m1.225-1.052c.031-.041.028-.036,0,0m3.5,1.95c-.089.118-.053.068,0,0m3.511-4.912-.021-.024c-.092-.161-.019-.107.021.024m3.94,4.322c-.044-.085-.063-.182,0,0" fill="#23234e"/>
        <path id="Pfad_1172" data-name="Pfad 1172" d="M108.416,21.43a.735.735,0,0,0-.18-.038c.059.011.117.024.174.038Z" fill="#1b1a2e"/>
        <path id="Pfad_1173" data-name="Pfad 1173" d="M150.794,67.359a2.048,2.048,0,0,0-2.46-1.4l-12.94,2.756c-2.135.454-4.268.919-6.406,1.361a29.612,29.612,0,0,1-5.926.765,24.263,24.263,0,0,0-6.382.515,24.657,24.657,0,0,0-2.88,1.1l-.5.215c.009-.005-.292.12-.347.142-.439.177-.883.344-1.337.481-.224.068-.45.129-.678.181-.1.022-.2.042-.294.062l-.13.023-.131.014c-.1.006-.2.012-.3.016a5.893,5.893,0,0,1-.861-.031c-.239-.028-.067-.014-.02-.005-.11-.019-.22-.042-.329-.065-.219-.046-.437-.1-.654-.156-.517-.137-1.028-.3-1.54-.456q-3.147-.966-6.293-1.932a8.91,8.91,0,0,0-3.982-.466,9.755,9.755,0,0,0-3.285,1.363c-.745.427-1.465.9-2.172,1.388a11.107,11.107,0,0,0-1.007-2.928,2.052,2.052,0,0,0-2.737-.718,12.171,12.171,0,0,0-6.721,7.938,2,2,0,0,0,3.857,1.063c.1-.357.208-.705.336-1.052.017-.044.024-.065.033-.093s.03-.055.055-.106c.082-.165.162-.33.249-.492q.241-.445.526-.865c.025-.038.171-.239.224-.316s.221-.266.251-.3a10.069,10.069,0,0,1,.7-.728c.128-.12.261-.234.393-.349,0,.025.009.049.013.075s0,.014.005.046a8.575,8.575,0,0,1,.021,1.36c0,.027-.039.319-.043.383-.044.247-.1.492-.162.734a2.016,2.016,0,0,0,3.343,1.946,26.045,26.045,0,0,1,4.464-3.306,9.236,9.236,0,0,1,2.293-1.108,3.277,3.277,0,0,1,.834,0,14.859,14.859,0,0,1,1.564.423l6.174,1.895a12.2,12.2,0,0,0,6.191.64,13.707,13.707,0,0,0,2.5-.82c.509-.21,1.015-.428,1.521-.644l.138-.059.145-.059c.223-.09.446-.178.671-.262a12.658,12.658,0,0,1,1.266-.4c.217-.055.435-.1.655-.143l.209-.035.3-.032c1.05-.1,2.105-.077,3.158-.077,4.289,0,8.465-1.074,12.635-1.962l14.4-3.068a2.014,2.014,0,0,0,1.4-2.46" fill="#23234e"/>
        <path id="Pfad_1174" data-name="Pfad 1174" d="M211.638,94.625q-17.916,2.246-35.811,4.665-19.462,2.616-38.91,5.355-20.123,2.826-40.233,5.747-19.576,2.843-39.142,5.758-17.924,2.674-35.837,5.412l-4.065.622c.2.118.41.233.615.351q-.763-4.256-1.5-8.512Q14.876,103.2,13.08,92.359q-2.4-14.495-4.636-29.016C6.887,53.172,5.4,42.99,4.073,32.785,2.935,24.05,1.877,15.293,1.194,6.508Q1.09,5.172,1,3.835c-.042-.639-1.043-.643-1,0,.566,8.515,1.556,17,2.625,25.467C3.9,39.394,5.342,49.465,6.859,59.522q2.24,14.853,4.69,29.671,1.887,11.474,3.869,22.932.624,3.609,1.26,7.219a23.422,23.422,0,0,0,.587,3.312,1.159,1.159,0,0,1,.026.143.511.511,0,0,0,.615.35q17.552-2.694,35.114-5.319,19.33-2.891,38.67-5.708,20.1-2.928,40.216-5.77,19.6-2.766,39.215-5.427,18.177-2.458,36.373-4.778,2.071-.263,4.144-.522c.63-.079.638-1.08,0-1" fill="#b3b6c7"/>
        <path id="Pfad_1175" data-name="Pfad 1175" d="M209.929,98.623q-22.422,3.091-44.849,6.147-19.617,2.675-39.235,5.342-18.067,2.461-36.131,4.947-17.443,2.408-34.878,4.871-18.055,2.556-36.1,5.2l-4.675.687.615.349q-1.953-11.492-3.866-22.989c-2.395-14.358-4.77-28.72-7.039-43.1C2.8,53.912,1.826,47.744.983,41.558c-.086-.635-1.05-.364-.964.266,1.7,12.482,3.788,24.916,5.818,37.347q3.192,19.55,6.493,39.081.688,4.09,1.383,8.179a.512.512,0,0,0,.615.349q18.185-2.676,36.383-5.263,17.442-2.479,34.893-4.889,17.936-2.481,35.876-4.92,19.354-2.64,38.71-5.271,22.027-3,44.051-6.03l5.954-.82c.635-.087.364-1.051-.266-.964" fill="#b3b6c7"/>
        <g id="Gruppe_558" data-name="Gruppe 558" opacity="0.5">
          <g id="Gruppe_557" data-name="Gruppe 557">
            <g id="Gruppe_556" data-name="Gruppe 556" clip-path="url(#clip-path-3)">
              <rect id="Rechteck_385" data-name="Rechteck 385" width="99.245" height="81.11" transform="translate(205.417 42.245) rotate(-22.034)" fill="#c0dddc"/>
            </g>
          </g>
        </g>
        <path id="Pfad_1176" data-name="Pfad 1176" d="M197.636,40.865l2.511,5.388a.5.5,0,0,0,.684.179.511.511,0,0,0,.179-.684L198.5,40.36a.5.5,0,0,0-.684-.179.512.512,0,0,0-.179.684" fill="#b3b6c7"/>
        <path id="Pfad_1177" data-name="Pfad 1177" d="M203.475,52.982a8.631,8.631,0,0,0,.971,5.684.5.5,0,0,0,.864-.5,7.525,7.525,0,0,1-.871-4.914.514.514,0,0,0-.349-.615.5.5,0,0,0-.615.349" fill="#b3b6c7"/>
        <path id="Pfad_1178" data-name="Pfad 1178" d="M207.83,65.034a5.065,5.065,0,0,0,1.76,3.977.514.514,0,0,0,.707,0,.5.5,0,0,0,0-.708,4.082,4.082,0,0,1-1.467-3.269.5.5,0,0,0-1,0" fill="#b3b6c7"/>
        <path id="Pfad_1179" data-name="Pfad 1179" d="M212.856,76.441l1.941,5.01a.516.516,0,0,0,.615.349.5.5,0,0,0,.35-.615q-.972-2.5-1.942-5.01a.515.515,0,0,0-.615-.349.5.5,0,0,0-.349.615" fill="#b3b6c7"/>
        <path id="Pfad_1180" data-name="Pfad 1180" d="M217.976,89.236l2.1,3.53a.5.5,0,1,0,.864-.5l-2.1-3.531a.5.5,0,0,0-.863.5" fill="#b3b6c7"/>
        <path id="Pfad_1181" data-name="Pfad 1181" d="M221.826,100.153l1.475,5.1a.5.5,0,0,0,.964-.266l-1.475-5.1a.5.5,0,0,0-.964.266" fill="#b3b6c7"/>
        <path id="Pfad_1182" data-name="Pfad 1182" d="M226.205,111.507l1.665,4.1a.517.517,0,0,0,.615.35.5.5,0,0,0,.349-.616l-1.665-4.1a.515.515,0,0,0-.615-.349.5.5,0,0,0-.349.615" fill="#b3b6c7"/>
        <path id="Pfad_1183" data-name="Pfad 1183" d="M231.173,122.436l1.391,2.182a.5.5,0,1,0,.863-.5q-.694-1.092-1.391-2.183a.5.5,0,1,0-.863.5" fill="#b3b6c7"/>
        <path id="Pfad_1184" data-name="Pfad 1184" d="M236.762,123.589l4.145-1.548a.513.513,0,0,0,.349-.615.5.5,0,0,0-.615-.349l-4.145,1.548a.513.513,0,0,0-.349.615.5.5,0,0,0,.615.349" fill="#b3b6c7"/>
        <path id="Pfad_1185" data-name="Pfad 1185" d="M248.287,119.066l4.081-1.724a.5.5,0,0,0,.179-.684.513.513,0,0,0-.684-.18l-4.081,1.725a.5.5,0,0,0-.179.684.513.513,0,0,0,.684.179" fill="#b3b6c7"/>
        <path id="Pfad_1186" data-name="Pfad 1186" d="M259.81,114.282a3.439,3.439,0,0,0,3.109-1.687.5.5,0,1,0-.864-.505c-.033.057-.068.114-.1.17l-.046.065c-.072.105.041-.046-.006.01a3.232,3.232,0,0,1-.256.28c-.043.041-.088.081-.134.12-.025.022-.051.043-.077.063.053-.042.03-.023-.011.006a2.985,2.985,0,0,1-.322.2c-.053.028-.107.055-.161.08-.022.01-.113.046-.009.006l-.075.029a2.868,2.868,0,0,1-.363.111c-.065.015-.131.025-.2.039s.123-.012-.005,0l-.08.007a2.657,2.657,0,0,1-.4,0,.5.5,0,0,0-.5.5.511.511,0,0,0,.5.5" fill="#b3b6c7"/>
        <path id="Pfad_1187" data-name="Pfad 1187" d="M270,110.245a12.123,12.123,0,0,1,4.917-1.988.506.506,0,0,0,.35-.616.513.513,0,0,0-.617-.349,12.8,12.8,0,0,0-5.155,2.09.512.512,0,0,0-.18.684.506.506,0,0,0,.685.179" fill="#b3b6c7"/>
        <path id="Pfad_1188" data-name="Pfad 1188" d="M282.22,104.976l8.425-4.549c.566-.306.062-1.17-.5-.864l-8.425,4.55c-.566.305-.062,1.169.505.863" fill="#b3b6c7"/>
        <path id="Pfad_1189" data-name="Pfad 1189" d="M297.554,98.717a22.5,22.5,0,0,0,5.411-3.04.517.517,0,0,0,.179-.684.5.5,0,0,0-.684-.18,21.626,21.626,0,0,1-5.172,2.94.515.515,0,0,0-.349.615.5.5,0,0,0,.615.349" fill="#b3b6c7"/>
        <path id="Pfad_1190" data-name="Pfad 1190" d="M309.369,93.432l3.44-2.576a.515.515,0,0,0,.179-.684.5.5,0,0,0-.684-.18l-3.44,2.577a.515.515,0,0,0-.179.684.5.5,0,0,0,.684.179" fill="#b3b6c7"/>
        <path id="Pfad_1191" data-name="Pfad 1191" d="M317.8,89.473l4.093-1.694a.516.516,0,0,0,.349-.615.5.5,0,0,0-.615-.349l-4.093,1.694a.516.516,0,0,0-.349.615.5.5,0,0,0,.615.349" fill="#b3b6c7"/>
        <path id="Pfad_1192" data-name="Pfad 1192" d="M327.6,86.46l3.2-1.4a.5.5,0,0,0,.179-.683.512.512,0,0,0-.684-.179l-3.2,1.4a.5.5,0,0,0-.179.685.513.513,0,0,0,.684.178" fill="#b3b6c7"/>
        <path id="Pfad_1193" data-name="Pfad 1193" d="M334.315,80.6q-1.725-3.039-3.449-6.078a.5.5,0,0,0-.864.5l3.45,6.079a.5.5,0,0,0,.863-.505" fill="#b3b6c7"/>
        <path id="Pfad_1194" data-name="Pfad 1194" d="M327.331,65.631a7.54,7.54,0,0,0-1.212-3.96.511.511,0,0,0-.684-.179.505.505,0,0,0-.18.684,6.556,6.556,0,0,1,1.076,3.455.5.5,0,0,0,1,0" fill="#b3b6c7"/>
        <path id="Pfad_1195" data-name="Pfad 1195" d="M324.633,56.956a10.8,10.8,0,0,1-2.334-4.679c-.141-.627-1.106-.362-.964.266a11.847,11.847,0,0,0,2.591,5.12.5.5,0,0,0,.707,0,.51.51,0,0,0,0-.707" fill="#b3b6c7"/>
        <path id="Pfad_1196" data-name="Pfad 1196" d="M319.625,48.388q-.41-2.121-.82-4.245a.5.5,0,1,0-.964.265q.41,2.124.82,4.247a.5.5,0,0,0,.615.349.512.512,0,0,0,.349-.616" fill="#b3b6c7"/>
        <path id="Pfad_1197" data-name="Pfad 1197" d="M316.09,38.19l-1.358-3.215a.5.5,0,0,0-.684-.179.512.512,0,0,0-.179.684l1.358,3.215a.5.5,0,0,0,.684.179.513.513,0,0,0,.179-.684" fill="#b3b6c7"/>
        <path id="Pfad_1198" data-name="Pfad 1198" d="M312.042,29.141q-1.793-3.09-3.584-6.178a.5.5,0,0,0-.863.5q1.791,3.09,3.584,6.18a.5.5,0,0,0,.863-.5" fill="#b3b6c7"/>
        <path id="Pfad_1199" data-name="Pfad 1199" d="M306.792,17.714a9.788,9.788,0,0,0-1.164-4.488c-.3-.567-1.168-.062-.864.505a8.686,8.686,0,0,1,1.028,3.983.5.5,0,0,0,1,0" fill="#b3b6c7"/>
        <path id="Pfad_1200" data-name="Pfad 1200" d="M302.856,7.226a4.314,4.314,0,0,0-2.29-3.479.5.5,0,1,0-.5.864,3.577,3.577,0,0,1,.388.227c.038.025.074.051.111.078s.046.034.007,0c.059.046.116.095.172.145a3.818,3.818,0,0,1,.318.318c.05.057.1.114.144.174-.063-.081.026.037.03.043.022.03.043.061.064.093a3.76,3.76,0,0,1,.229.388c.034.067.065.135.1.2s-.04-.107.01.026c.013.036.027.071.04.106a3.808,3.808,0,0,1,.125.432c.017.073.027.148.043.221s-.006-.074,0,.023c.005.045.009.09.013.135a.5.5,0,0,0,1,0" fill="#b3b6c7"/>
        <path id="Pfad_1201" data-name="Pfad 1201" d="M198.275,39.428a3.775,3.775,0,0,0,4.226-2.34.5.5,0,0,0-.349-.615.511.511,0,0,0-.615.349s-.061.143-.026.064c-.017.038-.035.076-.053.113-.038.074-.078.146-.121.216a2.688,2.688,0,0,1-.154.224c.041-.053-.014.016-.03.036s-.053.062-.081.093a3.381,3.381,0,0,1-.381.356c-.027.021-.026.021,0,0l-.041.03-.1.07c-.077.051-.155.1-.235.141s-.147.077-.222.113c-.141.068.042-.015-.041.019l-.116.044a3.5,3.5,0,0,1-.5.136c-.04.006-.081.015-.122.019.1-.013-.059,0-.064.006-.082.006-.165.009-.247.009s-.165,0-.248-.011c-.005,0-.16-.02-.064-.005l-.147-.027a.511.511,0,0,0-.615.348.5.5,0,0,0,.349.615" fill="#b3b6c7"/>
        <path id="Pfad_1202" data-name="Pfad 1202" d="M207.048,37.383a21.107,21.107,0,0,1,5.717-2.617.5.5,0,0,0-.266-.965,22.038,22.038,0,0,0-5.956,2.719c-.537.35-.036,1.216.505.863" fill="#b3b6c7"/>
        <path id="Pfad_1203" data-name="Pfad 1203" d="M217.184,32.97a6.7,6.7,0,0,0,4.438-1.875c.464-.449-.244-1.155-.707-.707a5.653,5.653,0,0,1-3.731,1.582c-.642.02-.645,1.02,0,1" fill="#b3b6c7"/>
        <path id="Pfad_1204" data-name="Pfad 1204" d="M231.314,26.87a15.131,15.131,0,0,0,5.01-2.521.517.517,0,0,0,.18-.684.5.5,0,0,0-.685-.18,14.387,14.387,0,0,1-4.771,2.421.5.5,0,0,0,.266.964" fill="#b3b6c7"/>
        <path id="Pfad_1205" data-name="Pfad 1205" d="M243.454,21.991a14.068,14.068,0,0,0,4.975-1.195.5.5,0,0,0,.18-.684.512.512,0,0,0-.684-.179,12.766,12.766,0,0,1-4.471,1.058c-.64.034-.644,1.034,0,1" fill="#b3b6c7"/>
        <path id="Pfad_1206" data-name="Pfad 1206" d="M255.122,17.778l5.727-3.8c.534-.355.034-1.221-.505-.864l-5.727,3.805c-.533.354-.033,1.22.5.863" fill="#b3b6c7"/>
        <path id="Pfad_1207" data-name="Pfad 1207" d="M268.055,11.875a24.158,24.158,0,0,0,6.431-3.09c.53-.36.03-1.227-.505-.864a23.225,23.225,0,0,1-6.193,2.99c-.613.19-.35,1.155.267.964" fill="#b3b6c7"/>
        <path id="Pfad_1208" data-name="Pfad 1208" d="M279.524,7.222l3.5-2.144a.5.5,0,1,0-.505-.864l-3.5,2.145a.5.5,0,1,0,.5.863" fill="#b3b6c7"/>
        <path id="Pfad_1209" data-name="Pfad 1209" d="M286.914,3.98a4.967,4.967,0,0,0,4.032-1.491.5.5,0,0,0-.707-.707,3.991,3.991,0,0,1-3.325,1.2.5.5,0,0,0-.5.5.511.511,0,0,0,.5.5" fill="#b3b6c7"/>
        <path id="Pfad_1210" data-name="Pfad 1210" d="M339,64.069c5.716,9.633,6.138,20.856,3.017,31.439-.091.309.646.22.731-.069,3.148-10.676,2.681-21.965-3.081-31.676-.149-.251-.847,0-.667.306" fill="#b3b6c7"/>
        <path id="Pfad_1211" data-name="Pfad 1211" d="M339.248,60.062a34.419,34.419,0,0,1,6.885,25.469c-.04.324.694.205.728-.075a34.737,34.737,0,0,0-6.944-25.693c-.172-.223-.868.04-.669.3" fill="#b3b6c7"/>
        <g id="Gruppe_563" data-name="Gruppe 563">
          <path id="Pfad_1212" data-name="Pfad 1212" d="M246.5,46.627a207.211,207.211,0,0,0,27.2-9.016q3.708-1.522,7.356-3.183l-1.1-.448q5.918,16.314,11.834,32.627l3.351,9.239c.115-.282.23-.565.344-.847L263.627,88.876l-9.019,3.93,1.1.448a236.372,236.372,0,0,0-11.019-35.043q-1.927-4.791-4.061-9.5-.134.513-.269,1.026l4.217-1.963c.875-.407.114-1.7-.757-1.3L239.6,48.445a.766.766,0,0,0-.269,1.026A235.312,235.312,0,0,1,251.711,83.6q1.388,5,2.552,10.052a.762.762,0,0,0,1.1.448l31.854-13.877,9.019-3.93a.748.748,0,0,0,.345-.847q-5.916-16.314-11.834-32.627L281.4,33.581a.765.765,0,0,0-1.1-.448,205.72,205.72,0,0,1-26.429,9.9q-3.861,1.152-7.765,2.151a.75.75,0,0,0,.4,1.446" fill="#23234e"/>
          <path id="Pfad_1213" data-name="Pfad 1213" d="M265.722,86.044a31.86,31.86,0,0,1-2.938-7.515c-.123-.492-.508-1.363-.133-1.779a9.477,9.477,0,0,1,1.546-1.158q1.613-1.149,3.309-2.176a52.065,52.065,0,0,1,7.082-3.592q1.831-.756,3.716-1.372c.325-.106,1.356-.6,1.62-.42.174.12.26.57.343.763l.485,1.134q1.987,4.646,3.977,9.292c.378.885,1.671.122,1.295-.757q-1.989-4.646-3.977-9.292c-.5-1.168-.9-2.945-2.533-2.648a24.54,24.54,0,0,0-4.3,1.445,54.5,54.5,0,0,0-7.895,3.813q-1.992,1.173-3.876,2.515c-1.017.724-2.551,1.492-2.45,2.939a12.586,12.586,0,0,0,.517,2.342q.354,1.3.813,2.561a34.305,34.305,0,0,0,2.107,4.662c.462.848,1.757.092,1.295-.757" fill="#23234e"/>
          <path id="Pfad_1214" data-name="Pfad 1214" d="M260.209,60.748a18.49,18.49,0,0,1,5.311,2.337.757.757,0,0,0,1.129-.647A27.9,27.9,0,0,1,270.6,49a.751.751,0,0,0-1.3-.757,29.486,29.486,0,0,0-4.154,14.2l1.128-.648a19.813,19.813,0,0,0-5.669-2.488.75.75,0,0,0-.4,1.446" fill="#23234e"/>
        </g>
      </g>
    </g>
  </g>
</svg>
