<svg id="Komponente_76_3" data-name="Komponente 76 – 3" xmlns="http://www.w3.org/2000/svg" xmlns:xlink="http://www.w3.org/1999/xlink" width="312.561" height="116.729" viewBox="0 0 312.561 116.729">
  <defs>
    <clipPath id="clip-path">
      <rect id="Rechteck_360" data-name="Rechteck 360" width="312.561" height="116.729" transform="translate(0 0)" fill="none"/>
    </clipPath>
  </defs>
  <g id="Gruppe_516" data-name="Gruppe 516" transform="translate(0 0)" clip-path="url(#clip-path)">
    <path id="Pfad_989" data-name="Pfad 989" d="M1.529,112.327q21.646-6.123,43.436-11.718Q65.409,95.34,85.93,90.385c13.439-3.271,26.89-6.491,40.332-9.75q20.418-4.952,40.785-10.11,21.6-5.514,43.075-11.489,2.766-.774,5.528-1.555a.5.5,0,0,0-.266-.964q-21.645,6.122-43.436,11.718-20.442,5.27-40.964,10.224c-13.44,3.271-26.891,6.491-40.333,9.75q-20.418,4.952-40.785,10.11-21.6,5.514-43.075,11.489-2.764.772-5.528,1.555a.5.5,0,0,0,.266.964" fill="#b3b6c7"/>
    <path id="Pfad_990" data-name="Pfad 990" d="M1.533,115.76l-.035.083c-.154.366.284.706.615.615q18.018-4.914,36.1-9.609,17.048-4.434,34.134-8.718,16.671-4.192,33.358-8.319,16.577-4.114,33.147-8.253,16.992-4.26,33.955-8.633l4.424-1.147a.5.5,0,0,0-.266-.964q-17.118,4.447-34.272,8.749-16.593,4.171-33.2,8.278-16.656,4.134-33.3,8.293-17,4.263-33.974,8.642Q24.354,109.4,6.551,114.215q-2.352.638-4.7,1.279l.615.615c.012-.028.024-.055.035-.083.249-.593-.718-.851-.964-.266" fill="#b3b6c7"/>
    <path id="Pfad_991" data-name="Pfad 991" d="M312.375,26.8a1.127,1.127,0,0,0,0-1.093,20.482,20.482,0,0,0-16.331-9.776,1.177,1.177,0,0,0-1.24.912,1.182,1.182,0,0,0-.634.488c-3.464,5.142-7.26,10.057-10.9,15.076-.845,1.168-1.685,2.339-2.509,3.521a12.594,12.594,0,0,0-2.406,4.344,11.014,11.014,0,0,0,.019,3.2l.27,3.1q.276,3.167.553,6.332c.1,1.121.108,2.341,1.414,2.7a7.783,7.783,0,0,0,1.741.124l1.73.065,7.171.268a6.633,6.633,0,0,1,2.573-1c4.846-6.988,10.044-13.728,14.723-20.832,1.326-2.013,2.608-4.056,3.824-6.139a1.222,1.222,0,0,0,0-1.29m-3.7,2.608a1.364,1.364,0,0,0-.142-.2,26.052,26.052,0,0,0-5.06-4.9,10.538,10.538,0,0,0-6.758-1.9,1.258,1.258,0,0,0-.973,1.477,1.282,1.282,0,0,0,1.476.973c4.019-.319,7.093,3.247,9.434,5.99a1.134,1.134,0,0,0,.835.427c-3.618,5.642-7.61,11.042-11.53,16.476-1.406,1.949-2.8,3.905-4.174,5.881a1.287,1.287,0,0,0-.354-.066l-5.935-.221-2.967-.111c-.1,0-.489-.061-.806-.081-.026-.292-.05-.583-.076-.875l-.519-5.959q-.12-1.365-.239-2.731a9.368,9.368,0,0,1-.074-2.878,6.449,6.449,0,0,1,1.08-2q.559-.828,1.132-1.644,1.148-1.639,2.326-3.257c1.808-2.5,3.643-4.974,5.466-7.46,1.843-2.515,3.688-5.031,5.431-7.617a1.379,1.379,0,0,0,.14-.268,17.9,17.9,0,0,1,13.757,8.358c.014.023.032.043.047.065q-.744,1.269-1.517,2.52" fill="#b3b6c7"/>
    <path id="Pfad_992" data-name="Pfad 992" d="M183.982,70.138a55.2,55.2,0,0,0,5.894-1.969.513.513,0,0,0,.349-.615.5.5,0,0,0-.615-.349,55.351,55.351,0,0,1-5.894,1.969.5.5,0,0,0,.266.964" fill="#b3b6c7"/>
    <path id="Pfad_993" data-name="Pfad 993" d="M195.7,66.592a20.477,20.477,0,0,1,4.892-.794c.641-.025.644-1.025,0-1a21.621,21.621,0,0,0-5.158.83.5.5,0,0,0,.266.964" fill="#b3b6c7"/>
    <path id="Pfad_994" data-name="Pfad 994" d="M206.958,63.722l6.48-1.839a.5.5,0,0,0-.266-.964l-6.48,1.839a.5.5,0,0,0,.266.964" fill="#b3b6c7"/>
    <path id="Pfad_995" data-name="Pfad 995" d="M271.793,54.89a127.547,127.547,0,0,0-40,1.528q-5.572,1.107-11.033,2.7a.69.69,0,0,0,.48,1.294,125.58,125.58,0,0,1,19.352-4.034,127.3,127.3,0,0,1,19.864-.966q3.521.105,7.031.414a86.2,86.2,0,0,1-9.51,1.064,125.015,125.015,0,0,0-13.609,1.328,39.123,39.123,0,0,0-7.456,2.058.7.7,0,0,0-.407.887,2.752,2.752,0,0,0,2.422,1.507c1.308.155,2.641.185,3.956.272l8.268.55,1.509.1a35.35,35.35,0,0,1-6.333,1.353c-.88.105-.765,1.48.119,1.375a37.019,37.019,0,0,0,9.785-2.546c.573-.237.612-1.277-.114-1.326L240.4,61.4a11.107,11.107,0,0,1-1.764-.182c-.06-.014-.118-.03-.176-.048a49.445,49.445,0,0,1,12.115-2.368c4.559-.411,9.142-.54,13.687-1.1a50.849,50.849,0,0,0,7.649-1.491.7.7,0,0,0-.114-1.326" fill="#b3b6c7"/>
    <path id="Pfad_996" data-name="Pfad 996" d="M86.421,0l20.365,78.861L214.671,51,201.5,0Z" fill="#96c7c6"/>
    <path id="Pfad_997" data-name="Pfad 997" d="M192.075,0h-76.6a110.979,110.979,0,0,0-8.866,78.833L160.582,64.9A55.777,55.777,0,0,1,192.075,0" fill="#c7dede"/>
    <path id="Pfad_998" data-name="Pfad 998" d="M192.076,0a55.775,55.775,0,0,0-31.369,64.84l53.941-13.929L201.5,0Z" fill="#23234e"/>
    <path id="Pfad_999" data-name="Pfad 999" d="M78.742,0H0V34.587a55.414,55.414,0,0,0,38.818,4.206h0l.075-.019L92.744,24.869A55.322,55.322,0,0,0,78.742,0" fill="#23234e"/>
    <path id="Pfad_1000" data-name="Pfad 1000" d="M92.782,24.86h0L38.931,38.766l-.075.019h0A55.679,55.679,0,0,0,0,75.235v31.1L52.856,92.691h0A55.757,55.757,0,0,0,92.782,24.86" fill="#c7dede"/>
  </g>
</svg>
