<svg id="Gruppe_529" data-name="Gruppe 529" xmlns="http://www.w3.org/2000/svg" xmlns:xlink="http://www.w3.org/1999/xlink" width="278.557" height="119.052" viewBox="0 0 278.557 119.052">
  <defs>
    <clipPath id="clip-path">
      <rect id="Rechteck_374" data-name="Rechteck 374" width="278.557" height="119.052" fill="none"/>
    </clipPath>
  </defs>
  <g id="Gruppe_528" data-name="Gruppe 528" clip-path="url(#clip-path)">
    <path id="Pfad_1050" data-name="Pfad 1050" d="M42.912,0a71.734,71.734,0,0,0,80,96.839L104.749,0Z" fill="#dcedec"/>
    <path id="Pfad_1051" data-name="Pfad 1051" d="M138.948,0h-34.2L122.9,96.825A142.982,142.982,0,0,1,138.948,0" fill="#23234e"/>
    <path id="Pfad_1052" data-name="Pfad 1052" d="M249.94,0H138.721a142.978,142.978,0,0,0-16.067,96.887l70.618-13.241A71.86,71.86,0,0,1,249.94,0" fill="#c0dddc"/>
    <path id="Pfad_1053" data-name="Pfad 1053" d="M38.986,39.536A71.412,71.412,0,0,0,17.062,0H0V117.224A71.9,71.9,0,0,0,38.986,39.536" fill="#96c7c6"/>
    <path id="Pfad_1056" data-name="Pfad 1056" d="M206.257,54.09a43.957,43.957,0,0,0,5.038-2.442.9.9,0,1,0-.808-1.606,43.943,43.943,0,0,1-5.037,2.442.9.9,0,0,0-.4,1.207.922.922,0,0,0,1.207.4" fill="#b3b6c7"/>
    <path id="Pfad_1057" data-name="Pfad 1057" d="M205.97,60.11l5.191.526a.905.905,0,0,0,.943-.852.919.919,0,0,0-.852-.944l-5.191-.526a.906.906,0,0,0-.943.853.918.918,0,0,0,.852.943" fill="#b3b6c7"/>
    <path id="Pfad_1058" data-name="Pfad 1058" d="M203.931,65.168a18.355,18.355,0,0,1,1.719,2.115c.03.042.058.085.088.127.078.112-.074-.114,0,0,.063.1.127.192.189.29q.186.291.361.59c.233.4.449.805.652,1.219a.9.9,0,0,0,1.606-.807,19.231,19.231,0,0,0-3.266-4.723.9.9,0,1,0-1.349,1.188" fill="#b3b6c7"/>
    <path id="Pfad_1059" data-name="Pfad 1059" d="M240.576,111.876c-1.266-.47-2.7-1-3.377-2.233a2.078,2.078,0,0,1-.2-1.586,8.027,8.027,0,0,1,.426-1.132c.1-.228.2-.456.285-.689a2.992,2.992,0,0,0,.039-2.327.6.6,0,0,0-.464-.342.669.669,0,0,0-.594.192,5.962,5.962,0,0,1-3.016,1.808,5.849,5.849,0,0,1-5.245-1.321.657.657,0,0,0-1.108.509.61.61,0,0,0,.2.446c.079.071.159.138.235.2a6.129,6.129,0,0,1,2.155,2.736,3.179,3.179,0,0,1-1.287,3.262,5.662,5.662,0,0,1-2.047.941.618.618,0,0,0-.446.408.706.706,0,0,0,.045.523.652.652,0,0,0,.794.829,9.3,9.3,0,0,1,4.2.03,3.131,3.131,0,0,1,2.116,1.99,5.572,5.572,0,0,1,.127,1.193,6.367,6.367,0,0,0,.132,1.256.633.633,0,0,0,.627.483.79.79,0,0,0,.1-.007.631.631,0,0,0,.573-.65,10.135,10.135,0,0,1,.544-3.716,1.546,1.546,0,0,1,.314-.563,1.507,1.507,0,0,1,.614-.324,13.006,13.006,0,0,1,1.862-.453,13.156,13.156,0,0,1,2.179-.175.634.634,0,0,0,.653-.517.691.691,0,0,0-.438-.771m-9.722-1.125a4.208,4.208,0,0,0,.422-2.545,4.124,4.124,0,0,0-.467-1.33c.236.052.475.093.714.122a7.2,7.2,0,0,0,4.99-1.314c-.038.111-.081.219-.122.322-.067.168-.14.335-.213.5a6.931,6.931,0,0,0-.508,1.452,4.046,4.046,0,0,0,2,4.018c.046.03.094.06.143.09a13.585,13.585,0,0,0-1.8.438,2.586,2.586,0,0,0-1.689,1.32,5.459,5.459,0,0,0-.3.786,4.243,4.243,0,0,0-.44-.524,5.752,5.752,0,0,0-4.035-1.527h-.287a4.964,4.964,0,0,0,1.6-1.81" fill="#b3b6c7"/>
    <path id="Pfad_1060" data-name="Pfad 1060" d="M267.151,83.679c-.074-.034-.149-.066-.223-.1a4.766,4.766,0,0,1-2.217-1.554,2.451,2.451,0,0,1,.23-2.691,4.428,4.428,0,0,1,1.314-1.156.534.534,0,0,0,.27-.452.6.6,0,0,0-.152-.405.566.566,0,0,0-.854-.477,7.58,7.58,0,0,1-3.157.926,2.412,2.412,0,0,1-2-1,4.393,4.393,0,0,1-.361-.86,4.992,4.992,0,0,0-.388-.926.573.573,0,0,0-1.034.467,7.944,7.944,0,0,1,.428,2.9,1.189,1.189,0,0,1-.1.472,1.115,1.115,0,0,1-.374.364,10.009,10.009,0,0,1-1.293.758,10.3,10.3,0,0,1-1.607.626.541.541,0,0,0-.4.59.594.594,0,0,0,.553.529h0a4.568,4.568,0,0,1,3.015.9,1.59,1.59,0,0,1,.492,1.112,6.333,6.333,0,0,1-.065.941c-.023.195-.046.39-.059.587a2.4,2.4,0,0,0,.509,1.8.511.511,0,0,0,.4.176.528.528,0,0,0,.078,0,.566.566,0,0,0,.445-.308,4.629,4.629,0,0,1,1.843-2.022,4.544,4.544,0,0,1,4.2-.186.575.575,0,0,0,.755-.242.584.584,0,0,0,.037-.457.544.544,0,0,0-.283-.325m-8.039-3.492a2.124,2.124,0,0,0,1-1.412,4.232,4.232,0,0,0,.052-.564,3.329,3.329,0,0,0,.373.238,4.563,4.563,0,0,0,3.426.242l.06-.017a3.9,3.9,0,0,0-.705,1.617,3.367,3.367,0,0,0,.262,2.045,3.268,3.268,0,0,0,.582.83c-.152.014-.3.034-.457.06a5.666,5.666,0,0,0-3.008,1.582,5.451,5.451,0,0,0-.381.422c0-.033.006-.066.008-.1.013-.141.03-.283.047-.424a5.435,5.435,0,0,0,.054-1.221,3.227,3.227,0,0,0-2.449-2.62,10.847,10.847,0,0,0,1.14-.679" fill="#b3b6c7"/>
    <path id="Pfad_1061" data-name="Pfad 1061" d="M278.268,93.812h0a6.339,6.339,0,0,0-1.647-.741,5.991,5.991,0,0,0-.856-.178l-.2-.022a2.019,2.019,0,0,1-.552-.107c-.319-.134-.346-.541-.347-.663a2.694,2.694,0,0,1,.493-1.286l.049-.084a.576.576,0,0,0-.128-.756.636.636,0,0,0-.822.008,3.547,3.547,0,0,0-.7.964c-.284.5-.528.926-1.024,1.051a3.688,3.688,0,0,1-2.277-.532.531.531,0,0,0-.071-.029,1.014,1.014,0,0,0-.8-.228.759.759,0,0,0-.591.516.637.637,0,0,0,.191.657.589.589,0,0,0,.579.142c.045.045.089.09.13.137a2.571,2.571,0,0,1,.352.535,2.788,2.788,0,0,1,.293,1.277,3.334,3.334,0,0,1-1.355,2.55l-.081.063a.577.577,0,0,0-.056.82.568.568,0,0,0,.806.136l.08-.063A2.109,2.109,0,0,1,272,97.867a3.181,3.181,0,0,1,1.475,2.186.56.56,0,0,0,.559.456c.02,0,.041,0,.061,0a.63.63,0,0,0,.582-.6l.065-3.45a1.655,1.655,0,0,1,.137-.79,1.534,1.534,0,0,1,1.105-.586,8,8,0,0,1,.967-.06,7.789,7.789,0,0,0,1.149-.085.545.545,0,0,0,.448-.44.664.664,0,0,0-.276-.678m-6.724,1.027a3.974,3.974,0,0,0-.188-1.674,3.341,3.341,0,0,0,1.449.023,2.138,2.138,0,0,0,.77-.342,1.752,1.752,0,0,0,.537.782,2.083,2.083,0,0,0,1.006.408,2.666,2.666,0,0,0-.588.284,2.118,2.118,0,0,0-.968,1.5,10.182,10.182,0,0,0-.067,1.425V97.5a3.41,3.41,0,0,0-.278-.261,3.6,3.6,0,0,0-2.14-.858,4.328,4.328,0,0,0,.467-1.542m-1.964,2.947Z" fill="#b3b6c7"/>
    <g id="Gruppe_530" data-name="Gruppe 530">
      <path id="Pfad_1054" data-name="Pfad 1054" d="M204.227,91.046l-12.061-8.609c.535-.4,1.054-.812,1.56-1.245l0,0a4.35,4.35,0,0,0-.031-6.677L180.193,63.1a4.863,4.863,0,0,0-1.645-.863V53.468l21.363-16.043a5.526,5.526,0,0,0,2.245-4.416,4.993,4.993,0,0,0-4.35-4.987,5.582,5.582,0,0,0-4.124,1.073L174.825,43.248H136.919a5,5,0,0,0-4.99,4.99v.431a5.006,5.006,0,0,0,4.99,5.01h21.052v8.816a4.61,4.61,0,0,0-2.16,2.139l-8.834,18.637a4.3,4.3,0,0,0,.076,3.842,4.527,4.527,0,0,0,3.272,2.363,75.73,75.73,0,0,0,7.646,1v19.271c0,3.867,2.789,7.014,6.218,7.014s6.2-3.147,6.2-7.014V90.364A50.55,50.55,0,0,0,179.49,88.6l17.45,12.5a6.031,6.031,0,0,0,8.44-1.373l.2-.3a6.026,6.026,0,0,0-1.353-8.386M136.919,50.679a2,2,0,0,1-1.99-2.01v-.431a1.992,1.992,0,0,1,1.99-1.99h38.406a1.5,1.5,0,0,0,.9-.3l19.259-14.454a2.554,2.554,0,0,1,1.89-.5,2.1,2.1,0,0,1,1.4.809,2.044,2.044,0,0,1,.382,1.209,2.483,2.483,0,0,1-1.038,2.01l-21.97,16.5a1.5,1.5,0,0,0-.6,1.2V62.01H160.971V52.179a1.5,1.5,0,0,0-1.5-1.5Zm12.795,35.048a1.3,1.3,0,0,1-.023-1.176l8.828-18.626a1.688,1.688,0,0,1,1.534-.915h17.081a1.863,1.863,0,0,1,1.143.4l13.485,11.4a1.351,1.351,0,0,1,.014,2.108,28.313,28.313,0,0,1-3.049,2.265q-1.029.69-2.13,1.308c-.3.166-.612.312-.917.47-.447.233-.887.475-1.35.69-.372.174-.764.323-1.147.485-.416.175-.823.363-1.25.525s-.844.288-1.266.431-.822.294-1.247.422c-.036.008-.071.016-.106.027a47.982,47.982,0,0,1-10.545,1.982h-.036a67.472,67.472,0,0,1-9.172.061,73,73,0,0,1-8.708-1.058,1.559,1.559,0,0,1-1.139-.8m17.67,24.02c0,2.213-1.433,4.014-3.2,4.014s-3.218-1.8-3.218-4.014V90.678a59.778,59.778,0,0,0,6.413-.046ZM203.131,97.7l-.033.047-.182.276a3.023,3.023,0,0,1-4.223.65L183.031,87.449c.774-.294,1.525-.618,2.265-.955.186-.084.37-.17.554-.257.74-.351,1.468-.717,2.172-1.111.054-.031.1-.064.159-.094.454-.258.9-.52,1.342-.795l12.953,9.244a3.022,3.022,0,0,1,.655,4.218" fill="#23234e"/>
      <path id="Pfad_1055" data-name="Pfad 1055" d="M167.621,42.478a9.653,9.653,0,1,0-9.653-9.653,9.663,9.663,0,0,0,9.653,9.653m0-16.305a6.653,6.653,0,1,1-6.653,6.652,6.659,6.659,0,0,1,6.653-6.652" fill="#23234e"/>
      <path id="Pfad_1062" data-name="Pfad 1062" d="M91.438,39.05c-14.886-7.406-15.792-7.406-16.18-7.406a1.5,1.5,0,0,0-.194,2.987c1.139.331,8.488,3.847,15.038,7.106a1.5,1.5,0,0,0,1.336-2.687" fill="#23234e"/>
      <path id="Pfad_1063" data-name="Pfad 1063" d="M96.436,18.085H78.628a1.5,1.5,0,0,0,0,3H96.436a1.5,1.5,0,0,0,0-3" fill="#23234e"/>
      <path id="Pfad_1064" data-name="Pfad 1064" d="M70.823,43.788a1.5,1.5,0,0,0-2.2,2.041L80.159,58.246a1.5,1.5,0,0,0,2.2-2.041Z" fill="#23234e"/>
      <path id="Pfad_1065" data-name="Pfad 1065" d="M28.978,7.326H29.3a5.1,5.1,0,0,0,5.1-5.079V0h-3V2.247a2.093,2.093,0,0,1-2.1,2.079h-.318A2.107,2.107,0,0,1,26.9,2.247V0h-3V2.247a5.084,5.084,0,0,0,5.078,5.079" fill="#23234e"/>
      <path id="Pfad_1066" data-name="Pfad 1066" d="M75.472,6.011,52.457,2.695,45.983,0H38.178l11.755,4.9L38.293,32.859,20.78,25.568A15.15,15.15,0,0,1,16.843,0H12.638a18.142,18.142,0,0,0,6.99,28.338l18.6,7.746L57.007,50.366a1.492,1.492,0,0,0,.908.307,1.437,1.437,0,0,0,.39-.052,1.5,1.5,0,0,0,.995-.872L76.643,8.072a1.5,1.5,0,0,0-1.171-2.061M57.277,46.8,40.937,34.371,52.836,5.78,73.131,8.7Z" fill="#23234e"/>
    </g>
  </g>
</svg>
