<svg xmlns="http://www.w3.org/2000/svg" xmlns:xlink="http://www.w3.org/1999/xlink" width="269.751" height="122.07" viewBox="0 0 269.751 122.07">
  <defs>
    <clipPath id="clip-path">
      <rect id="Rechteck_236" data-name="Rechteck 236" width="269.751" height="122.07" transform="translate(0 0)" fill="none"/>
    </clipPath>
  </defs>
  <g id="Gruppe_434" data-name="Gruppe 434" transform="translate(0 0)" clip-path="url(#clip-path)">
    <path id="Pfad_743" data-name="Pfad 743" d="M122.071,0A122.209,122.209,0,0,1,0,122.07V61.009A61.078,61.078,0,0,0,61.01,0Z" fill="#c0dddc"/>
    <path id="Pfad_744" data-name="Pfad 744" d="M57.814,93.681q2.213,3.1,4.276,6.293a1.739,1.739,0,0,0,1.2.5A3.531,3.531,0,0,0,65,100.16c.741-.363,1.663-1.112,1.092-2q-2.064-3.2-4.276-6.293a1.753,1.753,0,0,0-1.2-.505,3.532,3.532,0,0,0-1.71.319c-.7.344-1.706,1.136-1.092,2" fill="#fbfaf9"/>
    <path id="Pfad_745" data-name="Pfad 745" d="M105.95,29.3q2.961.867,5.84,1.985a3.018,3.018,0,0,0,1.638-.033,3.1,3.1,0,0,0,1.436-.79,1.17,1.17,0,0,0,.391-1.085,1.285,1.285,0,0,0-.881-.743q-2.877-1.117-5.84-1.985a3.192,3.192,0,0,0-1.638.033,3.1,3.1,0,0,0-1.436.79,1.17,1.17,0,0,0-.391,1.085,1.228,1.228,0,0,0,.881.743" fill="#fbfaf9"/>
    <path id="Pfad_746" data-name="Pfad 746" d="M98.578,45.647a32.859,32.859,0,0,0,7.91,2.8,3.047,3.047,0,0,0,1.715-.3,2.342,2.342,0,0,0,1.116-1.028,1.155,1.155,0,0,0-.086-1.2A2.023,2.023,0,0,0,108,45.3q-.313-.069.126.03l-.249-.058c-.125-.03-.25-.06-.374-.092-.29-.073-.579-.15-.866-.233q-.863-.246-1.709-.546t-1.672-.651c-.275-.117-.548-.239-.82-.364l-.348-.164-.23-.112c.228.114.254.126.076.037a2.638,2.638,0,0,0-1.481-.332,3.138,3.138,0,0,0-1.635.6,1.755,1.755,0,0,0-.762,1.152,1.129,1.129,0,0,0,.525,1.082" fill="#fbfaf9"/>
    <path id="Pfad_747" data-name="Pfad 747" d="M91.929,60.07l5.315,3.463a1.939,1.939,0,0,0,1.122.194,5.512,5.512,0,0,0,1.7-.371c.254-.1,1.968-.9,1.263-1.356q-2.656-1.732-5.315-3.463a1.938,1.938,0,0,0-1.122-.194,5.506,5.506,0,0,0-1.695.371c-.255.1-1.969.9-1.264,1.356" fill="#fbfaf9"/>
    <path id="Pfad_748" data-name="Pfad 748" d="M90.843,74.647A20.948,20.948,0,0,1,88.06,72.3q.161.164.322.325Q87.765,72,87.2,71.327a1.973,1.973,0,0,0-1.256-.693,2.931,2.931,0,0,0-1.718.287,2.241,2.241,0,0,0-1.1,1.086,1.311,1.311,0,0,0,.113,1.3,22.7,22.7,0,0,0,4.285,3.971,2.385,2.385,0,0,0,1.5.39,2.933,2.933,0,0,0,1.631-.61,1.83,1.83,0,0,0,.742-1.228,1.351,1.351,0,0,0-.551-1.18" fill="#fbfaf9"/>
    <path id="Pfad_749" data-name="Pfad 749" d="M35.793,110.625q-.454-.777-.842-1.59l.192.406a21.092,21.092,0,0,1-1.254-3.37c-.292-1.051-1.692-1.3-2.6-1.025-.892.271-2.048,1.092-1.743,2.19a22.742,22.742,0,0,0,2.289,5.367,1.866,1.866,0,0,0,1.256.692,2.939,2.939,0,0,0,1.718-.286c.886-.484,1.563-1.4.988-2.384" fill="#fbfaf9"/>
    <path id="Pfad_750" data-name="Pfad 750" d="M44.6,102.263c.125.21.25.421.373.633l-.155-.267a64.963,64.963,0,0,1,3.083,6.033c.382.852,1.73.714,2.463.5a3.435,3.435,0,0,0,1.452-.729c.217-.211.584-.6.432-.935a67.122,67.122,0,0,0-3.611-6.933c-.179-.3-.9-.371-1.172-.379a4.109,4.109,0,0,0-1.7.339,2.5,2.5,0,0,0-1.165.846.746.746,0,0,0,0,.892" fill="#fbfaf9"/>
    <path id="Pfad_751" data-name="Pfad 751" d="M70.783,84.783a25.912,25.912,0,0,1,5.4,5.681c.17.243.92.228,1.13.22a5.258,5.258,0,0,0,1.7-.367,2.852,2.852,0,0,0,1.2-.723l.167-.253a.354.354,0,0,0-.116-.434,25.92,25.92,0,0,0-5.4-5.681,1.86,1.86,0,0,0-1.128-.219,5.268,5.268,0,0,0-1.7.366c-.313.127-1.936.878-1.248,1.41" fill="#fbfaf9"/>
    <path id="Pfad_752" data-name="Pfad 752" d="M183.228,0H121.977a61.319,61.319,0,0,0,61.251,61.25A61.319,61.319,0,0,0,244.479,0Z" fill="#4d908e"/>
    <path id="Pfad_753" data-name="Pfad 753" d="M269.565,46.376a1.127,1.127,0,0,0,0-1.093,20.482,20.482,0,0,0-16.331-9.776,1.177,1.177,0,0,0-1.24.912,1.182,1.182,0,0,0-.634.488c-3.464,5.142-7.26,10.057-10.9,15.076-.845,1.168-1.685,2.339-2.509,3.521a12.593,12.593,0,0,0-2.406,4.344,11.015,11.015,0,0,0,.019,3.2l.27,3.1.552,6.332c.1,1.121.109,2.341,1.415,2.7a7.783,7.783,0,0,0,1.741.124l1.73.065,7.171.268a6.633,6.633,0,0,1,2.573-1c4.846-6.988,10.044-13.728,14.723-20.832,1.326-2.013,2.608-4.056,3.824-6.139a1.222,1.222,0,0,0,0-1.29m-3.7,2.608a1.364,1.364,0,0,0-.142-.2,26.053,26.053,0,0,0-5.06-4.9,10.539,10.539,0,0,0-6.759-1.9,1.26,1.26,0,0,0-.973,1.477,1.284,1.284,0,0,0,1.477.973c4.019-.319,7.093,3.247,9.434,5.99a1.134,1.134,0,0,0,.835.427c-3.618,5.642-7.61,11.042-11.53,16.476-1.406,1.949-2.8,3.9-4.174,5.881a1.287,1.287,0,0,0-.354-.066l-5.935-.221-2.967-.111c-.1,0-.489-.061-.806-.081-.026-.292-.05-.583-.076-.875q-.259-2.979-.52-5.959-.119-1.365-.238-2.731A9.367,9.367,0,0,1,238,60.289a6.449,6.449,0,0,1,1.08-2q.56-.828,1.132-1.644,1.147-1.64,2.326-3.257c1.808-2.5,3.643-4.974,5.466-7.46,1.843-2.514,3.688-5.031,5.431-7.617a1.379,1.379,0,0,0,.14-.268A17.9,17.9,0,0,1,267.331,46.4c.014.023.032.043.047.065q-.744,1.269-1.517,2.52" fill="#b3b6c7"/>
    <path id="Pfad_754" data-name="Pfad 754" d="M228.63,76.349A116.827,116.827,0,0,0,191.991,74.6c-3.454.383-6.914.92-10.284,1.6a.673.673,0,0,0-.44.319.79.79,0,0,0-.1.612.76.76,0,0,0,.922.531A115.041,115.041,0,0,1,200.037,75.5a116.51,116.51,0,0,1,18.17.68c1.781.207,3.594.464,5.4.764-2.427.182-4.892.19-7.764.14-.654-.01-1.308-.024-1.963-.038a93.578,93.578,0,0,0-10.566.18,35.729,35.729,0,0,0-6.984,1.3.789.789,0,0,0-.467.385.714.714,0,0,0-.058.549,2.606,2.606,0,0,0,2.185,1.649c.814.169,1.655.286,2.468.4.376.053.751.105,1.124.162l8.18,1.256a32.268,32.268,0,0,1-5.182.593.722.722,0,0,0-.633.383.836.836,0,0,0,.018.813.669.669,0,0,0,.594.317h.029a34.007,34.007,0,0,0,9.158-1.559.834.834,0,0,0,.535-.856.635.635,0,0,0-.554-.6l-14.25-2.188-.3-.043a9.982,9.982,0,0,1-1.012-.182,45.392,45.392,0,0,1,10.777-1.1c1.655-.009,3.343.029,4.973.062,2.489.052,5.065.105,7.6.012a46.208,46.208,0,0,0,7.111-.761.7.7,0,0,0,.553-.718.719.719,0,0,0-.551-.745" fill="#23234e"/>
    <path id="Pfad_755" data-name="Pfad 755" d="M183.592,12.517l1.249-2.91a2.5,2.5,0,1,0-4.6-1.972L179,10.546A18.58,18.58,0,0,0,160.134,40.8L140.845,63.258a34.784,34.784,0,0,1-2.164-3.118,2.5,2.5,0,0,0-4.273,2.6,39.485,39.485,0,0,0,3.116,4.389L114.205,94.272A2.5,2.5,0,1,0,118,97.53l22.946-26.713a39.343,39.343,0,0,0,11.62,7.676,2.5,2.5,0,1,0,1.972-4.6A34.323,34.323,0,0,1,144.2,67.022l19.721-22.959a17.326,17.326,0,0,0,5.763,2.472l-7.1,70.126a2.5,2.5,0,0,0,2.236,2.739,2.448,2.448,0,0,0,.255.013,2.5,2.5,0,0,0,2.484-2.248l7.1-70.12a18.586,18.586,0,0,0,8.93-34.528m-14.927,28.45a13.642,13.642,0,0,1-1.447-.737l3.525-4.1L170.2,41.51a13.99,13.99,0,0,1-1.532-.543m17.873-7.14a13.623,13.623,0,0,1-11.367,8.189l2.15-21.221-13.9,16.179a13.606,13.606,0,1,1,23.115-3.147" fill="#23234e"/>
    <path id="Pfad_756" data-name="Pfad 756" d="M166.257,80.455c-.035,0-.07,0-.106,0-.326-.028-1.846-.192-2.172-.227a1.25,1.25,0,0,1,.27-2.486c.305.033,1.633.323,1.939.349.688.057,1.371.534,1.313,1.221a1.249,1.249,0,0,1-1.244,1.147m-6.314-.933c-.1,0-.7-.124-.8-.149-.319-.076-.638-.158-.956-.244a1.251,1.251,0,0,1,.654-2.414c.295.08.976.292,1.272.364a1.286,1.286,0,0,1,1.038,1.466,1.259,1.259,0,0,1-1.206.977" fill="#23234e"/>
    <path id="Pfad_757" data-name="Pfad 757" d="M174.174,79.583a1.223,1.223,0,0,1-1.222-.872.951.951,0,0,1,.871-1.193l1.725-.094c.677-.126,1.687-.068,1.832.523S177,79,176.327,79.127c0,0-2.068.456-2.153.456" fill="#23234e"/>
  </g>
</svg>
