<svg id="Gruppe_555" data-name="Gruppe 555" xmlns="http://www.w3.org/2000/svg" xmlns:xlink="http://www.w3.org/1999/xlink" width="272.148" height="126.864" viewBox="0 0 272.148 126.864">
  <defs>
    <clipPath id="clip-path">
      <rect id="Rechteck_383" data-name="Rechteck 383" width="272.148" height="126.864" fill="none"/>
    </clipPath>
  </defs>
  <path id="Pfad_1151" data-name="Pfad 1151" d="M5.645,0,21.772,114.623l188.7-26.692L198.1,0Z" fill="#dcedec"/>
  <g id="Gruppe_554" data-name="Gruppe 554">
    <g id="Gruppe_553" data-name="Gruppe 553" clip-path="url(#clip-path)">
      <path id="Pfad_1152" data-name="Pfad 1152" d="M197.974.065h-70.24A78.027,78.027,0,0,1,78.622,27.4l10.953,77.639A156.5,156.5,0,0,0,202.211,30.1Z" fill="#c0dddc"/>
      <path id="Pfad_1153" data-name="Pfad 1153" d="M127.692.138H5.645l5.2,36.892,67.728-9.555.107-.015h0A78.03,78.03,0,0,0,127.692.138" fill="#dcedec"/>
      <rect id="Rechteck_382" data-name="Rechteck 382" width="68.53" height="78.407" transform="translate(10.768 37.001) rotate(-8.03)" fill="#96c7c6"/>
      <path id="Pfad_1154" data-name="Pfad 1154" d="M65.225,77.028A17.693,17.693,0,1,0,50.177,97.019,17.693,17.693,0,0,0,65.225,77.028m-9.151-2.739L47.127,87.933l-8.189-6.456a2,2,0,1,1,2.476-3.14l4.762,3.752L52.729,72.1a2,2,0,1,1,3.345,2.193" fill="#23234e"/>
      <path id="Pfad_1155" data-name="Pfad 1155" d="M57.4,21.525A17.693,17.693,0,1,0,42.347,41.516,17.693,17.693,0,0,0,57.4,21.525m-9.151-2.74L39.3,32.43l-8.189-6.456a2,2,0,1,1,2.476-3.14l4.762,3.752L44.9,16.593a2,2,0,1,1,3.345,2.192" fill="#23234e"/>
      <path id="Pfad_1156" data-name="Pfad 1156" d="M94.576,20.2s0,0-.025-.018l.021.016,0,0" fill="#1b1a2e"/>
      <path id="Pfad_1157" data-name="Pfad 1157" d="M176.2,8.051a2.033,2.033,0,0,0-2.459-1.4A46.778,46.778,0,0,1,164.7,8.367a73.182,73.182,0,0,1-9.213-.041,15.823,15.823,0,0,0-4.888.436,14.683,14.683,0,0,0-4,1.925c-1.131.739-2.215,1.551-3.388,2.223-.263.149-.528.291-.8.424-.144.071-.288.138-.434.2-.039.017-.059.027-.072.034l-.066.025a17.362,17.362,0,0,1-1.8.6c-.614.165-1.236.3-1.863.4-.126.021-.252.04-.378.06l-.094.015-.042.005c-.351.044-.7.081-1.057.112-1.3.113-2.612.148-3.919.157-2.563.018-5.128-.071-7.687.113a22.335,22.335,0,0,0-8,1.9c-2.36,1.106-4.174,3.095-6.543,4.172-.059.023-.18.073-.225.089-.168.058-.34.109-.514.151-.1.024-.2.042-.3.063l-.026.006h-.061c-.306.007-.6.006-.911-.008.019,0,.023,0,.044.01l-.049-.01h-.022a.333.333,0,0,1-.152-.037c-.076-.015-.152-.03-.227-.05a2.01,2.01,0,0,0-.362-.111l-.011,0c-.041-.02-.083-.039-.123-.06-.085-.045-.166-.1-.252-.146-.02-.011-.03-.013-.045-.02l-.009-.01c-.1-.1-.2-.2-.3-.3.212.214.133.145-.015-.058a.249.249,0,0,1-.02-.032c-.032-.106-.061-.213-.1-.319-.008-.023-.012-.03-.018-.047s0-.026,0-.052c0-.164-.013-.327-.01-.492,0-.281.025-.561.051-.84.058-.634.157-1.265.175-1.9a4.44,4.44,0,0,0-1.944-4.044,2,2,0,0,0-2.019,0,22.783,22.783,0,0,0-4.631,3.453,20.308,20.308,0,0,0-1.805,1.995c-.189.239-.374.481-.559.724-.048.062-.1.125-.141.187l-.06.075c-.119.145-.238.29-.365.428-.061.068-.126.134-.192.2l-.13.121c-.05.015-.28.153-.218.15-.169.045-.262.035.039.034l-.2.01h-.011a.253.253,0,0,1-.03,0l-.133-.08,0,0c-.049-.029-.1-.06-.146-.087.063.035.1.056.124.072a1.071,1.071,0,0,1-.149-.126,2.087,2.087,0,0,0-.143-.154c-.083-.139-.181-.271-.26-.413-.06-.107-.111-.218-.165-.328.079.153-.063-.165-.106-.3-.05-.155-.094-.313-.131-.472-.022-.094-.053-.277-.066-.337a12.516,12.516,0,0,1,.1-2.272,10.988,10.988,0,0,0-.386-5.462,5.82,5.82,0,0,0-4.251-3.495A8.058,8.058,0,0,0,83.6,7.67,13.771,13.771,0,0,0,79.5,11.448c-2.988,3.836-5.832,7.792-8.739,11.691a2.007,2.007,0,0,0,.719,2.736,2.058,2.058,0,0,0,2.736-.717q3.818-5.121,7.634-10.241.18-.243.362-.483l.2-.269c.283-.361.572-.717.876-1.06.266-.3.542-.592.832-.869.144-.138.294-.269.443-.4l.095-.08c.059-.043.26-.195.287-.213.325-.221.667-.393,1.007-.586-.291.165.013-.005.158-.055a6.125,6.125,0,0,1,.666-.182c.163-.035.5-.045.151-.034.172-.005.344-.025.515-.026s.317.016.474.018c.085.017.171.032.255.052.142.036.281.083.42.131.036.019.167.077.248.124.145.086.36.3.129.068.059.058.125.109.182.169.014.014.088.092.134.137.027.036.054.071.058.079.066.107.126.213.187.322.025.045.041.071.053.089a.971.971,0,0,0,.025.115c.05.179.1.356.136.537,0,.008.008.048.014.09.006.071.017.2.019.22.107,1.673-.356,3.324-.27,4.991.166,3.225,2.654,7.537,6.5,6.286a5.678,5.678,0,0,0,2.641-1.92c.206-.255.4-.516.6-.776l.169-.222c.019-.024.038-.049.055-.069.325-.4.661-.8,1.015-1.176a17.8,17.8,0,0,1,2.432-2.206c0,.04,0,.08-.009.121a9.818,9.818,0,0,0,.048,3.657c.733,2.663,3.522,4.035,6.132,3.954,2.878-.089,5.072-1.839,7.3-3.45A18.72,18.72,0,0,1,118,20.94q.414-.24.845-.448c.114-.055.231-.107.344-.161l.108-.047c.065-.027.132-.054.2-.079a18.071,18.071,0,0,1,3.65-.951c.123-.019.243-.037.365-.054l.147-.017c.319-.032.638-.068.958-.1.679-.057,1.36-.092,2.041-.114,1.315-.043,2.632-.036,3.949-.03a53.234,53.234,0,0,0,8.257-.431,18.748,18.748,0,0,0,7.517-2.859c1.155-.758,2.265-1.592,3.474-2.265a6.4,6.4,0,0,1,1.39-.641,7.723,7.723,0,0,1,2.155-.417,49.27,49.27,0,0,1,5.125.165,48.391,48.391,0,0,0,5.466-.075,51.724,51.724,0,0,0,10.81-1.91,2.026,2.026,0,0,0,1.4-2.46M94.685,20.274c-.136-.012-.115-.045,0,0m1.225-1.052c.031-.041.028-.036,0,0m3.5,1.95c-.089.118-.053.068,0,0m3.511-4.912-.021-.024c-.092-.161-.019-.107.021.024m3.94,4.322c-.044-.085-.063-.182,0,0" fill="#23234e"/>
      <path id="Pfad_1158" data-name="Pfad 1158" d="M108.416,21.43a.735.735,0,0,0-.18-.038c.059.011.117.024.174.038Z" fill="#1b1a2e"/>
      <path id="Pfad_1159" data-name="Pfad 1159" d="M150.794,67.359a2.048,2.048,0,0,0-2.46-1.4l-12.94,2.756c-2.135.454-4.268.919-6.406,1.361a29.612,29.612,0,0,1-5.926.765,24.263,24.263,0,0,0-6.382.515,24.657,24.657,0,0,0-2.88,1.1l-.5.215c.009-.005-.292.12-.347.142-.439.177-.883.344-1.337.481-.224.068-.45.129-.678.181-.1.022-.2.042-.294.062l-.13.023-.131.014c-.1.006-.2.012-.3.016a5.893,5.893,0,0,1-.861-.031c-.239-.028-.067-.014-.02-.005-.11-.019-.22-.042-.329-.065-.219-.046-.437-.1-.654-.156-.517-.137-1.028-.3-1.54-.456q-3.147-.966-6.293-1.932a8.91,8.91,0,0,0-3.982-.466,9.755,9.755,0,0,0-3.285,1.363c-.745.427-1.465.9-2.172,1.388a11.107,11.107,0,0,0-1.007-2.928,2.052,2.052,0,0,0-2.737-.718,12.171,12.171,0,0,0-6.721,7.938,2,2,0,0,0,3.857,1.063c.1-.357.208-.705.336-1.052.017-.044.024-.065.033-.093s.03-.055.055-.106c.082-.165.162-.33.249-.492q.241-.445.526-.865c.025-.038.171-.239.224-.316s.221-.266.251-.3a10.069,10.069,0,0,1,.7-.728c.128-.12.261-.234.393-.349,0,.025.009.049.013.075s0,.014.005.046a8.575,8.575,0,0,1,.021,1.36c0,.027-.039.319-.043.383-.044.247-.1.492-.162.734a2.016,2.016,0,0,0,3.343,1.946,26.045,26.045,0,0,1,4.464-3.306,9.236,9.236,0,0,1,2.293-1.108,3.277,3.277,0,0,1,.834,0,14.859,14.859,0,0,1,1.564.423l6.174,1.895a12.2,12.2,0,0,0,6.191.64,13.707,13.707,0,0,0,2.5-.82c.509-.21,1.015-.428,1.521-.644l.138-.059.145-.059c.223-.09.446-.178.671-.262a12.658,12.658,0,0,1,1.266-.4c.217-.055.435-.1.655-.143l.209-.035.3-.032c1.05-.1,2.105-.077,3.158-.077,4.289,0,8.465-1.074,12.635-1.962l14.4-3.068a2.014,2.014,0,0,0,1.4-2.46" fill="#23234e"/>
      <path id="Pfad_1160" data-name="Pfad 1160" d="M211.638,94.625q-17.916,2.246-35.811,4.665-19.462,2.616-38.91,5.355-20.123,2.826-40.233,5.747-19.576,2.843-39.142,5.758-17.924,2.674-35.837,5.412l-4.065.622c.2.118.41.233.615.351q-.763-4.256-1.5-8.512Q14.876,103.2,13.08,92.359q-2.4-14.495-4.636-29.016C6.887,53.172,5.4,42.99,4.073,32.785,2.935,24.05,1.877,15.293,1.194,6.508Q1.09,5.172,1,3.835c-.042-.639-1.043-.643-1,0,.566,8.515,1.556,17,2.625,25.467C3.9,39.394,5.342,49.465,6.859,59.522q2.24,14.853,4.69,29.671,1.887,11.474,3.869,22.932.624,3.609,1.26,7.219a23.422,23.422,0,0,0,.587,3.312,1.159,1.159,0,0,1,.026.143.511.511,0,0,0,.615.35q17.552-2.694,35.114-5.319,19.33-2.891,38.67-5.708,20.1-2.928,40.216-5.77,19.6-2.766,39.215-5.427,18.177-2.458,36.373-4.778,2.071-.263,4.144-.522c.63-.079.638-1.08,0-1" fill="#b3b6c7"/>
      <path id="Pfad_1161" data-name="Pfad 1161" d="M209.929,98.623q-22.422,3.091-44.849,6.147-19.617,2.675-39.235,5.342-18.067,2.461-36.131,4.947-17.443,2.408-34.878,4.871-18.055,2.556-36.1,5.2l-4.675.687.615.349q-1.953-11.492-3.866-22.989c-2.395-14.358-4.77-28.72-7.039-43.1C2.8,53.912,1.826,47.744.983,41.558c-.086-.635-1.05-.364-.964.266,1.7,12.482,3.788,24.916,5.818,37.347q3.192,19.55,6.493,39.081.688,4.09,1.383,8.179a.512.512,0,0,0,.615.349q18.185-2.676,36.383-5.263,17.442-2.479,34.893-4.889,17.936-2.481,35.876-4.92,19.354-2.64,38.71-5.271,22.027-3,44.051-6.03l5.954-.82c.635-.087.364-1.051-.266-.964" fill="#b3b6c7"/>
      <path id="Pfad_1162" data-name="Pfad 1162" d="M248.339,60.842a138.09,138.09,0,0,0,22.627,8.442c-.174-.307-.349-.616-.524-.923q-4.989,13.761-9.978,27.518l.923-.524-28.123-8.237.448,1.1a156.932,156.932,0,0,0,9.211-22.282q1.066-3.276,1.986-6.6l-.923.524,2.955.787a.75.75,0,0,0,.4-1.446l-2.955-.787a.761.761,0,0,0-.922.524,154.516,154.516,0,0,1-8.116,22.414q-1.4,3.085-2.93,6.107a.761.761,0,0,0,.448,1.1L260.988,96.8a.767.767,0,0,0,.922-.524q4.99-13.759,9.979-27.517a.758.758,0,0,0-.524-.923,135.906,135.906,0,0,1-22.269-8.29c-.867-.413-1.629.88-.757,1.294" fill="#b3b6c7"/>
      <path id="Pfad_1163" data-name="Pfad 1163" d="M241.84,88.744a21.889,21.889,0,0,1,.932-3.3q.285-.768.636-1.508a8.344,8.344,0,0,1,.41-.819c.127-.2.087-.178.346-.21a8.039,8.039,0,0,1,1.6.107c.617.055,1.232.126,1.845.218q1.584.235,3.142.619t3.072.9q.812.279,1.608.6c.12.048.66.184.695.292-.023-.07-.246.6-.27.679l-2.025,6.752a.75.75,0,0,0,1.446.4q.962-3.2,1.921-6.4c.246-.818.753-1.855-.035-2.531a4,4,0,0,0-1.121-.549q-.741-.3-1.5-.571a35,35,0,0,0-6.086-1.566c-1.007-.164-2.021-.29-3.038-.371-.871-.07-1.958-.3-2.607.438a9.943,9.943,0,0,0-1.407,2.908,21.928,21.928,0,0,0-1.012,3.516c-.191.943,1.255,1.346,1.446.4" fill="#b3b6c7"/>
      <path id="Pfad_1164" data-name="Pfad 1164" d="M249.237,73.64a12.01,12.01,0,0,1,1.678,3.351.756.756,0,0,0,1.253.331,18.109,18.109,0,0,1,7.535-5.07c.906-.317.516-1.766-.4-1.447a19.657,19.657,0,0,0-8.2,5.457l1.254.331a13.282,13.282,0,0,0-1.829-3.71c-.554-.781-1.855-.033-1.295.757" fill="#b3b6c7"/>
    </g>
  </g>
</svg>
