<svg id="Gruppe_544" data-name="Gruppe 544" xmlns="http://www.w3.org/2000/svg" xmlns:xlink="http://www.w3.org/1999/xlink" width="312.632" height="123.235" viewBox="0 0 312.632 123.235">
  <defs>
    <clipPath id="clip-path">
      <rect id="Rechteck_376" data-name="Rechteck 376" width="312.632" height="123.235" fill="none"/>
    </clipPath>
  </defs>
  <path id="Pfad_1082" data-name="Pfad 1082" d="M5.645,0,21.772,114.623l188.7-26.692L198.1,0Z" fill="#dcedec"/>
  <g id="Gruppe_543" data-name="Gruppe 543">
    <g id="Gruppe_542" data-name="Gruppe 542" clip-path="url(#clip-path)">
      <path id="Pfad_1083" data-name="Pfad 1083" d="M197.974.064h-70.24A78.023,78.023,0,0,1,78.622,27.4l10.953,77.639A156.5,156.5,0,0,0,202.211,30.1Z" fill="#c0dddc"/>
      <path id="Pfad_1084" data-name="Pfad 1084" d="M127.692.138H5.645l5.2,36.892,67.728-9.555.107-.015h0A78.03,78.03,0,0,0,127.692.138" fill="#dcedec"/>
      <rect id="Rechteck_375" data-name="Rechteck 375" width="68.53" height="78.407" transform="translate(10.768 37.001) rotate(-8.03)" fill="#96c7c6"/>
      <path id="Pfad_1085" data-name="Pfad 1085" d="M65.225,77.028A17.693,17.693,0,1,0,50.177,97.019,17.693,17.693,0,0,0,65.225,77.028m-9.151-2.739L47.127,87.933l-8.189-6.456a2,2,0,1,1,2.476-3.14l4.762,3.752L52.729,72.1a2,2,0,1,1,3.345,2.193" fill="#23234e"/>
      <path id="Pfad_1086" data-name="Pfad 1086" d="M57.4,21.525A17.693,17.693,0,1,0,42.347,41.516,17.693,17.693,0,0,0,57.4,21.525m-9.151-2.74L39.3,32.43l-8.189-6.456a2,2,0,1,1,2.476-3.14l4.762,3.752L44.9,16.593a2,2,0,1,1,3.345,2.192" fill="#23234e"/>
      <path id="Pfad_1087" data-name="Pfad 1087" d="M94.576,20.2s0,0-.025-.018l.021.016,0,0" fill="#1b1a2e"/>
      <path id="Pfad_1088" data-name="Pfad 1088" d="M176.2,8.051a2.033,2.033,0,0,0-2.459-1.4A46.778,46.778,0,0,1,164.7,8.367a73.182,73.182,0,0,1-9.213-.041,15.823,15.823,0,0,0-4.888.436,14.683,14.683,0,0,0-4,1.925c-1.131.739-2.215,1.551-3.388,2.223-.263.149-.528.291-.8.424-.144.071-.288.138-.434.2-.039.017-.059.027-.072.034l-.066.025a17.362,17.362,0,0,1-1.8.6c-.614.165-1.236.3-1.863.4-.126.021-.252.04-.378.06l-.094.015-.042.005c-.351.044-.7.081-1.057.112-1.3.113-2.612.148-3.919.157-2.563.018-5.128-.071-7.687.113a22.335,22.335,0,0,0-8,1.9c-2.36,1.106-4.174,3.095-6.543,4.172-.059.023-.18.073-.225.089-.168.058-.34.109-.514.151-.1.024-.2.042-.3.063l-.026.006h-.061c-.306.007-.6.006-.911-.008.019,0,.023,0,.044.01l-.049-.01h-.022a.333.333,0,0,1-.152-.037c-.076-.015-.152-.03-.227-.05a2.01,2.01,0,0,0-.362-.111l-.011,0c-.041-.02-.083-.039-.123-.06-.085-.045-.166-.1-.252-.146-.02-.011-.03-.013-.045-.02l-.009-.01c-.1-.1-.2-.2-.3-.3.212.214.133.145-.015-.058a.249.249,0,0,1-.02-.032c-.032-.106-.061-.213-.1-.319-.008-.023-.012-.03-.018-.047s0-.026,0-.052c0-.164-.013-.327-.01-.492,0-.281.025-.561.051-.84.058-.634.157-1.265.175-1.9a4.44,4.44,0,0,0-1.944-4.044,2,2,0,0,0-2.019,0,22.783,22.783,0,0,0-4.631,3.453,20.308,20.308,0,0,0-1.805,1.995c-.189.239-.374.481-.559.724-.048.062-.1.125-.141.187l-.06.075c-.119.145-.238.29-.365.428-.061.068-.126.134-.192.2l-.13.121c-.05.015-.28.153-.218.15-.169.045-.262.035.039.034l-.2.01h-.011a.253.253,0,0,1-.03,0l-.133-.08,0,0c-.049-.029-.1-.06-.146-.087.063.035.1.056.124.072a1.071,1.071,0,0,1-.149-.126,2.087,2.087,0,0,0-.143-.154c-.083-.139-.181-.271-.26-.413-.06-.107-.111-.218-.165-.328.079.153-.063-.165-.106-.3-.05-.155-.094-.313-.131-.472-.022-.094-.053-.277-.066-.337a12.516,12.516,0,0,1,.1-2.272,10.988,10.988,0,0,0-.386-5.462,5.82,5.82,0,0,0-4.251-3.495A8.058,8.058,0,0,0,83.6,7.67,13.771,13.771,0,0,0,79.5,11.448c-2.988,3.836-5.832,7.792-8.739,11.691a2.007,2.007,0,0,0,.719,2.736,2.058,2.058,0,0,0,2.736-.717q3.818-5.121,7.634-10.241.18-.243.362-.483l.2-.269c.283-.361.572-.717.876-1.06.266-.3.542-.592.832-.869.144-.138.294-.269.443-.4l.095-.08c.059-.043.26-.195.287-.213.325-.221.667-.393,1.007-.586-.291.165.013-.005.158-.055a6.125,6.125,0,0,1,.666-.182c.163-.035.5-.045.151-.034.172-.005.344-.025.515-.026s.317.016.474.018c.085.017.171.032.255.052.142.036.281.083.42.131.036.019.167.077.248.124.145.086.36.3.129.068.059.058.125.109.182.169.014.014.088.092.134.137.027.036.054.071.058.079.066.107.126.213.187.322.025.045.041.071.053.089a.971.971,0,0,0,.025.115c.05.179.1.356.136.537,0,.008.008.048.014.09.006.071.017.2.019.22.107,1.673-.356,3.324-.27,4.991.166,3.225,2.654,7.537,6.5,6.286a5.678,5.678,0,0,0,2.641-1.92c.206-.255.4-.516.6-.776l.169-.222c.019-.024.038-.049.055-.069.325-.4.661-.8,1.015-1.176a17.8,17.8,0,0,1,2.432-2.206c0,.04,0,.08-.009.121a9.818,9.818,0,0,0,.048,3.657c.733,2.663,3.522,4.035,6.132,3.954,2.878-.089,5.072-1.839,7.3-3.45A18.72,18.72,0,0,1,118,20.94q.414-.24.845-.448c.114-.055.231-.107.344-.161l.108-.047c.065-.027.132-.054.2-.079a18.071,18.071,0,0,1,3.65-.951c.123-.019.243-.037.365-.054l.147-.017c.319-.032.638-.068.958-.1.679-.057,1.36-.092,2.041-.114,1.315-.043,2.632-.036,3.949-.03a53.234,53.234,0,0,0,8.257-.431,18.748,18.748,0,0,0,7.517-2.859c1.155-.758,2.265-1.592,3.474-2.265a6.4,6.4,0,0,1,1.39-.641,7.723,7.723,0,0,1,2.155-.417,49.27,49.27,0,0,1,5.125.165,48.391,48.391,0,0,0,5.466-.075,51.724,51.724,0,0,0,10.81-1.91,2.026,2.026,0,0,0,1.4-2.46M94.685,20.274c-.136-.012-.115-.045,0,0m1.225-1.052c.031-.041.028-.036,0,0m3.5,1.95c-.089.118-.053.068,0,0m3.511-4.912-.021-.024c-.092-.161-.019-.107.021.024m3.94,4.322c-.044-.085-.063-.182,0,0" fill="#23234e"/>
      <path id="Pfad_1089" data-name="Pfad 1089" d="M108.416,21.43a.735.735,0,0,0-.18-.038c.059.011.117.024.174.038Z" fill="#1b1a2e"/>
      <path id="Pfad_1090" data-name="Pfad 1090" d="M150.794,67.359a2.048,2.048,0,0,0-2.46-1.4l-12.94,2.756c-2.135.454-4.268.919-6.406,1.361a29.612,29.612,0,0,1-5.926.765,24.263,24.263,0,0,0-6.382.515,24.657,24.657,0,0,0-2.88,1.1l-.5.215c.009-.005-.292.12-.347.142-.439.177-.883.344-1.337.481-.224.068-.45.129-.678.181-.1.022-.2.042-.294.062l-.13.023-.131.014c-.1.006-.2.012-.3.016a5.893,5.893,0,0,1-.861-.031c-.239-.028-.067-.014-.02-.005-.11-.019-.22-.042-.329-.065-.219-.046-.437-.1-.654-.156-.517-.137-1.028-.3-1.54-.456q-3.147-.966-6.293-1.932a8.91,8.91,0,0,0-3.982-.466,9.755,9.755,0,0,0-3.285,1.363c-.745.427-1.465.9-2.172,1.388a11.107,11.107,0,0,0-1.007-2.928,2.052,2.052,0,0,0-2.737-.718,12.171,12.171,0,0,0-6.721,7.938,2,2,0,0,0,3.857,1.063c.1-.357.208-.705.336-1.052.017-.044.024-.065.033-.093s.03-.055.055-.106c.082-.165.162-.33.249-.492q.241-.445.526-.865c.025-.038.171-.239.224-.316s.221-.266.251-.3a10.069,10.069,0,0,1,.7-.728c.128-.12.261-.234.393-.349,0,.025.009.049.013.075s0,.014.005.046a8.575,8.575,0,0,1,.021,1.36c0,.027-.039.319-.043.383-.044.247-.1.492-.162.734a2.016,2.016,0,0,0,3.343,1.946,26.045,26.045,0,0,1,4.464-3.306,9.236,9.236,0,0,1,2.293-1.108,3.277,3.277,0,0,1,.834,0,14.859,14.859,0,0,1,1.564.423l6.174,1.895a12.2,12.2,0,0,0,6.191.64,13.707,13.707,0,0,0,2.5-.82c.509-.21,1.015-.428,1.521-.644l.138-.059.145-.059c.223-.09.446-.178.671-.262a12.658,12.658,0,0,1,1.266-.4c.217-.055.435-.1.655-.143l.209-.035.3-.032c1.05-.1,2.105-.077,3.158-.077,4.289,0,8.465-1.074,12.635-1.962l14.4-3.068a2.014,2.014,0,0,0,1.4-2.46" fill="#23234e"/>
      <path id="Pfad_1091" data-name="Pfad 1091" d="M175.742,99.723c-20.514,3.044-41.054,5.9-61.6,8.723-20.275,2.785-40.553,5.545-60.811,8.45q-17.859,2.56-35.691,5.288l.615.35q-.764-4.254-1.5-8.513-1.882-10.827-3.678-21.669-2.4-14.5-4.637-29.02c-1.561-10.2-3.051-20.41-4.382-30.642C2.928,23.987,1.875,15.263,1.2,6.511Q1.09,5.173,1,3.834c-.043-.639-1.043-.643-1,0,.565,8.509,1.554,16.991,2.622,25.45C3.9,39.428,5.354,49.551,6.88,59.661Q9.112,74.446,11.551,89.2q1.887,11.474,3.869,22.931.624,3.606,1.258,7.21a32.381,32.381,0,0,0,.587,3.313,1.157,1.157,0,0,1,.026.145.511.511,0,0,0,.615.349c20.852-3.2,41.735-6.184,62.631-9.081,20.172-2.8,40.354-5.521,60.521-8.349q17.484-2.453,34.95-5.032c.634-.094.365-1.058-.266-.964" fill="#b3b6c7"/>
      <path id="Pfad_1092" data-name="Pfad 1092" d="M312.446,62a1.127,1.127,0,0,0,0-1.093,20.482,20.482,0,0,0-16.331-9.776,1.177,1.177,0,0,0-1.24.912,1.183,1.183,0,0,0-.634.488c-3.464,5.142-7.26,10.057-10.9,15.076-.845,1.168-1.685,2.339-2.509,3.521a12.593,12.593,0,0,0-2.406,4.344,11.015,11.015,0,0,0,.019,3.2l.27,3.1.552,6.332c.1,1.121.109,2.341,1.415,2.7a7.843,7.843,0,0,0,1.741.125l1.73.064,7.171.268a6.633,6.633,0,0,1,2.573-1c4.846-6.988,10.044-13.728,14.723-20.832,1.326-2.013,2.608-4.056,3.824-6.139a1.222,1.222,0,0,0,0-1.29m-3.7,2.608a1.367,1.367,0,0,0-.142-.2,26.053,26.053,0,0,0-5.06-4.9,10.54,10.54,0,0,0-6.759-1.9,1.26,1.26,0,0,0-.973,1.477,1.284,1.284,0,0,0,1.477.973c4.019-.319,7.093,3.247,9.434,5.99a1.134,1.134,0,0,0,.835.427c-3.618,5.642-7.61,11.042-11.53,16.476-1.406,1.949-2.8,3.905-4.174,5.881a1.287,1.287,0,0,0-.354-.066l-5.935-.221-2.967-.111c-.1,0-.489-.061-.806-.081-.026-.292-.05-.583-.076-.875q-.26-2.979-.52-5.959-.118-1.365-.238-2.731a9.366,9.366,0,0,1-.074-2.878,6.449,6.449,0,0,1,1.08-2q.56-.828,1.132-1.644,1.147-1.64,2.326-3.257c1.808-2.5,3.643-4.974,5.466-7.46,1.843-2.514,3.688-5.031,5.431-7.617a1.377,1.377,0,0,0,.14-.268,17.9,17.9,0,0,1,13.757,8.358c.014.023.032.043.047.065q-.744,1.269-1.517,2.52" fill="#b3b6c7"/>
      <path id="Pfad_1093" data-name="Pfad 1093" d="M182.9,99.777a55.278,55.278,0,0,0,6.07-1.328.5.5,0,0,0-.265-.964,55.529,55.529,0,0,1-6.071,1.328.5.5,0,0,0-.349.615.514.514,0,0,0,.615.349" fill="#b3b6c7"/>
      <path id="Pfad_1094" data-name="Pfad 1094" d="M194.926,97.5a20.519,20.519,0,0,1,4.95-.253.5.5,0,1,0,0-1,21.553,21.553,0,0,0-5.216.289.5.5,0,0,0-.349.615.511.511,0,0,0,.615.349" fill="#b3b6c7"/>
      <path id="Pfad_1095" data-name="Pfad 1095" d="M206.431,95.851l6.64-1.136c.633-.109.364-1.072-.266-.965l-6.64,1.137c-.633.108-.364,1.072.266.964" fill="#b3b6c7"/>
      <path id="Pfad_1096" data-name="Pfad 1096" d="M271.786,94a127.528,127.528,0,0,0-39.938-2.752q-5.66.505-11.258,1.507a.69.69,0,1,0,.338,1.338A125.439,125.439,0,0,1,240.6,92.153a127.235,127.235,0,0,1,19.854,1.16q3.489.48,6.946,1.162a86.041,86.041,0,0,1-9.569.043,125.245,125.245,0,0,0-13.673-.133,39.126,39.126,0,0,0-7.633,1.251.7.7,0,0,0-.5.838,2.749,2.749,0,0,0,2.248,1.756c1.283.295,2.606.467,3.9.694l8.162,1.429,1.49.261a35.394,35.394,0,0,1-6.441.669c-.886.01-.919,1.39-.029,1.38a37.058,37.058,0,0,0,10-1.487c.594-.174.744-1.205.027-1.33l-15.515-2.717a11.123,11.123,0,0,1-1.734-.37c-.058-.02-.115-.043-.171-.066a49.412,49.412,0,0,1,12.3-1.061c4.576.078,9.147.439,13.726.368a50.61,50.61,0,0,0,7.764-.666.7.7,0,0,0,.028-1.33" fill="#b3b6c7"/>
    </g>
  </g>
</svg>
