<svg xmlns="http://www.w3.org/2000/svg" xmlns:xlink="http://www.w3.org/1999/xlink" width="304.378" height="122.07" viewBox="0 0 304.378 122.07">
  <defs>
    <clipPath id="clip-path">
      <rect id="Rechteck_239" data-name="Rechteck 239" width="304.378" height="122.07" transform="translate(0 0)" fill="none"/>
    </clipPath>
  </defs>
  <g id="Gruppe_440" data-name="Gruppe 440" transform="translate(0 0)">
    <g id="Gruppe_439" data-name="Gruppe 439" clip-path="url(#clip-path)">
      <path id="Pfad_791" data-name="Pfad 791" d="M122.071,0A122.209,122.209,0,0,1,0,122.07V61.009A61.078,61.078,0,0,0,61.01,0Z" fill="#c0dddc"/>
      <path id="Pfad_792" data-name="Pfad 792" d="M57.814,93.681q2.213,3.1,4.276,6.293a1.739,1.739,0,0,0,1.2.5A3.531,3.531,0,0,0,65,100.16c.741-.363,1.663-1.112,1.092-2q-2.064-3.2-4.276-6.293a1.753,1.753,0,0,0-1.2-.505,3.532,3.532,0,0,0-1.71.319c-.7.344-1.706,1.136-1.092,2" fill="#fbfaf9"/>
      <path id="Pfad_793" data-name="Pfad 793" d="M105.95,29.3q2.961.867,5.84,1.985a3.018,3.018,0,0,0,1.638-.033,3.1,3.1,0,0,0,1.436-.79,1.17,1.17,0,0,0,.391-1.085,1.285,1.285,0,0,0-.881-.743q-2.877-1.117-5.84-1.985a3.192,3.192,0,0,0-1.638.033,3.1,3.1,0,0,0-1.436.79,1.17,1.17,0,0,0-.391,1.085,1.228,1.228,0,0,0,.881.743" fill="#fbfaf9"/>
      <path id="Pfad_794" data-name="Pfad 794" d="M98.578,45.647a32.859,32.859,0,0,0,7.91,2.8,3.047,3.047,0,0,0,1.715-.3,2.342,2.342,0,0,0,1.116-1.028,1.155,1.155,0,0,0-.086-1.2A2.023,2.023,0,0,0,108,45.3q-.313-.069.126.03l-.249-.058c-.125-.03-.25-.06-.374-.092-.29-.073-.579-.15-.866-.233q-.863-.246-1.709-.546t-1.672-.651c-.275-.117-.548-.239-.82-.364l-.348-.164-.23-.112c.228.114.254.126.076.037a2.638,2.638,0,0,0-1.481-.332,3.138,3.138,0,0,0-1.635.6,1.755,1.755,0,0,0-.762,1.152,1.129,1.129,0,0,0,.525,1.082" fill="#fbfaf9"/>
      <path id="Pfad_795" data-name="Pfad 795" d="M91.929,60.07l5.315,3.463a1.939,1.939,0,0,0,1.122.194,5.512,5.512,0,0,0,1.7-.371c.254-.1,1.968-.9,1.263-1.356q-2.656-1.732-5.315-3.463a1.938,1.938,0,0,0-1.122-.194,5.506,5.506,0,0,0-1.695.371c-.255.1-1.969.9-1.264,1.356" fill="#fbfaf9"/>
      <path id="Pfad_796" data-name="Pfad 796" d="M90.843,74.647A20.948,20.948,0,0,1,88.06,72.3q.161.164.322.325Q87.765,72,87.2,71.327a1.973,1.973,0,0,0-1.256-.693,2.931,2.931,0,0,0-1.718.287,2.241,2.241,0,0,0-1.1,1.086,1.311,1.311,0,0,0,.113,1.3,22.7,22.7,0,0,0,4.285,3.971,2.385,2.385,0,0,0,1.5.39,2.933,2.933,0,0,0,1.631-.61,1.83,1.83,0,0,0,.742-1.228,1.351,1.351,0,0,0-.551-1.18" fill="#fbfaf9"/>
      <path id="Pfad_797" data-name="Pfad 797" d="M35.793,110.625q-.454-.777-.842-1.59l.192.406a21.092,21.092,0,0,1-1.254-3.37c-.292-1.051-1.692-1.3-2.6-1.025-.892.271-2.048,1.092-1.743,2.19a22.742,22.742,0,0,0,2.289,5.367,1.866,1.866,0,0,0,1.256.692,2.939,2.939,0,0,0,1.718-.286c.886-.484,1.563-1.4.988-2.384" fill="#fbfaf9"/>
      <path id="Pfad_798" data-name="Pfad 798" d="M44.6,102.263c.125.21.25.421.373.633l-.155-.267a64.963,64.963,0,0,1,3.083,6.033c.382.852,1.73.714,2.463.5a3.435,3.435,0,0,0,1.452-.729c.217-.211.584-.6.432-.935a67.122,67.122,0,0,0-3.611-6.933c-.179-.3-.9-.371-1.172-.379a4.109,4.109,0,0,0-1.7.339,2.5,2.5,0,0,0-1.165.846.746.746,0,0,0,0,.892" fill="#fbfaf9"/>
      <path id="Pfad_799" data-name="Pfad 799" d="M70.783,84.783a25.912,25.912,0,0,1,5.4,5.681c.17.243.92.228,1.13.22a5.258,5.258,0,0,0,1.7-.367,2.852,2.852,0,0,0,1.2-.723l.167-.253a.354.354,0,0,0-.116-.434,25.92,25.92,0,0,0-5.4-5.681,1.86,1.86,0,0,0-1.128-.219,5.268,5.268,0,0,0-1.7.366c-.313.127-1.936.878-1.248,1.41" fill="#fbfaf9"/>
      <path id="Pfad_800" data-name="Pfad 800" d="M183.228,0H121.977a61.319,61.319,0,0,0,61.251,61.25A61.319,61.319,0,0,0,244.479,0Z" fill="#4d908e"/>
      <path id="Pfad_801" data-name="Pfad 801" d="M190.791,21.555a18.453,18.453,0,0,0-7.719-9.04l1.248-2.909a2.5,2.5,0,1,0-4.6-1.97l-1.248,2.91a18.581,18.581,0,0,0-18.87,30.263L140.325,63.258a34.379,34.379,0,0,1-2.164-3.118,2.5,2.5,0,0,0-4.274,2.6A39.475,39.475,0,0,0,137,67.124L113.684,94.271a2.5,2.5,0,1,0,3.793,3.258l22.946-26.713a39.455,39.455,0,0,0,25.188,10.837l-3.546,35.007A2.5,2.5,0,0,0,164.3,119.4a2.448,2.448,0,0,0,.255.013,2.5,2.5,0,0,0,2.484-2.248l3.606-35.6a39.653,39.653,0,0,0,5.329-.774,2.5,2.5,0,1,0-1.065-4.885,34.655,34.655,0,0,1-3.75.58l2.982-29.439a18.6,18.6,0,0,0,16.65-25.494M154.015,73.9a34.338,34.338,0,0,1-10.332-6.874L163.4,44.067a17.6,17.6,0,0,0,5.766,2.47l-3.05,30.112a34.36,34.36,0,0,1-12.1-2.753m15.661-32.387a13.9,13.9,0,0,1-1.531-.543,13.755,13.755,0,0,1-1.448-.737l3.525-4.1Zm16.341-7.684h0a13.621,13.621,0,0,1-11.367,8.19l2.15-21.222L162.894,36.983a13.693,13.693,0,0,1-2.021-3.474,13.609,13.609,0,1,1,25.144.316" fill="#23234e"/>
      <path id="Pfad_802" data-name="Pfad 802" d="M250.133,18.487a43.912,43.912,0,0,0,5.263-1.91.9.9,0,1,0-.638-1.68,43.658,43.658,0,0,1-5.262,1.909.9.9,0,0,0-.522,1.159.921.921,0,0,0,1.159.522" fill="#b3b6c7"/>
      <path id="Pfad_803" data-name="Pfad 803" d="M249.227,24.445l5.109,1.059a.906.906,0,0,0,1.026-.751.918.918,0,0,0-.75-1.026L249.5,22.668a.907.907,0,0,0-1.027.751.92.92,0,0,0,.751,1.026" fill="#b3b6c7"/>
      <path id="Pfad_804" data-name="Pfad 804" d="M246.677,29.265a18.548,18.548,0,0,1,1.492,2.281c.025.045.049.091.074.135.066.12-.062-.12,0,0,.052.1.106.2.158.308q.154.309.3.624c.191.42.364.847.523,1.28a.9.9,0,0,0,1.681-.637,19.268,19.268,0,0,0-2.762-5.035.9.9,0,1,0-1.464,1.043" fill="#b3b6c7"/>
      <path id="Pfad_805" data-name="Pfad 805" d="M266.4,95.753c-1.266-.47-2.7-1-3.377-2.233a2.078,2.078,0,0,1-.2-1.586,8.021,8.021,0,0,1,.426-1.132c.1-.228.2-.456.285-.689a2.992,2.992,0,0,0,.039-2.327.6.6,0,0,0-.464-.342.669.669,0,0,0-.594.192,5.962,5.962,0,0,1-3.016,1.808,5.849,5.849,0,0,1-5.245-1.321.657.657,0,0,0-1.108.509.61.61,0,0,0,.2.446c.079.071.159.138.235.2a6.129,6.129,0,0,1,2.155,2.736,3.179,3.179,0,0,1-1.287,3.262,5.662,5.662,0,0,1-2.047.941.618.618,0,0,0-.446.408.706.706,0,0,0,.045.523.652.652,0,0,0,.794.829,9.3,9.3,0,0,1,4.2.03,3.131,3.131,0,0,1,2.116,1.99,5.571,5.571,0,0,1,.127,1.193,6.368,6.368,0,0,0,.132,1.256.632.632,0,0,0,.627.483.79.79,0,0,0,.1-.007.631.631,0,0,0,.573-.65,10.135,10.135,0,0,1,.544-3.716,1.546,1.546,0,0,1,.314-.563,1.507,1.507,0,0,1,.614-.324A13.009,13.009,0,0,1,264,97.216a13.156,13.156,0,0,1,2.179-.175.634.634,0,0,0,.653-.517.691.691,0,0,0-.438-.771m-9.722-1.125a4.207,4.207,0,0,0,.422-2.545,4.124,4.124,0,0,0-.467-1.33c.236.052.475.093.714.122a7.2,7.2,0,0,0,4.99-1.314c-.038.111-.081.219-.122.322-.067.168-.14.335-.213.5a6.931,6.931,0,0,0-.508,1.452,4.046,4.046,0,0,0,2,4.018c.046.03.094.06.143.09a13.587,13.587,0,0,0-1.8.438,2.586,2.586,0,0,0-1.689,1.32,5.459,5.459,0,0,0-.3.786,4.242,4.242,0,0,0-.44-.524,5.752,5.752,0,0,0-4.035-1.527h-.287a4.963,4.963,0,0,0,1.6-1.81" fill="#b3b6c7"/>
      <path id="Pfad_806" data-name="Pfad 806" d="M292.972,67.555c-.074-.034-.149-.066-.223-.1a4.766,4.766,0,0,1-2.217-1.554,2.451,2.451,0,0,1,.23-2.691,4.428,4.428,0,0,1,1.314-1.156.534.534,0,0,0,.27-.452.6.6,0,0,0-.152-.4.566.566,0,0,0-.854-.477,7.58,7.58,0,0,1-3.157.926,2.412,2.412,0,0,1-2-1,4.4,4.4,0,0,1-.361-.86,4.987,4.987,0,0,0-.388-.926.573.573,0,0,0-1.034.467,7.944,7.944,0,0,1,.428,2.9,1.189,1.189,0,0,1-.1.472,1.116,1.116,0,0,1-.374.364,10.009,10.009,0,0,1-1.293.758,10.305,10.305,0,0,1-1.607.626.541.541,0,0,0-.4.59.594.594,0,0,0,.553.529h0a4.569,4.569,0,0,1,3.015.9,1.59,1.59,0,0,1,.492,1.112,6.341,6.341,0,0,1-.065.941c-.023.195-.046.39-.059.587a2.4,2.4,0,0,0,.509,1.8.511.511,0,0,0,.4.176.527.527,0,0,0,.078,0,.566.566,0,0,0,.445-.308,4.629,4.629,0,0,1,1.843-2.022,4.544,4.544,0,0,1,4.2-.186.575.575,0,0,0,.755-.242.584.584,0,0,0,.037-.457.544.544,0,0,0-.283-.325m-8.039-3.492a2.124,2.124,0,0,0,1-1.412,4.222,4.222,0,0,0,.052-.564,3.327,3.327,0,0,0,.373.238,4.563,4.563,0,0,0,3.426.242l.06-.017a3.9,3.9,0,0,0-.7,1.617,3.367,3.367,0,0,0,.262,2.045,3.267,3.267,0,0,0,.582.83c-.152.014-.3.034-.457.06a5.666,5.666,0,0,0-3.008,1.582,5.452,5.452,0,0,0-.381.422c0-.033.006-.066.008-.1.013-.141.03-.283.047-.424a5.435,5.435,0,0,0,.054-1.221,3.228,3.228,0,0,0-2.449-2.62,10.85,10.85,0,0,0,1.14-.679" fill="#b3b6c7"/>
      <path id="Pfad_807" data-name="Pfad 807" d="M304.089,77.689h0a6.339,6.339,0,0,0-1.647-.741,5.992,5.992,0,0,0-.856-.178l-.2-.022a2.019,2.019,0,0,1-.552-.107c-.319-.134-.346-.541-.347-.663a2.694,2.694,0,0,1,.493-1.286l.049-.084a.576.576,0,0,0-.128-.756.636.636,0,0,0-.822.008,3.547,3.547,0,0,0-.7.964c-.284.5-.528.926-1.024,1.051a3.688,3.688,0,0,1-2.277-.532.529.529,0,0,0-.071-.029,1.014,1.014,0,0,0-.8-.228.758.758,0,0,0-.591.516.637.637,0,0,0,.191.657.588.588,0,0,0,.579.142c.045.045.089.09.13.137a2.569,2.569,0,0,1,.352.535,2.788,2.788,0,0,1,.293,1.277,3.334,3.334,0,0,1-1.355,2.55l-.081.063a.577.577,0,0,0-.056.82.568.568,0,0,0,.806.136l.08-.063a2.109,2.109,0,0,1,2.257-.112,3.181,3.181,0,0,1,1.475,2.186.56.56,0,0,0,.559.456c.02,0,.041,0,.061,0a.63.63,0,0,0,.582-.605l.065-3.45a1.656,1.656,0,0,1,.137-.79,1.534,1.534,0,0,1,1.1-.586,8,8,0,0,1,.967-.06,7.787,7.787,0,0,0,1.149-.085.545.545,0,0,0,.448-.44.663.663,0,0,0-.276-.678m-6.724,1.027a3.974,3.974,0,0,0-.188-1.674,3.341,3.341,0,0,0,1.449.023,2.138,2.138,0,0,0,.77-.342,1.752,1.752,0,0,0,.537.782,2.082,2.082,0,0,0,1.006.408,2.667,2.667,0,0,0-.588.284,2.118,2.118,0,0,0-.968,1.5,10.186,10.186,0,0,0-.067,1.425v.259a3.411,3.411,0,0,0-.278-.261,3.6,3.6,0,0,0-2.14-.858,4.328,4.328,0,0,0,.467-1.542M295.4,81.663Z" fill="#b3b6c7"/>
    </g>
  </g>
</svg>
