<svg id="Gruppe_565" data-name="Gruppe 565" xmlns="http://www.w3.org/2000/svg" xmlns:xlink="http://www.w3.org/1999/xlink" width="300.507" height="117.224" viewBox="0 0 300.507 117.224">
  <defs>
    <clipPath id="clip-path">
      <rect id="Rechteck_389" data-name="Rechteck 389" width="300.507" height="117.224" fill="none"/>
    </clipPath>
  </defs>
  <g id="Gruppe_564" data-name="Gruppe 564" clip-path="url(#clip-path)">
    <path id="Pfad_1215" data-name="Pfad 1215" d="M42.912,0a71.734,71.734,0,0,0,80,96.839L104.749,0Z" fill="#dcedec"/>
    <path id="Pfad_1216" data-name="Pfad 1216" d="M138.948,0h-34.2L122.9,96.825A142.982,142.982,0,0,1,138.948,0" fill="#96c7c6"/>
    <path id="Pfad_1217" data-name="Pfad 1217" d="M249.94,0H138.721a142.978,142.978,0,0,0-16.067,96.887l70.618-13.241A71.86,71.86,0,0,1,249.94,0" fill="#c0dddc"/>
    <path id="Pfad_1218" data-name="Pfad 1218" d="M38.986,39.535A71.409,71.409,0,0,0,17.062,0H0V117.224A71.9,71.9,0,0,0,38.986,39.535" fill="#96c7c6"/>
    <g id="Gruppe_566" data-name="Gruppe 566">
      <path id="Pfad_1219" data-name="Pfad 1219" d="M110.219,92.983c-.841-1.167-3.613-2.255-7.007-2.638-4.172-.47-7.683.3-7.845,1.739l1.9-8.556L103.7,54.556l6.751.761L110.27,85Z" fill="none" stroke="#23234e" stroke-linecap="round" stroke-linejoin="round" stroke-width="2"/>
      <path id="Pfad_1220" data-name="Pfad 1220" d="M132.013,79.514a67.912,67.912,0,0,0-7.451,7.092L110.27,85l.181-29.678,5.267.594S114.4,77.319,132.013,79.514Z" fill="none" stroke="#23234e" stroke-linecap="round" stroke-linejoin="round" stroke-width="2"/>
      <path id="Pfad_1221" data-name="Pfad 1221" d="M103.7,54.556,97.268,83.529,83.22,81.944a67.119,67.119,0,0,0-5.672-8.572c17.659,1.782,21.13-19.382,21.13-19.382Z" fill="none" stroke="#23234e" stroke-linecap="round" stroke-linejoin="round" stroke-width="2"/>
      <path id="Pfad_1222" data-name="Pfad 1222" d="M130.153,96.007l-.624,5.534a46.565,46.565,0,0,1-28.259,6.027A45.235,45.235,0,0,1,75.063,95.4l.624-5.534c4.878-2.073,10.472,1.181,10.472,1.181.122-2.61-1.258-5.993-2.94-9.1l14.049,1.585-1.9,8.555c-.161,1.423,3.09,2.96,7.262,3.431s7.684-.3,7.844-1.727a1.158,1.158,0,0,0-.254-.805L110.27,85l14.291,1.611c-2.344,2.655-4.442,5.646-4.892,8.219C119.669,94.825,125.86,92.9,130.153,96.007Z" fill="none" stroke="#23234e" stroke-linecap="round" stroke-linejoin="round" stroke-width="2"/>
      <path id="Pfad_1223" data-name="Pfad 1223" d="M86.16,91.046s-5.6-3.255-10.472-1.181l1.86-16.493a67.119,67.119,0,0,1,5.672,8.572C84.9,85.053,86.282,88.436,86.16,91.046Z" fill="none" stroke="#23234e" stroke-linecap="round" stroke-linejoin="round" stroke-width="2"/>
      <path id="Pfad_1224" data-name="Pfad 1224" d="M98.677,53.99s-3.47,21.165-21.13,19.383L79.97,51.881Z" fill="none" stroke="#23234e" stroke-linecap="round" stroke-linejoin="round" stroke-width="2"/>
      <path id="Pfad_1225" data-name="Pfad 1225" d="M132.013,79.514l-1.86,16.493c-4.293-3.108-10.484-1.182-10.484-1.182.45-2.573,2.549-5.564,4.893-8.219A67.912,67.912,0,0,1,132.013,79.514Z" fill="none" stroke="#23234e" stroke-linecap="round" stroke-linejoin="round" stroke-width="2"/>
      <path id="Pfad_1226" data-name="Pfad 1226" d="M134.437,58.022l-2.424,21.492c-17.613-2.195-16.295-23.6-16.295-23.6Z" fill="none" stroke="#23234e" stroke-linecap="round" stroke-linejoin="round" stroke-width="2"/>
      <path id="Pfad_1227" data-name="Pfad 1227" d="M110.474,93.788c-.16,1.423-3.672,2.2-7.844,1.727s-7.423-2.007-7.262-3.43,3.673-2.21,7.845-1.739c3.393.382,6.165,1.471,7.007,2.637A1.158,1.158,0,0,1,110.474,93.788Z" fill="none" stroke="#23234e" stroke-linecap="round" stroke-linejoin="round" stroke-width="2"/>
      <line id="Linie_130" data-name="Linie 130" y1="0.776" x2="0.001" transform="translate(110.218 92.983)" fill="none" stroke="#23234e" stroke-linecap="round" stroke-linejoin="round" stroke-width="2"/>
    </g>
    <path id="Pfad_1228" data-name="Pfad 1228" d="M300.321,57.188a1.127,1.127,0,0,0,0-1.093,20.482,20.482,0,0,0-16.331-9.776,1.177,1.177,0,0,0-1.24.912,1.183,1.183,0,0,0-.634.488c-3.464,5.142-7.26,10.057-10.9,15.076-.845,1.168-1.685,2.339-2.509,3.521a12.593,12.593,0,0,0-2.406,4.344,11.015,11.015,0,0,0,.019,3.2l.27,3.1q.276,3.167.553,6.332c.1,1.121.108,2.341,1.414,2.7a7.784,7.784,0,0,0,1.741.124l1.73.065,7.171.267a6.655,6.655,0,0,1,2.573-1c4.846-6.988,10.044-13.728,14.723-20.832,1.326-2.013,2.608-4.056,3.824-6.139a1.222,1.222,0,0,0,0-1.29m-3.7,2.608a1.366,1.366,0,0,0-.142-.2,26.053,26.053,0,0,0-5.06-4.9,10.538,10.538,0,0,0-6.758-1.9,1.258,1.258,0,0,0-.973,1.477,1.282,1.282,0,0,0,1.476.973c4.019-.319,7.093,3.247,9.434,5.99a1.134,1.134,0,0,0,.835.427c-3.618,5.642-7.61,11.042-11.53,16.476-1.406,1.949-2.8,3.9-4.174,5.881a1.287,1.287,0,0,0-.354-.066l-5.935-.221-2.967-.111c-.1,0-.489-.061-.806-.081-.026-.292-.05-.583-.076-.875l-.519-5.959q-.12-1.365-.239-2.731a9.366,9.366,0,0,1-.074-2.878,6.449,6.449,0,0,1,1.08-2q.56-.828,1.132-1.645,1.147-1.638,2.326-3.256c1.808-2.5,3.643-4.974,5.466-7.46,1.843-2.515,3.688-5.031,5.431-7.617a1.377,1.377,0,0,0,.14-.268,17.9,17.9,0,0,1,13.757,8.358c.014.023.032.043.047.065q-.744,1.269-1.517,2.52" fill="#b3b6c7"/>
    <path id="Pfad_1229" data-name="Pfad 1229" d="M259.708,88.187a114.873,114.873,0,0,0-36.044,1.377q-5.022,1-9.941,2.434a.629.629,0,0,0-.367.8.635.635,0,0,0,.8.367,113.054,113.054,0,0,1,17.437-3.635,114.634,114.634,0,0,1,17.9-.871q3.171.095,6.334.373a77.426,77.426,0,0,1-8.568.959,112.859,112.859,0,0,0-12.262,1.2,35.335,35.335,0,0,0-6.718,1.855.63.63,0,0,0-.367.8,2.478,2.478,0,0,0,2.183,1.357c1.178.141,2.379.167,3.563.246l7.45.5,1.36.09a31.92,31.92,0,0,1-5.706,1.219c-.793.094-.69,1.333.107,1.239a33.374,33.374,0,0,0,8.817-2.294c.516-.214.551-1.151-.1-1.195l-14.161-.941a10.073,10.073,0,0,1-1.589-.165c-.054-.012-.107-.027-.16-.043a44.574,44.574,0,0,1,10.917-2.134c4.107-.37,8.237-.486,12.332-.99a45.612,45.612,0,0,0,6.892-1.344.626.626,0,0,0-.1-1.194" fill="#b3b6c7"/>
    <g id="Gruppe_567" data-name="Gruppe 567">
      <path id="Pfad_1230" data-name="Pfad 1230" d="M189.634,56.43c.048.252.083.5.12.75a11.947,11.947,0,0,1-23.381,4.62c-.091-.31-.161-.623-.221-.938a11.948,11.948,0,0,1,23.482-4.432Z" fill="none" stroke="#23234e" stroke-miterlimit="10" stroke-width="2"/>
      <path id="Pfad_1231" data-name="Pfad 1231" d="M178.7,76.007a19.746,19.746,0,0,1-9.37-1.411c-6.041,3.579-9.54,10.075-8.3,16.646l.684,3.625a3.771,3.771,0,0,0,4.575,2.724l36.606-6.908a3.782,3.782,0,0,0,3.279-4.207l-.684-3.625c-1.241-6.572-6.866-11.345-13.8-12.476a19.834,19.834,0,0,1-8.115,4.7Z" fill="none" stroke="#23234e" stroke-linecap="round" stroke-miterlimit="10" stroke-width="2"/>
    </g>
    <path id="Pfad_1232" data-name="Pfad 1232" d="M207.606,94.228l-2.5.929a.5.5,0,0,0,.266.964l2.5-.929a.511.511,0,0,0,.349-.615.506.506,0,0,0-.615-.349" fill="#b3b6c7"/>
    <path id="Pfad_1233" data-name="Pfad 1233" d="M198.324,96.817a9.514,9.514,0,0,0-3.881.932.5.5,0,0,0-.179.684.511.511,0,0,0,.684.179,8.3,8.3,0,0,1,3.376-.795.5.5,0,1,0,0-1" fill="#b3b6c7"/>
    <path id="Pfad_1234" data-name="Pfad 1234" d="M188.1,99.136l-4.436,1.392c-.612.192-.351,1.158.266.965l4.436-1.393c.612-.192.35-1.157-.266-.964" fill="#b3b6c7"/>
    <path id="Pfad_1235" data-name="Pfad 1235" d="M178.175,101.443l-4.12.415a.514.514,0,0,0-.5.5.5.5,0,0,0,.5.5l4.12-.415a.514.514,0,0,0,.5-.5.5.5,0,0,0-.5-.5" fill="#b3b6c7"/>
    <path id="Pfad_1236" data-name="Pfad 1236" d="M168.6,102.62a8.4,8.4,0,0,0-2.107.222.5.5,0,0,0-.349.615.511.511,0,0,0,.615.35c.161-.038.324-.072.487-.1.024,0,.226-.026.227-.035-.069.009-.076.01-.019,0l.038,0,.133-.015a7.745,7.745,0,0,1,.975-.036.5.5,0,0,0,.5-.5.51.51,0,0,0-.5-.5" fill="#b3b6c7"/>
    <path id="Pfad_1237" data-name="Pfad 1237" d="M161.8,101.794a3.845,3.845,0,0,1-.484-.132c-.076-.026-.151-.054-.225-.085.1.043-.03-.015-.04-.02-.04-.018-.079-.037-.118-.057a4.262,4.262,0,0,1-.414-.242c-.073-.049-.144-.1-.214-.152.056.043.011.007-.019-.017l-.1-.085a4.362,4.362,0,0,1-.343-.337c-.053-.059-.1-.121-.156-.182-.074-.089.034.049-.028-.037l-.076-.107a3.9,3.9,0,0,1-.248-.411c-.041-.077-.078-.156-.114-.236.037.081,0-.012-.016-.042l-.045-.123a.5.5,0,1,0-.964.266,4.6,4.6,0,0,0,3.338,2.963.5.5,0,0,0,.266-.964" fill="#b3b6c7"/>
  </g>
</svg>
