<svg id="Komponente_74_3" data-name="Komponente 74 – 3" xmlns="http://www.w3.org/2000/svg" xmlns:xlink="http://www.w3.org/1999/xlink" width="222.955" height="130.941" viewBox="0 0 222.955 130.941">
  <defs>
    <clipPath id="clip-path">
      <rect id="Rechteck_351" data-name="Rechteck 351" width="222.955" height="130.941" fill="none"/>
    </clipPath>
  </defs>
  <g id="Gruppe_493" data-name="Gruppe 493">
    <g id="Gruppe_492" data-name="Gruppe 492" clip-path="url(#clip-path)">
      <path id="Pfad_856" data-name="Pfad 856" d="M0,.025v59.71A59.777,59.777,0,0,0,59.71.025Z" fill="#23234e"/>
      <path id="Pfad_857" data-name="Pfad 857" d="M119.47,0A119.605,119.605,0,0,1,0,119.47V59.709A59.777,59.777,0,0,0,59.71,0Z" fill="#1fc687"/>
      <path id="Pfad_858" data-name="Pfad 858" d="M129.051,11.477a33.6,33.6,0,0,0,10.8.076,1.006,1.006,0,0,0,.7-1.23,1.027,1.027,0,0,0-1.231-.7,30.554,30.554,0,0,1-9.737-.077,1.031,1.031,0,0,0-1.231.7,1.01,1.01,0,0,0,.7,1.23" fill="#1fc687"/>
      <path id="Pfad_859" data-name="Pfad 859" d="M127.848,27.653l6.6.647a1,1,0,0,0,1-1,1.026,1.026,0,0,0-1-1l-6.6-.647a1,1,0,0,0-1,1,1.027,1.027,0,0,0,1,1" fill="#1fc687"/>
      <path id="Pfad_860" data-name="Pfad 860" d="M123.82,42.918l5.158,1.141a1,1,0,0,0,.532-1.928l-5.158-1.142a1,1,0,0,0-.532,1.929" fill="#1fc687"/>
      <path id="Pfad_861" data-name="Pfad 861" d="M117.27,57.8l5.081,1.805a1.006,1.006,0,0,0,1.23-.7,1.024,1.024,0,0,0-.7-1.23l-5.08-1.806a1.007,1.007,0,0,0-1.23.7,1.025,1.025,0,0,0,.7,1.23" fill="#1fc687"/>
      <path id="Pfad_862" data-name="Pfad 862" d="M109.474,70.552l5.746,2.474a1.026,1.026,0,0,0,1.368-.359,1.01,1.01,0,0,0-.358-1.368l-5.747-2.474a1.028,1.028,0,0,0-1.368.359,1.011,1.011,0,0,0,.359,1.368" fill="#1fc687"/>
      <path id="Pfad_863" data-name="Pfad 863" d="M100.169,81.89a18.305,18.305,0,0,0,5.347,3.338,1,1,0,0,0,1.23-.7,1.03,1.03,0,0,0-.7-1.23l-.158-.065c.086.036.091.039,0,0l-.312-.141c-.22-.1-.438-.208-.654-.319q-.627-.324-1.227-.7-.579-.364-1.129-.775c-.046-.034-.091-.069-.136-.1.075.057.072.057,0,0-.1-.08-.2-.16-.3-.242-.187-.155-.37-.314-.551-.476a1,1,0,1,0-1.414,1.414" fill="#1fc687"/>
      <path id="Pfad_864" data-name="Pfad 864" d="M92.562,91.286a10.445,10.445,0,0,0,4.852,3.734,1,1,0,0,0,1.231-.7,1.028,1.028,0,0,0-.7-1.23c-.106-.04-.21-.087-.317-.125.055.019.17.074.052.02l-.155-.071q-.294-.137-.576-.294c-.2-.11-.393-.228-.582-.353-.086-.056-.17-.114-.253-.173l-.139-.1c-.026-.02-.184-.142-.062-.045s-.011-.01-.032-.027c-.045-.036-.089-.071-.133-.108q-.13-.108-.258-.222c-.16-.144-.316-.293-.466-.448s-.295-.314-.434-.479c-.073-.087-.139-.181-.215-.265.039.044.108.143.033.04l-.12-.165a1.022,1.022,0,0,0-1.368-.359,1.011,1.011,0,0,0-.359,1.368" fill="#1fc687"/>
      <path id="Pfad_865" data-name="Pfad 865" d="M80.2,99.888a19.638,19.638,0,0,0,4.432,5.052,1.024,1.024,0,0,0,1.414,0,1.01,1.01,0,0,0,0-1.414,18.922,18.922,0,0,1-2.322-2.207q-.261-.3-.512-.6c-.078-.1-.156-.195-.233-.293s.091.123-.021-.029c-.042-.056-.084-.111-.125-.167q-.481-.654-.906-1.347A1,1,0,0,0,80.2,99.888" fill="#1fc687"/>
      <path id="Pfad_866" data-name="Pfad 866" d="M68.027,110.274l2.642,3.252a1,1,0,0,0,.707.293,1.019,1.019,0,0,0,.708-.293,1.006,1.006,0,0,0,.292-.707,1.139,1.139,0,0,0-.292-.707l-2.643-3.252a1,1,0,0,0-.707-.293,1.018,1.018,0,0,0-.707.293,1,1,0,0,0-.293.707,1.15,1.15,0,0,0,.293.707" fill="#1fc687"/>
      <path id="Pfad_867" data-name="Pfad 867" d="M56.526,115.737a10.244,10.244,0,0,0,3.433,5.824,1,1,0,1,0,1.414-1.414,9.283,9.283,0,0,1-1.1-1.087l-.111-.132c-.015-.018-.163-.2-.083-.1s-.041-.054-.052-.07c-.043-.057-.085-.115-.127-.174q-.223-.316-.421-.651c-.124-.21-.239-.425-.347-.644-.057-.116-.11-.234-.163-.352-.111-.25.038.11-.016-.039-.019-.054-.042-.107-.062-.16a9.28,9.28,0,0,1-.433-1.532,1.007,1.007,0,0,0-1.231-.7,1.025,1.025,0,0,0-.7,1.23" fill="#1fc687"/>
      <path id="Pfad_868" data-name="Pfad 868" d="M42.516,118.7a5.993,5.993,0,0,0,1.878,5.014,1,1,0,0,0,1.414-1.414,4.943,4.943,0,0,1-.4-.408c-.03-.034-.058-.068-.087-.1s-.117-.144-.025-.031-.032-.048-.041-.061l-.076-.111a5.051,5.051,0,0,1-.286-.493c-.041-.08-.077-.162-.116-.243-.058-.121.068.18.023.053-.019-.052-.041-.1-.06-.157a5.075,5.075,0,0,1-.156-.514c-.024-.1-.045-.2-.063-.3-.008-.044-.014-.089-.022-.133-.026-.134.02.2.008.067a5.668,5.668,0,0,1,.007-1.172,1,1,0,0,0-.293-.707,1,1,0,0,0-1.414,0,1.166,1.166,0,0,0-.293.707" fill="#1fc687"/>
      <path id="Pfad_869" data-name="Pfad 869" d="M30.768,123.8a8.648,8.648,0,0,0,.458,4.839,1.1,1.1,0,0,0,.46.6,1.025,1.025,0,0,0,.77.1,1.012,1.012,0,0,0,.7-1.231,7.8,7.8,0,0,1-.343-1.021q-.068-.261-.116-.527c-.014-.076-.026-.152-.039-.228-.016-.114-.015-.1,0,.037,0-.039-.009-.077-.013-.115a7.669,7.669,0,0,1-.04-1.039c.006-.18.017-.359.036-.538,0-.046.017-.307,0-.04a2.606,2.606,0,0,1,.051-.3,1.024,1.024,0,0,0-.7-1.23,1.012,1.012,0,0,0-1.23.7" fill="#1fc687"/>
      <path id="Pfad_870" data-name="Pfad 870" d="M2.346,123.267a12.609,12.609,0,0,0,.412,5.917,1,1,0,0,0,1.929-.532,11.645,11.645,0,0,1-.331-1.245q-.07-.339-.119-.683c.027.194-.013-.12-.014-.128-.012-.115-.022-.23-.031-.346a11.292,11.292,0,0,1-.026-1.288c.008-.214.022-.429.042-.643.009-.1.02-.2.032-.295-.023.192.029-.19.035-.225a1.025,1.025,0,0,0-.7-1.23,1.011,1.011,0,0,0-1.23.7" fill="#1fc687"/>
      <path id="Pfad_871" data-name="Pfad 871" d="M16.734,125.134a7.58,7.58,0,0,0,1.944,5.517,1.007,1.007,0,0,0,1.415,0,1.023,1.023,0,0,0,0-1.414c-.07-.078-.136-.158-.2-.236s-.066-.081.012.018c-.032-.041-.063-.083-.093-.125-.121-.169-.235-.344-.339-.523s-.2-.365-.287-.554c-.022-.047-.043-.1-.064-.142.05.119.054.126.012.022s-.073-.195-.106-.293c-.067-.2-.124-.4-.171-.6-.024-.1-.045-.2-.064-.305-.01-.053-.083-.393-.024-.12a4.633,4.633,0,0,1-.031-1.245,1.006,1.006,0,0,0-1-1,1.024,1.024,0,0,0-1,1" fill="#1fc687"/>
      <path id="Pfad_872" data-name="Pfad 872" d="M167.21,76.321a4.349,4.349,0,0,0-4.777,1.452,4.6,4.6,0,0,0-.244,5.119c2.117,3.717,8.028,3.065,9.6-.8.8-1.969-.212-4.629-2.479-4.983a.774.774,0,0,0-.922.524.756.756,0,0,0,.524.923,2.106,2.106,0,0,1,1.563,2.773,3.9,3.9,0,0,1-3.086,2.5,3.724,3.724,0,0,1-3.672-1.335,3.238,3.238,0,0,1-.333-3.476,2.884,2.884,0,0,1,3.428-1.254.756.756,0,0,0,.923-.523.767.767,0,0,0-.524-.923" fill="#1fc687"/>
      <path id="Pfad_873" data-name="Pfad 873" d="M158.94,74.4a4.516,4.516,0,0,1-.507,0,.714.714,0,0,1-.267-.023c.033.023.127.02.022,0l-.117-.02a4.6,4.6,0,0,1-.493-.12q-.129-.038-.255-.084c-.038-.013-.074-.028-.112-.042-.135-.05.069.035-.014,0a5.376,5.376,0,0,1-.877-.505c-.014-.01-.117-.09-.043-.031s-.028-.024-.041-.035q-.1-.086-.2-.177a4.687,4.687,0,0,1-.369-.39.754.754,0,0,0-1.061,0,.77.77,0,0,0,0,1.061,5.451,5.451,0,0,0,4.335,1.87.75.75,0,0,0,0-1.5" fill="#1fc687"/>
      <path id="Pfad_874" data-name="Pfad 874" d="M156.515,80.911l-4.234,1.5a.75.75,0,1,0,.4,1.446l4.234-1.5a.75.75,0,1,0-.4-1.446" fill="#1fc687"/>
      <path id="Pfad_875" data-name="Pfad 875" d="M160.537,88.522a3.509,3.509,0,0,0-1.243,1.667,3.342,3.342,0,0,0-.078,1.95.75.75,0,0,0,1.447-.4c-.015-.058-.029-.117-.04-.175a.57.57,0,0,1-.017-.1c0,.017.019.186.012.081a3.292,3.292,0,0,1-.01-.358c0-.06.009-.12.014-.179.008-.094-.031.189-.008.061.005-.027.009-.053.014-.079a2.863,2.863,0,0,1,.1-.366c.021-.061.11-.24,0-.026.027-.054.05-.109.077-.162a2.83,2.83,0,0,1,.186-.308c.016-.021.076-.1,0,0s0,0,.015-.018c.039-.046.079-.09.12-.133s.085-.085.13-.124c.019-.018.04-.035.06-.053.112-.1-.146.108-.026.019a.821.821,0,0,0,.345-.448.767.767,0,0,0-.076-.578.758.758,0,0,0-1.026-.269" fill="#1fc687"/>
      <path id="Pfad_876" data-name="Pfad 876" d="M169.733,88.941l2.485,1.876a.75.75,0,0,0,1.1-.847.875.875,0,0,0-.345-.448l-2.485-1.876a.749.749,0,0,0-.578-.076.767.767,0,0,0-.448.345.759.759,0,0,0-.076.578.875.875,0,0,0,.345.448" fill="#1fc687"/>
      <path id="Pfad_877" data-name="Pfad 877" d="M176.375,81.5l3.489-.487a.749.749,0,0,0,.448-.345.75.75,0,0,0-.847-1.1l-3.489.488a.747.747,0,0,0-.448.344.75.75,0,0,0,.847,1.1" fill="#1fc687"/>
      <path id="Pfad_878" data-name="Pfad 878" d="M173.593,73.639l1.813-2.923a.757.757,0,0,0-.269-1.026.765.765,0,0,0-1.026.269L172.3,72.882a.757.757,0,0,0,.269,1.026.766.766,0,0,0,1.026-.269" fill="#1fc687"/>
      <path id="Pfad_879" data-name="Pfad 879" d="M165.72,70.578q-.274-1.962-.548-3.925a.753.753,0,0,0-.923-.524.775.775,0,0,0-.524.923l.549,3.925a.751.751,0,0,0,.922.524.775.775,0,0,0,.524-.923" fill="#1fc687"/>
      <path id="Pfad_880" data-name="Pfad 880" d="M208.267,53.883c.492-1.25,2.214-1.572,3.342-1.11a5.089,5.089,0,0,1,2.723,3.726,3.028,3.028,0,0,1-.277,2.22,3.323,3.323,0,0,1-2.044,1.173c-1.579.428-3.627.65-5.008-.439-1.037-.818-1.543-2.633-.459-3.607.719-.646-.344-1.7-1.061-1.06-1.532,1.376-1.215,3.775-.01,5.247,1.48,1.81,4.128,1.908,6.241,1.472a6.04,6.04,0,0,0,3.194-1.462,3.98,3.98,0,0,0,.992-3.077,6.774,6.774,0,0,0-3.275-5.364,4.125,4.125,0,0,0-5.8,1.882.755.755,0,0,0,.523.923.768.768,0,0,0,.923-.524" fill="#1fc687"/>
      <path id="Pfad_881" data-name="Pfad 881" d="M202.543,52.31c-.131,0-.26-.014-.391-.027-.1-.01.16.027.063.008l-.091-.016c-.068-.012-.136-.026-.2-.042-.127-.03-.253-.066-.376-.108-.059-.02-.116-.041-.174-.064-.022-.009-.125-.051-.017-.006s-.022-.011-.036-.018a4.063,4.063,0,0,1-.656-.384c-.039-.028-.126-.109.023.021-.023-.021-.048-.039-.072-.058-.047-.039-.094-.079-.14-.12-.1-.093-.2-.192-.292-.295a.754.754,0,0,0-1.06,0,.767.767,0,0,0,0,1.061,4.794,4.794,0,0,0,3.422,1.548.757.757,0,0,0,.75-.75.765.765,0,0,0-.75-.75" fill="#1fc687"/>
      <path id="Pfad_882" data-name="Pfad 882" d="M200.4,58.906l-2.059,1.177a.75.75,0,0,0,.757,1.295l2.059-1.177a.75.75,0,0,0-.757-1.3" fill="#1fc687"/>
      <path id="Pfad_883" data-name="Pfad 883" d="M204.828,63.472l-1.758,3.763a.769.769,0,0,0,.269,1.027.76.76,0,0,0,1.026-.269l1.758-3.764a.75.75,0,1,0-1.295-.757" fill="#1fc687"/>
      <path id="Pfad_884" data-name="Pfad 884" d="M212.087,65.077A2.577,2.577,0,0,0,213.8,68.69a2.064,2.064,0,0,0,.645.064,2.4,2.4,0,0,0,.8-.209.752.752,0,0,0,.344-.448.75.75,0,0,0-.523-.923.878.878,0,0,0-.578.076l-.027.011.179-.076a1.4,1.4,0,0,1-.326.089l.2-.027a1.5,1.5,0,0,1-.354,0l.2.027a1.651,1.651,0,0,1-.395-.107l.179.076a1.977,1.977,0,0,1-.435-.255l.151.117a2.24,2.24,0,0,1-.382-.384l.117.152a2.153,2.153,0,0,1-.272-.466c.026.06.051.12.076.179a1.845,1.845,0,0,1-.118-.426l.027.2a1.559,1.559,0,0,1,0-.38l-.027.2a1.421,1.421,0,0,1,.093-.345c-.025.06-.05.119-.076.179a1.765,1.765,0,0,1,.092-.178.75.75,0,1,0-1.295-.757" fill="#1fc687"/>
      <path id="Pfad_885" data-name="Pfad 885" d="M217.968,60.475a10.09,10.09,0,0,0,4.237.432.77.77,0,0,0,.75-.75c-.017-.368-.333-.8-.75-.75a9.58,9.58,0,0,1-2,.021c-.088-.008-.176-.018-.264-.029.13.016-.078-.012-.1-.015-.162-.026-.324-.056-.484-.09a9.571,9.571,0,0,1-.987-.265.756.756,0,0,0-.923.523.767.767,0,0,0,.524.923" fill="#1fc687"/>
      <path id="Pfad_886" data-name="Pfad 886" d="M218.536,52.809l2.456-2.009a.752.752,0,0,0,.219-.53.765.765,0,0,0-.219-.531.756.756,0,0,0-.531-.219.857.857,0,0,0-.53.219l-2.456,2.009a.754.754,0,0,0-.219.531.749.749,0,0,0,.75.75.864.864,0,0,0,.53-.22" fill="#1fc687"/>
      <path id="Pfad_887" data-name="Pfad 887" d="M211.33,48.712a7.905,7.905,0,0,0,.355-5.45.75.75,0,0,0-1.447.4,5.993,5.993,0,0,1,.272,2.219,5.025,5.025,0,0,1-.15,1.054q-.069.288-.16.569c-.026.08-.054.16-.083.239-.014.038-.1.257-.082.213a.775.775,0,0,0,.269,1.026.755.755,0,0,0,1.026-.269" fill="#1fc687"/>
    </g>
  </g>
</svg>
