<svg xmlns="http://www.w3.org/2000/svg" xmlns:xlink="http://www.w3.org/1999/xlink" width="292.265" height="122.07" viewBox="0 0 292.265 122.07">
  <defs>
    <clipPath id="clip-path">
      <rect id="Rechteck_238" data-name="Rechteck 238" width="292.265" height="122.07" transform="translate(0 0)" fill="none"/>
    </clipPath>
  </defs>
  <g id="Gruppe_438" data-name="Gruppe 438" transform="translate(0 0)">
    <g id="Gruppe_437" data-name="Gruppe 437" clip-path="url(#clip-path)">
      <path id="Pfad_772" data-name="Pfad 772" d="M122.071,0A122.209,122.209,0,0,1,0,122.07V61.009A61.078,61.078,0,0,0,61.01,0Z" fill="#c0dddc"/>
      <path id="Pfad_773" data-name="Pfad 773" d="M57.814,93.681q2.213,3.1,4.276,6.293a1.739,1.739,0,0,0,1.2.5A3.531,3.531,0,0,0,65,100.16c.741-.363,1.663-1.112,1.092-2q-2.064-3.2-4.276-6.293a1.753,1.753,0,0,0-1.2-.505,3.532,3.532,0,0,0-1.71.319c-.7.344-1.706,1.136-1.092,2" fill="#fbfaf9"/>
      <path id="Pfad_774" data-name="Pfad 774" d="M105.95,29.3q2.961.867,5.84,1.985a3.018,3.018,0,0,0,1.638-.033,3.1,3.1,0,0,0,1.436-.79,1.17,1.17,0,0,0,.391-1.085,1.285,1.285,0,0,0-.881-.743q-2.877-1.117-5.84-1.985a3.192,3.192,0,0,0-1.638.033,3.1,3.1,0,0,0-1.436.79,1.17,1.17,0,0,0-.391,1.085,1.228,1.228,0,0,0,.881.743" fill="#fbfaf9"/>
      <path id="Pfad_775" data-name="Pfad 775" d="M98.578,45.647a32.859,32.859,0,0,0,7.91,2.8,3.047,3.047,0,0,0,1.715-.3,2.342,2.342,0,0,0,1.116-1.028,1.155,1.155,0,0,0-.086-1.2A2.023,2.023,0,0,0,108,45.3q-.313-.069.126.03l-.249-.058c-.125-.03-.25-.06-.374-.092-.29-.073-.579-.15-.866-.233q-.863-.246-1.709-.546t-1.672-.651c-.275-.117-.548-.239-.82-.364l-.348-.164-.23-.112c.228.114.254.126.076.037a2.638,2.638,0,0,0-1.481-.332,3.138,3.138,0,0,0-1.635.6,1.755,1.755,0,0,0-.762,1.152,1.129,1.129,0,0,0,.525,1.082" fill="#fbfaf9"/>
      <path id="Pfad_776" data-name="Pfad 776" d="M91.929,60.07l5.315,3.463a1.939,1.939,0,0,0,1.122.194,5.512,5.512,0,0,0,1.7-.371c.254-.1,1.968-.9,1.263-1.356q-2.656-1.732-5.315-3.463a1.938,1.938,0,0,0-1.122-.194,5.506,5.506,0,0,0-1.695.371c-.255.1-1.969.9-1.264,1.356" fill="#fbfaf9"/>
      <path id="Pfad_777" data-name="Pfad 777" d="M90.843,74.647A20.948,20.948,0,0,1,88.06,72.3q.161.164.322.325Q87.765,72,87.2,71.327a1.973,1.973,0,0,0-1.256-.693,2.931,2.931,0,0,0-1.718.287,2.241,2.241,0,0,0-1.1,1.086,1.311,1.311,0,0,0,.113,1.3,22.7,22.7,0,0,0,4.285,3.971,2.385,2.385,0,0,0,1.5.39,2.933,2.933,0,0,0,1.631-.61,1.83,1.83,0,0,0,.742-1.228,1.351,1.351,0,0,0-.551-1.18" fill="#fbfaf9"/>
      <path id="Pfad_778" data-name="Pfad 778" d="M35.793,110.625q-.454-.777-.842-1.59l.192.406a21.092,21.092,0,0,1-1.254-3.37c-.292-1.051-1.692-1.3-2.6-1.025-.892.271-2.048,1.092-1.743,2.19a22.742,22.742,0,0,0,2.289,5.367,1.866,1.866,0,0,0,1.256.692,2.939,2.939,0,0,0,1.718-.286c.886-.484,1.563-1.4.988-2.384" fill="#fbfaf9"/>
      <path id="Pfad_779" data-name="Pfad 779" d="M44.6,102.263c.125.21.25.421.373.633l-.155-.267a64.963,64.963,0,0,1,3.083,6.033c.382.852,1.73.714,2.463.5a3.435,3.435,0,0,0,1.452-.729c.217-.211.584-.6.432-.935a67.122,67.122,0,0,0-3.611-6.933c-.179-.3-.9-.371-1.172-.379a4.109,4.109,0,0,0-1.7.339,2.5,2.5,0,0,0-1.165.846.746.746,0,0,0,0,.892" fill="#fbfaf9"/>
      <path id="Pfad_780" data-name="Pfad 780" d="M70.783,84.783a25.912,25.912,0,0,1,5.4,5.681c.17.243.92.228,1.13.22a5.258,5.258,0,0,0,1.7-.367,2.852,2.852,0,0,0,1.2-.723l.167-.253a.354.354,0,0,0-.116-.434,25.92,25.92,0,0,0-5.4-5.681,1.86,1.86,0,0,0-1.128-.219,5.268,5.268,0,0,0-1.7.366c-.313.127-1.936.878-1.248,1.41" fill="#fbfaf9"/>
      <path id="Pfad_781" data-name="Pfad 781" d="M183.228,0H121.977a61.319,61.319,0,0,0,61.251,61.25A61.319,61.319,0,0,0,244.479,0Z" fill="#4d908e"/>
      <path id="Pfad_782" data-name="Pfad 782" d="M190.791,21.555a18.453,18.453,0,0,0-7.719-9.04l1.248-2.909a2.5,2.5,0,1,0-4.6-1.97l-1.248,2.91a18.581,18.581,0,0,0-18.87,30.263L140.325,63.258a34.379,34.379,0,0,1-2.164-3.118,2.5,2.5,0,0,0-4.274,2.6A39.475,39.475,0,0,0,137,67.124L113.684,94.271a2.5,2.5,0,1,0,3.793,3.258l22.946-26.713a39.455,39.455,0,0,0,25.188,10.837l-3.546,35.007A2.5,2.5,0,0,0,164.3,119.4a2.448,2.448,0,0,0,.255.013,2.5,2.5,0,0,0,2.484-2.248l3.606-35.6a39.653,39.653,0,0,0,5.329-.774,2.5,2.5,0,1,0-1.065-4.885,34.655,34.655,0,0,1-3.75.58l2.982-29.439a18.6,18.6,0,0,0,16.65-25.494M154.015,73.9a34.338,34.338,0,0,1-10.332-6.874L163.4,44.067a17.6,17.6,0,0,0,5.766,2.47l-3.05,30.112a34.36,34.36,0,0,1-12.1-2.753m15.661-32.387a13.9,13.9,0,0,1-1.531-.543,13.755,13.755,0,0,1-1.448-.737l3.525-4.1Zm16.341-7.684h0a13.621,13.621,0,0,1-11.367,8.19l2.15-21.222L162.894,36.983a13.693,13.693,0,0,1-2.021-3.474,13.609,13.609,0,1,1,25.144.316" fill="#23234e"/>
      <path id="Pfad_783" data-name="Pfad 783" d="M266.646,61.609a18.03,18.03,0,0,0-20.766,2.78,18.781,18.781,0,0,0-4.51,19.979,19.94,19.94,0,0,0,6.292,8.548A19.368,19.368,0,0,0,258.32,96.94a18.691,18.691,0,0,0,11.1-2.718,18.494,18.494,0,0,0,6.939-7.928A17.166,17.166,0,0,0,277.6,75.721a17.371,17.371,0,0,0-5.228-9.284,16.724,16.724,0,0,0-2.138-1.647c-1.014-.661-1.956.963-.947,1.621a15.393,15.393,0,0,1,6.185,16.941,16.515,16.515,0,0,1-14.524,11.7,17.693,17.693,0,0,1-10.23-2.312,17.91,17.91,0,0,1-6.634-6.93,16.747,16.747,0,0,1-2-9.288,17.152,17.152,0,0,1,3.53-9.048,15.652,15.652,0,0,1,7.921-5.424,16.411,16.411,0,0,1,9.92.183,14.429,14.429,0,0,1,2.242.994c1.061.578,2.009-1.042.947-1.62" fill="#b3b6c7"/>
      <path id="Pfad_784" data-name="Pfad 784" d="M259.633,64.8V63.561a.969.969,0,0,0-.275-.664,1.046,1.046,0,0,0-.663-.275.95.95,0,0,0-.664.275.977.977,0,0,0-.274.664V64.8a.966.966,0,0,0,.274.663.693.693,0,0,0,.3.194.706.706,0,0,0,.362.081.945.945,0,0,0,.663-.275.971.971,0,0,0,.275-.663" fill="#b3b6c7"/>
      <path id="Pfad_785" data-name="Pfad 785" d="M271.341,80.252l2.225-.046a.98.98,0,0,0,.663-.275.938.938,0,0,0-.663-1.6l-2.225.047a.975.975,0,0,0-.663.274.938.938,0,0,0,.663,1.6" fill="#b3b6c7"/>
      <path id="Pfad_786" data-name="Pfad 786" d="M244.82,79.374l1.484-.266a.7.7,0,0,0,.319-.168.712.712,0,0,0,.242-.263.94.94,0,0,0-.337-1.284l-.224-.1a.96.96,0,0,0-.5,0l-1.484.267a1.054,1.054,0,0,0-.561.431.961.961,0,0,0-.094.723.944.944,0,0,0,.431.56l.224.1a.939.939,0,0,0,.5,0" fill="#b3b6c7"/>
      <path id="Pfad_787" data-name="Pfad 787" d="M260,92.313a4.774,4.774,0,0,0-.142-2.506,1,1,0,0,0-.432-.561.956.956,0,0,0-.723-.094.944.944,0,0,0-.56.431.931.931,0,0,0-.1.723,3.864,3.864,0,0,1,.181.74l-.033-.249a3.882,3.882,0,0,1,0,1.016c.011-.084.023-.167.034-.25-.012.084-.026.168-.042.251a1,1,0,0,0,.094.723.94.94,0,0,0,1.284.337.929.929,0,0,0,.431-.561" fill="#b3b6c7"/>
      <path id="Pfad_788" data-name="Pfad 788" d="M253.2,76.125q2.79,1.962,5.38,4.181a.959.959,0,0,0,1.474-.19,67.546,67.546,0,0,1,7.733-8.5c.887-.824-.442-2.149-1.327-1.327a70.155,70.155,0,0,0-8.026,8.878l1.473-.19q-2.77-2.373-5.76-4.474a.947.947,0,0,0-1.284.336.958.958,0,0,0,.337,1.284" fill="#b3b6c7"/>
      <path id="Pfad_789" data-name="Pfad 789" d="M287.1,67.552c3.181,13.7-.568,27.327-8.348,38.8-.171.252.547.174.669-.006a55.475,55.475,0,0,0,8.6-19.33,44.955,44.955,0,0,0-.2-19.656c-.051-.223-.778-.039-.724.194" fill="#b3b6c7"/>
      <path id="Pfad_790" data-name="Pfad 790" d="M288.917,62.861a43.149,43.149,0,0,1-1.462,33.08c-.172.375.558.378.693.084a43.54,43.54,0,0,0,1.493-33.358c-.119-.329-.84-.128-.724.194" fill="#b3b6c7"/>
    </g>
  </g>
</svg>
