<svg xmlns="http://www.w3.org/2000/svg" xmlns:xlink="http://www.w3.org/1999/xlink" width="292.265" height="122.07" viewBox="0 0 292.265 122.07">
  <defs>
    <clipPath id="clip-path">
      <rect id="Rechteck_238" data-name="Rechteck 238" width="292.265" height="122.07" transform="translate(0 0)" fill="none"/>
    </clipPath>
    <clipPath id="clip-path-2">
      <rect id="Rechteck_357" data-name="Rechteck 357" width="216.003" height="116.73" transform="translate(0 0)" fill="none"/>
    </clipPath>
  </defs>
  <g id="Gruppe_437" data-name="Gruppe 437" transform="translate(0 0)" clip-path="url(#clip-path)">
    <g id="Gruppe_689" data-name="Gruppe 689">
      <path id="Pfad_783" data-name="Pfad 783" d="M266.646,61.609a18.03,18.03,0,0,0-20.766,2.78,18.781,18.781,0,0,0-4.51,19.979,19.94,19.94,0,0,0,6.292,8.548A19.368,19.368,0,0,0,258.32,96.94a18.691,18.691,0,0,0,11.1-2.718,18.494,18.494,0,0,0,6.939-7.928A17.166,17.166,0,0,0,277.6,75.721a17.371,17.371,0,0,0-5.228-9.284,16.724,16.724,0,0,0-2.138-1.647c-1.014-.661-1.956.963-.947,1.621a15.393,15.393,0,0,1,6.185,16.941,16.515,16.515,0,0,1-14.524,11.7,17.693,17.693,0,0,1-10.23-2.312,17.91,17.91,0,0,1-6.634-6.93,16.747,16.747,0,0,1-2-9.288,17.152,17.152,0,0,1,3.53-9.048,15.652,15.652,0,0,1,7.921-5.424,16.411,16.411,0,0,1,9.92.183,14.429,14.429,0,0,1,2.242.994c1.061.578,2.009-1.042.947-1.62" fill="#b3b6c7"/>
      <path id="Pfad_784" data-name="Pfad 784" d="M259.633,64.8V63.561a.969.969,0,0,0-.275-.664,1.046,1.046,0,0,0-.663-.275.95.95,0,0,0-.664.275.977.977,0,0,0-.274.664V64.8a.966.966,0,0,0,.274.663.693.693,0,0,0,.3.194.706.706,0,0,0,.362.081.945.945,0,0,0,.663-.275.971.971,0,0,0,.275-.663" fill="#b3b6c7"/>
      <path id="Pfad_785" data-name="Pfad 785" d="M271.341,80.252l2.225-.046a.98.98,0,0,0,.663-.275.938.938,0,0,0-.663-1.6l-2.225.047a.975.975,0,0,0-.663.274.938.938,0,0,0,.663,1.6" fill="#b3b6c7"/>
      <path id="Pfad_786" data-name="Pfad 786" d="M244.82,79.374l1.484-.266a.7.7,0,0,0,.319-.168.712.712,0,0,0,.242-.263.94.94,0,0,0-.337-1.284l-.224-.1a.96.96,0,0,0-.5,0l-1.484.267a1.054,1.054,0,0,0-.561.431.961.961,0,0,0-.094.723.944.944,0,0,0,.431.56l.224.1a.939.939,0,0,0,.5,0" fill="#b3b6c7"/>
      <path id="Pfad_787" data-name="Pfad 787" d="M260,92.313a4.774,4.774,0,0,0-.142-2.506,1,1,0,0,0-.432-.561.956.956,0,0,0-.723-.094.944.944,0,0,0-.56.431.931.931,0,0,0-.1.723,3.864,3.864,0,0,1,.181.74l-.033-.249a3.882,3.882,0,0,1,0,1.016c.011-.084.023-.167.034-.25-.012.084-.026.168-.042.251a1,1,0,0,0,.094.723.94.94,0,0,0,1.284.337.929.929,0,0,0,.431-.561" fill="#b3b6c7"/>
      <path id="Pfad_788" data-name="Pfad 788" d="M253.2,76.125q2.79,1.962,5.38,4.181a.959.959,0,0,0,1.474-.19,67.546,67.546,0,0,1,7.733-8.5c.887-.824-.442-2.149-1.327-1.327a70.155,70.155,0,0,0-8.026,8.878l1.473-.19q-2.77-2.373-5.76-4.474a.947.947,0,0,0-1.284.336.958.958,0,0,0,.337,1.284" fill="#b3b6c7"/>
      <path id="Pfad_789" data-name="Pfad 789" d="M287.1,67.552c3.181,13.7-.568,27.327-8.348,38.8-.171.252.547.174.669-.006a55.475,55.475,0,0,0,8.6-19.33,44.955,44.955,0,0,0-.2-19.656c-.051-.223-.778-.039-.724.194" fill="#b3b6c7"/>
      <path id="Pfad_790" data-name="Pfad 790" d="M288.917,62.861a43.149,43.149,0,0,1-1.462,33.08c-.172.375.558.378.693.084a43.54,43.54,0,0,0,1.493-33.358c-.119-.329-.84-.128-.724.194" fill="#b3b6c7"/>
    </g>
    <g id="Gruppe_510" data-name="Gruppe 510">
      <g id="Gruppe_509" data-name="Gruppe 509" clip-path="url(#clip-path-2)">
        <path id="Pfad_944" data-name="Pfad 944" d="M1.529,112.328q21.646-6.123,43.436-11.718Q65.409,95.34,85.93,90.386c13.439-3.271,26.89-6.491,40.332-9.75q20.418-4.952,40.785-10.11,21.6-5.514,43.075-11.489,2.766-.774,5.528-1.555a.5.5,0,0,0-.266-.964q-21.645,6.121-43.436,11.718-20.442,5.27-40.964,10.224c-13.44,3.271-26.891,6.491-40.333,9.75Q70.233,93.162,49.866,98.32q-21.6,5.514-43.075,11.489-2.764.772-5.528,1.555a.5.5,0,0,0,.266.964" fill="#b3b6c7"/>
        <path id="Pfad_945" data-name="Pfad 945" d="M1.533,115.761l-.035.083c-.154.366.284.706.615.615q21.449-5.85,42.979-11.392,20.2-5.212,40.452-10.242,19.895-4.963,39.8-9.891,20.148-5.018,40.267-10.154,21.341-5.475,42.609-11.218,2.739-.742,5.476-1.489a.5.5,0,0,0-.265-.964q-21.448,5.85-42.979,11.393Q150.245,77.714,130,82.743,110.1,87.707,90.2,92.634,70.05,97.651,49.932,102.789q-21.339,5.475-42.608,11.218-2.739.741-5.477,1.488l.615.615c.012-.028.024-.055.035-.083.249-.593-.718-.851-.964-.266" fill="#b3b6c7"/>
        <path id="Pfad_946" data-name="Pfad 946" d="M86.421,0l20.365,78.861L214.671,51,201.5,0Z" fill="#96c7c6"/>
        <path id="Pfad_947" data-name="Pfad 947" d="M192.075,0h-76.6a110.979,110.979,0,0,0-8.866,78.833L160.582,64.9A55.777,55.777,0,0,1,192.075,0" fill="#c7dede"/>
        <path id="Pfad_948" data-name="Pfad 948" d="M192.076,0a55.775,55.775,0,0,0-31.369,64.84l53.941-13.929L201.5,0Z" fill="#23234e"/>
        <path id="Pfad_949" data-name="Pfad 949" d="M78.742,0H0V34.587a55.414,55.414,0,0,0,38.818,4.206h0l.075-.019L92.744,24.869A55.322,55.322,0,0,0,78.742,0" fill="#23234e"/>
        <path id="Pfad_950" data-name="Pfad 950" d="M92.782,24.86h0L38.931,38.766l-.075.019h0A55.679,55.679,0,0,0,0,75.235v31.1L52.856,92.691h0A55.757,55.757,0,0,0,92.782,24.86" fill="#c7dede"/>
      </g>
    </g>
  </g>
</svg>
