<svg xmlns="http://www.w3.org/2000/svg" xmlns:xlink="http://www.w3.org/1999/xlink" width="267.803" height="124.977" viewBox="0 0 267.803 124.977">
  <defs>
    <clipPath id="clip-path">
      <rect id="Rechteck_374" data-name="Rechteck 374" width="267.803" height="124.977" transform="translate(0 0)" fill="none"/>
    </clipPath>
  </defs>
  <g id="Gruppe_541" data-name="Gruppe 541" transform="translate(0 0)">
    <path id="Pfad_1037" data-name="Pfad 1037" d="M4.962,0,21.089,114.623,209.795,87.93,197.423,0Z" fill="#dcedec"/>
    <g id="Gruppe_540" data-name="Gruppe 540">
      <g id="Gruppe_539" data-name="Gruppe 539" clip-path="url(#clip-path)">
        <path id="Pfad_1038" data-name="Pfad 1038" d="M197.291.065h-70.24A78.027,78.027,0,0,1,77.939,27.4l10.953,77.639A156.5,156.5,0,0,0,201.528,30.1Z" fill="#c0dddc"/>
        <path id="Pfad_1039" data-name="Pfad 1039" d="M127.009.138H4.962l5.2,36.892,67.728-9.555L78,27.46h0A78.03,78.03,0,0,0,127.009.138" fill="#dcedec"/>
        <rect id="Rechteck_373" data-name="Rechteck 373" width="68.53" height="78.407" transform="translate(10.085 37.001) rotate(-8.03)" fill="#96c7c6"/>
        <path id="Pfad_1040" data-name="Pfad 1040" d="M.018,29.031q.4,2.125.806,4.25a.505.505,0,0,0,.615.35.512.512,0,0,0,.35-.615L.982,28.765a.505.505,0,0,0-.615-.349.51.51,0,0,0-.349.615" fill="#b3b6c7"/>
        <path id="Pfad_1041" data-name="Pfad 1041" d="M1.1,38.444q.342,3.717,1.048,7.387c.122.632,1.086.364.964-.265Q2.434,42.03,2.1,38.444c-.058-.636-1.059-.642-1,0" fill="#b3b6c7"/>
        <path id="Pfad_1042" data-name="Pfad 1042" d="M3.42,53.765a29.487,29.487,0,0,0,1.419,5.484.515.515,0,0,0,.615.349.5.5,0,0,0,.349-.615A29.487,29.487,0,0,1,4.384,53.5a.5.5,0,0,0-.615-.349.512.512,0,0,0-.349.615" fill="#b3b6c7"/>
        <path id="Pfad_1043" data-name="Pfad 1043" d="M4.994,64.192a26.145,26.145,0,0,0,1.143,5.634c.2.611,1.162.35.964-.265a24.991,24.991,0,0,1-1.107-5.369.514.514,0,0,0-.5-.5.5.5,0,0,0-.5.5" fill="#b3b6c7"/>
        <path id="Pfad_1044" data-name="Pfad 1044" d="M6.978,77.841A14.955,14.955,0,0,0,8.13,83.912a.518.518,0,0,0,.615.35.5.5,0,0,0,.35-.615,14.251,14.251,0,0,1-1.117-5.806.5.5,0,0,0-1,0" fill="#b3b6c7"/>
        <path id="Pfad_1045" data-name="Pfad 1045" d="M8.3,88.632a50.167,50.167,0,0,0,1.256,7.423.5.5,0,0,0,.964-.266A48.319,48.319,0,0,1,9.3,88.632c-.059-.635-1.06-.642-1,0" fill="#b3b6c7"/>
        <path id="Pfad_1046" data-name="Pfad 1046" d="M10.948,104.044a19.443,19.443,0,0,0,1.816,7.53c.272.582,1.134.075.864-.5a18.178,18.178,0,0,1-1.68-7.025c-.023-.642-1.023-.645-1,0" fill="#b3b6c7"/>
        <path id="Pfad_1047" data-name="Pfad 1047" d="M13.193,118.263a54.123,54.123,0,0,1,1.364,6.075.5.5,0,0,0,.615.349,29.975,29.975,0,0,1,5.334-1.031c.635-.063.641-1.064,0-1a31.271,31.271,0,0,0-5.6,1.067l.615.349A54.173,54.173,0,0,0,14.157,118a.5.5,0,0,0-.964.266" fill="#b3b6c7"/>
        <path id="Pfad_1048" data-name="Pfad 1048" d="M28.873,122.356l7.46-.714c.635-.061.641-1.062,0-1l-7.46.714c-.635.061-.641,1.061,0,1" fill="#b3b6c7"/>
        <path id="Pfad_1049" data-name="Pfad 1049" d="M47.126,119.87a41.166,41.166,0,0,0,6.751-.76c.631-.124.364-1.088-.266-.964a39.469,39.469,0,0,1-6.485.724c-.642.019-.645,1.019,0,1" fill="#b3b6c7"/>
        <path id="Pfad_1050" data-name="Pfad 1050" d="M62.092,118.106l3.314-.331a.5.5,0,0,0,0-1l-3.314.331a.511.511,0,0,0-.5.5.5.5,0,0,0,.5.5" fill="#b3b6c7"/>
        <path id="Pfad_1051" data-name="Pfad 1051" d="M71.569,116.217a36.431,36.431,0,0,0,6.3-.44.5.5,0,0,0,.349-.615.512.512,0,0,0-.615-.349,34.945,34.945,0,0,1-6.036.4.5.5,0,0,0,0,1" fill="#b3b6c7"/>
        <path id="Pfad_1052" data-name="Pfad 1052" d="M83.675,114.37a34.754,34.754,0,0,0,8.081-1.42.5.5,0,0,0-.265-.965,33.534,33.534,0,0,1-7.816,1.385c-.64.036-.644,1.036,0,1" fill="#b3b6c7"/>
        <path id="Pfad_1053" data-name="Pfad 1053" d="M98.649,112.585a61.931,61.931,0,0,0,9.824-1.01c.632-.116.364-1.08-.266-.964a60.231,60.231,0,0,1-9.558.974.5.5,0,0,0,0,1" fill="#b3b6c7"/>
        <path id="Pfad_1054" data-name="Pfad 1054" d="M115.394,109.884a57.542,57.542,0,0,0,9.455-.313c.632-.073.639-1.074,0-1a57.542,57.542,0,0,1-9.455.313c-.643-.032-.642.968,0,1" fill="#b3b6c7"/>
        <path id="Pfad_1055" data-name="Pfad 1055" d="M129.794,108.29q5.1-.942,10.251-1.56c.631-.075.638-1.076,0-1q-5.283.631-10.517,1.6c-.632.116-.364,1.08.266.964" fill="#b3b6c7"/>
        <path id="Pfad_1056" data-name="Pfad 1056" d="M146.989,105.511q3.232-.447,6.495-.624c.64-.036.644-1.036,0-1q-3.393.189-6.761.66a.5.5,0,0,0-.349.615.514.514,0,0,0,.615.349" fill="#b3b6c7"/>
        <path id="Pfad_1057" data-name="Pfad 1057" d="M158.762,103.883a22,22,0,0,0,6.735-.691.5.5,0,0,0-.266-.964,21.111,21.111,0,0,1-6.469.655c-.643-.034-.641.966,0,1" fill="#b3b6c7"/>
        <path id="Pfad_1058" data-name="Pfad 1058" d="M173.507,101.626a28.774,28.774,0,0,1,5.29-.148c.642.041.64-.959,0-1a28.774,28.774,0,0,0-5.29.148.516.516,0,0,0-.5.5.5.5,0,0,0,.5.5" fill="#b3b6c7"/>
        <path id="Pfad_1059" data-name="Pfad 1059" d="M185.525,100.052a35.471,35.471,0,0,1,5.822-.441.5.5,0,0,0,0-1,37.058,37.058,0,0,0-6.088.477.5.5,0,0,0-.349.615.512.512,0,0,0,.615.349" fill="#b3b6c7"/>
        <path id="Pfad_1060" data-name="Pfad 1060" d="M197.415,98.521a20.541,20.541,0,0,1,4.943-.36c.643.031.642-.969,0-1a21.578,21.578,0,0,0-5.209.4.5.5,0,0,0-.349.615.51.51,0,0,0,.615.349" fill="#b3b6c7"/>
        <path id="Pfad_1061" data-name="Pfad 1061" d="M208.882,96.629l6.614-1.275c.632-.122.364-1.086-.266-.965l-6.614,1.276c-.631.121-.364,1.085.266.964" fill="#b3b6c7"/>
        <path id="Pfad_1062" data-name="Pfad 1062" d="M218.126,90.881a21.561,21.561,0,0,1-1.484-5.764.516.516,0,0,0-.5-.5.5.5,0,0,0-.5.5,22.43,22.43,0,0,0,1.52,6.03.515.515,0,0,0,.615.349.5.5,0,0,0,.349-.615" fill="#b3b6c7"/>
        <path id="Pfad_1063" data-name="Pfad 1063" d="M216.31,79.6a14.6,14.6,0,0,0-.672-3.884.51.51,0,0,0-.615-.349.5.5,0,0,0-.349.615,13.527,13.527,0,0,1,.636,3.618.5.5,0,0,0,1,0" fill="#b3b6c7"/>
        <path id="Pfad_1064" data-name="Pfad 1064" d="M215.386,70q-.548-2.533-1.094-5.066c-.135-.629-1.1-.362-.964.266q.547,2.533,1.094,5.066c.135.629,1.1.363.964-.266" fill="#b3b6c7"/>
        <path id="Pfad_1065" data-name="Pfad 1065" d="M213.626,58.9a59.314,59.314,0,0,0-.082-6.613c-.044-.638-1.044-.643-1,0a59.314,59.314,0,0,1,.082,6.613c-.028.643.972.642,1,0" fill="#b3b6c7"/>
        <path id="Pfad_1066" data-name="Pfad 1066" d="M212,47.679a47.694,47.694,0,0,0-.929-8.079c-.128-.631-1.091-.364-.964.265A46.014,46.014,0,0,1,211,47.679a.5.5,0,0,0,1,0" fill="#b3b6c7"/>
        <path id="Pfad_1067" data-name="Pfad 1067" d="M210.134,33.805a19.336,19.336,0,0,0-.88-5.206c-.193-.612-1.159-.35-.965.266a18.308,18.308,0,0,1,.845,4.94c.02.642,1.02.645,1,0" fill="#b3b6c7"/>
        <path id="Pfad_1068" data-name="Pfad 1068" d="M208.544,22.447q-.551-2.753-1.1-5.5c-.126-.631-1.09-.364-.964.265q.551,2.752,1.1,5.5c.126.63,1.09.363.964-.266" fill="#b3b6c7"/>
        <path id="Pfad_1069" data-name="Pfad 1069" d="M207.032,11.347l-.57-5.074a.514.514,0,0,0-.5-.5.5.5,0,0,0-.5.5l.57,5.074a.515.515,0,0,0,.5.5.5.5,0,0,0,.5-.5" fill="#b3b6c7"/>
        <path id="Pfad_1070" data-name="Pfad 1070" d="M217.017,15.491a35.906,35.906,0,0,0,3.317-3.175.737.737,0,1,0-1.035-1.05,35.768,35.768,0,0,1-3.316,3.175.74.74,0,0,0-.008,1.042.755.755,0,0,0,1.042.008" fill="#b3b6c7"/>
        <path id="Pfad_1071" data-name="Pfad 1071" d="M218.308,20.262l4.184-.9a.743.743,0,0,0,.521-.9.754.754,0,0,0-.9-.522l-4.184.9a.743.743,0,0,0-.522.9.754.754,0,0,0,.9.522" fill="#b3b6c7"/>
        <path id="Pfad_1072" data-name="Pfad 1072" d="M217.99,24.722a15.194,15.194,0,0,1,1.875,1.218l.1.077c.089.068-.086-.07,0,0l.22.179q.219.182.43.37.423.378.817.787a.737.737,0,1,0,1.05-1.034,15.808,15.808,0,0,0-3.738-2.864.737.737,0,1,0-.754,1.267" fill="#b3b6c7"/>
        <path id="Pfad_1073" data-name="Pfad 1073" d="M199.872,118.286c-1.321-.49-2.792-1.042-3.51-2.347a2.35,2.35,0,0,1-.221-1.771c.169-.64.488-1.226.719-1.844a2.769,2.769,0,0,0,.044-2.14.412.412,0,0,0-.643-.083,6.229,6.229,0,0,1-3.142,1.885,6.093,6.093,0,0,1-3.678-.27,6.011,6.011,0,0,1-1.789-1.1.42.42,0,0,0-.578,0,.412.412,0,0,0,0,.578c.075.068.152.133.23.2a6.316,6.316,0,0,1,2.234,2.859,3.4,3.4,0,0,1-1.377,3.529,5.921,5.921,0,0,1-2.136.984.4.4,0,0,0-.183.663.448.448,0,0,0-.049.325.419.419,0,0,0,.5.285,9.625,9.625,0,0,1,4.341.037,3.336,3.336,0,0,1,2.28,2.165c.206.8.066,1.647.26,2.453a.411.411,0,0,0,.8-.109,10.454,10.454,0,0,1,.559-3.807,1.41,1.41,0,0,1,1.085-1.039,13.034,13.034,0,0,1,1.9-.463,13.446,13.446,0,0,1,2.24-.179.411.411,0,0,0,.109-.8m-4.4.635a2.368,2.368,0,0,0-1.54,1.191,6.33,6.33,0,0,0-.444,1.318,3.679,3.679,0,0,0-.7-.99,5.472,5.472,0,0,0-3.862-1.453,11.343,11.343,0,0,0-1.3.06,5.062,5.062,0,0,0,2.394-2.233,3.948,3.948,0,0,0,.4-2.394,4.248,4.248,0,0,0-.767-1.773,7.3,7.3,0,0,0,1.292.279,6.924,6.924,0,0,0,5.359-1.708,3.551,3.551,0,0,1-.29,1.056,10.762,10.762,0,0,0-.707,1.909,3.765,3.765,0,0,0,1.89,3.762,6.9,6.9,0,0,0,.777.437,13.743,13.743,0,0,0-2.493.539" fill="#b3b6c7"/>
        <path id="Pfad_1074" data-name="Pfad 1074" d="M241.31,100.741a4.768,4.768,0,0,1,3.175.976,1.845,1.845,0,0,1,.567,1.284,15.508,15.508,0,0,1-.125,1.551,2.176,2.176,0,0,0,.451,1.623.323.323,0,0,0,.5-.083,4.9,4.9,0,0,1,1.942-2.13,4.8,4.8,0,0,1,2.832-.628,4.741,4.741,0,0,1,1.6.427.328.328,0,0,0,.435-.13.325.325,0,0,0-.13-.436c-.073-.033-.145-.065-.219-.1a4.97,4.97,0,0,1-2.328-1.649,2.674,2.674,0,0,1,.239-2.971,4.671,4.671,0,0,1,1.387-1.223.316.316,0,0,0-.011-.542.353.353,0,0,0-.037-.255.33.33,0,0,0-.444-.1,7.552,7.552,0,0,1-3.279.954,2.621,2.621,0,0,1-2.206-1.116c-.337-.557-.423-1.226-.751-1.789a.323.323,0,0,0-.581.263,8.22,8.22,0,0,1,.439,3,1.111,1.111,0,0,1-.582,1.028,10.291,10.291,0,0,1-1.326.778,10.557,10.557,0,0,1-1.647.641.323.323,0,0,0,.1.629m3.171-1.472a1.863,1.863,0,0,0,.891-1.246,4.971,4.971,0,0,0,.037-1.092,2.882,2.882,0,0,0,.754.586,4.3,4.3,0,0,0,3.238.222,8.954,8.954,0,0,0,.968-.34,3.982,3.982,0,0,0-1.3,2.224,3.1,3.1,0,0,0,.24,1.893,3.351,3.351,0,0,0,.979,1.163,5.561,5.561,0,0,0-1.036.082,5.393,5.393,0,0,0-2.874,1.512,5.457,5.457,0,0,0-.778.986,2.8,2.8,0,0,1-.02-.862,8.471,8.471,0,0,0,.1-1.6,2.961,2.961,0,0,0-2.274-2.408,5.581,5.581,0,0,0-.684-.154,10.833,10.833,0,0,0,1.756-.969" fill="#b3b6c7"/>
        <path id="Pfad_1075" data-name="Pfad 1075" d="M267.63,84.577a6.075,6.075,0,0,0-1.582-.711,5.581,5.581,0,0,0-.82-.171,3.17,3.17,0,0,1-.811-.147.918.918,0,0,1-.5-.892,3.094,3.094,0,0,1,.575-1.5c.215-.367-.271-.694-.569-.433-.7.61-.842,1.821-1.829,2.068a3.871,3.871,0,0,1-2.444-.549.449.449,0,0,0-.085-.029.749.749,0,0,0-.631-.207.436.436,0,0,0-.275.744.344.344,0,0,0,.456.027,3,3,0,0,1,.27.271,2.794,2.794,0,0,1,.387.586,3.037,3.037,0,0,1,.32,1.391,3.576,3.576,0,0,1-1.454,2.748h0c-.025.019-.049.036-.074.056-.314.257.113.811.44.564.026-.019.049-.038.073-.057a2.345,2.345,0,0,1,2.536-.138,3.432,3.432,0,0,1,1.6,2.354c.087.412.7.29.709-.106.014-.756.027-1.512.043-2.268q.009-.567.02-1.134a1.984,1.984,0,0,1,.171-.958,1.728,1.728,0,0,1,1.285-.708c.7-.1,1.41-.023,2.111-.145.327-.057.317-.509.079-.66m-3.466.507a1.86,1.86,0,0,0-.858,1.322,15.769,15.769,0,0,0-.066,1.9c0,.148-.006.3-.008.444a3.8,3.8,0,0,0-.679-.763,3.288,3.288,0,0,0-2.42-.79,4.164,4.164,0,0,0,.66-1.826,3.754,3.754,0,0,0-.363-2.023,3.44,3.44,0,0,0,1.817.154,1.993,1.993,0,0,0,.972-.545,1.616,1.616,0,0,0,.548,1.034,3.811,3.811,0,0,0,1.745.487,5.048,5.048,0,0,1,.567.159,3.567,3.567,0,0,0-1.915.451" fill="#b3b6c7"/>
        <path id="Pfad_1076" data-name="Pfad 1076" d="M64.543,77.029a17.693,17.693,0,1,0-15.048,19.99,17.693,17.693,0,0,0,15.048-19.99M55.392,74.29,46.445,87.934l-8.189-6.456a2,2,0,1,1,2.476-3.14l4.762,3.752L52.047,72.1a2,2,0,1,1,3.345,2.193" fill="#23234e"/>
        <path id="Pfad_1077" data-name="Pfad 1077" d="M56.713,21.525a17.693,17.693,0,1,0-15.048,19.99,17.693,17.693,0,0,0,15.048-19.99m-9.151-2.739L38.615,32.43l-8.189-6.456a2,2,0,1,1,2.476-3.14l4.762,3.752,6.553-9.993a2,2,0,1,1,3.345,2.193" fill="#23234e"/>
        <path id="Pfad_1078" data-name="Pfad 1078" d="M93.893,20.2s0,0-.025-.018l.021.016,0,0" fill="#1b1a2e"/>
        <path id="Pfad_1079" data-name="Pfad 1079" d="M175.515,8.051a2.034,2.034,0,0,0-2.46-1.4,46.75,46.75,0,0,1-9.037,1.713,73.166,73.166,0,0,1-9.212-.041,15.823,15.823,0,0,0-4.888.436,14.669,14.669,0,0,0-4,1.925c-1.131.739-2.215,1.551-3.389,2.223q-.393.224-.8.424c-.144.071-.289.138-.434.2-.039.017-.06.027-.073.034l-.065.025a17.363,17.363,0,0,1-1.8.6c-.614.165-1.236.3-1.863.4l-.378.06-.094.015-.042.005c-.351.044-.7.081-1.057.112-1.3.113-2.612.148-3.92.157-2.562.018-5.128-.071-7.686.113a22.33,22.33,0,0,0-8,1.9c-2.36,1.106-4.175,3.095-6.543,4.172-.059.023-.18.073-.225.089-.169.058-.34.109-.514.151-.1.024-.2.042-.3.063l-.026.006h-.061c-.307.007-.6.006-.911-.008l.044.01-.05-.01h-.021a.328.328,0,0,1-.152-.037c-.076-.015-.152-.03-.227-.05a2.01,2.01,0,0,0-.362-.111l-.011,0c-.041-.02-.083-.039-.123-.06-.085-.045-.166-.1-.252-.146-.021-.011-.03-.013-.045-.02l-.009-.01c-.1-.1-.2-.2-.3-.3.213.214.134.145-.015-.058a.246.246,0,0,1-.019-.032c-.032-.106-.062-.213-.1-.319-.008-.023-.012-.03-.018-.047s0-.026,0-.052c0-.164-.013-.327-.01-.492,0-.281.025-.561.051-.84.058-.634.157-1.265.174-1.9a4.435,4.435,0,0,0-1.944-4.044,1.994,1.994,0,0,0-2.018,0A22.728,22.728,0,0,0,97.7,16.356,20.183,20.183,0,0,0,95.9,18.351c-.189.239-.374.481-.559.724-.048.062-.095.125-.142.187l-.059.075c-.119.145-.238.29-.365.428-.062.068-.126.134-.192.2l-.13.121c-.05.015-.281.153-.218.15-.169.045-.262.035.039.034l-.2.01h-.011a.253.253,0,0,1-.03,0l-.134-.08,0,0c-.049-.029-.1-.06-.146-.087.063.035.1.056.124.072a1.015,1.015,0,0,1-.149-.126c-.047-.047-.092-.112-.143-.154-.083-.139-.181-.271-.26-.413-.06-.107-.111-.218-.165-.328.079.153-.064-.165-.107-.3-.049-.155-.093-.313-.13-.472-.023-.094-.053-.277-.066-.337a12.516,12.516,0,0,1,.1-2.272,11,11,0,0,0-.386-5.462,5.82,5.82,0,0,0-4.251-3.495,8.058,8.058,0,0,0-5.384.852,13.771,13.771,0,0,0-4.108,3.778c-2.988,3.836-5.832,7.792-8.739,11.691a2.006,2.006,0,0,0,.718,2.736,2.058,2.058,0,0,0,2.736-.717q3.817-5.121,7.635-10.241c.12-.162.24-.323.362-.483l.2-.269c.283-.361.572-.717.876-1.06.266-.3.542-.592.832-.869.144-.138.294-.269.443-.4l.094-.08c.06-.043.261-.195.288-.213.324-.221.667-.393,1.007-.586-.291.165.012-.005.158-.055a6.125,6.125,0,0,1,.666-.182c.163-.035.5-.045.151-.034.172-.005.343-.025.515-.026s.317.016.474.018c.085.017.17.032.254.052.143.036.282.083.421.131.036.019.167.077.247.124.146.086.36.3.13.068.059.058.125.109.182.169.014.014.088.092.133.137.027.036.054.071.059.079.065.107.126.213.187.322.025.045.041.071.053.089a.789.789,0,0,0,.025.115c.049.179.1.356.136.537,0,.008.008.048.014.09.006.071.017.2.019.22.107,1.673-.357,3.324-.271,4.991.166,3.225,2.655,7.537,6.5,6.286a5.681,5.681,0,0,0,2.642-1.92c.2-.255.4-.516.6-.776l.169-.222c.018-.024.038-.049.055-.069.324-.4.661-.8,1.015-1.176a17.8,17.8,0,0,1,2.432-2.206c0,.04,0,.08-.009.121a9.818,9.818,0,0,0,.048,3.657c.733,2.663,3.522,4.035,6.132,3.954,2.878-.089,5.072-1.839,7.3-3.45a18.893,18.893,0,0,1,1.608-1.059q.414-.24.845-.448c.114-.055.23-.107.344-.161l.107-.047c.066-.027.133-.054.2-.079a18.053,18.053,0,0,1,3.65-.951c.122-.019.243-.037.365-.054l.146-.017c.319-.032.638-.068.958-.1.679-.057,1.36-.092,2.041-.114,1.316-.043,2.633-.036,3.95-.03a53.234,53.234,0,0,0,8.257-.431,18.744,18.744,0,0,0,7.516-2.859c1.156-.758,2.265-1.592,3.475-2.265a6.4,6.4,0,0,1,1.39-.641,7.723,7.723,0,0,1,2.155-.417,49.27,49.27,0,0,1,5.125.165,48.37,48.37,0,0,0,5.465-.075,51.721,51.721,0,0,0,10.811-1.91,2.027,2.027,0,0,0,1.4-2.46M94,20.274c-.136-.012-.114-.045,0,0m1.226-1.052h0m3.505,1.95c-.09.118-.053.068,0,0m3.511-4.912-.021-.024c-.093-.161-.019-.107.021.024m3.939,4.322c-.043-.085-.062-.182,0,0" fill="#23234e"/>
        <path id="Pfad_1080" data-name="Pfad 1080" d="M107.733,21.43a.735.735,0,0,0-.18-.038c.059.011.117.024.174.038Z" fill="#1b1a2e"/>
        <path id="Pfad_1081" data-name="Pfad 1081" d="M150.112,67.359a2.048,2.048,0,0,0-2.46-1.4l-12.94,2.756c-2.135.454-4.268.919-6.406,1.361a29.612,29.612,0,0,1-5.926.765,24.263,24.263,0,0,0-6.382.515,24.657,24.657,0,0,0-2.88,1.1l-.5.215c.009-.005-.292.12-.347.142-.439.177-.883.344-1.337.481-.224.068-.45.129-.678.181-.1.022-.2.042-.294.062l-.13.023-.131.014c-.1.006-.2.012-.3.016a5.893,5.893,0,0,1-.861-.031c-.239-.028-.067-.014-.02-.005-.11-.019-.22-.042-.329-.065-.219-.046-.437-.1-.654-.156-.517-.137-1.028-.3-1.54-.456q-3.147-.966-6.293-1.932a8.91,8.91,0,0,0-3.982-.466,9.755,9.755,0,0,0-3.285,1.363c-.745.427-1.465.9-2.172,1.388a11.107,11.107,0,0,0-1.007-2.928,2.052,2.052,0,0,0-2.737-.718A12.171,12.171,0,0,0,79.8,77.529a2,2,0,0,0,3.857,1.063c.1-.357.208-.705.336-1.052.017-.044.024-.065.033-.093s.03-.055.055-.106c.082-.165.162-.33.249-.492q.242-.445.526-.865c.025-.038.171-.239.224-.316s.221-.266.251-.3a10.067,10.067,0,0,1,.7-.728c.128-.12.261-.234.393-.349,0,.025.009.049.013.075s0,.014.005.046a8.576,8.576,0,0,1,.021,1.36c0,.027-.039.319-.043.383-.044.247-.1.492-.162.734A2.016,2.016,0,0,0,89.6,78.835a26.044,26.044,0,0,1,4.464-3.306,9.236,9.236,0,0,1,2.293-1.108,3.277,3.277,0,0,1,.834,0,14.859,14.859,0,0,1,1.564.423l6.174,1.895a12.2,12.2,0,0,0,6.191.64,13.707,13.707,0,0,0,2.5-.82c.509-.21,1.015-.428,1.521-.644l.138-.059.145-.059c.223-.09.446-.178.671-.262a12.657,12.657,0,0,1,1.266-.4c.217-.055.435-.1.655-.143l.209-.035.3-.032c1.05-.1,2.105-.077,3.158-.077,4.289,0,8.465-1.074,12.635-1.962l14.4-3.068a2.014,2.014,0,0,0,1.4-2.46" fill="#23234e"/>
      </g>
    </g>
  </g>
</svg>
