<svg id="Gruppe_525" data-name="Gruppe 525" xmlns="http://www.w3.org/2000/svg" xmlns:xlink="http://www.w3.org/1999/xlink" width="343.561" height="117.224" viewBox="0 0 343.561 117.224">
  <defs>
    <clipPath id="clip-path">
      <rect id="Rechteck_372" data-name="Rechteck 372" width="343.561" height="117.224" fill="none"/>
    </clipPath>
    <clipPath id="clip-path-3">
      <rect id="Rechteck_370" data-name="Rechteck 370" width="117.168" height="104.477" transform="translate(207.088 5.648)" fill="none"/>
    </clipPath>
  </defs>
  <g id="Gruppe_524" data-name="Gruppe 524" clip-path="url(#clip-path)">
    <g id="Gruppe_523" data-name="Gruppe 523">
      <g id="Gruppe_522" data-name="Gruppe 522" clip-path="url(#clip-path)">
        <path id="Pfad_989" data-name="Pfad 989" d="M42.912,0a71.734,71.734,0,0,0,80,96.839L104.749,0Z" fill="#dcedec"/>
        <path id="Pfad_990" data-name="Pfad 990" d="M138.948,0h-34.2L122.9,96.825A142.982,142.982,0,0,1,138.948,0" fill="#23234e"/>
        <path id="Pfad_991" data-name="Pfad 991" d="M249.94,0H138.721a142.978,142.978,0,0,0-16.067,96.887l70.618-13.241A71.86,71.86,0,0,1,249.94,0" fill="#c0dddc"/>
        <path id="Pfad_992" data-name="Pfad 992" d="M38.986,39.535A71.409,71.409,0,0,0,17.062,0H0V117.224A71.9,71.9,0,0,0,38.986,39.535" fill="#96c7c6"/>
        <g id="Gruppe_521" data-name="Gruppe 521" opacity="0.5">
          <g id="Gruppe_520" data-name="Gruppe 520">
            <g id="Gruppe_519" data-name="Gruppe 519" clip-path="url(#clip-path-3)">
              <rect id="Rechteck_369" data-name="Rechteck 369" width="99.245" height="81.11" transform="translate(207.088 31.905) rotate(-15.341)" fill="#c0dddc"/>
            </g>
          </g>
        </g>
        <path id="Pfad_993" data-name="Pfad 993" d="M199.5,29.561l1.866,5.643c.2.609,1.167.348.964-.265L200.461,29.3c-.2-.608-1.167-.347-.964.266" fill="#b3b6c7"/>
        <path id="Pfad_994" data-name="Pfad 994" d="M203.89,42.4a8.517,8.517,0,0,0,.3,5.636.517.517,0,0,0,.615.349.5.5,0,0,0,.349-.615,7.642,7.642,0,0,1-.3-5.1.5.5,0,0,0-.964-.266" fill="#b3b6c7"/>
        <path id="Pfad_995" data-name="Pfad 995" d="M206.844,54.745a5.121,5.121,0,0,0,1.308,4.274.5.5,0,0,0,.707-.707,4.082,4.082,0,0,1-1.052-3.3.516.516,0,0,0-.349-.616.5.5,0,0,0-.614.349" fill="#b3b6c7"/>
        <path id="Pfad_996" data-name="Pfad 996" d="M210.5,66.792l1.344,5.2a.5.5,0,0,0,.965-.266q-.673-2.6-1.345-5.2a.5.5,0,0,0-.964.266" fill="#b3b6c7"/>
        <path id="Pfad_997" data-name="Pfad 997" d="M214.111,80.091q.836,1.875,1.669,3.751a.506.506,0,0,0,.685.179.513.513,0,0,0,.179-.684q-.835-1.875-1.67-3.751a.5.5,0,0,0-.684-.179.512.512,0,0,0-.179.684" fill="#b3b6c7"/>
        <path id="Pfad_998" data-name="Pfad 998" d="M216.648,91.388l.87,5.236a.5.5,0,0,0,.615.349.513.513,0,0,0,.35-.615q-.435-2.618-.871-5.236a.5.5,0,0,0-.615-.349.512.512,0,0,0-.349.615" fill="#b3b6c7"/>
        <path id="Pfad_999" data-name="Pfad 999" d="M219.674,103.175q.588,2.134,1.175,4.27a.5.5,0,0,0,.964-.265q-.587-2.136-1.175-4.271a.5.5,0,0,0-.964.266" fill="#b3b6c7"/>
        <path id="Pfad_1000" data-name="Pfad 1000" d="M223.35,114.6q.563,1.166,1.127,2.33a.5.5,0,0,0,.683.179.512.512,0,0,0,.179-.684q-.562-1.166-1.127-2.33a.5.5,0,0,0-.684-.179.512.512,0,0,0-.178.684" fill="#b3b6c7"/>
        <path id="Pfad_1001" data-name="Pfad 1001" d="M228.8,116.335l4.3-1.054c.625-.153.36-1.118-.266-.964l-4.3,1.054c-.625.153-.36,1.118.266.964" fill="#b3b6c7"/>
        <path id="Pfad_1002" data-name="Pfad 1002" d="M240.645,113.223l4.254-1.237a.5.5,0,0,0-.266-.964l-4.254,1.237a.5.5,0,0,0,.266.964" fill="#b3b6c7"/>
        <path id="Pfad_1003" data-name="Pfad 1003" d="M252.64,109.776a3.464,3.464,0,0,0,3.391-1.348.5.5,0,0,0-.179-.684.515.515,0,0,0-.684.179c.027-.036.031-.038,0,0s-.045.054-.068.08c-.042.048-.085.094-.13.138s-.081.078-.123.115c-.026.023-.054.044-.08.067-.055.049.062-.043,0,0-.1.072-.207.143-.318.205q-.083.046-.168.087l-.076.036c.064-.03.026-.011-.017.006a3.076,3.076,0,0,1-.341.109c-.061.016-.122.029-.185.041l-.082.014c-.062.013.085-.007-.013,0a3.28,3.28,0,0,1-.357.016c-.063,0-.126,0-.189-.01-.014,0-.13-.016-.059-.006s-.058-.01-.058-.01a.511.511,0,0,0-.615.349.506.506,0,0,0,.349.615" fill="#b3b6c7"/>
        <path id="Pfad_1004" data-name="Pfad 1004" d="M263.357,106.943a11.892,11.892,0,0,1,4.988-1.37c.64-.031.644-1.032,0-1a13.049,13.049,0,0,0-5.493,1.507c-.569.3-.064,1.165.505.863" fill="#b3b6c7"/>
        <path id="Pfad_1005" data-name="Pfad 1005" d="M275.99,103.183l8.9-3.536c.59-.235.333-1.2-.266-.965l-8.9,3.537c-.591.235-.333,1.2.266.964" fill="#b3b6c7"/>
        <path id="Pfad_1006" data-name="Pfad 1006" d="M292.073,98.718a22.616,22.616,0,0,0,5.723-2.4.5.5,0,0,0-.505-.864,21.547,21.547,0,0,1-5.484,2.3.5.5,0,0,0,.266.964" fill="#b3b6c7"/>
        <path id="Pfad_1007" data-name="Pfad 1007" d="M304.418,94.832l3.717-2.158a.5.5,0,0,0-.505-.863l-3.717,2.158a.5.5,0,0,0,.505.863" fill="#b3b6c7"/>
        <path id="Pfad_1008" data-name="Pfad 1008" d="M313.261,91.9l4.263-1.205a.5.5,0,0,0-.266-.964l-4.263,1.205a.5.5,0,0,0,.266.964" fill="#b3b6c7"/>
        <path id="Pfad_1009" data-name="Pfad 1009" d="M323.221,90.084l3.34-1.021a.5.5,0,1,0-.266-.965l-3.34,1.022a.5.5,0,1,0,.266.964" fill="#b3b6c7"/>
        <path id="Pfad_1010" data-name="Pfad 1010" d="M330.612,84.97q-1.359-3.219-2.717-6.439a.5.5,0,0,0-.685-.179.513.513,0,0,0-.18.684l2.719,6.439a.5.5,0,0,0,.683.179.515.515,0,0,0,.18-.684" fill="#b3b6c7"/>
        <path id="Pfad_1011" data-name="Pfad 1011" d="M325.449,69.282a7.544,7.544,0,0,0-.772-4.068.5.5,0,0,0-.864.505,6.569,6.569,0,0,1,.636,3.563.5.5,0,0,0,.5.5.511.511,0,0,0,.5-.5" fill="#b3b6c7"/>
        <path id="Pfad_1012" data-name="Pfad 1012" d="M323.816,60.468a10.827,10.827,0,0,1-1.807-4.9.514.514,0,0,0-.5-.5.5.5,0,0,0-.5.5,11.86,11.86,0,0,0,1.944,5.4c.357.53,1.224.031.863-.505" fill="#b3b6c7"/>
        <path id="Pfad_1013" data-name="Pfad 1013" d="M319.807,51.393q-.16-2.157-.32-4.313a.512.512,0,0,0-.5-.5.5.5,0,0,0-.5.5q.16,2.157.32,4.313a.513.513,0,0,0,.5.5.5.5,0,0,0,.5-.5" fill="#b3b6c7"/>
        <path id="Pfad_1014" data-name="Pfad 1014" d="M317.5,40.844q-.487-1.676-.974-3.351a.5.5,0,1,0-.964.266q.486,1.676.974,3.351a.5.5,0,1,0,.964-.266" fill="#b3b6c7"/>
        <path id="Pfad_1015" data-name="Pfad 1015" d="M314.488,31.266l-2.839-6.555a.5.5,0,0,0-.684-.179.512.512,0,0,0-.18.684l2.84,6.555a.5.5,0,0,0,.684.179.512.512,0,0,0,.179-.684" fill="#b3b6c7"/>
        <path id="Pfad_1016" data-name="Pfad 1016" d="M310.634,19.3a9.563,9.563,0,0,0-.612-4.467.515.515,0,0,0-.615-.349.5.5,0,0,0-.35.615,8.887,8.887,0,0,1,.577,4.2.5.5,0,0,0,.5.5.512.512,0,0,0,.5-.5" fill="#b3b6c7"/>
        <path id="Pfad_1017" data-name="Pfad 1017" d="M307.948,8.423a4.318,4.318,0,0,0-1.921-3.7.506.506,0,0,0-.684.179.511.511,0,0,0,.18.685,1.87,1.87,0,0,1,.293.223,3.636,3.636,0,0,1,.317.316,1.951,1.951,0,0,1,.227.291,3.69,3.69,0,0,1,.241.407c.034.066.066.133.1.2-.022-.049,0-.007.008.018s.029.077.043.116a3.779,3.779,0,0,1,.127.43c.017.072.03.146.044.219.006.033.011.069,0,.014.005.041.009.083.013.124a3.712,3.712,0,0,1,.012.472.5.5,0,0,0,.5.5.51.51,0,0,0,.5-.5" fill="#b3b6c7"/>
        <path id="Pfad_1018" data-name="Pfad 1018" d="M304.238.111A8.251,8.251,0,0,1,298.8.5a.5.5,0,0,0-.266.964,9.349,9.349,0,0,0,6.2-.488.5.5,0,0,0,.179-.684.512.512,0,0,0-.684-.179" fill="#b3b6c7"/>
        <path id="Pfad_1019" data-name="Pfad 1019" d="M200.379,28.294a3.765,3.765,0,0,0,4.383-1.787.511.511,0,0,0-.179-.684A.5.5,0,0,0,203.9,26a2.35,2.35,0,0,1-.586.756,1.912,1.912,0,0,1-.356.264c-.074.046-.15.089-.227.129-.046.024-.093.046-.14.069l-.048.022h0a3.486,3.486,0,0,1-.5.155,1.782,1.782,0,0,1-.433.062c-.086,0-.173.005-.259,0-.044,0-.087,0-.13-.006-.011,0-.139-.013-.088-.007a3.255,3.255,0,0,1-.49-.118.5.5,0,1,0-.266.964" fill="#b3b6c7"/>
        <path id="Pfad_1020" data-name="Pfad 1020" d="M209.327,27.24a21.166,21.166,0,0,1,5.988-1.919.5.5,0,0,0,.349-.615.512.512,0,0,0-.615-.349,22.018,22.018,0,0,0-6.227,2.02c-.576.286-.07,1.149.5.863" fill="#b3b6c7"/>
        <path id="Pfad_1021" data-name="Pfad 1021" d="M219.914,24.068a6.6,6.6,0,0,0,4.511-1.309.517.517,0,0,0,.179-.684.5.5,0,0,0-.684-.18,5.761,5.761,0,0,1-4.006,1.173.5.5,0,0,0-.5.5.51.51,0,0,0,.5.5" fill="#b3b6c7"/>
        <path id="Pfad_1022" data-name="Pfad 1022" d="M234.658,19.641a15.164,15.164,0,0,0,5.265-1.934.5.5,0,0,0-.505-.864,14.412,14.412,0,0,1-5.026,1.834.5.5,0,0,0-.349.615.512.512,0,0,0,.615.349" fill="#b3b6c7"/>
        <path id="Pfad_1023" data-name="Pfad 1023" d="M247.285,16.226a13.848,13.848,0,0,0,4.955-.586c.613-.189.352-1.155-.266-.964a13.031,13.031,0,0,1-4.689.55.5.5,0,1,0,0,1" fill="#b3b6c7"/>
        <path id="Pfad_1024" data-name="Pfad 1024" d="M259.359,13.372l6.132-3.111c.574-.291.068-1.154-.505-.863l-6.132,3.111c-.574.291-.068,1.154.505.863" fill="#b3b6c7"/>
        <path id="Pfad_1025" data-name="Pfad 1025" d="M272.9,9.031A24.155,24.155,0,0,0,279.639,6.7c.571-.3.066-1.161-.505-.863a23.3,23.3,0,0,1-6.5,2.233c-.632.117-.364,1.081.266.964" fill="#b3b6c7"/>
        <path id="Pfad_1026" data-name="Pfad 1026" d="M284.824,5.731l3.727-1.722a.5.5,0,0,0,.18-.684.512.512,0,0,0-.684-.179l-3.728,1.722a.5.5,0,0,0-.179.684.512.512,0,0,0,.684.179" fill="#b3b6c7"/>
        <path id="Pfad_1027" data-name="Pfad 1027" d="M292.415,3.385a5.025,5.025,0,0,0,4.3-1.036.5.5,0,0,0,0-.707.512.512,0,0,0-.707,0,3.969,3.969,0,0,1-3.323.779.511.511,0,0,0-.615.349.5.5,0,0,0,.349.615" fill="#b3b6c7"/>
        <path id="Pfad_1028" data-name="Pfad 1028" d="M337.2,69.133c4.564,10.266,3.7,21.47-.647,31.654-.078.182.629.107.72-.107,4.356-10.209,5.228-21.447.651-31.741-.1-.218-.8.012-.724.194" fill="#b3b6c7"/>
        <path id="Pfad_1029" data-name="Pfad 1029" d="M337.945,65.237a34.448,34.448,0,0,1,3.857,26.1c-.072.3.662.193.728-.079a34.732,34.732,0,0,0-3.916-26.321c-.136-.229-.838.013-.669.3" fill="#b3b6c7"/>
        <g id="Gruppe_534" data-name="Gruppe 534">
          <path id="Pfad_1030" data-name="Pfad 1030" d="M294.386,68.289,284.128,64.52c.3-.39.592-.784.867-1.19v0a3.208,3.208,0,0,0-1.324-4.743L271.839,53.1a3.562,3.562,0,0,0-1.338-.294l-1.711-6.237,12.064-15.579a4.073,4.073,0,0,0,.735-3.579,3.681,3.681,0,0,0-4.067-2.7,4.112,4.112,0,0,0-2.724,1.568L264.148,40.03l-26.961,7.4a3.684,3.684,0,0,0-2.575,4.523l.084.306a3.694,3.694,0,0,0,4.527,2.591L254.2,50.738l1.72,6.27A3.394,3.394,0,0,0,254.8,58.95L252.15,73.93a3.174,3.174,0,0,0,.8,2.718,3.337,3.337,0,0,0,2.788,1.042,56,56,0,0,0,5.634-.78l3.76,13.706c.755,2.75,3.352,4.444,5.791,3.775s3.792-3.447,3.038-6.2l-3.782-13.786a37.283,37.283,0,0,0,6.133-3.03l14.851,5.488a4.447,4.447,0,0,0,5.734-2.623l.084-.253a4.444,4.444,0,0,0-2.6-5.7M238.637,52.712a1.477,1.477,0,0,1-1.807-1.042l-.084-.306a1.468,1.468,0,0,1,1.027-1.8l27.316-7.494a1.1,1.1,0,0,0,.582-.39l10.877-14.038a1.885,1.885,0,0,1,1.247-.726,1.547,1.547,0,0,1,1.153.3,1.506,1.506,0,0,1,.507.785,1.83,1.83,0,0,1-.346,1.633L266.7,45.655a1.109,1.109,0,0,0-.192.97l1.813,6.608-10.368,2.844-1.918-6.991a1.108,1.108,0,0,0-1.36-.775Zm15.939,22.431a.964.964,0,0,1-.246-.832l2.645-14.971a1.244,1.244,0,0,1,.913-.95l12.087-3.316.061-.017a1.375,1.375,0,0,1,.891.061l11.815,5.475a1,1,0,0,1,.421,1.5,20.859,20.859,0,0,1-1.726,2.206q-.6.691-1.26,1.346c-.179.176-.375.341-.56.513-.273.253-.539.511-.826.754-.231.2-.481.379-.721.569-.262.206-.515.419-.787.617s-.544.37-.817.554-.527.369-.8.543c-.024.013-.048.026-.07.04a35.319,35.319,0,0,1-7.114,3.468l-.012,0h0l-.012,0a49.664,49.664,0,0,1-6.511,1.833,53.832,53.832,0,0,1-6.4.947,1.15,1.15,0,0,1-.966-.344m17.255,13.636c.432,1.574-.236,3.134-1.49,3.478a2.719,2.719,0,0,1-3.071-2.227l-3.721-13.563a43.924,43.924,0,0,0,4.552-1.284ZM294.9,73.235c-.005.013-.01.027-.014.04l-.076.232a2.23,2.23,0,0,1-2.877,1.286l-13.329-4.926c.493-.361.964-.737,1.424-1.121q.174-.146.344-.291c.458-.4.9-.8,1.328-1.214.033-.033.063-.066.1-.1.273-.272.542-.547.8-.828l11.016,4.048a2.228,2.228,0,0,1,1.289,2.872" fill="#23234e"/>
          <path id="Pfad_1031" data-name="Pfad 1031" d="M258.874,40.888a7.119,7.119,0,1,0-8.749-4.982,7.127,7.127,0,0,0,8.749,4.982m-3.181-11.6a4.906,4.906,0,1,1-3.434,6.03,4.911,4.911,0,0,1,3.434-6.03" fill="#23234e"/>
          <path id="Pfad_1032" data-name="Pfad 1032" d="M91.438,39.051c-14.886-7.407-15.792-7.407-16.18-7.407a1.5,1.5,0,0,0-.194,2.987c1.139.331,8.488,3.847,15.038,7.106a1.5,1.5,0,0,0,1.336-2.686" fill="#23234e"/>
          <path id="Pfad_1033" data-name="Pfad 1033" d="M96.436,18.085H78.628a1.5,1.5,0,0,0,0,3H96.436a1.5,1.5,0,0,0,0-3" fill="#23234e"/>
          <path id="Pfad_1034" data-name="Pfad 1034" d="M70.823,43.788a1.5,1.5,0,0,0-2.2,2.041L80.159,58.246a1.5,1.5,0,0,0,2.2-2.041Z" fill="#23234e"/>
          <path id="Pfad_1035" data-name="Pfad 1035" d="M28.978,7.326H29.3a5.1,5.1,0,0,0,5.1-5.079V0h-3V2.247a2.093,2.093,0,0,1-2.1,2.079h-.318A2.107,2.107,0,0,1,26.9,2.247V0h-3V2.247a5.084,5.084,0,0,0,5.078,5.079" fill="#23234e"/>
          <path id="Pfad_1036" data-name="Pfad 1036" d="M75.472,6.012,52.457,2.7,45.983,0H38.178L49.933,4.895,38.293,32.86,20.78,25.569A15.15,15.15,0,0,1,16.843,0H12.638a18.142,18.142,0,0,0,6.99,28.338l18.6,7.746L57.007,50.367a1.492,1.492,0,0,0,.908.307,1.437,1.437,0,0,0,.39-.052,1.5,1.5,0,0,0,.995-.872L76.643,8.073a1.5,1.5,0,0,0-1.171-2.061M57.277,46.8,40.937,34.372l11.9-28.591L73.131,8.7Z" fill="#23234e"/>
        </g>
      </g>
    </g>
  </g>
</svg>
