<svg xmlns="http://www.w3.org/2000/svg" xmlns:xlink="http://www.w3.org/1999/xlink" width="216.003" height="116.73" viewBox="0 0 216.003 116.73">
  <defs>
    <clipPath id="clip-path">
      <rect id="Rechteck_357" data-name="Rechteck 357" width="216.003" height="116.73" transform="translate(0 0)" fill="none"/>
    </clipPath>
  </defs>
  <g id="Gruppe_510" data-name="Gruppe 510" transform="translate(0 0)">
    <g id="Gruppe_509" data-name="Gruppe 509" clip-path="url(#clip-path)">
      <path id="Pfad_944" data-name="Pfad 944" d="M1.529,112.328q21.646-6.123,43.436-11.718Q65.409,95.34,85.93,90.386c13.439-3.271,26.89-6.491,40.332-9.75q20.418-4.952,40.785-10.11,21.6-5.514,43.075-11.489,2.766-.774,5.528-1.555a.5.5,0,0,0-.266-.964q-21.645,6.121-43.436,11.718-20.442,5.27-40.964,10.224c-13.44,3.271-26.891,6.491-40.333,9.75Q70.233,93.162,49.866,98.32q-21.6,5.514-43.075,11.489-2.764.772-5.528,1.555a.5.5,0,0,0,.266.964" fill="#b3b6c7"/>
      <path id="Pfad_945" data-name="Pfad 945" d="M1.533,115.761l-.035.083c-.154.366.284.706.615.615q21.449-5.85,42.979-11.392,20.2-5.212,40.452-10.242,19.895-4.963,39.8-9.891,20.148-5.018,40.267-10.154,21.341-5.475,42.609-11.218,2.739-.742,5.476-1.489a.5.5,0,0,0-.265-.964q-21.448,5.85-42.979,11.393Q150.245,77.714,130,82.743,110.1,87.707,90.2,92.634,70.05,97.651,49.932,102.789q-21.339,5.475-42.608,11.218-2.739.741-5.477,1.488l.615.615c.012-.028.024-.055.035-.083.249-.593-.718-.851-.964-.266" fill="#b3b6c7"/>
      <path id="Pfad_946" data-name="Pfad 946" d="M86.421,0l20.365,78.861L214.671,51,201.5,0Z" fill="#96c7c6"/>
      <path id="Pfad_947" data-name="Pfad 947" d="M192.075,0h-76.6a110.979,110.979,0,0,0-8.866,78.833L160.582,64.9A55.777,55.777,0,0,1,192.075,0" fill="#c7dede"/>
      <path id="Pfad_948" data-name="Pfad 948" d="M192.076,0a55.775,55.775,0,0,0-31.369,64.84l53.941-13.929L201.5,0Z" fill="#23234e"/>
      <path id="Pfad_949" data-name="Pfad 949" d="M78.742,0H0V34.587a55.414,55.414,0,0,0,38.818,4.206h0l.075-.019L92.744,24.869A55.322,55.322,0,0,0,78.742,0" fill="#23234e"/>
      <path id="Pfad_950" data-name="Pfad 950" d="M92.782,24.86h0L38.931,38.766l-.075.019h0A55.679,55.679,0,0,0,0,75.235v31.1L52.856,92.691h0A55.757,55.757,0,0,0,92.782,24.86" fill="#c7dede"/>
    </g>
  </g>
</svg>
