<svg id="Komponente_75_2" data-name="Komponente 75 – 2" xmlns="http://www.w3.org/2000/svg" xmlns:xlink="http://www.w3.org/1999/xlink" width="234.132" height="130.941" viewBox="0 0 234.132 130.941">
  <defs>
    <clipPath id="clip-path">
      <rect id="Rechteck_350" data-name="Rechteck 350" width="234.132" height="130.941" fill="none"/>
    </clipPath>
  </defs>
  <g id="Gruppe_490" data-name="Gruppe 490" clip-path="url(#clip-path)">
    <path id="Pfad_834" data-name="Pfad 834" d="M170.73,72.513l8.864,6.077,4.535,3.11,2.062,1.413a24.429,24.429,0,0,0,2.164,1.456,2.192,2.192,0,0,0,3.217-1.006,17.409,17.409,0,0,0,.979-4.4q.891-5.178,1.385-10.416.565-5.986.592-12.008a.766.766,0,0,0-.75-.75,13.466,13.466,0,0,0-6.291,1.559c-2.145.972-4.264,2.007-6.372,3.059q-3.123,1.56-6.2,3.214-1.537.828-3.063,1.678a12.091,12.091,0,0,0-2.514,1.7,4.013,4.013,0,0,0-1.367,2.431,2.439,2.439,0,0,0,1.351,2.4c.866.416,1.628-.877.757-1.295-1.715-.824.476-2.711,1.3-3.236,1.642-1.048,3.425-1.923,5.143-2.838q5.367-2.857,10.88-5.43c2.014-.939,4.1-1.877,6.376-1.743l-.75-.75a134.013,134.013,0,0,1-1.529,19.6q-.372,2.426-.833,4.837a7.211,7.211,0,0,1-.43,1.718c-.3.64-.728.625-1.3.278-1.392-.843-2.708-1.846-4.05-2.767l-4.122-2.826-9.277-6.36c-.8-.547-1.549.752-.757,1.295" fill="#fd6d73"/>
    <path id="Pfad_835" data-name="Pfad 835" d="M181.118,65.725a18.083,18.083,0,0,0,2.9,5.409.754.754,0,0,0,1.061,0,.769.769,0,0,0,0-1.06,16.255,16.255,0,0,1-2.514-4.748.767.767,0,0,0-.922-.524.758.758,0,0,0-.524.923" fill="#fd6d73"/>
    <path id="Pfad_836" data-name="Pfad 836" d="M186.418,73.186a3.538,3.538,0,0,0-.713,3.122.819.819,0,0,0,.637.608,2.34,2.34,0,0,0,.47.063,2.039,2.039,0,0,0,.739-.111,2.465,2.465,0,0,0,.79-.455,1.472,1.472,0,0,0,.2-.21,1,1,0,0,0,.233-.387.949.949,0,0,0-.1-.645,1.99,1.99,0,0,0-1.409-1.109.812.812,0,0,0-.578.075.768.768,0,0,0-.345.449.759.759,0,0,0,.524.922,1.375,1.375,0,0,1,.273.079l-.179-.076a1.332,1.332,0,0,1,.2.109c.138.09-.122-.113-.024-.022.027.024.054.047.079.072s.049.052.073.078c.09.1-.1-.146-.031-.038a1.754,1.754,0,0,1,.117.218l-.075-.179c.009.022.017.044.025.067l.075-.578c-.077.111.125-.143.035-.043-.016.017-.03.035-.046.051s-.048.049-.073.072-.11.09,0,.008-.047.028-.079.048a1.556,1.556,0,0,1-.168.085l.179-.075a1.653,1.653,0,0,1-.4.11l.2-.027a1.577,1.577,0,0,1-.376,0l.2.027a1.574,1.574,0,0,1-.233-.054l.524.524a3.034,3.034,0,0,1-.07-.341l.027.2a2.893,2.893,0,0,1,0-.732l-.027.2a2.969,2.969,0,0,1,.2-.745c-.025.06-.05.12-.076.179a3.211,3.211,0,0,1,.156-.31c.026-.045.054-.089.082-.132s.174-.231.02-.035a.82.82,0,0,0,.219-.531.749.749,0,0,0-.75-.75.729.729,0,0,0-.53.22" fill="#fd6d73"/>
    <path id="Pfad_837" data-name="Pfad 837" d="M206.748,46.463q.189,5.557.379,11.116.095,2.81.191,5.62l.085,2.5a12.47,12.47,0,0,0,.176,2.605c.377,1.486,1.81,1.882,3.148,1.445a32.194,32.194,0,0,0,4.371-2.072q4.51-2.291,8.841-4.916,4.917-2.98,9.565-6.374a.763.763,0,0,0,.269-1.026,12.878,12.878,0,0,0-4.665-4.005c-2.14-1.219-4.333-2.354-6.525-3.475q-3.324-1.7-6.7-3.289-1.689-.8-3.39-1.564a9.28,9.28,0,0,0-2.428-.779,3.921,3.921,0,0,0-2.6.343,2.5,2.5,0,0,0-1.133,2.652c.169.949,1.614.546,1.447-.4-.289-1.629,2.26-1.131,3.05-.878a23,23,0,0,1,2.551,1.106q1.476.681,2.942,1.382,5.784,2.765,11.411,5.85a12.484,12.484,0,0,1,4.746,3.813q.135-.513.269-1.026a135.143,135.143,0,0,1-16.06,10.069q-2.08,1.109-4.2,2.143c-.659.323-3.021,1.889-3.439.687a7.342,7.342,0,0,1-.138-2.042l-.093-2.748-.174-5.121-.4-11.615c-.033-.963-1.533-.967-1.5,0" fill="#fd6d73"/>
    <path id="Pfad_838" data-name="Pfad 838" d="M218.322,50.963a17.642,17.642,0,0,0-2.559,5.371.75.75,0,1,0,1.446.4,16.3,16.3,0,0,1,2.408-5.012.75.75,0,0,0-1.295-.757" fill="#fd6d73"/>
    <path id="Pfad_839" data-name="Pfad 839" d="M215.4,59.562a3.535,3.535,0,0,0-2.734,1.182,2.289,2.289,0,0,0-.185.234.742.742,0,0,0-.053.64,2.25,2.25,0,0,0,.192.41,2.358,2.358,0,0,0,.632.658,2.073,2.073,0,0,0,.672.317,2.5,2.5,0,0,0,.438.07,1.1,1.1,0,0,0,.162,0,.814.814,0,0,0,.668-.4,2.056,2.056,0,0,0,.065-2.014.754.754,0,0,0-1.026-.269.768.768,0,0,0-.269,1.026c.01.021.021.042.03.064l-.075-.179a1.343,1.343,0,0,1,.093.342l-.027-.2a1.427,1.427,0,0,1,0,.32l.027-.2a1.458,1.458,0,0,1-.09.343l.075-.18a1.279,1.279,0,0,1-.119.218l.647-.371a1.549,1.549,0,0,1-.226-.011l.2.026a1.465,1.465,0,0,1-.343-.093l.179.076a1.594,1.594,0,0,1-.337-.194l.152.118a1.626,1.626,0,0,1-.276-.274l.117.152a1.471,1.471,0,0,1-.178-.307l.075.179c-.012-.03-.023-.061-.034-.091q-.1.365-.193.729a2.829,2.829,0,0,1,.453-.449l-.152.117a2.968,2.968,0,0,1,.641-.376l-.179.075a2.935,2.935,0,0,1,.717-.2l-.2.027a2.83,2.83,0,0,1,.46-.022.755.755,0,0,0,.75-.75.765.765,0,0,0-.75-.75" fill="#fd6d73"/>
    <path id="Pfad_840" data-name="Pfad 840" d="M0,.025v59.71A59.777,59.777,0,0,0,59.71.025Z" fill="#23234e"/>
    <path id="Pfad_841" data-name="Pfad 841" d="M119.47,0A119.605,119.605,0,0,1,0,119.47V59.709A59.777,59.777,0,0,0,59.71,0Z" fill="#fd6d73"/>
    <path id="Pfad_842" data-name="Pfad 842" d="M129.051,11.477a33.6,33.6,0,0,0,10.8.076,1.006,1.006,0,0,0,.7-1.23,1.027,1.027,0,0,0-1.231-.7,30.554,30.554,0,0,1-9.737-.077,1.031,1.031,0,0,0-1.231.7,1.01,1.01,0,0,0,.7,1.23" fill="#fd6d73"/>
    <path id="Pfad_843" data-name="Pfad 843" d="M127.848,27.653l6.6.647a1,1,0,0,0,1-1,1.026,1.026,0,0,0-1-1l-6.6-.647a1,1,0,0,0-1,1,1.027,1.027,0,0,0,1,1" fill="#fd6d73"/>
    <path id="Pfad_844" data-name="Pfad 844" d="M123.82,42.918l5.158,1.141a1,1,0,0,0,.532-1.928l-5.158-1.142a1,1,0,0,0-.532,1.929" fill="#fd6d73"/>
    <path id="Pfad_845" data-name="Pfad 845" d="M117.27,57.8l5.081,1.805a1.006,1.006,0,0,0,1.23-.7,1.024,1.024,0,0,0-.7-1.23l-5.08-1.806a1.007,1.007,0,0,0-1.23.7,1.025,1.025,0,0,0,.7,1.23" fill="#fd6d73"/>
    <path id="Pfad_846" data-name="Pfad 846" d="M109.474,70.552l5.746,2.474a1.026,1.026,0,0,0,1.368-.359,1.01,1.01,0,0,0-.358-1.368l-5.747-2.474a1.028,1.028,0,0,0-1.368.359,1.011,1.011,0,0,0,.359,1.368" fill="#fd6d73"/>
    <path id="Pfad_847" data-name="Pfad 847" d="M100.169,81.89a18.305,18.305,0,0,0,5.347,3.338,1,1,0,0,0,1.23-.7,1.03,1.03,0,0,0-.7-1.23l-.158-.065c.086.036.091.039,0,0l-.312-.141c-.22-.1-.438-.208-.654-.319q-.627-.324-1.227-.7-.579-.364-1.129-.775c-.046-.034-.091-.069-.136-.1.075.057.072.057,0,0-.1-.08-.2-.16-.3-.242-.187-.155-.37-.314-.551-.476a1,1,0,1,0-1.414,1.414" fill="#fd6d73"/>
    <path id="Pfad_848" data-name="Pfad 848" d="M92.562,91.286a10.445,10.445,0,0,0,4.852,3.734,1,1,0,0,0,1.231-.7,1.028,1.028,0,0,0-.7-1.23c-.106-.04-.21-.087-.317-.125.055.019.17.074.052.02l-.155-.071q-.294-.137-.576-.294c-.2-.11-.393-.228-.582-.353-.086-.056-.17-.114-.253-.173l-.139-.1c-.026-.02-.184-.142-.062-.045s-.011-.01-.032-.027c-.045-.036-.089-.071-.133-.108q-.13-.108-.258-.222c-.16-.144-.316-.293-.466-.448s-.295-.314-.434-.479c-.073-.087-.139-.181-.215-.265.039.044.108.143.033.04l-.12-.165a1.022,1.022,0,0,0-1.368-.359,1.011,1.011,0,0,0-.359,1.368" fill="#fd6d73"/>
    <path id="Pfad_849" data-name="Pfad 849" d="M80.2,99.888a19.638,19.638,0,0,0,4.432,5.052,1.024,1.024,0,0,0,1.414,0,1.01,1.01,0,0,0,0-1.414,18.922,18.922,0,0,1-2.322-2.207q-.261-.3-.512-.6c-.078-.1-.156-.195-.233-.293s.091.123-.021-.029c-.042-.056-.084-.111-.125-.167q-.481-.654-.906-1.347A1,1,0,0,0,80.2,99.888" fill="#fd6d73"/>
    <path id="Pfad_850" data-name="Pfad 850" d="M68.027,110.274l2.642,3.252a1,1,0,0,0,.707.293,1.019,1.019,0,0,0,.708-.293,1.006,1.006,0,0,0,.292-.707,1.139,1.139,0,0,0-.292-.707l-2.643-3.252a1,1,0,0,0-.707-.293,1.018,1.018,0,0,0-.707.293,1,1,0,0,0-.293.707,1.15,1.15,0,0,0,.293.707" fill="#fd6d73"/>
    <path id="Pfad_851" data-name="Pfad 851" d="M56.526,115.737a10.244,10.244,0,0,0,3.433,5.824,1,1,0,1,0,1.414-1.414,9.283,9.283,0,0,1-1.1-1.087l-.111-.132c-.015-.018-.163-.2-.083-.1s-.041-.054-.052-.07c-.043-.057-.085-.115-.127-.174q-.223-.316-.421-.651c-.124-.21-.239-.425-.347-.644-.057-.116-.11-.234-.163-.352-.111-.25.038.11-.016-.039-.019-.054-.042-.107-.062-.16a9.28,9.28,0,0,1-.433-1.532,1.007,1.007,0,0,0-1.231-.7,1.025,1.025,0,0,0-.7,1.23" fill="#fd6d73"/>
    <path id="Pfad_852" data-name="Pfad 852" d="M42.516,118.7a5.993,5.993,0,0,0,1.878,5.014,1,1,0,0,0,1.414-1.414,4.943,4.943,0,0,1-.4-.408c-.03-.034-.058-.068-.087-.1s-.117-.144-.025-.031-.032-.048-.041-.061l-.076-.111a5.051,5.051,0,0,1-.286-.493c-.041-.08-.077-.162-.116-.243-.058-.121.068.18.023.053-.019-.052-.041-.1-.06-.157a5.075,5.075,0,0,1-.156-.514c-.024-.1-.045-.2-.063-.3-.008-.044-.014-.089-.022-.133-.026-.134.02.2.008.067a5.668,5.668,0,0,1,.007-1.172,1,1,0,0,0-.293-.707,1,1,0,0,0-1.414,0,1.166,1.166,0,0,0-.293.707" fill="#fd6d73"/>
    <path id="Pfad_853" data-name="Pfad 853" d="M30.768,123.8a8.648,8.648,0,0,0,.458,4.839,1.1,1.1,0,0,0,.46.6,1.025,1.025,0,0,0,.77.1,1.012,1.012,0,0,0,.7-1.231,7.8,7.8,0,0,1-.343-1.021q-.068-.261-.116-.527c-.014-.076-.026-.152-.039-.228-.016-.114-.015-.1,0,.037,0-.039-.009-.077-.013-.115a7.669,7.669,0,0,1-.04-1.039c.006-.18.017-.359.036-.538,0-.046.017-.307,0-.04a2.606,2.606,0,0,1,.051-.3,1.024,1.024,0,0,0-.7-1.23,1.012,1.012,0,0,0-1.23.7" fill="#fd6d73"/>
    <path id="Pfad_854" data-name="Pfad 854" d="M2.346,123.267a12.609,12.609,0,0,0,.412,5.917,1,1,0,0,0,1.929-.532,11.645,11.645,0,0,1-.331-1.245q-.07-.339-.119-.683c.027.194-.013-.12-.014-.128-.012-.115-.022-.23-.031-.346a11.292,11.292,0,0,1-.026-1.288c.008-.214.022-.429.042-.643.009-.1.02-.2.032-.295-.023.192.029-.19.035-.225a1.025,1.025,0,0,0-.7-1.23,1.011,1.011,0,0,0-1.23.7" fill="#fd6d73"/>
    <path id="Pfad_855" data-name="Pfad 855" d="M16.734,125.134a7.58,7.58,0,0,0,1.944,5.517,1.007,1.007,0,0,0,1.415,0,1.023,1.023,0,0,0,0-1.414c-.07-.078-.136-.158-.2-.236s-.066-.081.012.018c-.032-.041-.063-.083-.093-.125-.121-.169-.235-.344-.339-.523s-.2-.365-.287-.554c-.022-.047-.043-.1-.064-.142.05.119.054.126.012.022s-.073-.195-.106-.293c-.067-.2-.124-.4-.171-.6-.024-.1-.045-.2-.064-.305-.01-.053-.083-.393-.024-.12a4.633,4.633,0,0,1-.031-1.245,1.006,1.006,0,0,0-1-1,1.024,1.024,0,0,0-1,1" fill="#fd6d73"/>
  </g>
</svg>
