<svg id="Gruppe_509" data-name="Gruppe 509" xmlns="http://www.w3.org/2000/svg" xmlns:xlink="http://www.w3.org/1999/xlink" width="251.628" height="123.419" viewBox="0 0 251.628 123.419">
  <defs>
    <clipPath id="clip-path">
      <rect id="Rechteck_358" data-name="Rechteck 358" width="251.628" height="123.418" fill="none"/>
    </clipPath>
  </defs>
  <rect id="Rechteck_357" data-name="Rechteck 357" width="83.421" height="83.457" transform="translate(4.172 40.78) rotate(-8.03)" fill="#96c7c6"/>
  <g id="Gruppe_508" data-name="Gruppe 508">
    <g id="Gruppe_507" data-name="Gruppe 507" clip-path="url(#clip-path)">
      <path id="Pfad_909" data-name="Pfad 909" d="M139.045,0A83.052,83.052,0,0,1,86.771,29.091L98.429,111.73A167.024,167.024,0,0,0,233.136,0Z" fill="#c0dddc"/>
      <path id="Pfad_910" data-name="Pfad 910" d="M139,0H0V11.4C1.468,22.476,3.216,33.274,4.268,40.729h0L86.723,29.1l.114-.016h0A83.057,83.057,0,0,0,139,0" fill="#dcedec"/>
      <path id="Pfad_911" data-name="Pfad 911" d="M56.877,21.525A17.693,17.693,0,1,0,41.829,41.516,17.693,17.693,0,0,0,56.877,21.525m-9.151-2.739L38.779,32.43,30.59,25.974a2,2,0,1,1,2.476-3.14l4.762,3.752,6.553-9.993a2,2,0,1,1,3.345,2.193" fill="#23234e"/>
      <path id="Pfad_912" data-name="Pfad 912" d="M94.058,20.2s0,0-.025-.018l.021.016,0,0" fill="#1b1a2e"/>
      <path id="Pfad_913" data-name="Pfad 913" d="M175.679,8.051a2.034,2.034,0,0,0-2.46-1.4,46.75,46.75,0,0,1-9.037,1.713,73.166,73.166,0,0,1-9.212-.041,15.823,15.823,0,0,0-4.888.436,14.669,14.669,0,0,0-4,1.925c-1.131.739-2.215,1.551-3.389,2.223q-.393.224-.8.424c-.144.071-.289.138-.434.2-.039.017-.06.027-.073.034l-.065.025a17.363,17.363,0,0,1-1.8.6c-.614.165-1.236.3-1.863.4l-.378.06-.094.015-.042.005c-.351.044-.7.081-1.057.112-1.3.113-2.612.148-3.92.157-2.562.018-5.128-.071-7.686.113a22.33,22.33,0,0,0-8,1.9c-2.36,1.106-4.175,3.095-6.543,4.172-.059.023-.18.073-.225.089-.169.058-.34.109-.514.151-.1.024-.2.042-.3.063l-.026.006h-.061c-.307.007-.6.006-.911-.008l.044.01-.05-.01h-.021a.328.328,0,0,1-.152-.037c-.076-.015-.152-.03-.227-.05a2.01,2.01,0,0,0-.362-.111l-.011,0c-.041-.02-.083-.039-.123-.06-.085-.045-.166-.1-.252-.146-.021-.011-.03-.013-.045-.02l-.009-.01c-.1-.1-.2-.2-.3-.3.213.214.134.145-.015-.058a.245.245,0,0,1-.019-.032c-.032-.106-.062-.213-.1-.319-.008-.023-.012-.03-.018-.047s0-.026,0-.052c0-.164-.013-.327-.01-.492,0-.281.025-.561.051-.84.058-.634.157-1.265.174-1.9a4.435,4.435,0,0,0-1.944-4.044,1.994,1.994,0,0,0-2.018,0,22.728,22.728,0,0,0-4.631,3.453,20.184,20.184,0,0,0-1.805,1.995c-.189.239-.374.481-.559.724-.048.062-.1.125-.142.187l-.059.075c-.119.145-.238.29-.365.428-.062.068-.126.134-.192.2l-.13.121c-.05.015-.281.153-.218.15-.169.045-.262.035.039.034l-.2.01h-.011a.253.253,0,0,1-.03,0l-.134-.08,0,0c-.049-.029-.1-.06-.146-.087.063.035.1.056.124.072a1.015,1.015,0,0,1-.149-.126c-.047-.047-.092-.112-.143-.154-.083-.139-.181-.271-.26-.413-.06-.107-.111-.218-.165-.328.079.153-.064-.165-.107-.3-.049-.155-.093-.313-.13-.472-.023-.094-.053-.277-.066-.337a12.515,12.515,0,0,1,.1-2.272,11,11,0,0,0-.386-5.462A5.82,5.82,0,0,0,88.47,6.818a8.058,8.058,0,0,0-5.384.852,13.771,13.771,0,0,0-4.108,3.778c-2.988,3.836-5.832,7.792-8.739,11.691a2.006,2.006,0,0,0,.718,2.736,2.058,2.058,0,0,0,2.736-.717q3.817-5.121,7.635-10.241c.12-.162.24-.323.362-.483l.2-.269c.283-.361.572-.717.876-1.06.266-.3.542-.592.832-.869.144-.138.294-.269.443-.4l.094-.08c.06-.043.261-.195.288-.213.324-.221.667-.393,1.007-.586-.291.165.012-.005.158-.055a6.124,6.124,0,0,1,.666-.182c.163-.035.5-.045.151-.034.172-.005.343-.025.515-.026s.317.016.474.018c.085.017.17.032.254.052.143.036.282.083.421.131.036.019.167.077.247.124.146.086.36.3.13.068.059.058.125.109.182.169.014.014.088.092.133.137.027.036.054.071.059.079.065.107.126.213.187.322.025.045.041.071.053.089a.79.79,0,0,0,.025.115c.049.179.1.356.136.537,0,.008.008.048.014.09.006.071.017.2.019.22.107,1.673-.357,3.324-.271,4.991.166,3.225,2.655,7.537,6.5,6.286a5.681,5.681,0,0,0,2.642-1.92c.205-.255.4-.516.6-.776l.169-.222c.018-.024.038-.049.055-.069.324-.4.661-.8,1.015-1.176a17.8,17.8,0,0,1,2.432-2.206c0,.04,0,.08-.009.121a9.818,9.818,0,0,0,.048,3.657c.733,2.663,3.522,4.035,6.132,3.954,2.878-.089,5.072-1.839,7.3-3.45a18.892,18.892,0,0,1,1.608-1.059q.414-.24.845-.448c.114-.055.23-.107.344-.161l.107-.047c.066-.027.133-.054.2-.079a18.054,18.054,0,0,1,3.65-.951c.122-.019.243-.037.365-.054l.146-.017c.319-.032.638-.068.958-.1.679-.057,1.36-.092,2.041-.114,1.316-.043,2.633-.036,3.95-.03a53.234,53.234,0,0,0,8.257-.431,18.743,18.743,0,0,0,7.516-2.859c1.156-.758,2.265-1.592,3.475-2.265a6.4,6.4,0,0,1,1.39-.641,7.723,7.723,0,0,1,2.155-.417,49.261,49.261,0,0,1,5.125.165,48.37,48.37,0,0,0,5.465-.075,51.721,51.721,0,0,0,10.811-1.91,2.027,2.027,0,0,0,1.4-2.46M94.166,20.274c-.136-.012-.114-.045,0,0m1.226-1.052h0m3.505,1.95c-.09.118-.053.068,0,0m3.511-4.912-.021-.024c-.093-.161-.019-.107.021.024m3.939,4.322c-.043-.085-.062-.182,0,0" fill="#23234e"/>
      <path id="Pfad_914" data-name="Pfad 914" d="M107.9,21.43a.735.735,0,0,0-.18-.038c.059.011.117.024.174.038Z" fill="#1b1a2e"/>
      <path id="Pfad_915" data-name="Pfad 915" d="M213.647,87.474c-1.266-.47-2.7-1-3.377-2.233a2.078,2.078,0,0,1-.2-1.586,8.027,8.027,0,0,1,.426-1.132c.1-.228.2-.456.285-.689a2.992,2.992,0,0,0,.039-2.327.6.6,0,0,0-.464-.342.669.669,0,0,0-.594.192,5.962,5.962,0,0,1-3.016,1.808,5.849,5.849,0,0,1-5.245-1.321.657.657,0,0,0-1.108.509.61.61,0,0,0,.2.446c.079.071.159.138.235.2a6.129,6.129,0,0,1,2.155,2.736A3.179,3.179,0,0,1,201.7,87a5.662,5.662,0,0,1-2.047.941.618.618,0,0,0-.446.408.706.706,0,0,0,.045.523.652.652,0,0,0,.794.829,9.3,9.3,0,0,1,4.2.03,3.131,3.131,0,0,1,2.116,1.99,5.572,5.572,0,0,1,.127,1.193,6.367,6.367,0,0,0,.132,1.256.633.633,0,0,0,.627.483.79.79,0,0,0,.1-.007.631.631,0,0,0,.573-.65,10.135,10.135,0,0,1,.544-3.716,1.546,1.546,0,0,1,.314-.563,1.507,1.507,0,0,1,.614-.324,13.008,13.008,0,0,1,1.862-.453,13.156,13.156,0,0,1,2.179-.175.634.634,0,0,0,.653-.517.691.691,0,0,0-.438-.771m-9.722-1.125a4.208,4.208,0,0,0,.422-2.545,4.124,4.124,0,0,0-.467-1.33c.236.052.475.093.714.122a7.2,7.2,0,0,0,4.99-1.314c-.038.111-.081.219-.122.322-.067.168-.14.335-.213.5a6.931,6.931,0,0,0-.508,1.452,4.046,4.046,0,0,0,2,4.018c.046.03.094.06.143.09a13.585,13.585,0,0,0-1.8.438,2.586,2.586,0,0,0-1.689,1.32,5.459,5.459,0,0,0-.3.786,4.243,4.243,0,0,0-.44-.524,5.752,5.752,0,0,0-4.035-1.527h-.287a4.964,4.964,0,0,0,1.6-1.81" fill="#b3b6c7"/>
      <path id="Pfad_916" data-name="Pfad 916" d="M240.223,59.277c-.074-.034-.149-.066-.223-.1a4.766,4.766,0,0,1-2.217-1.554,2.451,2.451,0,0,1,.23-2.691,4.428,4.428,0,0,1,1.314-1.156.534.534,0,0,0,.27-.452.6.6,0,0,0-.152-.4.566.566,0,0,0-.854-.477,7.58,7.58,0,0,1-3.157.926,2.412,2.412,0,0,1-2-1,4.394,4.394,0,0,1-.361-.86,4.989,4.989,0,0,0-.388-.926.573.573,0,0,0-1.034.467,7.944,7.944,0,0,1,.428,2.9,1.189,1.189,0,0,1-.1.472,1.115,1.115,0,0,1-.374.364,10.009,10.009,0,0,1-1.293.758,10.306,10.306,0,0,1-1.607.626.541.541,0,0,0-.4.59.594.594,0,0,0,.553.529h0a4.568,4.568,0,0,1,3.015.905,1.59,1.59,0,0,1,.492,1.112,6.337,6.337,0,0,1-.065.941c-.023.195-.046.39-.059.587a2.4,2.4,0,0,0,.509,1.8.511.511,0,0,0,.4.176.528.528,0,0,0,.078,0,.566.566,0,0,0,.445-.308,4.629,4.629,0,0,1,1.843-2.022,4.544,4.544,0,0,1,4.2-.186.575.575,0,0,0,.755-.242.584.584,0,0,0,.037-.457.544.544,0,0,0-.283-.325m-8.039-3.492a2.124,2.124,0,0,0,1-1.412,4.227,4.227,0,0,0,.052-.564,3.328,3.328,0,0,0,.373.238,4.563,4.563,0,0,0,3.426.242l.06-.017a3.9,3.9,0,0,0-.705,1.617,3.367,3.367,0,0,0,.262,2.045,3.267,3.267,0,0,0,.582.83c-.152.014-.3.034-.457.06a5.666,5.666,0,0,0-3.008,1.582,5.452,5.452,0,0,0-.381.422c0-.033.006-.066.008-.1.013-.141.03-.283.047-.424a5.435,5.435,0,0,0,.054-1.221,3.228,3.228,0,0,0-2.449-2.62,10.85,10.85,0,0,0,1.14-.679" fill="#b3b6c7"/>
      <path id="Pfad_917" data-name="Pfad 917" d="M251.34,69.41h0a6.339,6.339,0,0,0-1.647-.741,5.991,5.991,0,0,0-.856-.178l-.2-.022a2.019,2.019,0,0,1-.552-.107c-.319-.134-.346-.541-.347-.663a2.694,2.694,0,0,1,.493-1.286l.049-.084a.576.576,0,0,0-.128-.756.636.636,0,0,0-.822.008,3.547,3.547,0,0,0-.7.964c-.284.5-.528.926-1.024,1.051a3.688,3.688,0,0,1-2.277-.532.529.529,0,0,0-.071-.029,1.014,1.014,0,0,0-.8-.228.759.759,0,0,0-.591.516.637.637,0,0,0,.191.657.588.588,0,0,0,.579.142c.045.045.089.09.13.137a2.57,2.57,0,0,1,.352.535,2.788,2.788,0,0,1,.293,1.277,3.334,3.334,0,0,1-1.355,2.55l-.081.063a.577.577,0,0,0-.056.82.568.568,0,0,0,.806.136l.08-.063a2.109,2.109,0,0,1,2.257-.112,3.181,3.181,0,0,1,1.475,2.186.56.56,0,0,0,.559.456c.02,0,.041,0,.061,0a.63.63,0,0,0,.582-.6l.065-3.45a1.656,1.656,0,0,1,.137-.79,1.534,1.534,0,0,1,1.1-.586,8,8,0,0,1,.967-.06,7.788,7.788,0,0,0,1.149-.085.545.545,0,0,0,.448-.44.663.663,0,0,0-.276-.678m-6.724,1.027a3.974,3.974,0,0,0-.188-1.674,3.341,3.341,0,0,0,1.449.023,2.138,2.138,0,0,0,.77-.342,1.752,1.752,0,0,0,.537.782,2.083,2.083,0,0,0,1.006.408,2.667,2.667,0,0,0-.588.284,2.118,2.118,0,0,0-.968,1.5,10.184,10.184,0,0,0-.067,1.425V73.1a3.411,3.411,0,0,0-.278-.261,3.6,3.6,0,0,0-2.14-.858,4.328,4.328,0,0,0,.467-1.542m-1.964,2.947Z" fill="#b3b6c7"/>
      <g id="Gruppe_513" data-name="Gruppe 513">
        <path id="Pfad_918" data-name="Pfad 918" d="M30.465,71.67a18.216,18.216,0,0,0-1.028,5.877,1,1,0,0,0,2,0,15.489,15.489,0,0,1,.234-2.634,17.282,17.282,0,0,1,.723-2.711,1.007,1.007,0,0,0-.7-1.23,1.024,1.024,0,0,0-1.23.7" fill="#23234e"/>
        <path id="Pfad_919" data-name="Pfad 919" d="M37.7,94.713a10.614,10.614,0,0,0,6.259,3.046,1,1,0,0,0,1-1,1.031,1.031,0,0,0-1-1c.1.012.092.013,0,0l-.178-.029c-.134-.023-.266-.049-.4-.079q-.351-.077-.7-.182c-.244-.074-.486-.158-.724-.251l-.167-.068c.093.039.067.029-.009-.007-.123-.056-.246-.113-.367-.174a9.361,9.361,0,0,1-1.273-.769L40,94.092c-.064-.047-.09-.072-.012-.009-.094-.076-.187-.151-.279-.229-.2-.176-.4-.362-.592-.555A1,1,0,0,0,37.7,94.713" fill="#23234e"/>
        <path id="Pfad_920" data-name="Pfad 920" d="M43.128,63.6c-.177.075.169-.065.2-.077.089-.034.178-.067.268-.1q.313-.109.634-.2a11.009,11.009,0,0,1,1.2-.272c.094-.016.188-.031.282-.044-.208.03.118-.012.158-.017q.307-.031.616-.047a11.333,11.333,0,0,1,1.329.015,1.006,1.006,0,0,0,1-1,1.024,1.024,0,0,0-1-1,12.407,12.407,0,0,0-5.7,1.014,1,1,0,0,0-.359,1.368,1.031,1.031,0,0,0,1.368.359" fill="#23234e"/>
        <path id="Pfad_921" data-name="Pfad 921" d="M29.852,81.95a7.306,7.306,0,0,0,.73,2.524c.334.733.695,1.454,1.045,2.18a1,1,0,0,0,1.368.358,1.026,1.026,0,0,0,.359-1.368c-.328-.68-.662-1.357-.982-2.041-.032-.069-.064-.138-.1-.208-.021-.046-.041-.093-.062-.139-.044-.1-.04-.093.012.029a.937.937,0,0,1-.084-.212c-.036-.1-.07-.19-.1-.286a4.94,4.94,0,0,1-.14-.507c-.016-.074-.029-.148-.043-.222-.017-.113-.015-.1.006.043-.006-.051-.01-.1-.013-.151a1,1,0,0,0-2,0" fill="#23234e"/>
        <path id="Pfad_922" data-name="Pfad 922" d="M33.463,90.247a5.373,5.373,0,0,0,2.143,2.116,1.049,1.049,0,0,0,.77.1,1,1,0,0,0,.239-1.828,4.434,4.434,0,0,1-.623-.4l.2.156a4.486,4.486,0,0,1-.786-.784l.156.2a4.493,4.493,0,0,1-.375-.571,1,1,0,0,0-1.368-.359,1,1,0,0,0-.46.6,1.067,1.067,0,0,0,.1.771" fill="#23234e"/>
        <path id="Pfad_923" data-name="Pfad 923" d="M34.644,68.663a13.089,13.089,0,0,1,.99-1.023c.175-.161.355-.315.538-.466.051-.042.1-.083.154-.125.115-.1-.188.14.017-.013.1-.071.19-.141.287-.21a11.889,11.889,0,0,1,1.2-.759q.311-.174.633-.328c.107-.051.214-.1.323-.149a1.324,1.324,0,0,1,.145-.063c-.23.073.016-.006.054-.02a1.026,1.026,0,0,0,.7-1.23,1.009,1.009,0,0,0-1.23-.7A13.557,13.557,0,0,0,33.23,67.25a1,1,0,0,0,1.414,1.413" fill="#23234e"/>
        <path id="Pfad_924" data-name="Pfad 924" d="M52.285,63.351a5.93,5.93,0,0,1,.645.154c.106.031.211.065.315.1l.124.045c.066.026.232.126.007,0,.378.215.766.382,1.124.635a1.25,1.25,0,0,0,.134.1c-.047-.025-.147-.117-.046-.034.086.07.171.14.253.215a5.9,5.9,0,0,1,.468.468,2.49,2.49,0,0,0,.214.255c-.025-.034-.05-.067-.075-.1.052.066.1.134.156.2a1.534,1.534,0,0,0,.133.147,1.3,1.3,0,0,0,1.3.34,1.093,1.093,0,0,0,.6-.459,1.029,1.029,0,0,0,.1-.771,1.01,1.01,0,0,0-1.231-.7c.184.032.367.061.55.092.1.092.13.111.074.059a.522.522,0,0,1-.046-.048c-.049-.056-.032-.032.053.075a1.7,1.7,0,0,0-.3-.383c-.129-.152-.264-.3-.407-.436a7.506,7.506,0,0,0-1.135-.9,6.907,6.907,0,0,0-2.473-.989,1,1,0,0,0-.532,1.928" fill="#23234e"/>
        <path id="Pfad_925" data-name="Pfad 925" d="M59.35,68a14.23,14.23,0,0,1,1.127,1.288l-.157-.2a13.958,13.958,0,0,1,1.2,1.851,1.01,1.01,0,0,0,1.368.359,1.021,1.021,0,0,0,.359-1.368,14.837,14.837,0,0,0-2.485-3.342A1,1,0,0,0,59.35,68" fill="#23234e"/>
        <path id="Pfad_926" data-name="Pfad 926" d="M62.534,74.526c.045.194.086.389.121.585.019.105.035.211.053.317.037.22-.013-.144.014.1.042.381.071.763.079,1.146a11.277,11.277,0,0,1-.034,1.148q-.021.274-.056.548c.028-.215-.009.053-.016.1-.02.121-.042.242-.064.362a1,1,0,0,0,1.928.532,13.025,13.025,0,0,0-.1-5.366,1.009,1.009,0,0,0-1.231-.7,1.022,1.022,0,0,0-.7,1.23" fill="#23234e"/>
        <path id="Pfad_927" data-name="Pfad 927" d="M61.8,83.39a5.553,5.553,0,0,1-.591,2.831c-.217.484-.453.96-.684,1.438-.115.237-.234.472-.341.712a3.267,3.267,0,0,0-.2.541q-.034.183-.054.369c-.017.158-.006.139.035-.057a1,1,0,1,0,1.928.532,1.087,1.087,0,0,0,.036-.267c0-.124,0-.139-.017-.045a1.444,1.444,0,0,1,.063-.2c-.029.074-.019.056.03-.055.122-.239.234-.484.351-.725.247-.511.5-1.021.72-1.542A7.16,7.16,0,0,0,63.8,83.39a1.024,1.024,0,0,0-1-1,1.01,1.01,0,0,0-1,1" fill="#23234e"/>
        <path id="Pfad_928" data-name="Pfad 928" d="M45.085,75.619q1.305,4.464,2.609,8.927a1.5,1.5,0,1,0,2.893-.8q-1.305-4.464-2.609-8.928a1.5,1.5,0,0,0-2.893.8" fill="#23234e"/>
        <path id="Pfad_929" data-name="Pfad 929" d="M42.693,83.441a39.4,39.4,0,0,1,10.537-4.16,1.5,1.5,0,1,0-.8-2.893,42.307,42.307,0,0,0-11.254,4.463,1.5,1.5,0,1,0,1.514,2.59" fill="#23234e"/>
        <path id="Pfad_930" data-name="Pfad 930" d="M49.753,97.172A13.254,13.254,0,0,0,54.28,95.9a13.322,13.322,0,0,0,3.83-2.2A1,1,0,0,0,56.7,92.291a11.759,11.759,0,0,1-3.3,1.828,10.749,10.749,0,0,1-3.644,1.053,1.024,1.024,0,0,0-1,1,1.008,1.008,0,0,0,1,1" fill="#23234e"/>
        <path id="Pfad_931" data-name="Pfad 931" d="M62.876,55.57a35.8,35.8,0,0,0,.569-4.556.737.737,0,1,0-1.465-.161,36.129,36.129,0,0,1-.569,4.555.74.74,0,0,0,.652.814.756.756,0,0,0,.813-.652" fill="#23234e"/>
        <path id="Pfad_932" data-name="Pfad 932" d="M66.889,58.455l2.679-3.336A.742.742,0,0,0,69.4,54.09a.752.752,0,0,0-1.029.165l-2.68,3.336a.743.743,0,0,0,.166,1.029.753.753,0,0,0,1.029-.165" fill="#23234e"/>
        <path id="Pfad_933" data-name="Pfad 933" d="M69.458,62.115a14.944,14.944,0,0,1,2.223-.238l.126,0c.111,0-.111,0,0,0h.284q.283,0,.567.015c.378.017.755.05,1.13.1a.737.737,0,1,0,.162-1.465,15.775,15.775,0,0,0-4.707.139.737.737,0,1,0,.215,1.458" fill="#23234e"/>
      </g>
    </g>
  </g>
</svg>
