<svg xmlns="http://www.w3.org/2000/svg" xmlns:xlink="http://www.w3.org/1999/xlink" width="29.824" height="31.28" viewBox="0 0 29.824 31.28">
  <defs>
    <clipPath id="clip-path">
      <path id="Bildschirmfoto_2022-03-26_um_10.41.44" data-name="Bildschirmfoto 2022-03-26 um 10.41.44" d="M14.912,0A14.912,14.912,0,1,1,0,14.912,14.912,14.912,0,0,1,14.912,0Z" transform="translate(-22 0.562)" fill="#eb7a3d"/>
    </clipPath>
    <clipPath id="clip-path-2">
      <rect id="Rechteck_315" data-name="Rechteck 315" width="32.078" height="32.736" fill="none" stroke="#fcfcfb" stroke-width="1"/>
    </clipPath>
  </defs>
  <g id="abteilung_pic" transform="translate(22 -0.562)" style="isolation: isolate">
    <path id="Bildschirmfoto_2022-03-26_um_10.41.44-2" data-name="Bildschirmfoto 2022-03-26 um 10.41.44" d="M14.912,0A14.912,14.912,0,1,1,0,14.912,14.912,14.912,0,0,1,14.912,0Z" transform="translate(-22 2.018)" fill="#eb7a3d"/>
    <g id="Gruppe_maskieren_385" data-name="Gruppe maskieren 385" clip-path="url(#clip-path)">
      <g id="Gruppe_424" data-name="Gruppe 424" transform="translate(-23.127 0.562)">
        <g id="Gruppe_423" data-name="Gruppe 423" transform="translate(0 0)" clip-path="url(#clip-path-2)">
          <path id="Pfad_707" data-name="Pfad 707" d="M23.736,23.016c-.539-.626-2.142-1.079-4.045-1.079-2.341,0-4.237.684-4.237,1.533l.519-5.123L17.726,1h3.786l1.753,17.346Z" transform="translate(-3.652 -0.195)" fill="none" stroke="#fcfcfb" stroke-linecap="round" stroke-linejoin="round" stroke-width="1"/>
          <path id="Pfad_708" data-name="Pfad 708" d="M36.841,13.713a39.415,39.415,0,0,0-3.684,4.633H25.14L23.387,1h2.954S26.949,13.591,36.841,13.713Z" transform="translate(-5.527 -0.195)" fill="none" stroke="#fcfcfb" stroke-linecap="round" stroke-linejoin="round" stroke-width="1"/>
          <path id="Pfad_709" data-name="Pfad 709" d="M14.31,1,12.557,18.346H4.677A39.04,39.04,0,0,0,1,13.713C10.892,13.591,11.492,1,11.492,1Z" transform="translate(-0.236 -0.195)" fill="none" stroke="#fcfcfb" stroke-linecap="round" stroke-linejoin="round" stroke-width="1"/>
          <path id="Pfad_710" data-name="Pfad 710" d="M31.55,27.661v3.274a25.187,25.187,0,0,1-15.275,5.382A24.477,24.477,0,0,1,1,30.935V27.661c2.572-1.533,5.874,0,5.874,0a11.888,11.888,0,0,0-2.2-5.123h7.88l-.519,5.123c0,.842,1.9,1.525,4.237,1.525s4.237-.684,4.237-1.525a.7.7,0,0,0-.191-.453l-.471-4.67h8.016a11.732,11.732,0,0,0-2.2,5.123S28.978,26.128,31.55,27.661Z" transform="translate(-0.236 -4.386)" fill="none" stroke="#fcfcfb" stroke-linecap="round" stroke-linejoin="round" stroke-width="1"/>
          <path id="Pfad_711" data-name="Pfad 711" d="M6.873,26.541s-3.3-1.533-5.874,0V16.785a38.951,38.951,0,0,1,3.677,4.633A11.879,11.879,0,0,1,6.873,26.541Z" transform="translate(-0.236 -3.266)" fill="none" stroke="#fcfcfb" stroke-linecap="round" stroke-linejoin="round" stroke-width="1"/>
          <path id="Pfad_712" data-name="Pfad 712" d="M11.493,1S10.892,13.591,1,13.713V1Z" transform="translate(-0.236 -0.195)" fill="none" stroke="#fcfcfb" stroke-linecap="round" stroke-linejoin="round" stroke-width="1"/>
          <path id="Pfad_713" data-name="Pfad 713" d="M39.184,16.785v9.756c-2.572-1.533-5.881,0-5.881,0a11.728,11.728,0,0,1,2.2-5.123A39.415,39.415,0,0,1,39.184,16.785Z" transform="translate(-7.87 -3.266)" fill="none" stroke="#fcfcfb" stroke-linecap="round" stroke-linejoin="round" stroke-width="1"/>
          <path id="Pfad_714" data-name="Pfad 714" d="M37.755,1V13.713C27.863,13.591,27.255,1,27.255,1Z" transform="translate(-6.441 -0.195)" fill="none" stroke="#fcfcfb" stroke-linecap="round" stroke-linejoin="round" stroke-width="1"/>
          <path id="Pfad_715" data-name="Pfad 715" d="M23.927,28.529c0,.842-1.9,1.525-4.237,1.525s-4.236-.684-4.236-1.525S17.35,27,19.69,27c1.9,0,3.507.453,4.046,1.079A.7.7,0,0,1,23.927,28.529Z" transform="translate(-3.652 -5.254)" fill="none" stroke="#fcfcfb" stroke-linecap="round" stroke-linejoin="round" stroke-width="1"/>
          <line id="Linie_161" data-name="Linie 161" x1="0.048" y1="0.453" transform="translate(20.084 22.822)" fill="none" stroke="#fcfcfb" stroke-linecap="round" stroke-linejoin="round" stroke-width="1"/>
        </g>
      </g>
    </g>
  </g>
</svg>
