<svg xmlns="http://www.w3.org/2000/svg" xmlns:xlink="http://www.w3.org/1999/xlink" width="29.824" height="29.824" viewBox="0 0 29.824 29.824">
  <defs>
    <clipPath id="clip-path">
      <path id="Bildschirmfoto_2022-03-26_um_10.41.44" data-name="Bildschirmfoto 2022-03-26 um 10.41.44" d="M14.912,0A14.912,14.912,0,1,1,0,14.912,14.912,14.912,0,0,1,14.912,0Z" transform="translate(-22 2.018)" fill="#641a54"/>
    </clipPath>
    <clipPath id="clip-path-2">
      <rect id="Rechteck_342" data-name="Rechteck 342" width="34.321" height="19.867" fill="none" stroke="#fcfcfb" stroke-width="1"/>
    </clipPath>
  </defs>
  <g id="abteilung_pic" transform="translate(22 -2.018)" style="isolation: isolate">
    <path id="Bildschirmfoto_2022-03-26_um_10.41.44-2" data-name="Bildschirmfoto 2022-03-26 um 10.41.44" d="M14.912,0A14.912,14.912,0,1,1,0,14.912,14.912,14.912,0,0,1,14.912,0Z" transform="translate(-22 2.018)" fill="#641a54"/>
    <g id="Gruppe_maskieren_401" data-name="Gruppe maskieren 401" clip-path="url(#clip-path)">
      <g id="Gruppe_477" data-name="Gruppe 477" transform="matrix(0.985, -0.174, 0.174, 0.985, -18.624, 9.197)">
        <line id="Linie_183" data-name="Linie 183" x1="11.122" y2="3.619" transform="translate(4.568 3.689)" fill="none" stroke="#fcfcfb" stroke-linecap="round" stroke-linejoin="round" stroke-width="1"/>
        <g id="Gruppe_476" data-name="Gruppe 476" transform="translate(0 0)">
          <g id="Gruppe_475" data-name="Gruppe 475" clip-path="url(#clip-path-2)">
            <path id="Pfad_806" data-name="Pfad 806" d="M33.962,6.366,30.079,7.629h-.006L25.966,8.966,24.024,9.6l-6.543,2.13L10.938,9.6,8.959,8.954,4.888,7.629,1,6.366,17.481,1Z" transform="translate(-0.32 -0.32)" fill="none" stroke="#fcfcfb" stroke-linecap="round" stroke-linejoin="round" stroke-width="1"/>
            <path id="Pfad_807" data-name="Pfad 807" d="M30.089,21.819c.055.769-.36,1.434-.885,1.434H12.827c-.525,0-.934-.653-.891-1.416L12.46,12.7l1.978.647,6.543,2.131,6.544-2.131,1.941-.635Z" transform="translate(-3.821 -4.066)" fill="none" stroke="#fcfcfb" stroke-linecap="round" stroke-linejoin="round" stroke-width="1"/>
            <path id="Pfad_808" data-name="Pfad 808" d="M7.462,21.135H3.775L5.751,17.99Z" transform="translate(-1.209 -5.76)" fill="none" stroke="#fcfcfb" stroke-linecap="round" stroke-linejoin="round" stroke-width="1"/>
            <path id="Pfad_809" data-name="Pfad 809" d="M17.83,5.427,6.708,9.046v5.128l-.024.043" transform="translate(-2.14 -1.737)" fill="none" stroke="#fcfcfb" stroke-linecap="round" stroke-linejoin="round" stroke-width="1"/>
          </g>
        </g>
      </g>
    </g>
  </g>
</svg>
