<svg xmlns="http://www.w3.org/2000/svg" xmlns:xlink="http://www.w3.org/1999/xlink" width="29.824" height="29.824" viewBox="0 0 29.824 29.824">
  <defs>
    <clipPath id="clip-path">
      <path id="Bildschirmfoto_2022-03-26_um_10.41.44" data-name="Bildschirmfoto 2022-03-26 um 10.41.44" d="M14.912,0A14.912,14.912,0,1,1,0,14.912,14.912,14.912,0,0,1,14.912,0Z" transform="translate(-22 2.018)" fill="#168fc3"/>
    </clipPath>
    <clipPath id="clip-path-2">
      <rect id="Rechteck_333" data-name="Rechteck 333" width="29.432" height="24.475" fill="none" stroke="#fcfcfb" stroke-width="1"/>
    </clipPath>
  </defs>
  <g id="abteilung_pic" transform="translate(22 -2.018)" style="isolation: isolate">
    <path id="Bildschirmfoto_2022-03-26_um_10.41.44-2" data-name="Bildschirmfoto 2022-03-26 um 10.41.44" d="M14.912,0A14.912,14.912,0,1,1,0,14.912,14.912,14.912,0,0,1,14.912,0Z" transform="translate(-22 2.018)" fill="#168fc3"/>
    <g id="Gruppe_maskieren_392" data-name="Gruppe maskieren 392" clip-path="url(#clip-path)">
      <g id="Gruppe_457" data-name="Gruppe 457" transform="translate(-16.104 5.644) rotate(16)">
        <g id="Gruppe_456" data-name="Gruppe 456" transform="translate(0 0)" clip-path="url(#clip-path-2)">
          <path id="Pfad_767" data-name="Pfad 767" d="M29.168,9.757V25.068A1.73,1.73,0,0,1,27.441,26.8H2.727A1.73,1.73,0,0,1,1,25.068V9.757A1.73,1.73,0,0,1,2.727,8.03H27.441A1.73,1.73,0,0,1,29.168,9.757Z" transform="translate(-0.368 -2.957)" fill="none" stroke="#fcfcfb" stroke-linejoin="round" stroke-width="1"/>
          <rect id="Rechteck_332" data-name="Rechteck 332" width="5.325" height="2.724" transform="translate(12.053 13.828)" fill="none" stroke="#fcfcfb" stroke-linejoin="round" stroke-width="1"/>
          <line id="Linie_180" data-name="Linie 180" x1="28.171" transform="translate(0.63 13.828)" fill="none" stroke="#fcfcfb" stroke-linejoin="round" stroke-width="1"/>
          <path id="Pfad_768" data-name="Pfad 768" d="M26.3,2.092V5.442H24V3.9a.58.58,0,0,0-.553-.608H14.73a.58.58,0,0,0-.553.608V5.442h-2.3V2.092A1.046,1.046,0,0,1,12.866,1H25.309A1.046,1.046,0,0,1,26.3,2.092Z" transform="translate(-4.371 -0.368)" fill="none" stroke="#fcfcfb" stroke-linejoin="round" stroke-width="1"/>
        </g>
      </g>
    </g>
  </g>
</svg>
