<svg xmlns="http://www.w3.org/2000/svg" xmlns:xlink="http://www.w3.org/1999/xlink" width="29.824" height="29.824" viewBox="0 0 29.824 29.824">
  <defs>
    <clipPath id="clip-path">
      <path id="Bildschirmfoto_2022-03-26_um_10.41.44" data-name="Bildschirmfoto 2022-03-26 um 10.41.44" d="M14.912,0A14.912,14.912,0,1,1,0,14.912,14.912,14.912,0,0,1,14.912,0Z" transform="translate(-22 2.018)" fill="#21485c"/>
    </clipPath>
    <clipPath id="clip-path-2">
      <rect id="Rechteck_326" data-name="Rechteck 326" width="16.142" height="33.452" fill="none" stroke="#fcfcfb" stroke-width="1"/>
    </clipPath>
  </defs>
  <g id="abteilung_pic" transform="translate(22 -2.018)" style="isolation: isolate">
    <path id="Bildschirmfoto_2022-03-26_um_10.41.44-2" data-name="Bildschirmfoto 2022-03-26 um 10.41.44" d="M14.912,0A14.912,14.912,0,1,1,0,14.912,14.912,14.912,0,0,1,14.912,0Z" transform="translate(-22 2.018)" fill="#21485c"/>
    <g id="Gruppe_maskieren_405" data-name="Gruppe maskieren 405" clip-path="url(#clip-path)">
      <g id="Gruppe_442" data-name="Gruppe 442" transform="translate(-15.159 8.747)" clip-path="url(#clip-path-2)">
        <path id="Pfad_742" data-name="Pfad 742" d="M4.427,9.02S.08,19.208,1.177,34.711l12.985-.14a43.332,43.332,0,0,0-1.137-16.083A7.7,7.7,0,0,1,9.259,9.02Z" transform="translate(-0.225 -2.033)" fill="none" stroke="#fcfcfb" stroke-linecap="round" stroke-linejoin="round" stroke-width="1"/>
        <path id="Pfad_743" data-name="Pfad 743" d="M4.85,7.212,2.874,4.558,3.927,1l12.087.61V4.485s-4.829-.516-6.333,2.727Z" transform="translate(-0.648 -0.225)" fill="none" stroke="#fcfcfb" stroke-linecap="round" stroke-linejoin="round" stroke-width="1"/>
        <path id="Pfad_744" data-name="Pfad 744" d="M13.586,6.8s-1.068,3.1,3.1,5.654" transform="translate(-3.035 -1.532)" fill="none" stroke="#fcfcfb" stroke-linecap="round" stroke-linejoin="round" stroke-width="1"/>
      </g>
    </g>
  </g>
</svg>
