<svg xmlns="http://www.w3.org/2000/svg" xmlns:xlink="http://www.w3.org/1999/xlink" width="29.824" height="29.824" viewBox="0 0 29.824 29.824">
  <defs>
    <clipPath id="clip-path">
      <path id="Bildschirmfoto_2022-03-26_um_10.41.44" data-name="Bildschirmfoto 2022-03-26 um 10.41.44" d="M14.912,0A14.912,14.912,0,1,1,0,14.912,14.912,14.912,0,0,1,14.912,0Z" transform="translate(-22 2.018)" fill="#da3f87"/>
    </clipPath>
    <clipPath id="clip-path-2">
      <rect id="Rechteck_322" data-name="Rechteck 322" width="22.824" height="20.814" fill="none" stroke="#fcfcfb" stroke-width="1"/>
    </clipPath>
  </defs>
  <g id="abteilung_pic" transform="translate(22 -2.018)" style="isolation: isolate">
    <path id="Bildschirmfoto_2022-03-26_um_10.41.44-2" data-name="Bildschirmfoto 2022-03-26 um 10.41.44" d="M14.912,0A14.912,14.912,0,1,1,0,14.912,14.912,14.912,0,0,1,14.912,0Z" transform="translate(-22 2.018)" fill="#da3f87"/>
    <g id="Gruppe_maskieren_388" data-name="Gruppe maskieren 388" clip-path="url(#clip-path)">
      <g id="Gruppe_434" data-name="Gruppe 434" transform="translate(-14 6.536)">
        <g id="Gruppe_433" data-name="Gruppe 433" transform="translate(0 0)" clip-path="url(#clip-path-2)">
          <path id="Pfad_724" data-name="Pfad 724" d="M8.771,9.584c-.459.041-.862.066-1.163.066C5.934,9.65,1,8.89,1,8.89v9.389a6.5,6.5,0,0,0,6.608,6.378,6.66,6.66,0,0,0,5.4-2.7,6.157,6.157,0,0,0,1.209-3.674V8.89S10.889,9.4,8.771,9.584Zm.036,5.409a1.332,1.332,0,0,1,1.327-1.332h.413a1.328,1.328,0,0,1,1.322,1.245.5.5,0,0,1,.005.087v.179a.067.067,0,0,1-.066.061H8.873a.067.067,0,0,1-.066-.061Zm-5.434,0A1.332,1.332,0,0,1,4.7,13.661h.413a1.332,1.332,0,0,1,1.327,1.332v.179a.067.067,0,0,1-.066.061H3.439a.067.067,0,0,1-.066-.061Zm7.021,5.965a4.575,4.575,0,0,1-7.317-3.021A6.353,6.353,0,0,0,7.608,19.7a7.167,7.167,0,0,0,1.25-.107,6.067,6.067,0,0,0,3.281-1.653A4.57,4.57,0,0,1,10.394,20.958Z" transform="translate(-0.49 -4.354)" fill="none" stroke="#fcfcfb" stroke-linecap="round" stroke-linejoin="round" stroke-width="1"/>
          <path id="Pfad_725" data-name="Pfad 725" d="M5.65,19.75v-.179A1.332,1.332,0,0,1,6.977,18.24H7.39a1.332,1.332,0,0,1,1.327,1.332v.179a.067.067,0,0,1-.066.061H5.716A.067.067,0,0,1,5.65,19.75Z" transform="translate(-2.767 -8.933)" fill="none" stroke="#fcfcfb" stroke-linecap="round" stroke-linejoin="round" stroke-width="1"/>
          <path id="Pfad_726" data-name="Pfad 726" d="M8.717,19.572v.179a.067.067,0,0,1-.066.061H5.716a.067.067,0,0,1-.066-.061v-.179A1.332,1.332,0,0,1,6.977,18.24H7.39A1.332,1.332,0,0,1,8.717,19.572Z" transform="translate(-2.767 -8.933)" fill="none" stroke="#fcfcfb" stroke-linecap="round" stroke-linejoin="round" stroke-width="1"/>
          <path id="Pfad_727" data-name="Pfad 727" d="M14.132,26.62a4.572,4.572,0,0,1-9.062,0A6.353,6.353,0,0,0,9.6,28.38a7.167,7.167,0,0,0,1.25-.107A6.067,6.067,0,0,0,14.132,26.62Z" transform="translate(-2.483 -13.037)" fill="none" stroke="#fcfcfb" stroke-linecap="round" stroke-linejoin="round" stroke-width="1"/>
          <path id="Pfad_728" data-name="Pfad 728" d="M19.367,19.572v.179a.067.067,0,0,1-.066.061H16.366a.067.067,0,0,1-.066-.061v-.179a1.332,1.332,0,0,1,1.327-1.332h.413a1.328,1.328,0,0,1,1.322,1.245A.5.5,0,0,1,19.367,19.572Z" transform="translate(-7.983 -8.933)" fill="none" stroke="#fcfcfb" stroke-linecap="round" stroke-linejoin="round" stroke-width="1"/>
          <path id="Pfad_729" data-name="Pfad 729" d="M30.262,4.444l-2.449,9.067a6.458,6.458,0,0,1-7.348,4.577,6.157,6.157,0,0,0,1.209-3.674V5.026s-3.327.51-5.445.694L17.5,1s4.567,2.021,6.184,2.459S30.262,4.444,30.262,4.444Z" transform="translate(-7.948 -0.49)" fill="none" stroke="#fcfcfb" stroke-linecap="round" stroke-linejoin="round" stroke-width="1"/>
          <path id="Pfad_730" data-name="Pfad 730" d="M30.453,14.613l2.837.766a.062.062,0,0,1,.044.077l-.046.172a1.328,1.328,0,0,1-1.628.936l-.395-.107a1.328,1.328,0,0,1-.936-1.628l.046-.172A.063.063,0,0,1,30.453,14.613Z" transform="translate(-14.83 -7.155)" fill="none" stroke="#fcfcfb" stroke-linecap="round" stroke-linejoin="round" stroke-width="1"/>
          <path id="Pfad_731" data-name="Pfad 731" d="M29.85,25.109a5.477,5.477,0,0,0-2.95-2.378V20.69A4.037,4.037,0,0,1,29.85,25.109Z" transform="translate(-13.174 -10.133)" fill="none" stroke="#fcfcfb" stroke-linecap="round" stroke-linejoin="round" stroke-width="1"/>
        </g>
      </g>
    </g>
  </g>
</svg>
