<svg xmlns="http://www.w3.org/2000/svg" xmlns:xlink="http://www.w3.org/1999/xlink" width="29.824" height="29.824" viewBox="0 0 29.824 29.824">
  <defs>
    <clipPath id="clip-path">
      <path id="Bildschirmfoto_2022-03-26_um_10.41.44" data-name="Bildschirmfoto 2022-03-26 um 10.41.44" d="M14.912,0A14.912,14.912,0,1,1,0,14.912,14.912,14.912,0,0,1,14.912,0Z" transform="translate(-22 2.018)" fill="#f1b640"/>
    </clipPath>
    <clipPath id="clip-path-2">
      <rect id="Rechteck_345" data-name="Rechteck 345" width="27.971" height="27.669" fill="none" stroke="#fcfcfb" stroke-width="1"/>
    </clipPath>
  </defs>
  <g id="joker" transform="translate(22 -2.018)" style="isolation: isolate">
    <path id="Bildschirmfoto_2022-03-26_um_10.41.44-2" data-name="Bildschirmfoto 2022-03-26 um 10.41.44" d="M14.912,0A14.912,14.912,0,1,1,0,14.912,14.912,14.912,0,0,1,14.912,0Z" transform="translate(-22 2.018)" fill="#f1b640"/>
    <g id="Gruppe_maskieren_391" data-name="Gruppe maskieren 391" clip-path="url(#clip-path)">
      <g id="Gruppe_480" data-name="Gruppe 480" transform="translate(-16.7 5.488)" clip-path="url(#clip-path-2)">
        <path id="Pfad_811" data-name="Pfad 811" d="M17.659,14.242a5.8,5.8,0,0,0-5.382-3.563,6.806,6.806,0,0,0-.75.039l.965,1.409c-.513,1.315-2.26,1.014-2.26,1.014L9.7,11.4a22.934,22.934,0,0,0-1.927,1.4c-.263.207-.544.439-.838.692-.448.383-.931.817-1.449,1.306a5.048,5.048,0,0,1-1.638.975c-.171.064-.347.129-.531.189,0,0-.009,0-.013,0A3.858,3.858,0,0,0,1,19.485a3.9,3.9,0,0,0,3.507,3.847,1.757,1.757,0,0,0,.22.021H4.74a7.118,7.118,0,0,0,1.3-.154A6.575,6.575,0,0,0,9.556,21.35a5.686,5.686,0,0,0,1.615.563l-.707,8.978c10.246,3.283,13.758-2.82,13.758-2.82Z" transform="translate(-0.445 -4.747)" fill="none" stroke="#fcfcfb" stroke-linecap="round" stroke-linejoin="round" stroke-width="1"/>
        <path id="Pfad_812" data-name="Pfad 812" d="M19.311,29.844a5.9,5.9,0,0,0,4.947-1.324" transform="translate(-8.584 -12.678)" fill="none" stroke="#fcfcfb" stroke-linecap="round" stroke-linejoin="round" stroke-width="1"/>
        <path id="Pfad_813" data-name="Pfad 813" d="M17.948,7.824c-.514,1.315-2.261,1.014-2.261,1.014L15.152,7.1l-.729-2.364L13.273,1l2.151,3.141,1.558,2.274Z" transform="translate(-5.9 -0.445)" fill="none" stroke="#fcfcfb" stroke-linecap="round" stroke-linejoin="round" stroke-width="1"/>
        <line id="Linie_186" data-name="Linie 186" y1="0.004" transform="translate(10.726 17.161)" fill="none" stroke="#fcfcfb" stroke-linecap="round" stroke-linejoin="round" stroke-width="1"/>
        <path id="Pfad_814" data-name="Pfad 814" d="M16.555,18.541a.966.966,0,1,1-.966-.945.957.957,0,0,1,.966.945" transform="translate(-6.501 -7.822)" fill="#fcfcfb"/>
        <path id="Pfad_815" data-name="Pfad 815" d="M9.164,28.208a2.379,2.379,0,0,1-1.853,2.916" transform="translate(-3.25 -12.54)" fill="none" stroke="#fcfcfb" stroke-linecap="round" stroke-linejoin="round" stroke-width="1"/>
        <path id="Pfad_816" data-name="Pfad 816" d="M31.4,25.621,24.836,11.792a5.794,5.794,0,0,0-5.381-3.563,6.95,6.95,0,0,0-.75.038L17.146,5.994s3.134-1.784,4.8-.112,3.116,1.032,4.495,1.741.145,4.1,1.668,5.067,2.752,2.1,2.607,4.018.364,3.008,2.392,4.237S36.79,25.1,31.4,25.621Z" transform="translate(-7.622 -2.297)" fill="none" stroke="#fcfcfb" stroke-linecap="round" stroke-linejoin="round" stroke-width="1"/>
        <path id="Pfad_817" data-name="Pfad 817" d="M13.841,10.088a22.842,22.842,0,0,0-1.927,1.4c-4.175-2.634,1.2-3.76,1.2-3.76Z" transform="translate(-4.59 -3.434)" fill="none" stroke="#fcfcfb" stroke-linecap="round" stroke-linejoin="round" stroke-width="1"/>
      </g>
    </g>
  </g>
</svg>
