<svg xmlns="http://www.w3.org/2000/svg" width="36" height="36" viewBox="0 0 36 36">
  <g id="Gruppe_891" data-name="Gruppe 891" transform="translate(0 -0.237)">
    <rect id="Rechteck_404" data-name="Rechteck 404" width="36" height="36" rx="8" transform="translate(0 0.237)" fill="#a7a6b1" opacity="0"/>
    <path id="Icon_material-euro-symbol" data-name="Icon material-euro-symbol" d="M16.038,19.4A6.23,6.23,0,0,1,10.5,16.038h5.538V14.115H9.865a6.048,6.048,0,0,1,0-1.923h6.173V10.269H10.5A6.237,6.237,0,0,1,20.1,8.413l1.7-1.7A8.641,8.641,0,0,0,7.884,10.269H4.5v1.923H7.442a8.041,8.041,0,0,0,0,1.923H4.5v1.923H7.884A8.641,8.641,0,0,0,21.807,19.6l-1.711-1.7a6.159,6.159,0,0,1-4.057,1.51Z" transform="translate(3.992 6.196)" fill="#a7a6b1" stroke="#27233c" stroke-width="0.8"/>
  </g>
</svg>
