<svg id="Gruppe_1830" data-name="Gruppe 1830" xmlns="http://www.w3.org/2000/svg" xmlns:xlink="http://www.w3.org/1999/xlink" width="36" height="36" viewBox="0 0 36 36">
  <defs>
    <style>
      .cls-1, .cls-2 {
        fill: #a7a6b1;
      }

      .cls-1 {
        stroke: #fcfcfb;
        stroke-width: 0.3px;
      }

      .cls-2 {
        opacity: 0;
      }

      .cls-3 {
        clip-path: url(#clip-path);
      }
    </style>
    <clipPath id="clip-path">
      <rect id="Rechteck_355" data-name="Rechteck 355" class="cls-1" width="14.187" height="26.919"/>
    </clipPath>
  </defs>
  <rect id="Rechteck_402" data-name="Rechteck 402" class="cls-2" width="36" height="36" rx="8"/>
  <g id="Gruppe_507" data-name="Gruppe 507" transform="translate(10.888 4.561)">
    <g id="Gruppe_500" data-name="Gruppe 500" class="cls-3" transform="translate(0 0)">
      <path id="Pfad_904" data-name="Pfad 904" class="cls-1" d="M14.155,25.995l-2.527-8.089a9.78,9.78,0,0,0,1.03-.636.712.712,0,1,0-.825-1.161c-.189.134-.395.264-.64.405L9.15,9.977a4.568,4.568,0,0,0,1.211-7.321A4.517,4.517,0,0,0,7.843,1.374V.714A.713.713,0,0,0,7.132,0,.714.714,0,0,0,6.42.711l0,.661A4.567,4.567,0,0,0,3.887,9.11a4.529,4.529,0,0,0,1.2.86L3.024,16.5c-.245-.141-.45-.272-.639-.407a.712.712,0,1,0-.828,1.157,9.391,9.391,0,0,0,1.028.637L.033,25.974a.712.712,0,0,0,1.007.846.7.7,0,0,0,.35-.417l2.5-7.93a9.559,9.559,0,0,0,6.422.016L12.8,26.42a.715.715,0,0,0,.68.5.7.7,0,0,0,.211-.033c.025-.007.047-.016.069-.025a.709.709,0,0,0,.4-.867M5.521,8.592a3.148,3.148,0,0,1,.37-5.6,3.124,3.124,0,0,1,1.231-.251h.007a3.146,3.146,0,0,1,3.141,3.15h0A3.144,3.144,0,0,1,8.718,8.594L7.128,3.507Zm1.359.426.24-.759.238.76a2.668,2.668,0,0,1-.478,0M6.445,10.4a4.218,4.218,0,0,0,1.345,0l2.1,6.723a8.1,8.1,0,0,1-2.773.488H7.107a8.1,8.1,0,0,1-2.782-.5Z" transform="translate(0 0)"/>
    </g>
  </g>
</svg>
