<svg xmlns="http://www.w3.org/2000/svg" xmlns:xlink="http://www.w3.org/1999/xlink" width="17.368" height="32.954" viewBox="0 0 17.368 32.954">
  <defs>
    <clipPath id="clip-path">
      <rect id="Rechteck_355" data-name="Rechteck 355" width="36" height="36" transform="translate(0 0)" fill="#717079"/>
    </clipPath>
  </defs>
  <g id="Gruppe_509" data-name="Gruppe 509" transform="translate(0 0)">
    <g id="Gruppe_500" data-name="Gruppe 500" clip-path="url(#clip-path)">
      <path id="Pfad_904" data-name="Pfad 904" d="M17.328,31.823l-3.094-9.9a11.972,11.972,0,0,0,1.261-.778.872.872,0,1,0-1.01-1.421c-.231.164-.483.323-.783.5l-2.5-8a5.592,5.592,0,0,0,1.483-8.962A5.529,5.529,0,0,0,9.6,1.682V.874A.872.872,0,0,0,8.731,0a.874.874,0,0,0-.872.871l0,.809a5.591,5.591,0,0,0-3.1,9.473,5.544,5.544,0,0,0,1.468,1.053L3.7,20.2c-.3-.173-.551-.333-.782-.5a.871.871,0,1,0-1.014,1.417,11.5,11.5,0,0,0,1.259.78L.041,31.8a.871.871,0,0,0,1.233,1.036.86.86,0,0,0,.429-.511l3.066-9.708a11.7,11.7,0,0,0,7.862.02l3.033,9.709a.875.875,0,0,0,.833.612.861.861,0,0,0,.258-.04c.03-.009.057-.02.084-.031a.868.868,0,0,0,.489-1.061M6.759,10.518a3.854,3.854,0,0,1,.453-6.86,3.825,3.825,0,0,1,1.507-.307h.008a3.851,3.851,0,0,1,3.845,3.856h0a3.848,3.848,0,0,1-1.9,3.313L8.726,4.293Zm1.664.522.294-.929.291.93a3.267,3.267,0,0,1-.585,0M7.89,12.731a5.164,5.164,0,0,0,1.646,0l2.572,8.23a9.914,9.914,0,0,1-3.395.6H8.7a9.919,9.919,0,0,1-3.406-.608Z" fill="#717079"/>
    </g>
  </g>
</svg>
