<svg xmlns="http://www.w3.org/2000/svg" xmlns:xlink="http://www.w3.org/1999/xlink" width="29.824" height="29.857" viewBox="0 0 29.824 29.857">
  <defs>
    <clipPath id="clip-path">
      <path id="Bildschirmfoto_2022-03-26_um_10.41.44" data-name="Bildschirmfoto 2022-03-26 um 10.41.44" d="M14.912,0A14.912,14.912,0,1,1,0,14.912,14.912,14.912,0,0,1,14.912,0Z" transform="translate(-22 1.985)" fill="#da3f87"/>
    </clipPath>
    <clipPath id="clip-path-2">
      <rect id="Rechteck_324" data-name="Rechteck 324" width="22.167" height="30.545" fill="none" stroke="#fcfcfb" stroke-width="1"/>
    </clipPath>
  </defs>
  <g id="abteilung_pic" transform="translate(22 -1.985)" style="isolation: isolate">
    <path id="Bildschirmfoto_2022-03-26_um_10.41.44-2" data-name="Bildschirmfoto 2022-03-26 um 10.41.44" d="M14.912,0A14.912,14.912,0,1,1,0,14.912,14.912,14.912,0,0,1,14.912,0Z" transform="translate(-22 2.018)" fill="#da3f87"/>
    <g id="Gruppe_maskieren_390" data-name="Gruppe maskieren 390" clip-path="url(#clip-path)">
      <g id="Gruppe_439" data-name="Gruppe 439" transform="translate(-6.551 1.985) rotate(25)">
        <g id="Gruppe_438" data-name="Gruppe 438" transform="translate(0 0)">
          <g id="Gruppe_437" data-name="Gruppe 437" clip-path="url(#clip-path-2)">
            <path id="Pfad_736" data-name="Pfad 736" d="M21.745,5.882V31.533H1V5.882H6.538V7.41h9.67V5.882Z" transform="translate(-0.289 -1.699)" fill="none" stroke="#fcfcfb" stroke-linecap="round" stroke-linejoin="round" stroke-width="1"/>
            <path id="Pfad_737" data-name="Pfad 737" d="M18.457,2.888V6.017H8.788V2.888h2.983V1H15.4V2.888Z" transform="translate(-2.539 -0.289)" fill="none" stroke="#fcfcfb" stroke-linecap="round" stroke-linejoin="round" stroke-width="1"/>
          </g>
        </g>
        <path id="Pfad_738" data-name="Pfad 738" d="M5.6,16.341l1.2.836,1.345-2.325" transform="translate(-1.618 -4.29)" fill="none" stroke="#fcfcfb" stroke-linecap="round" stroke-linejoin="round" stroke-width="1"/>
        <line id="Linie_170" data-name="Linie 170" x2="8.517" transform="translate(8.909 11.724)" fill="none" stroke="#fcfcfb" stroke-linecap="round" stroke-linejoin="round" stroke-width="1"/>
        <path id="Pfad_739" data-name="Pfad 739" d="M5.6,24.983l1.2.836,1.345-2.325" transform="translate(-1.618 -6.787)" fill="none" stroke="#fcfcfb" stroke-linecap="round" stroke-linejoin="round" stroke-width="1"/>
        <line id="Linie_171" data-name="Linie 171" x2="8.517" transform="translate(8.909 17.869)" fill="none" stroke="#fcfcfb" stroke-linecap="round" stroke-linejoin="round" stroke-width="1"/>
        <path id="Pfad_740" data-name="Pfad 740" d="M5.6,33.625l1.2.836,1.345-2.325" transform="translate(-1.618 -9.284)" fill="none" stroke="#fcfcfb" stroke-linecap="round" stroke-linejoin="round" stroke-width="1"/>
        <line id="Linie_172" data-name="Linie 172" x2="8.517" transform="translate(8.909 24.014)" fill="none" stroke="#fcfcfb" stroke-linecap="round" stroke-linejoin="round" stroke-width="1"/>
      </g>
    </g>
  </g>
</svg>
