<svg xmlns="http://www.w3.org/2000/svg" xmlns:xlink="http://www.w3.org/1999/xlink" width="29.824" height="29.824" viewBox="0 0 29.824 29.824">
  <defs>
    <clipPath id="clip-path">
      <path id="Bildschirmfoto_2022-03-26_um_10.41.44" data-name="Bildschirmfoto 2022-03-26 um 10.41.44" d="M14.912,0A14.912,14.912,0,1,1,0,14.912,14.912,14.912,0,0,1,14.912,0Z" transform="translate(-22 2.018)" fill="#eb7a3d"/>
    </clipPath>
    <clipPath id="clip-path-2">
      <rect id="Rechteck_313" data-name="Rechteck 313" width="28.01" height="26.172" fill="none" stroke="#fcfcfb" stroke-width="1"/>
    </clipPath>
  </defs>
  <g id="abteilung_pic" transform="translate(22 -2.018)" style="isolation: isolate">
    <path id="Bildschirmfoto_2022-03-26_um_10.41.44-2" data-name="Bildschirmfoto 2022-03-26 um 10.41.44" d="M14.912,0A14.912,14.912,0,1,1,0,14.912,14.912,14.912,0,0,1,14.912,0Z" transform="translate(-22 2.018)" fill="#eb7a3d"/>
    <g id="Gruppe_maskieren_382" data-name="Gruppe maskieren 382" clip-path="url(#clip-path)">
      <g id="Gruppe_419" data-name="Gruppe 419" transform="translate(-25 7.108)">
        <g id="Gruppe_418" data-name="Gruppe 418" transform="translate(0 0)" clip-path="url(#clip-path-2)">
          <path id="Pfad_702" data-name="Pfad 702" d="M27.734,7.269a6.349,6.349,0,0,1-1.957,3.081,5.864,5.864,0,0,1-6.369,1.074l-7.7,6.764a5.864,5.864,0,0,1-1.888,6.177,6.333,6.333,0,0,1-3.3,1.537.191.191,0,0,1-.113-.358c.117-.084.24-.183.353-.281,1.917-1.683,1.615-3.916.182-5.547a3.612,3.612,0,0,0-4.772-.624,4.867,4.867,0,0,0-.817.7c-.148.158-.4.045-.34-.159a6.423,6.423,0,0,1,2.407-3.448,5.793,5.793,0,0,1,5.914-.7l7.7-6.764A5.8,5.8,0,0,1,18.5,2.939,6.411,6.411,0,0,1,22.222,1c.21-.032.295.228.113.358a4.9,4.9,0,0,0-.8.72,3.612,3.612,0,0,0,0,4.812c1.433,1.631,3.607,2.219,5.524.536.119-.1.226-.209.33-.319A.191.191,0,0,1,27.734,7.269Z" transform="translate(-0.366 -0.366)" fill="none" stroke="#fcfcfb" stroke-linecap="round" stroke-miterlimit="10" stroke-width="1"/>
        </g>
      </g>
    </g>
  </g>
</svg>
